<svg width="61" height="61" viewBox="0 0 61 61" fill="none" xmlns="http://www.w3.org/2000/svg">
<g id="Frame" clip-path="url(#clip0_271_1082)">
<g id="Group">
<path id="Vector" d="M61 28.6872C58.5835 28.6872 56.1671 28.6872 53.687 28.6872C53.1624 23.0102 50.9685 18.1124 46.9463 14.0892C42.9242 10.066 38.0435 7.83968 32.3203 7.31491C32.3203 4.86601 32.3203 2.433 32.3203 0C32.5588 0 32.7972 0 33.0357 0C34.1645 0.174922 35.3091 0.286236 36.4379 0.524765C48.552 2.94187 57.8999 12.1968 60.4118 24.2823C60.6662 25.5068 60.8092 26.7312 61 27.9716C61 28.2101 61 28.4486 61 28.6872Z" fill="#9575CD"/>
<path id="Vector_2" d="M61 32.9644C60.8092 34.173 60.6661 35.3974 60.4117 36.5901C57.8363 48.7869 48.5996 57.9464 36.4219 60.4112C35.0865 60.6816 33.7352 60.7929 32.3521 60.9837C32.3521 58.4553 32.3521 56.0541 32.3521 53.6052C38.0276 53.0804 42.9241 50.8541 46.9304 46.8309C50.9366 42.8236 53.1305 37.9417 53.6711 32.2329C56.1193 32.2329 58.5517 32.2329 60.9841 32.2329C61 32.5032 61 32.7259 61 32.9644Z" fill="#9575CD"/>
<path id="Vector_3" d="M28.7592 -0.000211298C28.7592 2.41689 28.7592 4.83399 28.7592 7.18748C16.3907 9.15933 9.26844 16.2834 7.26531 28.6552C4.96012 28.6552 2.54365 28.6552 0 28.6552C0.238468 27.0809 0.36565 25.5066 0.7313 23.9959C3.37034 13.0394 9.99974 5.59729 20.5241 1.63769C22.7816 0.794888 25.1345 0.33373 27.5351 0.0952006C27.7099 0.0792986 27.8848 0.0315927 28.0597 -0.0161133C28.2822 -0.000211298 28.5207 -0.000211298 28.7592 -0.000211298Z" fill="#9575CD"/>
<path id="Vector_4" d="M50.1736 30.4679C50.1736 41.2812 41.3185 50.1227 30.508 50.0909C19.7134 50.075 10.9219 41.2653 10.9219 30.4679C10.9219 19.6545 19.777 10.813 30.5875 10.8448C41.3662 10.8607 50.1736 19.6704 50.1736 30.4679ZM26.1679 34.1412C28.0915 33.3779 29.9516 32.6146 31.8275 31.899C32.2409 31.74 32.3363 31.5174 32.3363 31.1198C32.3204 28.2734 32.3363 25.411 32.3204 22.5646C32.3204 22.3897 32.3045 22.2147 32.2886 22.0398C31.0962 22.0398 29.9357 22.0398 28.7433 22.0398C28.7433 22.2942 28.7433 22.5169 28.7433 22.7236C28.7433 24.7272 28.7275 26.7309 28.7592 28.7186C28.7592 29.1162 28.6639 29.307 28.2664 29.4501C27.1218 29.8795 25.993 30.3406 24.8325 30.8177C25.2935 31.9467 25.7228 33.0281 26.1679 34.1412ZM23.2586 20.7517C22.3047 19.8135 21.3827 18.8753 20.5083 18.0166C19.7134 18.8276 18.8708 19.6545 18.1236 20.4019C18.998 21.2924 19.9359 22.2306 20.8421 23.137C21.6211 22.3737 22.4319 21.5627 23.2586 20.7517ZM40.6826 18.0325C39.7764 18.9548 38.8385 19.893 37.9959 20.7358C38.759 21.4991 39.5698 22.326 40.317 23.0734C41.1914 22.1988 42.1293 21.2606 43.0196 20.3701C42.2247 19.5909 41.398 18.764 40.6826 18.0325ZM18.0918 40.4861C18.9026 41.2971 19.7452 42.124 20.4765 42.8555C21.3509 41.9809 22.2888 41.0586 23.1473 40.1999C22.3683 39.4207 21.5575 38.6097 20.7467 37.8146C19.8724 38.6892 18.9662 39.6115 18.0918 40.4861ZM43.0037 40.5497C42.0975 39.6433 41.1755 38.721 40.2693 37.8146C39.4903 38.5938 38.6636 39.4207 37.8846 40.1999C38.7908 41.1063 39.7288 42.0286 40.619 42.935C41.398 42.1558 42.2247 41.3289 43.0037 40.5497ZM32.3045 14.4546C31.0962 14.4546 29.9675 14.4546 28.791 14.4546C28.791 15.8062 28.791 17.1102 28.791 18.446C29.9834 18.446 31.128 18.446 32.3045 18.446C32.3045 17.0943 32.3045 15.8062 32.3045 14.4546ZM18.521 28.7186C17.1856 28.7186 15.8661 28.7186 14.5307 28.7186C14.5307 29.9113 14.5307 31.0562 14.5307 32.2171C15.882 32.2171 17.2015 32.2171 18.521 32.2171C18.521 31.0403 18.521 29.8954 18.521 28.7186ZM42.5586 32.233C43.894 32.233 45.2135 32.233 46.5489 32.233C46.5489 31.0403 46.5489 29.8954 46.5489 28.7345C45.1976 28.7345 43.8781 28.7345 42.5586 28.7345C42.5586 29.9113 42.5586 31.0562 42.5586 32.233ZM32.3045 42.5057C31.1121 42.5057 29.9516 42.5057 28.8069 42.5057C28.8069 43.8573 28.8069 45.1772 28.8069 46.4971C29.9993 46.4971 31.128 46.4971 32.3045 46.4971C32.3045 45.1613 32.3045 43.8573 32.3045 42.5057Z" fill="#9575CD"/>
<path id="Vector_5" d="M28.7113 60.9202C13.3858 60.1251 0.858311 47.5307 0.0952148 32.3125C2.51169 32.3125 4.91226 32.3125 7.24924 32.3125C9.23647 44.6365 16.3428 51.7606 28.6954 53.7643C28.7113 56.0542 28.7113 58.4713 28.7113 60.9202Z" fill="#9575CD"/>
</g>
</g>
<defs>
<clipPath id="clip0_271_1082">
<rect width="61" height="61" fill="white"/>
</clipPath>
</defs>
</svg>
