<svg width="62" height="62" viewBox="0 0 62 62" fill="none" xmlns="http://www.w3.org/2000/svg">
<g id="Frame" clip-path="url(#clip0_271_1065)">
<g id="Group">
<path id="Vector" d="M0 57.1004C0.3 55.9004 0.6 54.6004 1 53.4004C1.6 51.7004 1.9 49.9004 0.9 48.3004C-1.7 39.7004 2.4 30.4004 10.7 26.8004C21.6 22.1004 34.1 28.5004 35.8 40.8004C37.2 50.4004 30.3 59.6004 20.7 61.0004C16 61.7004 11.7 60.6004 7.7 57.9004C7.4 57.7004 7 57.6004 6.6 57.6004C4.6 57.6004 2.6 57.6004 0.6 57.6004C0.4 57.6004 0.2 57.6004 0 57.6004C0 57.3004 0 57.2004 0 57.1004ZM9.1 44.8004C10.3 44.8004 11.5 44.8004 12.6 44.8004C12.6 43.6004 12.6 42.4004 12.6 41.3004C11.4 41.3004 10.3 41.3004 9.1 41.3004C9.1 42.5004 9.1 43.6004 9.1 44.8004ZM19.8 44.8004C19.8 43.6004 19.8 42.4004 19.8 41.3004C18.6 41.3004 17.5 41.3004 16.3 41.3004C16.3 42.5004 16.3 43.6004 16.3 44.8004C17.5 44.8004 18.6 44.8004 19.8 44.8004ZM27 41.3004C25.8 41.3004 24.6 41.3004 23.5 41.3004C23.5 42.5004 23.5 43.6004 23.5 44.8004C24.7 44.8004 25.9 44.8004 27 44.8004C27 43.6004 27 42.5004 27 41.3004Z" fill="#9575CD"/>
<path id="Vector_2" d="M0 3.70024C1.4 3.70024 2.8 3.60024 4.2 3.70024C6 3.80024 7.6 3.40024 9.2 2.40024C17.7 -2.49976 28.3 0.400238 33.3 8.70024C33.4 8.90024 33.5 9.10024 33.7 9.40024C28.3 12.2002 24.5 16.4002 22.6 22.2002C19.1 21.4002 15.6 21.5002 12.1 22.5002C8.6 23.5002 5.6 25.2002 3 27.8002C2 26.2002 1.2 24.6002 0.7 22.9002C0.4 21.8002 0.2 20.6002 0 19.5002C0 18.6002 0 17.7002 0 16.9002C0.3 15.6002 0.4 14.1002 0.9 12.9002C1.7 11.0002 1.6 9.50024 1.1 7.80024C0.6 6.50024 0.4 5.20024 0 3.90024C0 3.80024 0 3.70024 0 3.70024Z" fill="#9575CD"/>
<path id="Vector_3" d="M61.2001 43.1002C60.9001 43.1002 60.7001 43.1002 60.5001 43.1002C58.5001 43.1002 56.5001 43.1002 54.5001 43.1002C54.1001 43.1002 53.7001 43.2002 53.4001 43.4002C49.1001 46.3002 44.4001 47.2002 39.4001 46.2002C40.2001 35.5002 35.9001 27.8002 26.1001 23.1002C26.2001 22.8002 26.3001 22.5002 26.5001 22.1002C28.6001 17.4002 31.8001 13.7002 36.8001 11.9002C47.9001 7.90024 59.3001 15.1002 61.0001 26.0002C61.5001 29.3002 61.0001 32.5002 59.7001 35.5002C59.5001 35.9002 59.5001 36.3002 59.6001 36.8002C60.2001 38.8002 60.7001 40.9002 61.2001 43.1002ZM48.5001 26.9002C48.5001 25.7002 48.5001 24.5002 48.5001 23.4002C44.9001 23.4002 41.4001 23.4002 37.8001 23.4002C37.8001 24.6002 37.8001 25.7002 37.8001 26.9002C41.4001 26.9002 44.9001 26.9002 48.5001 26.9002ZM37.8001 34.0002C41.4001 34.0002 45.0001 34.0002 48.5001 34.0002C48.5001 32.8002 48.5001 31.7002 48.5001 30.5002C44.9001 30.5002 41.4001 30.5002 37.8001 30.5002C37.8001 31.7002 37.8001 32.9002 37.8001 34.0002Z" fill="#9575CD"/>
</g>
</g>
<defs>
<clipPath id="clip0_271_1065">
<rect width="61.2" height="61.1" fill="white"/>
</clipPath>
</defs>
</svg>
