<svg width="126" height="124" viewBox="0 0 126 124" fill="none" xmlns="http://www.w3.org/2000/svg">
<path d="M11.5974 32.9624C10.5079 31.4279 9.98097 29.569 10.1046 27.6956V26.8745H14.6235V27.6556C14.5797 28.545 14.7312 29.4333 15.0673 30.2589C15.2119 30.5198 15.4304 30.7328 15.6957 30.8716C15.9611 31.0105 16.2616 31.069 16.5601 31.0399C16.8586 31.0713 17.1596 31.0114 17.4228 30.8682C17.686 30.725 17.8988 30.5055 18.0328 30.2389C18.3084 29.3999 18.418 28.5159 18.3556 27.6355C18.4117 26.662 18.2173 25.6903 17.7907 24.8119C17.568 24.4923 17.264 24.2369 16.9097 24.0716C16.5554 23.9063 16.1634 23.837 15.7734 23.8707C15.4982 23.8471 15.2214 23.8471 14.9462 23.8707V20.5264H15.6927C16.0846 20.5711 16.4816 20.5217 16.8502 20.3823C17.2189 20.2429 17.5483 20.0176 17.8109 19.7253C18.2485 18.9014 18.4376 17.9697 18.3556 17.0419C18.4044 16.2644 18.2589 15.4871 17.9319 14.7789C17.7758 14.5345 17.5574 14.3354 17.2987 14.2018C17.0401 14.0681 16.7505 14.0047 16.4593 14.018C16.1713 13.986 15.8804 14.0441 15.6273 14.1841C15.3741 14.3241 15.1713 14.5391 15.0471 14.799C14.741 15.5416 14.5966 16.3401 14.6235 17.142V18.2234H10.1046V16.9417C10.0467 16.0749 10.1632 15.2053 10.4472 14.3836C10.7312 13.5619 11.1771 12.8045 11.7588 12.1556C12.3844 11.5705 13.1245 11.1193 13.9331 10.8299C14.7416 10.5406 15.6015 10.4192 16.4593 10.4734C18.1893 10.3418 19.9013 10.8963 21.2202 12.0154C21.8042 12.6475 22.2535 13.3901 22.5412 14.1988C22.829 15.0075 22.9492 15.8655 22.8947 16.7214C22.9398 17.9216 22.6388 19.1096 22.0272 20.1459C21.8124 20.5869 21.5107 20.9808 21.14 21.3041C20.7692 21.6274 20.3369 21.8737 19.8686 22.0283C21.886 22.7693 22.8947 24.6317 22.8947 27.5955C22.9992 29.5039 22.4597 31.3925 21.3615 32.9624C20.765 33.65 20.0145 34.1894 19.1702 34.5371C18.3259 34.8849 17.4113 35.0314 16.4996 34.965C15.5817 35.0347 14.6601 34.8898 13.8088 34.542C12.9574 34.1942 12.2001 33.6532 11.5974 32.9624Z" fill="white"/>
<path d="M33.4858 19.1246C33.0678 18.4311 32.8709 17.6283 32.9209 16.8217V13.7978C32.8686 12.9756 33.0729 12.1574 33.506 11.4547C33.7561 11.1755 34.0693 10.9591 34.42 10.8234C34.7707 10.6876 35.1488 10.6363 35.5233 10.6737C35.888 10.6259 36.2589 10.6605 36.6082 10.7749C36.9576 10.8893 37.2763 11.0807 37.5407 11.3346C37.9753 11.9089 38.1834 12.6211 38.1257 13.3372V13.8178H36.5119V13.2571C36.5367 12.9973 36.5367 12.7358 36.5119 12.4761C36.4889 12.3748 36.4422 12.2803 36.3756 12.2003C36.309 12.1203 36.2244 12.057 36.1286 12.0155C35.962 11.8885 35.7521 11.8311 35.5435 11.8553C35.4341 11.8435 35.3234 11.8554 35.2189 11.8899C35.1145 11.9245 35.0188 11.981 34.9383 12.0555C34.7981 12.2003 34.7004 12.3803 34.6559 12.5762C34.631 12.8426 34.631 13.1108 34.6559 13.3772V17.1821C34.6346 17.5814 34.7107 17.9798 34.8778 18.3436C34.9567 18.4721 35.0704 18.576 35.206 18.6433C35.3416 18.7106 35.4935 18.7386 35.6444 18.7241C35.8027 18.7388 35.9618 18.7066 36.1018 18.6318C36.2417 18.557 36.3563 18.4428 36.4312 18.3036C36.5993 17.926 36.6754 17.5143 36.6531 17.102V16.2609H35.6847V15.2196H38.1459V19.8055H37.0767L36.9557 18.9244C36.846 19.235 36.6365 19.5012 36.3595 19.6821C36.0825 19.863 35.7533 19.9486 35.4225 19.9257C35.0574 19.9706 34.6868 19.9204 34.3472 19.7799C34.0076 19.6394 33.7108 19.4136 33.4858 19.1246Z" fill="white"/>
<path d="M39.7598 19.1846C39.3146 18.5387 39.1014 17.7627 39.1546 16.9818V13.5774C39.1012 12.8027 39.3146 12.033 39.7598 11.3946C40.022 11.1346 40.3388 10.9353 40.6874 10.8107C41.0361 10.6861 41.4082 10.6393 41.7772 10.6736C42.1464 10.635 42.5197 10.6797 42.8691 10.8046C43.2184 10.9294 43.5348 11.1311 43.7945 11.3946C44.2397 12.033 44.4531 12.8027 44.3997 13.5774V16.9818C44.4531 17.7565 44.2397 18.5262 43.7945 19.1646C43.5434 19.4415 43.2294 19.655 42.8786 19.7874C42.5277 19.9197 42.1501 19.9671 41.7772 19.9256C41.4063 19.9617 41.0321 19.9138 40.6826 19.7855C40.3332 19.6571 40.0176 19.4517 39.7598 19.1846ZM42.5639 18.3636C42.7172 18.0527 42.7867 17.7077 42.7657 17.3623V13.1969C42.7832 12.8581 42.7138 12.5205 42.5639 12.2156C42.4849 12.0944 42.3727 11.9981 42.2405 11.9378C42.1084 11.8775 41.9616 11.8558 41.8175 11.8752C41.6707 11.8588 41.5222 11.8818 41.3874 11.9417C41.2526 12.0015 41.1364 12.0961 41.0509 12.2156C40.9134 12.524 40.8512 12.8602 40.8693 13.1969V17.3623C40.8496 17.7056 40.9118 18.0487 41.0509 18.3636C41.1324 18.4884 41.2472 18.5882 41.3826 18.6519C41.518 18.7155 41.6686 18.7405 41.8175 18.724C41.9641 18.7469 42.1143 18.7245 42.2477 18.6601C42.3812 18.5956 42.4915 18.4922 42.5639 18.3636Z" fill="white"/>
<path d="M46.0338 19.1846C45.5886 18.5387 45.3754 17.7627 45.4286 16.9818V13.5774C45.3752 12.8027 45.5886 12.033 46.0338 11.3946C46.296 11.1346 46.6128 10.9353 46.9615 10.8107C47.3101 10.6861 47.6822 10.6393 48.0512 10.6736C48.4204 10.635 48.7937 10.6797 49.1431 10.8046C49.4925 10.9294 49.8088 11.1311 50.0685 11.3946C50.4995 12.0381 50.6986 12.8074 50.6334 13.5774V16.9818C50.6868 17.7565 50.4734 18.5262 50.0282 19.1646C49.7771 19.4415 49.4631 19.655 49.1123 19.7874C48.7614 19.9197 48.3838 19.9671 48.0108 19.9256C47.6465 19.9556 47.2801 19.9046 46.9381 19.7765C46.5962 19.6483 46.2872 19.4461 46.0338 19.1846ZM48.7976 18.3636C48.9509 18.0527 49.0204 17.7077 48.9993 17.3623V13.1969C49.0232 12.8598 48.9607 12.5223 48.8178 12.2156C48.7387 12.0944 48.6265 11.9981 48.4944 11.9378C48.3622 11.8775 48.2155 11.8558 48.0713 11.8752C47.9246 11.8588 47.7761 11.8818 47.6413 11.9417C47.5065 12.0015 47.3903 12.0961 47.3047 12.2156C47.1673 12.524 47.1051 12.8602 47.1232 13.1969V17.3623C47.1034 17.7056 47.1656 18.0487 47.3047 18.3636C47.3862 18.4884 47.5011 18.5882 47.6365 18.6519C47.7719 18.7155 47.9225 18.7405 48.0713 18.724C48.2148 18.7426 48.3606 18.7182 48.49 18.654C48.6194 18.5897 48.7265 18.4886 48.7976 18.3636Z" fill="white"/>
<path d="M51.8438 10.7738H54.0024C54.5937 10.7531 55.1832 10.8483 55.7374 11.0541C56.1665 11.2411 56.5063 11.5855 56.6855 12.0154C56.8822 12.526 56.9714 13.0712 56.9478 13.6174V16.8817C56.9692 17.4473 56.8802 18.0117 56.6855 18.5438C56.52 18.9576 56.2029 19.2938 55.7979 19.485C55.2745 19.726 54.6996 19.836 54.1235 19.8054H51.8438V10.7738ZM54.0226 18.664C54.3065 18.6874 54.5902 18.617 54.8295 18.4637C54.9781 18.3555 55.0849 18.2 55.1321 18.0231C55.1594 17.6832 55.1594 17.3417 55.1321 17.0018V13.4773C55.1595 13.1708 55.1595 12.8625 55.1321 12.5561C55.1192 12.4463 55.0817 12.3407 55.0224 12.2471C54.9631 12.1536 54.8834 12.0744 54.7892 12.0154C54.5314 11.9474 54.2602 11.9474 54.0024 12.0154H53.4981V18.664H54.0226Z" fill="white"/>
<path d="M60.7202 10.7739H62.3745V14.5388H64.2304V10.7739H65.8847V19.8056H64.2304V15.8004H62.3745V19.8056H60.7202V10.7739Z" fill="white"/>
<path d="M67.2767 10.7739H71.0895V12.0155H68.9107V14.6189H70.6255V15.7604H68.9107V18.7642H71.1097V19.8857H67.2767V10.7739Z" fill="white"/>
<path d="M73.3893 10.7739H75.1645L76.9802 19.8056H75.447L75.0838 17.803H73.4901L73.127 19.8056H71.5535L73.3893 10.7739ZM74.9023 16.7817L74.2769 12.9768L73.6717 16.7817H74.9023Z" fill="white"/>
<path d="M77.8275 10.7739H79.4817V18.7843H81.7008V19.9057H77.8275V10.7739Z" fill="white"/>
<path d="M83.1735 12.0155H81.6604V10.814H86.3206V12.0155H84.9286V19.8056H83.2743L83.1735 12.0155Z" fill="white"/>
<path d="M86.9459 10.7739H88.6002V14.5388H90.4561V10.7739H92.1104V19.8056H90.4561V15.8004H88.6002V19.8056H86.9459V10.7739Z" fill="white"/>
<path d="M34.4945 25.5327H36.2698L38.0854 34.5844H36.5119L36.1488 32.4817H34.4945L34.1112 34.5844H32.5578L34.4945 25.5327ZM36.0075 31.4403L35.4023 27.6354L34.7769 31.4403H36.0075Z" fill="white"/>
<path d="M38.8923 25.5327H40.0422L42.2613 30.6994V25.5327H43.6332V34.5844H42.5639L40.3448 29.1774V34.5844H38.9327L38.8923 25.5327Z" fill="white"/>
<path d="M44.9646 25.5328H47.103C47.6966 25.5049 48.289 25.6075 48.838 25.8332C49.2403 26.008 49.5585 26.3311 49.7256 26.7344C49.925 27.2513 50.0143 27.8036 49.9878 28.3565V31.6407C50.0109 32.2064 49.9218 32.7712 49.7256 33.3028C49.5626 33.7166 49.2546 34.058 48.8581 34.2641C48.3305 34.4918 47.7588 34.6012 47.1837 34.5845H44.9646V25.5328ZM47.1232 33.423C47.4043 33.4442 47.6853 33.3814 47.9301 33.2428C48.095 33.1059 48.2028 32.9133 48.2327 32.7021C48.2725 32.3695 48.2725 32.0334 48.2327 31.7008V28.2363C48.2711 27.9304 48.2711 27.621 48.2327 27.3151C48.2103 27.2191 48.1683 27.1288 48.1093 27.0495C48.0503 26.9703 47.9756 26.904 47.8898 26.8545C47.6443 26.7405 47.3731 26.6921 47.103 26.7143H46.5987V33.423H47.1232Z" fill="white"/>
<path d="M53.5182 25.5327H54.8901L55.6567 31.4003L56.6855 25.5527H57.7951L58.7029 31.4003L59.4493 25.5327H60.8211L59.5502 34.5844H58.1985L57.1899 28.5766L56.1812 34.5844H54.7892L53.5182 25.5327Z" fill="white"/>
<path d="M61.8096 25.5327H65.6224V26.6942H63.4638V29.2976H65.1584V30.439H63.4638V33.4429H65.6426V34.5844H61.8096V25.5327Z" fill="white"/>
<path d="M66.5504 25.5327H68.2046V33.4429H70.4237V34.5844H66.5504V25.5327Z" fill="white"/>
<path d="M71.2307 25.5327H72.8244V33.4429H75.0435V34.5844H71.2307V25.5327Z" fill="white"/>
<path d="M75.8706 30.3992H78.5739V31.4405H75.8706V30.3992Z" fill="white"/>
<path d="M79.8448 25.5328H82.1042C82.8165 25.477 83.5269 25.6603 84.1216 26.0534C84.3738 26.2644 84.57 26.5336 84.6931 26.8373C84.8162 27.141 84.8624 27.4701 84.8277 27.7957C84.8277 28.9371 84.3839 29.578 83.5164 29.7983C84.5654 29.9985 85.09 30.7395 85.09 32.0211C85.1249 32.3809 85.0856 32.744 84.9747 33.0883C84.8637 33.4326 84.6833 33.7509 84.4444 34.0237C84.1932 34.2616 83.8949 34.445 83.5684 34.5622C83.2419 34.6795 82.8944 34.7279 82.5481 34.7046H79.8448V25.5328ZM82.0841 29.2375C82.2592 29.256 82.4362 29.237 82.6033 29.1817C82.7703 29.1264 82.9235 29.0362 83.0524 28.9171C83.2563 28.6096 83.3488 28.2424 83.3147 27.8758C83.3399 27.703 83.3218 27.5267 83.262 27.3625C83.2022 27.1983 83.1025 27.0513 82.9717 26.9346C82.6268 26.7468 82.2341 26.6633 81.842 26.6943H81.499V29.2375H82.0841ZM82.0841 33.4229C82.2688 33.4438 82.4559 33.4221 82.6308 33.3596C82.8057 33.2971 82.9638 33.1954 83.0928 33.0625C83.3084 32.7296 83.4076 32.3355 83.3752 31.941C83.4048 31.5188 83.2988 31.0982 83.0726 30.7395C82.9351 30.6055 82.7704 30.5023 82.5895 30.4366C82.4086 30.371 82.2156 30.3445 82.0236 30.359H81.499V33.4229H82.0841Z" fill="white"/>
<path d="M86.0583 25.5327H89.8711V26.6942H87.7125V29.2976H89.4273V30.439H87.7125V33.4429H89.8913V34.5844H86.0583V25.5327Z" fill="white"/>
<path d="M90.8596 25.5327H92.4937V34.5844H90.8596V25.5327Z" fill="white"/>
<path d="M93.8453 25.5327H95.0154L97.2143 30.6994V25.5327H98.5861V34.5844H97.4968L95.2575 29.1774V34.5844H93.8453V25.5327Z" fill="white"/>
<path d="M100.341 33.9036C99.9232 33.2101 99.7263 32.4073 99.7764 31.6006V28.5567C99.724 27.7345 99.9283 26.9164 100.361 26.2137C100.609 25.9318 100.922 25.7136 101.274 25.5776C101.625 25.4416 102.004 25.3919 102.379 25.4327C102.744 25.3833 103.115 25.4172 103.464 25.5317C103.814 25.6462 104.133 25.8384 104.396 26.0935C104.838 26.6643 105.047 27.3793 104.981 28.0961V28.5567H103.408V28.036C103.432 27.7763 103.432 27.5148 103.408 27.255C103.37 27.0842 103.278 26.9298 103.145 26.8144C102.973 26.7002 102.768 26.644 102.56 26.6542C102.334 26.643 102.112 26.7143 101.935 26.8545C101.797 26.9984 101.706 27.1797 101.673 27.3752C101.647 27.6483 101.647 27.9231 101.673 28.1962V32.0412C101.648 32.4322 101.717 32.8233 101.874 33.1827C101.955 33.3145 102.072 33.4205 102.211 33.488C102.351 33.5555 102.507 33.5816 102.661 33.5632C102.817 33.5748 102.973 33.5435 103.111 33.4729C103.25 33.4022 103.367 33.2948 103.448 33.1626C103.615 32.7846 103.691 32.3733 103.67 31.9611V31.1H102.681V30.0386H105.163V34.6245H104.073L103.972 33.7434C103.853 34.0519 103.639 34.315 103.36 34.4949C103.081 34.6748 102.751 34.7623 102.419 34.7447C102.028 34.8094 101.627 34.765 101.26 34.6164C100.893 34.4679 100.575 34.2211 100.341 33.9036Z" fill="white"/>
<path d="M104.82 77.5801C104.886 76.7818 104.787 75.9785 104.529 75.2196C104.27 74.4608 103.858 73.7625 103.318 73.1678C102.777 72.573 102.12 72.0945 101.386 71.7615C100.652 71.4286 99.8569 71.2484 99.0501 71.2319C97.3354 71.2319 95.2776 73.0943 94.1479 74.2358C93.0182 73.0943 91.0815 71.2319 89.3668 71.2319C88.5611 71.26 87.7693 71.4475 87.0377 71.7835C86.306 72.1194 85.6494 72.5971 85.1063 73.1885C84.5632 73.7798 84.1446 74.4729 83.875 75.2271C83.6055 75.9812 83.4904 76.7812 83.5366 77.5801C83.5308 79.2529 84.1821 80.8621 85.3522 82.0659L94.1479 90.8172L103.085 82.106C104.233 80.8784 104.856 79.2552 104.82 77.5801Z" fill="white"/>
<path d="M67.3574 105.096C67.0281 105.077 66.715 104.948 66.4693 104.73C66.2237 104.512 66.0602 104.217 66.0057 103.894L61.4667 78.1007L54.6682 90.5168C54.5276 90.7734 54.3108 90.9809 54.0472 91.1109C53.7837 91.2409 53.4862 91.2872 53.1952 91.2434C52.9042 91.1996 52.6339 91.0679 52.421 90.8663C52.2081 90.6646 52.0629 90.4027 52.0052 90.1162L49.1204 70.0904L43.8551 81.8055C43.7449 82.0603 43.5621 82.2776 43.3291 82.4306C43.0961 82.5836 42.8232 82.6657 42.5438 82.6666H22.1079C21.7547 82.6251 21.4292 82.4564 21.193 82.1925C20.9568 81.9286 20.8263 81.5878 20.8263 81.2348C20.8263 80.8817 20.9568 80.541 21.193 80.2771C21.4292 80.0132 21.7547 79.8445 22.1079 79.8029H41.6158L48.6161 64.403C48.7418 64.1142 48.9606 63.8749 49.238 63.7227C49.5155 63.5705 49.836 63.514 50.1493 63.562C50.4598 63.6064 50.7474 63.7494 50.9693 63.9695C51.1911 64.1897 51.3351 64.4753 51.3799 64.7835L54.3454 85.3301L61.0027 73.0542C61.148 72.7917 61.3711 72.5799 61.6417 72.4473C61.9123 72.3148 62.2174 72.268 62.5157 72.3133C62.8115 72.3591 63.0854 72.4958 63.2989 72.7041C63.5123 72.9125 63.6547 73.182 63.7059 73.4748L67.7407 97.5058L82.9112 47.6815C82.9953 47.4043 83.1615 47.1586 83.3882 46.9764C83.6149 46.7943 83.8915 46.6841 84.1822 46.6602C84.4708 46.6413 84.7586 46.7071 85.0098 46.8496C85.2609 46.9921 85.4642 47.2048 85.5943 47.4612L93.5226 63.8023C93.6154 63.9763 93.6718 64.1672 93.6885 64.3635C93.7052 64.5598 93.6817 64.7573 93.6195 64.9444C93.5573 65.1314 93.4577 65.304 93.3267 65.4519C93.1956 65.5998 93.0358 65.7198 92.8568 65.8049C92.6809 65.8993 92.4871 65.9567 92.2878 65.9733C92.0885 65.99 91.8878 65.9656 91.6984 65.9017C91.509 65.8377 91.3349 65.7357 91.1871 65.6018C91.0393 65.468 90.921 65.3053 90.8395 65.124L84.5251 52.0671L68.7897 104.134C68.6809 104.422 68.4846 104.669 68.228 104.842C67.9713 105.014 67.6671 105.103 67.3574 105.096Z" fill="white"/>
</svg>
