<svg width="97" height="102" viewBox="0 0 97 102" fill="none" xmlns="http://www.w3.org/2000/svg">
<path d="M4.10125 5.68264C3.87961 5.68264 3.25499 6.04533 2.22739 6.40801C1.19979 6.77069 0.877401 6.87144 0.655762 6.97218V3.58715C1.49615 3.25043 2.31097 2.85312 3.09379 2.39835C3.83091 2.02117 4.50958 1.53932 5.1087 0.967773H8.67507V24.8041H4.10125V5.68264Z" fill="white"/>
<path d="M12.7452 23.0109C11.6207 21.3291 11.0694 19.3291 11.1736 17.3087V8.82597C11.0444 6.71667 11.5347 4.61562 12.584 2.78127C13.165 2.03431 13.927 1.44798 14.7979 1.07776C15.6688 0.707542 16.6198 0.565686 17.5608 0.665618C18.3893 0.587713 19.225 0.681722 20.0155 0.941756C20.806 1.20179 21.5343 1.62225 22.1548 2.17679C23.2007 3.44663 23.7199 5.06918 23.6055 6.71033V7.11331H19.2936C19.3457 6.32701 19.236 5.53838 18.9712 4.79617C18.8233 4.56616 18.6099 4.38568 18.3586 4.27796C18.1072 4.17023 17.8294 4.14019 17.5608 4.1917C17.3515 4.17559 17.1412 4.2071 16.9458 4.28387C16.7503 4.36065 16.5748 4.48068 16.4324 4.63498C16.0956 5.05443 15.8983 5.56872 15.8683 6.10585C15.737 7.06714 15.6831 8.03741 15.7071 9.00732V11.4252C15.9962 10.9646 16.4277 10.6108 16.9362 10.4177C17.5708 10.1413 18.2593 10.0104 18.9511 10.0349C19.696 9.97842 20.4427 10.1202 21.1151 10.4458C21.7875 10.7714 22.3617 11.2692 22.7794 11.8886C23.6528 13.4107 24.0658 15.1536 23.9682 16.9057C24.0838 19.0215 23.5721 21.1243 22.4973 22.9504C21.9293 23.7052 21.1772 24.3015 20.313 24.6825C19.4487 25.0635 18.5011 25.2164 17.5608 25.1265C16.6464 25.1933 15.7296 25.0354 14.8903 24.6667C14.0509 24.2979 13.3145 23.7295 12.7452 23.0109ZM19.0518 20.7542C19.3415 19.7398 19.464 18.6849 19.4145 17.6311C19.4145 16.6236 19.4145 15.858 19.4145 15.2938C19.3847 14.816 19.2089 14.3588 18.9108 13.9841C18.765 13.8087 18.5789 13.6712 18.3683 13.5834C18.1578 13.4957 17.9291 13.4603 17.7018 13.4804C17.3079 13.47 16.9205 13.5827 16.5936 13.8028C16.2916 13.9997 16.0369 14.2612 15.8481 14.5684V18.296C15.8481 20.5527 16.4727 21.6811 17.722 21.6811C18.0121 21.6821 18.2954 21.5936 18.5334 21.4277C18.7713 21.2619 18.9524 21.0267 19.0518 20.7542Z" fill="white"/>
<path d="M33.3576 10.055V0.947602H36.0374C36.4997 0.92819 36.9588 1.03253 37.3673 1.24984C37.714 1.46497 37.977 1.79192 38.1128 2.17669C38.2847 2.61953 38.3668 3.09211 38.3546 3.56697C38.3775 4.06828 38.2735 4.56726 38.0523 5.0177C37.8658 5.36674 37.568 5.64335 37.2061 5.80352C36.798 5.97392 36.3586 6.05631 35.9165 6.0453H35.0098V10.0751L33.3576 10.055ZM35.0098 4.83636H35.6949C35.9293 4.84641 36.1631 4.80515 36.38 4.71547C36.4667 4.67429 36.5438 4.61534 36.6063 4.54245C36.6688 4.46956 36.7152 4.38434 36.7427 4.29234C36.8154 4.04382 36.8494 3.78556 36.8434 3.52668C36.8703 3.2587 36.8703 2.98869 36.8434 2.72072C36.8167 2.60189 36.7628 2.49089 36.6859 2.39647C36.6089 2.30206 36.5111 2.22682 36.4001 2.17669C36.1687 2.11784 35.9263 2.11784 35.6949 2.17669H35.0501L35.0098 4.83636Z" fill="white"/>
<path d="M39.0195 10.0551V0.947754H42.8277V2.17684H40.6717V4.79622H42.3844V5.96486H40.6717V8.90662H42.868V10.0551H39.0195Z" fill="white"/>
<path d="M43.1501 10.0551L44.9635 0.947754H46.7366L48.5701 10.0551H47.0187L46.656 8.04021H45.0844L44.7015 10.0551H43.1501ZM45.165 6.89172H46.394L45.7896 3.0634L45.165 6.89172Z" fill="white"/>
<path d="M51.6126 10.2364C51.0601 10.2638 50.5122 10.1233 50.041 9.83345C49.6649 9.57299 49.3824 9.19865 49.235 8.76555C49.0839 8.25552 49.0092 7.72588 49.0134 7.19393V3.88949C49.0064 3.34413 49.0811 2.80079 49.235 2.27756C49.3742 1.84019 49.6586 1.46345 50.041 1.20967C50.5205 0.943695 51.0651 0.818011 51.6126 0.846984C52.1231 0.818157 52.6318 0.929648 53.0835 1.16937C53.4451 1.40459 53.7098 1.76227 53.829 2.17682C53.9808 2.62443 54.0557 3.09449 54.0507 3.5671V4.19172H52.4589V3.44621C52.4589 3.18427 52.4589 2.96263 52.4589 2.74099C52.4364 2.53301 52.3522 2.33652 52.2171 2.17682C52.0361 2.05294 51.8219 1.98665 51.6025 1.98665C51.3832 1.98665 51.169 2.05294 50.988 2.17682C50.8525 2.32046 50.7676 2.5044 50.7462 2.70069C50.7246 2.94873 50.7246 3.19817 50.7462 3.44621V7.47601C50.7112 7.75027 50.7112 8.02786 50.7462 8.30212C50.7827 8.49065 50.8821 8.66118 51.0283 8.7857C51.1946 8.8978 51.3921 8.95424 51.5925 8.94689C51.7015 8.95499 51.8112 8.94136 51.9149 8.90677C52.0187 8.87218 52.1145 8.81733 52.1969 8.7454C52.3186 8.59511 52.3955 8.41353 52.4186 8.22153C52.4404 7.98023 52.4404 7.73746 52.4186 7.49616V6.6902H54.0104V7.41557C54.0169 7.90146 53.9419 8.385 53.7887 8.84615C53.6621 9.25168 53.3986 9.60065 53.0432 9.83345C52.6162 10.1052 52.1187 10.2454 51.6126 10.2364Z" fill="white"/>
<path d="M54.9977 10.0551V0.947754H58.826V2.17684H56.67V4.79622H58.3625V5.96486H56.67V8.90662H58.8461V10.0551H54.9977Z" fill="white"/>
<path d="M59.6118 11.5864L59.4707 11.0223C59.6616 10.9661 59.835 10.862 59.9745 10.72C60.1272 10.533 60.206 10.2964 60.1961 10.0551H59.3901V8.54395H60.8812V9.93423C60.9065 10.3362 60.7927 10.7347 60.5588 11.0626C60.3186 11.3481 59.9813 11.5347 59.6118 11.5864Z" fill="white"/>
<path d="M63.702 10.2365V9.10811C63.9029 9.13108 64.1057 9.13108 64.3065 9.10811C64.4421 9.09673 64.5699 9.03993 64.6692 8.94691C64.7573 8.84967 64.8196 8.73191 64.8505 8.60438C64.8746 8.40361 64.8746 8.20068 64.8505 7.99991V0.947754H66.5028V8.04021C66.5137 8.4705 66.4524 8.89959 66.3214 9.3096C66.2131 9.62708 65.9904 9.89284 65.6968 10.0551C65.3063 10.2364 64.8775 10.3194 64.4476 10.2969L63.702 10.2365Z" fill="white"/>
<path d="M70.2303 10.2365C69.6742 10.262 69.1222 10.1293 68.6386 9.85362C68.29 9.57855 68.0421 9.19605 67.9333 8.76557C67.7783 8.22879 67.7037 7.67201 67.7117 7.11335V0.947754H69.3438V7.31484C69.3438 7.59693 69.3438 7.85887 69.3438 8.10066C69.3744 8.33204 69.4725 8.54928 69.6259 8.72528C69.8022 8.8693 70.0228 8.94798 70.2505 8.94798C70.4781 8.94798 70.6988 8.8693 70.8751 8.72528C71.0211 8.54687 71.1121 8.32986 71.137 8.10066C71.1585 7.83916 71.1585 7.57634 71.137 7.31484V0.947754H72.749V7.11335C72.757 7.67201 72.6823 8.22879 72.5273 8.76557C72.3946 9.1897 72.1254 9.55807 71.7617 9.81332C71.3014 10.0961 70.7705 10.2428 70.2303 10.2365Z" fill="white"/>
<path d="M76.1743 10.2365C75.6912 10.2465 75.2134 10.1357 74.784 9.91416C74.4156 9.68093 74.1328 9.33449 73.978 8.92686C73.7871 8.44461 73.6782 7.93385 73.6556 7.41568L75.0862 7.13359C75.097 7.44698 75.1444 7.75803 75.2273 8.06045C75.2758 8.29414 75.3873 8.51012 75.5497 8.68507C75.6274 8.75905 75.7191 8.81677 75.8195 8.85483C75.9198 8.89289 76.0267 8.91052 76.134 8.9067C76.2409 8.91838 76.349 8.90225 76.4478 8.85989C76.5467 8.81753 76.6329 8.75037 76.6981 8.66492C76.826 8.48249 76.8898 8.26283 76.8795 8.0403C76.8912 7.69605 76.7923 7.35711 76.5974 7.07315C76.3938 6.78431 76.1495 6.52642 75.872 6.30748L74.7235 5.30003C74.4258 5.02641 74.1741 4.70665 73.978 4.35303C73.7788 3.96756 73.6817 3.53746 73.6959 3.10379C73.6733 2.79647 73.7173 2.48789 73.8251 2.19921C73.933 1.91054 74.102 1.64861 74.3206 1.43142C74.7879 1.03892 75.3828 0.831072 75.9929 0.847097C76.3596 0.831644 76.725 0.900577 77.0608 1.04859C77.3339 1.16508 77.5706 1.35301 77.7459 1.59261C77.9142 1.82992 78.0372 2.09635 78.1086 2.37842C78.1948 2.68769 78.2489 3.00504 78.2698 3.32543L76.8593 3.56721C76.8731 3.31218 76.8731 3.05659 76.8593 2.80155C76.827 2.60445 76.7357 2.42179 76.5974 2.27768C76.5095 2.21901 76.4102 2.17969 76.306 2.16232C76.2018 2.14496 76.0951 2.14994 75.9929 2.17693C75.8866 2.17058 75.7802 2.18913 75.6823 2.23111C75.5843 2.27308 75.4975 2.33732 75.4288 2.41872C75.289 2.58828 75.2172 2.80369 75.2273 3.02319C75.2111 3.29337 75.2817 3.56164 75.4288 3.78885C75.5753 4.01915 75.7591 4.22344 75.9728 4.39332L77.1011 5.40078C77.4513 5.69013 77.7568 6.02961 78.0078 6.40823C78.2825 6.87102 78.4221 7.40149 78.4108 7.93955C78.4158 8.34654 78.3188 8.7483 78.1287 9.10819C77.9402 9.44138 77.6606 9.71396 77.3228 9.89401C76.9766 10.1069 76.5805 10.2251 76.1743 10.2365Z" fill="white"/>
<path d="M80.1235 10.0551V2.17684H78.6728V0.947754H83.2063V2.17684H81.7757V10.0551H80.1235Z" fill="white"/>
<path d="M83.8712 10.0551V0.947754H85.5033V10.0551H83.8712Z" fill="white"/>
<path d="M89.1503 10.2363C88.5972 10.2689 88.0478 10.128 87.5787 9.83331C87.2026 9.57284 86.92 9.1985 86.7727 8.76541C86.6215 8.25537 86.5468 7.72573 86.5511 7.19378V3.88934C86.544 3.34398 86.6187 2.80065 86.7727 2.27742C86.9119 1.84005 87.1962 1.4633 87.5787 1.20952C88.0565 0.939336 88.6024 0.813365 89.1503 0.846842C89.6608 0.818015 90.1695 0.929506 90.6212 1.16923C90.9719 1.37581 91.2419 1.69556 91.3868 2.07593C91.5386 2.52355 91.6135 2.9936 91.6085 3.46621V4.19158H90.0973V3.44607C90.0973 3.18413 90.0973 2.96249 90.0973 2.74085C90.0469 2.5208 89.9267 2.32292 89.7548 2.17668C89.5738 2.05279 89.3595 1.98651 89.1402 1.98651C88.9209 1.98651 88.7067 2.05279 88.5257 2.17668C88.3902 2.32032 88.3053 2.50426 88.2839 2.70055C88.2622 2.94859 88.2622 3.19803 88.2839 3.44607V7.47587C88.2489 7.75013 88.2489 8.02772 88.2839 8.30198C88.3203 8.49051 88.4198 8.66104 88.566 8.78556C88.7322 8.89766 88.9298 8.9541 89.1301 8.94675C89.2363 8.9569 89.3434 8.94417 89.4442 8.90941C89.545 8.87465 89.6371 8.81868 89.7145 8.74526C89.8512 8.60248 89.9363 8.41808 89.9562 8.22138C89.978 7.98009 89.978 7.73732 89.9562 7.49602V6.69006H91.548V7.41542C91.5545 7.90131 91.4796 8.38486 91.3264 8.846C91.1998 9.25154 90.9362 9.60051 90.5809 9.83331C90.1524 10.1019 89.6559 10.2418 89.1503 10.2363Z" fill="white"/>
<path d="M92.5353 10.0551V0.947754H96.3636V2.17684H94.1271V4.79622H95.8196V5.96486H94.1271V8.90662H96.3032V10.0551H92.5353Z" fill="white"/>
<path d="M32.8942 24.945L34.7076 15.8376H36.4807L38.3143 24.945H36.7628L36.4203 22.9301H34.8285L34.4457 24.945H32.8942ZM34.9091 21.8018H36.1583L35.6949 17.9734L34.9091 21.8018Z" fill="white"/>
<path d="M38.9591 24.945V15.8376H40.1076L42.324 21.0361V15.8376H43.7545V24.945H42.6463L40.4098 19.5048V24.945H38.9591Z" fill="white"/>
<path d="M44.8627 24.9451V15.8378H47.0187C47.6115 15.8097 48.2032 15.9129 48.7515 16.14C49.1501 16.3306 49.4653 16.6602 49.6381 17.0669C49.8313 17.5815 49.9203 18.1294 49.9 18.6788V22.0034C49.9198 22.5658 49.8309 23.1268 49.6381 23.6556C49.4763 24.0775 49.169 24.4277 48.7717 24.6429C48.2358 24.8642 47.6585 24.9673 47.0791 24.9451H44.8627ZM46.5351 23.7966H47.0388C47.329 23.8232 47.6197 23.7523 47.865 23.5951C48.0309 23.4417 48.1378 23.2349 48.1672 23.0108C48.1912 22.6889 48.1912 22.3656 48.1672 22.0437V18.5579C48.1938 18.263 48.1938 17.9662 48.1672 17.6713C48.1213 17.4659 47.9988 17.2857 47.8247 17.1676C47.5795 17.0528 47.3086 17.0042 47.0388 17.0266H46.5553L46.5351 23.7966Z" fill="white"/>
<path d="M55.7231 25.0863C55.24 25.0963 54.7621 24.9855 54.3328 24.764C53.9635 24.5444 53.674 24.2126 53.5067 23.817C53.3135 23.3354 53.2045 22.8242 53.1843 22.3058L54.6149 22.0237C54.6257 22.3371 54.673 22.6481 54.7559 22.9505C54.8044 23.1842 54.9159 23.4002 55.0783 23.5752C55.156 23.6492 55.2478 23.7069 55.3481 23.7449C55.4484 23.783 55.5554 23.8006 55.6626 23.7968C55.7695 23.8085 55.8776 23.7924 55.9764 23.75C56.0753 23.7076 56.1615 23.6405 56.2268 23.555C56.3546 23.3726 56.4184 23.1529 56.4081 22.9304C56.4157 22.5867 56.3172 22.249 56.126 21.9632C55.9171 21.6788 55.6734 21.4216 55.4007 21.1976L54.2522 20.1901C53.952 19.9212 53.694 19.6088 53.4865 19.2633C53.2897 18.8697 53.1928 18.4338 53.2044 17.9939C53.1757 17.68 53.2168 17.3637 53.3248 17.0676C53.4328 16.7715 53.605 16.5029 53.829 16.2812C54.3121 15.8745 54.9312 15.6657 55.5619 15.6969C55.9286 15.6814 56.2939 15.7504 56.6298 15.8984C56.9028 16.0149 57.1395 16.2028 57.3148 16.4424C57.4795 16.6819 57.6021 16.9476 57.6775 17.2282C57.7793 17.5759 57.8402 17.9343 57.8589 18.2961L56.4484 18.5379C56.4287 18.2811 56.3951 18.0255 56.3477 17.7723C56.3154 17.5752 56.224 17.3925 56.0857 17.2484C56.0131 17.1801 55.9276 17.1272 55.8341 17.0925C55.7407 17.0579 55.6413 17.0424 55.5417 17.0469C55.4354 17.0405 55.329 17.0591 55.231 17.1011C55.1331 17.143 55.0463 17.2073 54.9775 17.2887C54.8378 17.4582 54.766 17.6736 54.7761 17.8931C54.7599 18.1633 54.8305 18.4316 54.9775 18.6588C55.1241 18.8891 55.3079 19.0934 55.5216 19.2633L56.6499 20.2707C57.0295 20.586 57.356 20.9602 57.6171 21.3789C57.8918 21.8417 58.0314 22.3722 58.02 22.9103C58.025 23.3172 57.9281 23.719 57.738 24.0789C57.5494 24.4121 57.2699 24.6847 56.932 24.8647C56.5563 25.0461 56.1386 25.1226 55.7231 25.0863Z" fill="white"/>
<path d="M59.6722 24.945V17.0667H58.2215V15.8376H62.755V17.0667H61.3245V24.945H59.6722Z" fill="white"/>
<path d="M63.3595 24.9455V15.8381H65.5558C66.0814 15.8292 66.6051 15.9041 67.1072 16.0597C67.5061 16.189 67.8479 16.4524 68.0744 16.8053C68.3224 17.2471 68.4412 17.7499 68.4169 18.256C68.4165 18.5876 68.3827 18.9184 68.3162 19.2433C68.2517 19.5118 68.1354 19.765 67.9737 19.9888C67.7878 20.203 67.5527 20.369 67.2886 20.4724L68.558 24.9455H66.9058L65.7976 20.7746H65.0319V24.9455H63.3595ZM65.0319 19.7269H65.5558C65.8186 19.7423 66.0813 19.6939 66.3214 19.5858C66.4163 19.5449 66.5013 19.4842 66.5708 19.4077C66.6403 19.3313 66.6927 19.2409 66.7244 19.1425C66.8234 18.8926 66.8713 18.6255 66.8655 18.3567C66.8841 17.9892 66.7929 17.6245 66.6035 17.309C66.4799 17.1808 66.3282 17.0832 66.1603 17.0237C65.9925 16.9643 65.8131 16.9447 65.6364 16.9665H65.0319V19.7269Z" fill="white"/>
<path d="M71.9631 25.0861C71.4286 25.1129 70.8975 24.9871 70.4318 24.7234C70.0455 24.4781 69.7541 24.1086 69.6057 23.6757C69.4329 23.1632 69.351 22.6245 69.3639 22.0839V18.6787C69.351 18.1381 69.4329 17.5994 69.6057 17.0869C69.7619 16.6689 70.0525 16.3146 70.4318 16.0795C70.9032 15.8325 71.4314 15.7143 71.9631 15.737C72.5079 15.7129 73.0495 15.8309 73.5348 16.0795C73.9066 16.3179 74.1898 16.6719 74.3407 17.0869C74.5303 17.5956 74.6193 18.1362 74.6027 18.6787V22.104C74.6177 22.6399 74.5287 23.1736 74.3407 23.6757C74.1936 24.0982 73.9101 24.4597 73.5348 24.7033C73.0613 24.9861 72.5136 25.1195 71.9631 25.0861ZM71.9631 23.857C72.0669 23.8741 72.173 23.8696 72.2749 23.8438C72.3768 23.8181 72.4723 23.7716 72.5555 23.7073C72.6386 23.6431 72.7077 23.5624 72.7583 23.4703C72.8089 23.3781 72.84 23.2766 72.8497 23.1719C72.8714 22.9441 72.8714 22.7147 72.8497 22.4869V18.2959C72.8723 18.0681 72.8723 17.8386 72.8497 17.6108C72.8121 17.4273 72.721 17.259 72.5878 17.1272C72.4083 16.9933 72.1864 16.9289 71.9631 16.9459C71.7521 16.9272 71.5422 16.9923 71.3788 17.1272C71.2327 17.2518 71.1332 17.4223 71.0967 17.6108C71.0741 17.8386 71.0741 18.0681 71.0967 18.2959V22.4869C71.075 22.7147 71.075 22.9441 71.0967 23.1719C71.1201 23.3661 71.2132 23.5451 71.3587 23.6757C71.532 23.8065 71.7464 23.8709 71.9631 23.857Z" fill="white"/>
<path d="M75.5295 24.945V15.8376H76.678L78.8944 21.0361V15.8376H80.2645V24.945H79.1765L76.9399 19.5048V24.945H75.5295Z" fill="white"/>
<path d="M83.71 25.0861C83.2058 25.1023 82.7081 24.9691 82.2794 24.7033C81.9213 24.4293 81.6601 24.0481 81.5339 23.6152C81.363 23.0746 81.2813 22.5098 81.2921 21.9429V18.8802C81.2841 18.3149 81.3588 17.7515 81.5138 17.2079C81.6489 16.7631 81.9336 16.3787 82.3197 16.1198C82.7931 15.837 83.3409 15.7035 83.8913 15.737C84.4019 15.7082 84.9105 15.8196 85.3622 16.0594C85.7337 16.2516 86.0208 16.5746 86.1682 16.9661C86.3417 17.4225 86.4238 17.9086 86.41 18.3966V18.8601H84.8182V18.2959C84.8414 18.0412 84.8414 17.7849 84.8182 17.5302C84.7874 17.3486 84.7033 17.1802 84.5764 17.0467C84.399 16.926 84.1859 16.8692 83.9719 16.8855C83.8551 16.8769 83.7377 16.8921 83.6268 16.9302C83.516 16.9683 83.4141 17.0285 83.3272 17.1071C83.196 17.2692 83.1123 17.4645 83.0854 17.6713C83.063 17.926 83.063 18.1822 83.0854 18.4369V22.3257C83.0615 22.6006 83.0615 22.877 83.0854 23.1518C83.1321 23.3583 83.237 23.5471 83.3876 23.6958C83.5609 23.8267 83.7754 23.8911 83.9921 23.8772C84.2174 23.8849 84.4383 23.8136 84.6167 23.6757C84.768 23.5194 84.8727 23.324 84.9189 23.1115C84.9436 22.8232 84.9436 22.5334 84.9189 22.2451V21.3989H84.0525V20.3108H86.5309V24.9451H85.463L85.3421 24.0585C85.2319 24.3463 85.0435 24.5976 84.798 24.7839C84.4871 25.0196 84.0979 25.1277 83.71 25.0861Z" fill="white"/>
<path d="M33.3979 39.8555V30.728H35.03V39.8555H33.3979Z" fill="white"/>
<path d="M36.2188 39.8555V30.728H37.3874L39.6038 35.9265V30.728H40.974V39.8555H39.8658L37.7098 34.4153V39.8555H36.2188Z" fill="white"/>
<path d="M44.4194 39.9762C43.9427 39.9871 43.4711 39.8761 43.0493 39.6538C42.68 39.4342 42.3906 39.1024 42.2232 38.7068C42.009 38.2318 41.8991 37.7166 41.9008 37.1956L43.3314 36.9135C43.3465 37.2252 43.387 37.5352 43.4523 37.8404C43.4946 38.0661 43.5993 38.2755 43.7545 38.4448C43.8292 38.5173 43.9175 38.5742 44.0144 38.6122C44.1112 38.6503 44.2147 38.6687 44.3187 38.6665C44.4285 38.6778 44.5394 38.6617 44.6414 38.6195C44.7434 38.5773 44.8333 38.5103 44.903 38.4247C45.0222 38.2466 45.0789 38.034 45.0642 37.8202C45.082 37.4718 44.9904 37.1266 44.8023 36.8329C44.5934 36.5484 44.3497 36.2912 44.0769 36.0672L42.9284 35.0598C42.6187 34.8003 42.3591 34.4861 42.1627 34.1329C41.9565 33.7428 41.859 33.3043 41.8807 32.8635C41.858 32.5562 41.902 32.2476 42.0099 31.959C42.1177 31.6703 42.2867 31.4084 42.5053 31.1912C42.9811 30.7857 43.5935 30.5768 44.2179 30.6069C44.5911 30.5919 44.9629 30.6607 45.306 30.8083C45.5768 30.9195 45.8084 31.1089 45.9709 31.3524C46.1499 31.586 46.2801 31.8532 46.3537 32.1382C46.4384 32.4478 46.4924 32.765 46.5149 33.0852L45.0844 33.327C45.1074 33.0723 45.1074 32.816 45.0844 32.5613C45.0429 32.3673 44.9528 32.187 44.8224 32.0374C44.7498 31.9692 44.6642 31.9162 44.5708 31.8816C44.4774 31.847 44.3779 31.8315 44.2784 31.8359C44.1701 31.8303 44.0621 31.8512 43.9638 31.8969C43.8655 31.9425 43.7798 32.0115 43.7142 32.0979C43.574 32.2592 43.5018 32.4687 43.5127 32.6822C43.5004 32.9494 43.5632 33.2146 43.6941 33.4479C43.8587 33.6761 44.0479 33.8855 44.2582 34.0725L45.3866 35.0598C45.7662 35.3751 46.0927 35.7492 46.3537 36.168C46.6301 36.6375 46.7697 37.1748 46.7567 37.7195C46.7623 38.1227 46.6578 38.5197 46.4545 38.868C46.2791 39.2041 46.0048 39.4784 45.6687 39.6538C45.2908 39.8763 44.8578 39.988 44.4194 39.9762Z" fill="white"/>
<path d="M48.3686 39.8555V31.9571H46.9179V30.728H51.4716V31.9571H50.041V39.8555H48.3686Z" fill="white"/>
<path d="M52.1164 39.8555V30.728H53.829V39.8555H52.1164Z" fill="white"/>
<path d="M55.8439 39.8555V31.9571H54.3932V30.728H58.9267V31.9571H57.4962V39.8555H55.8439Z" fill="white"/>
<path d="M62.07 39.9764C61.513 40.0115 60.9584 39.8781 60.4782 39.5936C60.1144 39.3383 59.8453 38.97 59.7126 38.5458C59.5576 38.0091 59.4829 37.4523 59.4909 36.8936V30.728H61.123V37.0951C61.123 37.3772 61.123 37.6391 61.123 37.9011C61.1585 38.125 61.2562 38.3345 61.4051 38.5056C61.5814 38.6496 61.802 38.7282 62.0297 38.7282C62.2574 38.7282 62.478 38.6496 62.6543 38.5056C62.7968 38.3328 62.8876 38.1232 62.9163 37.9011C62.9369 37.6328 62.9369 37.3634 62.9163 37.0951V30.728H64.5282V36.8936C64.5362 37.4523 64.4615 38.0091 64.3065 38.5458C64.1738 38.97 63.9047 39.3383 63.5409 39.5936C63.0974 39.8594 62.5868 39.9923 62.07 39.9764Z" fill="white"/>
<path d="M66.6237 39.8555V31.9571H65.173V30.728H69.7065V31.9571H68.2759V39.8555H66.6237Z" fill="white"/>
<path d="M70.3714 39.8555V30.728H71.9631V39.8555H70.3714Z" fill="white"/>
<path d="M75.6706 39.9763C75.1297 40.0025 74.5923 39.8769 74.1191 39.6136C73.7403 39.3649 73.4563 38.9958 73.3132 38.5658C73.1236 38.0572 73.0346 37.5166 73.0512 36.9741V33.5689C73.0346 33.0263 73.1236 32.4857 73.3132 31.9771C73.4641 31.562 73.7473 31.2081 74.1191 30.9697C74.5978 30.7228 75.1325 30.6047 75.6706 30.6271C76.2089 30.6028 76.744 30.721 77.2221 30.9697C77.6014 31.2047 77.892 31.5591 78.0482 31.9771C78.2283 32.4882 78.317 33.027 78.3101 33.5689V36.9942C78.3154 37.5294 78.2268 38.0613 78.0482 38.5658C77.8918 38.9944 77.6023 39.3615 77.2221 39.6136C76.7497 39.879 76.2117 40.0047 75.6706 39.9763ZM75.6706 38.7472C75.8881 38.7691 76.1055 38.7039 76.2751 38.5658C76.4206 38.4353 76.5137 38.2562 76.537 38.0621C76.5701 37.835 76.5701 37.6042 76.537 37.3771V33.1861C76.5701 32.9589 76.5701 32.7282 76.537 32.501C76.5075 32.3146 76.415 32.144 76.2751 32.0174C76.1055 31.8794 75.8881 31.8141 75.6706 31.8361C75.4539 31.8222 75.2394 31.8865 75.0661 32.0174C74.9329 32.1491 74.8417 32.3174 74.8042 32.501C74.7816 32.7288 74.7816 32.9583 74.8042 33.1861V37.3771C74.7816 37.6049 74.7816 37.8343 74.8042 38.0621C74.8275 38.2562 74.9206 38.4353 75.0661 38.5658C75.2377 38.7001 75.4535 38.7649 75.6706 38.7472Z" fill="white"/>
<path d="M79.2974 39.8555V30.728H80.466L82.6824 35.9265V30.728H84.0526V39.8555H82.9444L80.728 34.4153V39.8555H79.2974Z" fill="white"/>
<path d="M87.5182 39.9762C87.0149 39.9965 86.5149 39.8854 86.0675 39.6538C85.6982 39.4343 85.4087 39.1025 85.2414 38.7068C85.0463 38.2259 84.9372 37.7144 84.919 37.1957L86.3496 36.9136C86.3604 37.227 86.4077 37.538 86.4906 37.8404C86.535 38.0756 86.647 38.2927 86.813 38.465C86.8907 38.539 86.9825 38.5967 87.0828 38.6348C87.1831 38.6729 87.2901 38.6905 87.3973 38.6867C87.5225 38.7229 87.6558 38.719 87.7786 38.6756C87.9015 38.6323 88.0077 38.5516 88.0824 38.4449C88.2073 38.2687 88.271 38.0563 88.2637 37.8404C88.2742 37.4901 88.1756 37.1451 87.9816 36.8531C87.7727 36.5686 87.5291 36.3114 87.2563 36.0875L86.1279 35.08C85.8122 34.821 85.546 34.507 85.3421 34.1532C85.1453 33.7596 85.0484 33.3236 85.06 32.8838C85.0373 32.5765 85.0814 32.2679 85.1892 31.9792C85.297 31.6905 85.4661 31.4286 85.6847 31.2114C86.1677 30.8046 86.7868 30.5959 87.4175 30.6271C87.7842 30.6116 88.1495 30.6806 88.4854 30.8286C88.7585 30.9451 88.9951 31.133 89.1704 31.3726C89.3351 31.612 89.4577 31.8778 89.5331 32.1584C89.6178 32.468 89.6717 32.7852 89.6943 33.1054L88.2839 33.3472C88.2976 33.0922 88.2976 32.8366 88.2839 32.5815C88.2516 32.3844 88.1602 32.2018 88.0219 32.0577C87.9493 31.9894 87.8638 31.9364 87.7703 31.9018C87.6769 31.8672 87.5775 31.8517 87.4779 31.8562C87.3699 31.8522 87.2624 31.8739 87.1644 31.9194C87.0663 31.9649 86.9804 32.033 86.9137 32.1181C86.7735 32.2795 86.7013 32.4889 86.7123 32.7024C86.6961 32.9726 86.7667 33.2409 86.9137 33.4681C87.0645 33.7011 87.2477 33.9114 87.4578 34.0927L88.5861 35.08C88.9657 35.3953 89.2922 35.7695 89.5533 36.1882C89.8296 36.6577 89.9692 37.1951 89.9562 37.7397C89.9587 38.14 89.8618 38.5346 89.6742 38.8882C89.4856 39.2214 89.206 39.4939 88.8682 39.674C88.4595 39.9098 87.9885 40.0153 87.5182 39.9762Z" fill="white"/>
<path d="M76.4967 45.5576C75.8115 46.4767 75.5017 47.6221 75.6303 48.7613C76.0016 49.845 76.7728 50.7459 77.7862 51.2799C78.4624 50.3571 78.7647 49.2127 78.6325 48.0762C78.266 46.996 77.5025 46.0956 76.4967 45.5576Z" fill="white"/>
<path d="M74.5019 54.8062C75.1816 53.8844 75.4908 52.7412 75.3683 51.6025C74.9926 50.5263 74.2219 49.6332 73.2124 49.104C72.5247 50.0142 72.2144 51.1544 72.346 52.2875C72.7173 53.3712 73.4885 54.2721 74.5019 54.8062Z" fill="white"/>
<path d="M79.5191 53.0732C80.2497 53.7985 81.2302 54.2167 82.2593 54.2419C83.2972 54.0252 84.2128 53.4196 84.8183 52.5494C84.0681 51.8367 83.0725 51.4399 82.0377 51.4412C81.0166 51.6473 80.1104 52.2299 79.4989 53.0732" fill="white"/>
<path d="M81.6146 46.142C80.8702 47.0906 80.5105 48.2848 80.6071 49.4867C81.7856 49.5996 82.9621 49.2531 83.8914 48.5196C84.6377 47.5711 85.004 46.3787 84.919 45.1748C83.7264 45.0799 82.543 45.4479 81.6146 46.2024" fill="white"/>
<path d="M78.9952 57.8889C80.0411 57.9061 81.0526 57.5159 81.8161 56.8009C81.2483 55.9471 80.3764 55.3418 79.378 55.1084C78.3302 55.0929 77.3153 55.4744 76.537 56.1763C77.1059 57.0418 77.9862 57.6552 78.9952 57.8889Z" fill="white"/>
<path d="M80.2847 81.3826H69.3639C68.9525 81.3826 68.5578 81.546 68.2669 81.837C67.9759 82.1279 67.8125 82.5226 67.8125 82.934C67.8125 83.3455 67.9759 83.7401 68.2669 84.0311C68.5578 84.3221 68.9525 84.4855 69.3639 84.4855H80.2847C80.6962 84.4855 81.0908 84.3221 81.3818 84.0311C81.6727 83.7401 81.8362 83.3455 81.8362 82.934C81.8362 82.5226 81.6727 82.1279 81.3818 81.837C81.0908 81.546 80.6962 81.3826 80.2847 81.3826Z" fill="white"/>
<path d="M80.2847 98.4285H69.3639C68.9855 98.4719 68.6362 98.6529 68.3826 98.9372C68.1291 99.2214 67.989 99.589 67.989 99.9699C67.989 100.351 68.1291 100.718 68.3826 101.003C68.6362 101.287 68.9855 101.468 69.3639 101.511H80.2847C80.5019 101.536 80.7219 101.515 80.9303 101.449C81.1387 101.383 81.3308 101.273 81.494 101.128C81.6571 100.982 81.7877 100.804 81.8771 100.604C81.9665 100.405 82.0127 100.189 82.0127 99.9699C82.0127 99.7513 81.9665 99.5351 81.8771 99.3356C81.7877 99.1361 81.6571 98.9577 81.494 98.8121C81.3308 98.6666 81.1387 98.5572 80.9303 98.4911C80.7219 98.425 80.5019 98.4037 80.2847 98.4285Z" fill="white"/>
<path d="M31.1614 77.6348L30.4159 77.4333C30.6603 77.5149 30.9092 77.5822 31.1614 77.6348Z" fill="white"/>
<path d="M79.9019 85.5534H69.8274C69.5922 85.5534 69.3667 85.6468 69.2005 85.8131C69.0342 85.9793 68.9408 86.2048 68.9408 86.4399V89.5026L62.3521 90.228L52.6806 90.0063V84.1027C53.9796 83.9371 55.2655 83.6812 56.529 83.337C65.8177 80.6975 67.8528 74.9147 67.6513 69.5954C67.4498 64.276 69.1826 62.0798 71.6811 61.1529C72.3345 60.9099 73.009 60.7278 73.696 60.6089C73.7513 62.2163 74.0502 63.806 74.5825 65.3238H75.2475C74.6854 63.8118 74.3658 62.2206 74.3004 60.6089C75.0378 60.5436 75.7795 60.5436 76.5168 60.6089C75.8016 60.1737 75.1272 59.6746 74.5019 59.1179C74.9622 56.8074 76.1994 54.7241 78.0079 53.2142C78.9283 52.3317 79.7585 51.3598 80.4862 50.3127L79.922 49.9702C79.2236 50.9736 78.4272 51.905 77.5444 52.7508C75.7863 54.2454 74.5277 56.2422 73.9378 58.4731C73.434 58.0097 72.9102 57.4858 72.346 56.8612C70.049 54.3023 67.1072 56.1761 62.8961 60.1052C58.685 64.0342 53.4059 64.135 48.2276 58.8559C41.4172 51.8844 35.4531 51.9247 31.383 52.3075C34.1636 53.4963 35.1509 56.1157 36.5613 62.7447C38.0322 69.6961 41.7799 72.8192 46.8776 73.2826C44.5202 73.6655 43.8956 73.9879 40.0874 76.6072C37.3841 78.0849 34.2121 78.4534 31.242 77.6348C34.3651 78.602 38.0524 81.8661 41.3165 82.9945C43.2698 83.6674 45.3012 84.0872 47.3612 84.2437V89.8854L29.0458 89.4825V93.5123L62.3722 92.7667L68.961 93.4921V96.4742C68.961 96.7093 69.0544 96.9348 69.2206 97.1011C69.3869 97.2673 69.6124 97.3607 69.8475 97.3607H79.922C80.1536 97.3555 80.374 97.2597 80.5359 97.094C80.6979 96.9283 80.7885 96.7058 80.7884 96.4742V86.3997C80.7781 86.1716 80.6801 85.9563 80.5149 85.7987C80.3498 85.641 80.1302 85.5532 79.9019 85.5534ZM48.8724 84.3243C49.5978 84.3243 50.3231 84.3243 51.0283 84.3243V90.0265H48.8724V84.3243Z" fill="white"/>
<path d="M28.0181 92.8474C28.046 93.2185 27.9261 93.5855 27.6845 93.8685C27.443 94.1516 27.0994 94.3277 26.7286 94.3586H25.9428C25.5719 94.3277 25.2283 94.1516 24.9868 93.8685C24.7453 93.5855 24.6254 93.2185 24.6532 92.8474V90.0467C24.6309 89.679 24.7533 89.3171 24.9943 89.0385C25.2352 88.7599 25.5757 88.5866 25.9428 88.5557H26.7286C27.0957 88.5866 27.4361 88.7599 27.6771 89.0385C27.9181 89.3171 28.0405 89.679 28.0181 90.0467V92.8474Z" fill="white"/>
</svg>
