<svg width="111" height="96" viewBox="0 0 111 96" fill="none" xmlns="http://www.w3.org/2000/svg">
<path d="M3.79104 6.03082C3.1544 6.3247 2.50069 6.57953 1.83348 6.7939C0.970477 7.09066 0.423204 7.28143 0.191666 7.38741V3.82637C1.06585 3.47177 1.91657 3.06113 2.73859 2.59696C3.50919 2.19239 4.21806 1.67842 4.84349 1.0708H8.56915V26.1677H3.79104V6.03082Z" fill="white"/>
<path d="M11.2003 22.776L17.2413 13.4071L17.5992 12.8347C18.2479 11.8982 18.825 10.9132 19.3252 9.8884C19.7302 9.07158 19.9461 8.17294 19.9566 7.26001C19.9914 6.61226 19.8299 5.96915 19.4936 5.4159C19.3415 5.20826 19.1409 5.04159 18.9096 4.93067C18.6783 4.81975 18.4234 4.768 18.1675 4.78C17.8047 4.74809 17.4407 4.82583 17.122 5.00329C16.8033 5.18075 16.5444 5.44986 16.3783 5.77625C15.9583 6.62539 15.742 7.56196 15.7469 8.51062V9.65524H11.2003V8.40463C11.0986 6.40221 11.6859 4.42574 12.8631 2.80871C13.5024 2.0848 14.2973 1.51751 15.1874 1.15015C16.0776 0.782796 17.0392 0.625081 17.9991 0.689046C18.8927 0.625316 19.7898 0.744598 20.6364 1.03969C21.4829 1.33478 22.2613 1.79956 22.9245 2.40598C23.5103 3.0703 23.959 3.84533 24.2445 4.68595C24.53 5.52657 24.6466 6.41598 24.5874 7.30241C24.5945 8.23771 24.4524 9.16808 24.1664 10.058C23.9032 10.8418 23.5575 11.5951 23.135 12.3048C22.7562 12.9831 22.1457 13.9158 21.3248 15.124L16.5257 22.3732H23.9349V26.1674H11.2003V22.776Z" fill="white"/>
<path d="M34.1647 10.6514V1.04933H36.459C37.0081 1.04 37.5552 1.11871 38.0798 1.28249C38.4965 1.41843 38.8535 1.69558 39.0901 2.06677C39.3493 2.53159 39.4733 3.06047 39.448 3.59293C39.4475 3.94181 39.4122 4.28977 39.3427 4.63156C39.2754 4.914 39.1539 5.18043 38.9849 5.41584C38.7951 5.64602 38.5482 5.82154 38.2692 5.92456L39.6164 10.6514H37.8693L36.7958 6.24251H35.9959V10.6514H34.1647ZM35.9118 5.14028H36.459C36.7336 5.15653 37.0081 5.10562 37.2589 4.99191C37.358 4.94885 37.4468 4.88498 37.5194 4.80455C37.592 4.72413 37.6467 4.62902 37.6799 4.52558C37.7907 4.26489 37.8411 3.98216 37.8272 3.69891C37.8467 3.31229 37.7514 2.9286 37.5536 2.59668C37.415 2.48056 37.2522 2.39739 37.0772 2.35335C36.9023 2.30932 36.7198 2.30555 36.5432 2.34232H35.9118V5.14028Z" fill="white"/>
<path d="M40.3951 10.6514V1.04932H44.3944V2.34231H42.1422V5.09788H43.9103V6.32729H42.1422V9.50679H44.4155V10.715L40.3951 10.6514Z" fill="white"/>
<path d="M47.4676 10.8209C46.9696 10.8324 46.4769 10.7157 46.0363 10.4818C45.6593 10.233 45.3715 9.86894 45.2154 9.44315C44.9916 8.94354 44.8768 8.40146 44.8786 7.8534L46.3731 7.55665C46.3843 7.88633 46.4338 8.21356 46.5204 8.53169C46.5574 8.78222 46.6758 9.01331 46.8572 9.18879C46.9384 9.26662 47.0342 9.32734 47.139 9.36738C47.2439 9.40741 47.3556 9.42597 47.4676 9.42195C47.5791 9.43222 47.6914 9.41434 47.7943 9.36993C47.8972 9.32552 47.9875 9.25598 48.057 9.16759C48.1815 8.98027 48.2408 8.75659 48.2254 8.53169C48.244 8.16522 48.1483 7.80206 47.9517 7.49306C47.7335 7.19379 47.4789 6.9232 47.194 6.68758L45.9942 5.62775C45.6782 5.35285 45.4143 5.02248 45.2154 4.6527C44.9999 4.24228 44.8981 3.78101 44.9207 3.31731C44.897 2.99402 44.943 2.66939 45.0557 2.3657C45.1683 2.06202 45.3448 1.78648 45.5732 1.55799C46.0595 1.14155 46.6823 0.922408 47.3203 0.943284C47.7101 0.9275 48.0985 0.999931 48.4569 1.15525C48.7399 1.27216 48.9817 1.47143 49.1515 1.72756C49.3385 1.97335 49.4745 2.25447 49.5515 2.55423C49.6399 2.87995 49.6963 3.21364 49.7199 3.55047L48.2254 3.80483C48.2494 3.53689 48.2494 3.26731 48.2254 2.99936C48.1821 2.79524 48.0879 2.60558 47.9517 2.44825C47.8599 2.38653 47.7562 2.34517 47.6473 2.3269C47.5385 2.30863 47.427 2.31386 47.3203 2.34226C47.2092 2.33559 47.098 2.3551 46.9957 2.39925C46.8934 2.44341 46.8027 2.51099 46.7309 2.59662C46.5849 2.775 46.5099 3.00161 46.5204 3.23252C46.5076 3.51357 46.5732 3.79262 46.7098 4.038C46.8819 4.27807 47.0795 4.49842 47.2992 4.6951L48.478 5.73373C48.8438 6.03813 49.163 6.39526 49.4252 6.79357C49.7139 7.28745 49.8597 7.85278 49.8461 8.42571C49.852 8.84987 49.7428 9.2676 49.5304 9.63392C49.3472 9.98753 49.0607 10.2761 48.7095 10.4606C48.3352 10.6909 47.9062 10.8153 47.4676 10.8209Z" fill="white"/>
<path d="M50.4356 10.6514V1.04928H53.2351C53.718 1.02886 54.1976 1.13862 54.6243 1.36723C54.985 1.58168 55.266 1.90929 55.4242 2.29989C55.6059 2.77252 55.6918 3.27704 55.6768 3.78365C55.6981 4.304 55.5895 4.82142 55.361 5.28862C55.1636 5.66149 54.8437 5.9537 54.4559 6.11529C54.0297 6.29456 53.5706 6.38123 53.1088 6.36965H52.1826V10.609L50.4356 10.6514ZM52.1826 5.14024H52.8352C53.108 5.16232 53.3822 5.11873 53.635 5.01306C53.7225 4.96849 53.7996 4.90578 53.8612 4.82906C53.9229 4.75235 53.9678 4.66335 53.9929 4.56793C54.0688 4.30649 54.1043 4.0348 54.0981 3.76246C54.1359 3.48112 54.1359 3.19593 54.0981 2.91459C54.0793 2.78601 54.0264 2.66494 53.9449 2.56419C53.8633 2.46344 53.7563 2.38677 53.635 2.34228C53.3716 2.28362 53.0986 2.28362 52.8352 2.34228H52.1826V5.14024Z" fill="white"/>
<path d="M58.8761 10.821C58.3111 10.8486 57.7497 10.7164 57.2554 10.4394C56.8517 10.1814 56.5474 9.79263 56.3924 9.33719C56.2118 8.79812 56.1263 8.23139 56.1398 7.66265V4.03802C56.1238 3.46219 56.2093 2.88806 56.3924 2.34228C56.5634 1.90712 56.8651 1.53659 57.2554 1.28245C57.7632 1.04524 58.3163 0.922363 58.8761 0.922363C59.436 0.922363 59.9891 1.04524 60.4969 1.28245C60.8872 1.53659 61.1889 1.90712 61.3599 2.34228C61.5405 2.88135 61.626 3.44808 61.6125 4.01682V7.64145C61.6244 8.20316 61.5389 8.76265 61.3599 9.29479C61.1903 9.74207 60.8892 10.1266 60.4969 10.397C60.0069 10.6888 59.4452 10.8357 58.8761 10.821ZM58.8761 9.52796C59.103 9.54657 59.3284 9.47846 59.5076 9.33719C59.5951 9.25658 59.6647 9.15826 59.7119 9.04868C59.7591 8.93909 59.7827 8.82071 59.7812 8.70129C59.8158 8.46232 59.8158 8.21957 59.7812 7.9806V3.63528C59.8158 3.39631 59.8158 3.15356 59.7812 2.91459C59.765 2.69589 59.6673 2.49145 59.5076 2.34228C59.3284 2.20101 59.103 2.1329 58.8761 2.15151C58.6498 2.13691 58.4257 2.2046 58.2447 2.34228C58.0984 2.47541 58.0019 2.65494 57.971 2.851C57.9365 3.08997 57.9365 3.33272 57.971 3.57169V8.04419C57.9474 8.28383 57.9474 8.52524 57.971 8.76488C58.0025 8.9825 58.1166 9.17932 58.2894 9.31378C58.4622 9.44825 58.6801 9.50984 58.8972 9.48556L58.8761 9.52796Z" fill="white"/>
<path d="M62.5597 10.6514V1.04932H63.7595L66.0749 6.58165V1.04932H67.5062V10.6514H66.3696L64.0332 4.90711V10.6514H62.5597Z" fill="white"/>
<path d="M71.0004 10.8211C70.5024 10.8326 70.0097 10.7158 69.5691 10.4819C69.1833 10.251 68.8809 9.90192 68.7061 9.48569C68.4764 8.97307 68.3614 8.41587 68.3693 7.85354L69.8638 7.55679C69.875 7.88647 69.9245 8.2137 70.0111 8.53184C70.0481 8.78236 70.1665 9.01345 70.3479 9.18893C70.4291 9.26676 70.5249 9.32748 70.6297 9.36752C70.7346 9.40756 70.8463 9.42611 70.9583 9.4221C71.0698 9.43236 71.1821 9.41448 71.285 9.37007C71.3879 9.32566 71.4782 9.25612 71.5477 9.16774C71.6722 8.98041 71.7314 8.75674 71.7161 8.53184C71.7346 8.16536 71.639 7.8022 71.4424 7.4932C71.2242 7.19393 70.9696 6.92334 70.6847 6.68773L69.4849 5.62789C69.1613 5.35486 68.8902 5.02438 68.685 4.65285C68.4622 4.24449 68.3531 3.7831 68.3693 3.31746C68.3456 2.99416 68.3916 2.66953 68.5042 2.36585C68.6169 2.06216 68.7934 1.78662 69.0218 1.55813C69.5189 1.13159 70.1586 0.911777 70.811 0.943429C71.2008 0.927645 71.5892 1.00008 71.9476 1.1554C72.2305 1.2723 72.4724 1.47158 72.6422 1.72771C72.8292 1.97349 72.9652 2.25462 73.0422 2.55438C73.1306 2.8801 73.187 3.21378 73.2105 3.55062L71.7161 3.80498C71.7401 3.53703 71.7401 3.26745 71.7161 2.99951C71.6728 2.79539 71.5786 2.60573 71.4424 2.44839C71.3666 2.37661 71.2772 2.32086 71.1796 2.28446C71.082 2.24805 70.9781 2.23172 70.8741 2.23643C70.763 2.22975 70.6519 2.24926 70.5495 2.29342C70.4472 2.33757 70.3566 2.40515 70.2847 2.49079C70.1387 2.66916 70.0637 2.89578 70.0742 3.12669C70.0614 3.40773 70.127 3.68678 70.2637 3.93216C70.4357 4.17223 70.6333 4.39258 70.8531 4.58926L72.0318 5.62789C72.4283 5.95959 72.7694 6.3532 73.0422 6.79371C73.3308 7.28759 73.4766 7.85292 73.4631 8.42585C73.469 8.85001 73.3598 9.26775 73.1474 9.63406C72.9641 9.98768 72.6776 10.2762 72.3265 10.4607C71.9278 10.7062 71.4676 10.8312 71.0004 10.8211Z" fill="white"/>
<path d="M74.0104 10.6514V1.04932H75.7364V10.6514H74.0104Z" fill="white"/>
<path d="M76.7888 10.6516V1.04947H79.1253C79.5147 1.0464 79.9033 1.08908 80.2829 1.17665C80.6002 1.24244 80.9009 1.37223 81.167 1.55819C81.4116 1.76577 81.6059 2.02673 81.7353 2.32127C81.8714 2.70159 81.9356 3.10418 81.9248 3.50829C81.9509 3.82875 81.9224 4.15135 81.8406 4.46214C81.7465 4.71851 81.5868 4.94523 81.3775 5.11923C81.1495 5.29501 80.882 5.4115 80.5987 5.45838C80.9407 5.50542 81.266 5.63645 81.5459 5.83992C81.7854 6.05583 81.9726 6.32412 82.0932 6.6242C82.2273 7.00501 82.2915 7.40724 82.2826 7.81121C82.2883 8.22188 82.2242 8.6305 82.0932 9.01942C82.0023 9.34827 81.8282 9.64773 81.588 9.88849C81.3663 10.1358 81.0828 10.3188 80.7671 10.4184C80.3886 10.5522 79.9894 10.6168 79.5883 10.6092L76.7888 10.6516ZM78.5359 4.97086H79.1253C79.3999 4.9871 79.6743 4.93619 79.9251 4.82248C80.0171 4.7704 80.0979 4.70051 80.1629 4.61684C80.2279 4.53317 80.2759 4.43737 80.304 4.33496C80.3975 4.07723 80.4404 3.80367 80.4303 3.52948C80.4417 3.25786 80.3837 2.98783 80.2619 2.74521C80.1601 2.55973 79.9959 2.41693 79.7988 2.34247C79.4985 2.30093 79.194 2.30093 78.8937 2.34247H78.5569L78.5359 4.97086ZM78.5359 9.40096H79.1884C79.3845 9.42643 79.5838 9.40517 79.7703 9.3389C79.9567 9.27263 80.1251 9.1632 80.2619 9.01942C80.4753 8.66278 80.5711 8.24725 80.5355 7.83241C80.5456 7.51659 80.5029 7.20131 80.4092 6.89975C80.3222 6.67432 80.1678 6.48172 79.9672 6.34864C79.7034 6.22724 79.4152 6.16919 79.1253 6.17907H78.5359V9.40096Z" fill="white"/>
<path d="M83.1035 10.6514V1.04932H84.8506V9.52798H87.166V10.7362L83.1035 10.6514Z" fill="white"/>
<path d="M87.608 10.6514V1.04932H91.5231V2.34231H89.4182V5.09788H91.2074V6.32729H89.4182V9.50679H91.7126V10.715L87.608 10.6514Z" fill="white"/>
<path d="M36.7958 26.4429C36.2186 26.4717 35.6462 26.3239 35.154 26.0189C34.7623 25.7484 34.473 25.3525 34.333 24.8955C34.162 24.3619 34.0837 23.8026 34.1015 23.2422V19.8295C34.0838 19.2482 34.1621 18.668 34.333 18.1126C34.4608 17.655 34.7535 17.2619 35.154 17.0103C35.6485 16.7128 36.2207 16.5724 36.7958 16.6076C37.335 16.5875 37.8706 16.7041 38.3534 16.9467C38.7156 17.1731 38.9903 17.517 39.1322 17.9218C39.3101 18.3807 39.3959 18.8706 39.3848 19.3632V20.1686H37.7009V19.2996C37.7231 19.0599 37.7231 18.8186 37.7009 18.5789C37.6874 18.3844 37.6138 18.1991 37.4904 18.049C37.3133 17.9037 37.0862 17.8351 36.8589 17.8582C36.6253 17.8363 36.3921 17.9044 36.2064 18.049C36.0581 18.2063 35.9624 18.4064 35.9328 18.6213C35.9093 18.8822 35.9093 19.1447 35.9328 19.4056V23.6449C35.9057 23.9339 35.9057 24.2249 35.9328 24.514C35.9764 24.7152 36.088 24.895 36.2485 25.0227C36.4202 25.1449 36.628 25.2047 36.8379 25.1923C36.9489 25.2059 37.0616 25.1939 37.1674 25.1572C37.2731 25.1205 37.3692 25.06 37.4483 24.9803C37.5786 24.8241 37.6593 24.6321 37.6798 24.4292C37.6798 24.2172 37.6798 23.9416 37.6798 23.6661V22.797H39.3637V23.5389C39.3671 24.0498 39.2889 24.5579 39.1322 25.0439C38.9913 25.4603 38.7174 25.8181 38.3534 26.0613C37.8818 26.3375 37.3407 26.4701 36.7958 26.4429Z" fill="white"/>
<path d="M42.7527 26.4431C42.1943 26.4713 41.6395 26.3389 41.153 26.0615C40.753 25.8088 40.4491 25.4281 40.29 24.9805C40.1115 24.4336 40.0261 23.8603 40.0374 23.2848V19.7025C40.0237 19.1407 40.1093 18.5809 40.29 18.0492C40.4425 17.6033 40.7487 17.2273 41.153 16.9894C41.6395 16.7119 42.1943 16.5796 42.7527 16.6078C43.3247 16.5773 43.8936 16.7096 44.3945 16.9894C44.7829 17.2402 45.0787 17.6125 45.2365 18.0492C45.436 18.5765 45.5291 19.1386 45.5101 19.7025V23.306C45.5258 23.8697 45.4328 24.4312 45.2365 24.9593C45.0869 25.4116 44.7903 25.7999 44.3945 26.0615C43.8936 26.3413 43.3247 26.4735 42.7527 26.4431ZM42.7527 25.1501C42.9859 25.1679 43.2177 25.1002 43.4052 24.9593C43.5444 24.8207 43.6396 24.6437 43.6788 24.4506C43.7015 24.2038 43.7015 23.9555 43.6788 23.7087V19.2998C43.7025 19.0601 43.7025 18.8187 43.6788 18.5791C43.6396 18.386 43.5444 18.209 43.4052 18.0704C43.2149 17.937 42.9833 17.8768 42.7527 17.9008C42.5351 17.8752 42.3161 17.936 42.1423 18.0704C41.9896 18.2014 41.8857 18.3808 41.8476 18.5791C41.8239 18.8187 41.8239 19.0601 41.8476 19.2998V23.7087C41.8249 23.9555 41.8249 24.2038 41.8476 24.4506C41.8784 24.6466 41.975 24.8262 42.1212 24.9593C42.3022 25.097 42.5263 25.1647 42.7527 25.1501Z" fill="white"/>
<path d="M46.4362 26.3157V16.7136H47.6571L49.9724 22.1824V16.7136H51.4038V26.3157H50.2461L47.9307 20.5714V26.3157H46.4362Z" fill="white"/>
<path d="M54.8979 26.443C54.3989 26.4647 53.9037 26.3473 53.4666 26.1039C53.073 25.8764 52.7629 25.527 52.5826 25.1076C52.3767 24.6031 52.2695 24.0633 52.2668 23.5179L53.7613 23.2211C53.7657 23.55 53.8081 23.8772 53.8876 24.1962C53.9421 24.4406 54.0581 24.6669 54.2244 24.8533C54.3041 24.9332 54.3997 24.9952 54.5049 25.0354C54.6101 25.0756 54.7225 25.093 54.8348 25.0864C54.9494 25.0965 55.0646 25.0787 55.1709 25.0344C55.2772 24.9901 55.3712 24.9207 55.4452 24.8321C55.5597 24.6403 55.6181 24.4199 55.6136 24.1962C55.6219 23.8308 55.527 23.4706 55.34 23.1575C55.1163 22.8629 54.8623 22.5929 54.5822 22.352L53.3824 21.2922C53.0588 21.0192 52.7877 20.6887 52.5826 20.3172C52.3598 19.9088 52.2507 19.4474 52.2668 18.9818C52.2486 18.6572 52.2992 18.3324 52.4154 18.029C52.5315 17.7257 52.7105 17.4507 52.9404 17.2225C53.3485 16.9078 53.8307 16.7052 54.3399 16.6346C54.8491 16.564 55.3678 16.6278 55.8451 16.8197C56.1252 16.951 56.3704 17.1471 56.5608 17.392C56.7357 17.6452 56.8706 17.924 56.9607 18.2187C57.0422 18.5451 57.0915 18.8788 57.1081 19.2149L55.6347 19.4693C55.6231 19.1982 55.5879 18.9287 55.5294 18.6638C55.4998 18.4552 55.4037 18.2618 55.2558 18.1127C55.1782 18.0447 55.0881 17.9928 54.9906 17.9601C54.893 17.9274 54.79 17.9144 54.6875 17.9219C54.5765 17.9169 54.4659 17.9371 54.3638 17.9812C54.2618 18.0252 54.1709 18.0919 54.0981 18.1763C53.9601 18.359 53.886 18.5826 53.8876 18.8122C53.8839 19.0883 53.9568 19.3599 54.0981 19.5965C54.2556 19.8416 54.4469 20.0628 54.6664 20.2536L55.8662 21.2922C56.2559 21.633 56.5898 22.0336 56.8555 22.4792C57.1538 22.9612 57.3005 23.5227 57.2765 24.0902C57.292 24.5127 57.1899 24.9312 56.9818 25.2984C56.788 25.6567 56.4957 25.9511 56.1398 26.1462C55.7573 26.3488 55.3301 26.4509 54.8979 26.443Z" fill="white"/>
<path d="M60.5601 26.4429C59.9881 26.4734 59.4192 26.3412 58.9183 26.0614C58.5266 25.7909 58.2373 25.3949 58.0974 24.9379C57.9432 24.372 57.8723 23.7864 57.8869 23.1998V16.7136H59.5708V23.4118C59.5492 23.694 59.5492 23.9774 59.5708 24.2596C59.6007 24.4933 59.6956 24.7138 59.8444 24.8955C59.9279 24.9837 60.0296 25.0523 60.1424 25.0962C60.2552 25.1402 60.3763 25.1585 60.497 25.1499C60.621 25.1618 60.7462 25.145 60.8629 25.101C60.9796 25.0569 61.0848 24.9866 61.1705 24.8955C61.311 24.7087 61.4049 24.4906 61.4442 24.2596C61.4658 23.9774 61.4658 23.694 61.4442 23.4118V16.7136H63.1281V23.1998C63.1365 23.7875 63.0585 24.3732 62.8965 24.9379C62.7621 25.3919 62.4805 25.7874 62.0967 26.0614C61.626 26.3205 61.0965 26.452 60.5601 26.4429Z" fill="white"/>
<path d="M64.1595 26.3157L64.3279 16.7136H66.2644L67.6115 23.3694L69.0218 16.7136H70.7689L70.9373 26.3157H69.6533L69.5059 19.6388L68.1588 26.3157H67.1063L65.7382 19.6176L65.5908 26.3157H64.1595Z" fill="white"/>
<path d="M71.8634 26.3159V16.7138H74.684C75.1669 16.6934 75.6465 16.8032 76.0732 17.0318C76.4339 17.2462 76.7149 17.5738 76.8731 17.9644C77.0527 18.4377 77.1385 18.9418 77.1257 19.4482C77.147 19.9685 77.0384 20.486 76.8099 20.9532C76.6125 21.326 76.2926 21.6183 75.9048 21.7798C75.4834 21.9766 75.022 22.071 74.5577 22.0554H73.6315V26.2947L71.8634 26.3159ZM73.6105 20.826H74.263C74.5165 20.833 74.7684 20.7823 74.9997 20.6776C75.0872 20.633 75.1643 20.5703 75.226 20.4936C75.2876 20.4169 75.3325 20.3279 75.3576 20.2325C75.3983 19.9656 75.3983 19.6939 75.3576 19.427C75.3942 19.1456 75.3942 18.8606 75.3576 18.5791C75.3441 18.4822 75.3086 18.3897 75.2539 18.3088C75.1991 18.2279 75.1265 18.1608 75.0418 18.1128C74.7949 17.9856 74.5188 17.9271 74.242 17.9432H73.5894L73.6105 20.826Z" fill="white"/>
<path d="M78.6622 26.3157V18.0066H77.1466V16.7136H81.9037V18.0066H80.4092V26.3157H78.6622Z" fill="white"/>
<path d="M82.451 26.3157V16.7136H84.177V26.3157H82.451Z" fill="white"/>
<path d="M87.8816 26.4431C87.3233 26.4713 86.7684 26.3389 86.2819 26.0615C85.882 25.8088 85.5781 25.4281 85.4189 24.9805C85.2325 24.4351 85.14 23.8616 85.1453 23.2848V19.7025C85.138 19.1394 85.2306 18.5795 85.4189 18.0492C85.5714 17.6033 85.8776 17.2273 86.2819 16.9893C86.7823 16.7391 87.3335 16.6089 87.8922 16.6089C88.4509 16.6089 89.002 16.7391 89.5024 16.9893C89.9067 17.2273 90.2129 17.6033 90.3654 18.0492C90.565 18.5765 90.658 19.1386 90.6391 19.7025V23.306C90.6547 23.8697 90.5618 24.4311 90.3654 24.9593C90.2104 25.4147 89.906 25.8035 89.5024 26.0615C89.0102 26.344 88.4472 26.4766 87.8816 26.4431ZM87.8816 25.1501C88.1149 25.1679 88.3467 25.1002 88.5342 24.9593C88.6664 24.8156 88.7605 24.6406 88.8078 24.4506C88.8305 24.2038 88.8305 23.9555 88.8078 23.7087V19.2998C88.8314 19.0601 88.8314 18.8187 88.8078 18.5791C88.7605 18.3891 88.6664 18.2141 88.5342 18.0704C88.3438 17.937 88.1123 17.8768 87.8816 17.9008C87.6578 17.8801 87.434 17.9402 87.2502 18.0704C87.111 18.209 87.0158 18.386 86.9765 18.5791C86.9529 18.8187 86.9529 19.0601 86.9765 19.2998V23.7087C86.9539 23.9555 86.9539 24.2038 86.9765 24.4506C87.0074 24.6466 87.1039 24.8262 87.2502 24.9593C87.4312 25.097 87.6553 25.1647 87.8816 25.1501Z" fill="white"/>
<path d="M91.5231 26.3157V16.7136H92.7229L95.0593 22.1824V16.7136H96.4907V26.3157H95.333L93.0386 20.5714V26.3157H91.5231Z" fill="white"/>
<path d="M33.6805 41.98L35.596 32.3779H37.4483L39.3638 41.98H37.743L37.3641 39.8604H35.7223L35.3224 41.98H33.6805ZM35.8907 38.6521H37.1747L36.5432 34.6248L35.8907 38.6521Z" fill="white"/>
<path d="M39.9111 41.98V32.3779H41.1319L43.4473 37.8679V32.3779H44.8786V41.98H43.7209L41.3845 36.2569V41.98H39.9111Z" fill="white"/>
<path d="M45.9732 41.9802V32.3781H48.2254C48.8463 32.3552 49.4645 32.471 50.0357 32.7172C50.4569 32.911 50.7883 33.2599 50.9618 33.6923C51.1642 34.2262 51.2572 34.7958 51.2354 35.3668V38.8854C51.2546 39.4771 51.1617 40.0669 50.9618 40.6236C50.79 41.0672 50.4597 41.4302 50.0357 41.641C49.4896 41.8961 48.8897 42.0126 48.2886 41.9802H45.9732ZM47.6992 40.772H48.2465C48.5457 40.7975 48.8443 40.7149 49.0885 40.5388C49.1855 40.4686 49.2646 40.3764 49.3195 40.2696C49.3744 40.1627 49.4034 40.0444 49.4042 39.9241C49.4293 39.5925 49.4293 39.2594 49.4042 38.9278V35.2608C49.4436 34.9512 49.4436 34.6378 49.4042 34.3282C49.39 34.2204 49.3525 34.117 49.2943 34.0255C49.2361 33.9339 49.1587 33.8563 49.0674 33.7982C48.8136 33.6693 48.5302 33.6107 48.2465 33.6287H47.7203L47.6992 40.772Z" fill="white"/>
<path d="M54.6663 41.9806V32.3786H57.4658C57.9507 32.3646 58.4304 32.4817 58.8551 32.7177C59.2143 32.9243 59.4956 33.2447 59.6549 33.6292C59.833 34.1028 59.9187 34.6066 59.9075 35.1129C59.9288 35.6333 59.8203 36.1507 59.5918 36.6179C59.3867 36.9823 59.0791 37.2773 58.7077 37.4658C58.2809 37.6432 57.8223 37.7298 57.3606 37.7201H56.4134V41.9595L54.6663 41.9806ZM56.4134 36.4907H57.0659C57.3424 36.4904 57.6129 36.4094 57.8447 36.2575C57.9315 36.2175 58.0086 36.1588 58.0704 36.0856C58.1322 36.0123 58.1773 35.9263 58.2025 35.8336C58.2871 35.5668 58.3228 35.2866 58.3078 35.0069C58.3328 34.7249 58.3328 34.4411 58.3078 34.1591C58.2584 33.9662 58.138 33.7995 57.971 33.6927C57.7218 33.5738 57.4461 33.5226 57.1711 33.5444H56.5186L56.4134 36.4907Z" fill="white"/>
<path d="M60.4758 41.9806V32.3785H62.7491C63.2984 32.3673 63.8457 32.4461 64.3699 32.6116C64.7976 32.7486 65.1631 33.0341 65.4013 33.4171C65.6424 33.8805 65.7585 34.3994 65.7381 34.9221C65.7736 35.2674 65.7736 35.6154 65.7381 35.9607C65.6845 36.2477 65.5616 36.5171 65.3803 36.745C65.2059 36.9822 64.9634 37.1597 64.6856 37.2537L66.0117 41.9806H64.1594L63.0017 37.5929H62.2019V41.9806H60.4758ZM62.2019 36.4906H62.7491C63.0228 36.494 63.2945 36.4436 63.549 36.3423C63.6513 36.2949 63.7431 36.2273 63.8191 36.1436C63.895 36.0599 63.9535 35.9616 63.991 35.8547C64.0836 35.5894 64.1265 35.3091 64.1173 35.0281C64.1498 34.647 64.0534 34.266 63.8437 33.947C63.7177 33.8139 63.5628 33.7121 63.3912 33.6496C63.2195 33.587 63.0357 33.5655 62.8544 33.5867H62.2019V36.4906Z" fill="white"/>
<path d="M69.2533 42.1074C68.6947 42.138 68.1392 42.0055 67.6536 41.7259C67.2537 41.4732 66.9497 41.0925 66.7906 40.6449C66.6041 40.1068 66.5115 39.5402 66.5169 38.9703V35.3669C66.5114 34.8039 66.604 34.2443 66.7906 33.7136C66.9431 33.2677 67.2493 32.8917 67.6536 32.6537C68.1392 32.3741 68.6947 32.2416 69.2533 32.2722C69.8188 32.2387 70.3819 32.3712 70.8741 32.6537C71.2784 32.8917 71.5845 33.2677 71.7371 33.7136C71.9335 34.2417 72.0264 34.8032 72.0107 35.3669V38.9703C72.0244 39.5408 71.9316 40.1089 71.7371 40.6449C71.5779 41.0925 71.274 41.4732 70.8741 41.7259C70.3819 42.0084 69.8188 42.141 69.2533 42.1074ZM69.2533 40.8144C69.4865 40.8323 69.7183 40.7645 69.9058 40.6237C70.038 40.4799 70.1321 40.305 70.1795 40.1149C70.2012 39.8752 70.2012 39.634 70.1795 39.3943V34.9642C70.2022 34.7245 70.2022 34.4832 70.1795 34.2435C70.1321 34.0534 70.038 33.8785 69.9058 33.7347C69.7114 33.6105 69.4831 33.5512 69.2533 33.5652C69.0304 33.5542 68.8097 33.6135 68.6218 33.7347C68.4826 33.8733 68.3874 34.0504 68.3482 34.2435C68.3255 34.4832 68.3255 34.7245 68.3482 34.9642V39.3943C68.3265 39.634 68.3265 39.8752 68.3482 40.1149C68.379 40.311 68.4756 40.4905 68.6218 40.6237C68.8028 40.7614 69.0269 40.829 69.2533 40.8144Z" fill="white"/>
<path d="M72.9369 41.9802V32.3781H75.1891C75.81 32.3552 76.4281 32.471 76.9993 32.7172C77.4205 32.911 77.752 33.2599 77.9255 33.6923C78.1278 34.2262 78.2209 34.7958 78.1991 35.3668V38.8854C78.2183 39.4771 78.1254 40.0669 77.9255 40.6236C77.7554 41.0615 77.434 41.4229 77.0204 41.641C76.4661 41.8939 75.86 42.0101 75.2522 41.9802H72.9369ZM74.6839 40.772H75.2102C75.5156 40.7937 75.8195 40.7116 76.0732 40.5388C76.2546 40.3837 76.368 40.1628 76.3889 39.9241C76.3889 39.6485 76.3889 39.3306 76.3889 38.9278V35.2608C76.416 34.9505 76.416 34.6385 76.3889 34.3282C76.3673 34.2203 76.3245 34.1179 76.263 34.0269C76.2016 33.9359 76.1227 33.8581 76.0311 33.7982C75.7772 33.6693 75.4939 33.6107 75.2102 33.6287H74.6839V40.772Z" fill="white"/>
<path d="M81.7353 42.1072C81.1633 42.1377 80.5944 42.0055 80.0935 41.7257C79.7097 41.4517 79.4281 41.0562 79.2936 40.6022C79.1313 40.0449 79.0533 39.4661 79.0621 38.8853V32.3779H80.746V39.0761C80.7235 39.3582 80.7235 39.6418 80.746 39.9239C80.7735 40.1353 80.8612 40.3341 80.9986 40.4963C81.0829 40.5833 81.1848 40.651 81.2974 40.6949C81.41 40.7388 81.5306 40.7578 81.6511 40.7506C81.7752 40.7625 81.9003 40.7458 82.017 40.7017C82.1337 40.6576 82.2389 40.5874 82.3247 40.4963C82.4726 40.3139 82.5673 40.0937 82.5983 39.8604C82.6208 39.5782 82.6208 39.2947 82.5983 39.0125V32.3779H84.2822V38.8853C84.2911 39.4661 84.213 40.0449 84.0507 40.6022C83.9162 41.0562 83.6346 41.4517 83.2508 41.7257C82.7864 41.9813 82.2646 42.1126 81.7353 42.1072Z" fill="white"/>
<path d="M88.0079 42.1072C87.4327 42.1451 86.8597 42.0045 86.3661 41.7045C85.9628 41.4322 85.6653 41.0278 85.5242 40.5599C85.3631 40.024 85.285 39.4663 85.2926 38.9065V35.4939C85.2854 34.9132 85.3634 34.3346 85.5242 33.7769C85.6737 33.3246 85.9704 32.9363 86.3661 32.6747C86.8635 32.3842 87.4336 32.2444 88.0079 32.272C88.5404 32.2517 89.0693 32.3685 89.5445 32.6111C89.9124 32.8364 90.1941 33.1799 90.3444 33.5862C90.5029 34.0571 90.5812 34.5516 90.5759 35.0487V35.8542H88.913V35.0275C88.9254 34.7804 88.9254 34.5328 88.913 34.2857C88.8922 34.0891 88.8113 33.904 88.6815 33.7557C88.4924 33.6254 88.2686 33.5557 88.0395 33.5557C87.8104 33.5557 87.5866 33.6254 87.3975 33.7557C87.2518 33.904 87.1624 34.099 87.1449 34.3069C87.1215 34.5677 87.1215 34.8302 87.1449 35.0911V39.3305C87.1071 39.6118 87.1071 39.897 87.1449 40.1783C87.1581 40.2786 87.191 40.3751 87.2416 40.4625C87.2922 40.5498 87.3595 40.6261 87.4396 40.687C87.6089 40.8143 87.8185 40.8746 88.029 40.8566C88.2563 40.8797 88.4833 40.8111 88.6605 40.6659C88.7764 40.5034 88.8489 40.3136 88.871 40.1147C88.8944 39.8538 88.8944 39.5914 88.871 39.3305V38.3766H90.5338V39.1609C90.539 39.6719 90.4608 40.1804 90.3023 40.6659C90.17 41.0925 89.8947 41.4596 89.5235 41.7045C89.0649 41.9771 88.5404 42.1165 88.0079 42.1072Z" fill="white"/>
<path d="M92.3861 41.98V33.6709H90.8705V32.3779H95.7329V33.6709H94.2384V41.98H92.3861Z" fill="white"/>
<path d="M96.196 41.98V32.3779H97.8378V41.98H96.196Z" fill="white"/>
<path d="M101.606 42.1071C101.047 42.1353 100.492 42.003 100.006 41.7256C99.6059 41.4729 99.3019 41.0922 99.1428 40.6445C98.9563 40.1064 98.8638 39.5399 98.8692 38.97V35.3666C98.8636 34.8036 98.9562 34.244 99.1428 33.7132C99.2953 33.2674 99.6015 32.8914 100.006 32.6534C100.506 32.4032 101.057 32.2729 101.616 32.2729C102.175 32.2729 102.726 32.4032 103.226 32.6534C103.631 32.8914 103.937 33.2674 104.089 33.7132C104.286 34.2414 104.379 34.8028 104.363 35.3666V38.97C104.377 39.5405 104.284 40.1085 104.089 40.6445C103.93 41.0922 103.626 41.4729 103.226 41.7256C102.734 42.0081 102.171 42.1406 101.606 42.1071ZM101.606 40.8141C101.839 40.832 102.071 40.7642 102.258 40.6234C102.39 40.4796 102.484 40.3047 102.532 40.1146C102.553 39.8749 102.553 39.6337 102.532 39.3939V34.9638C102.554 34.7242 102.554 34.4828 102.532 34.2432C102.484 34.0531 102.39 33.8782 102.258 33.7344C102.064 33.6102 101.835 33.5509 101.606 33.5649C101.383 33.5539 101.162 33.6132 100.974 33.7344C100.835 33.873 100.74 34.0501 100.7 34.2432C100.678 34.4828 100.678 34.7242 100.7 34.9638V39.3939C100.679 39.6337 100.679 39.8749 100.7 40.1146C100.731 40.3107 100.828 40.4902 100.974 40.6234C101.155 40.761 101.379 40.8287 101.606 40.8141Z" fill="white"/>
<path d="M105.289 41.98V32.3779H106.489L108.825 37.8679V32.3779H110.257V41.98H109.099L106.763 36.2569V41.98H105.289Z" fill="white"/>
<path d="M91.2284 57.899C88.918 56.1652 86.2858 54.9154 83.4875 54.2237C80.6892 53.532 77.7815 53.4122 74.9365 53.8716H74.6208C71.3792 54.6347 66.2012 55.9913 60.1601 63.4737V63.6009C60.0947 63.6861 60.0579 63.79 60.0549 63.8976C60.0359 63.9814 60.0359 64.0683 60.0549 64.152L60.2022 64.3852C60.96 65.657 61.9282 67.3103 62.7281 68.8153C62.7707 68.9029 62.8365 68.9769 62.9182 69.0293C62.9999 69.0816 63.0943 69.1103 63.1912 69.112C63.3236 69.1045 63.4497 69.0523 63.549 68.9637V68.7941C68.9165 61.3328 73.1263 60.3154 75.9679 59.6371H76.3257C80.2734 59.1296 84.2644 60.1609 87.4817 62.5199C90.6601 65.0423 92.2598 69.0696 92.2598 74.4536C92.2598 83.4834 87.9026 87.0232 84.2401 88.401C80.5662 89.6165 76.5675 89.3506 73.0842 87.6591L72.8316 87.5319C69.7163 86.1753 65.0645 83.2926 60.6863 74.4748C51.8458 56.606 44.4576 54.9103 39.6374 53.808H39.3848C36.5812 53.3516 33.7149 53.4713 30.9584 54.1598C28.2019 54.8483 25.6123 56.0913 23.3455 57.8142C20.1671 60.379 16.3783 65.339 16.3783 74.4748C16.1122 79.1992 17.5555 83.8606 20.4407 87.5955C22.7668 90.5075 25.8608 92.7003 29.3678 93.9225C32.8749 95.1447 36.653 95.3468 40.2689 94.5056C43.1052 93.899 45.7681 92.6524 48.057 90.8598L50.7933 93.4882C50.8791 93.5687 50.9919 93.6134 51.1091 93.6134C51.2263 93.6134 51.3391 93.5687 51.4248 93.4882C51.4997 93.4001 51.5374 93.286 51.53 93.1702L53.6349 80.7066V80.5794C53.6299 80.4518 53.5773 80.3307 53.4876 80.2403C53.4481 80.2036 53.4016 80.1753 53.351 80.1571C53.3003 80.1389 53.2466 80.1311 53.1929 80.1343H52.9614L41.0056 83.3986H40.7951C40.7081 83.4196 40.6282 83.4635 40.5635 83.5258C40.4774 83.6131 40.4291 83.7312 40.4291 83.8543C40.4291 83.9774 40.4774 84.0955 40.5635 84.1829L40.6898 84.31L43.342 86.7265C42.0276 87.6158 40.5554 88.2419 39.0059 88.5706C36.5087 89.1868 33.8904 89.0908 31.4442 88.2934C28.9981 87.496 26.8207 86.0287 25.1557 84.0557C23.0667 81.3656 22.053 77.9856 22.3141 74.5808C22.3141 69.1756 23.8928 65.1694 27.008 62.647C30.1646 60.315 34.0923 59.2977 37.9745 59.8067H38.2271C42.2475 60.7181 47.7412 61.9264 55.2978 77.2727C59.234 85.2215 64.1594 90.4147 70.3478 93.1491C73.2944 94.5561 76.5167 95.2804 79.7777 95.2687C82.0181 95.2742 84.2416 94.8795 86.345 94.1029C89.9233 92.7463 98.2798 88.1254 98.2798 74.4748C98.2798 65.339 94.4278 60.3578 91.2073 57.793" fill="white"/>
</svg>
