<svg width="107" height="97" viewBox="0 0 107 97" fill="none" xmlns="http://www.w3.org/2000/svg">
<path d="M105.968 71.092C86.4548 44.6473 49.5042 39.2334 23.1406 58.8067C18.5736 62.3465 14.4219 66.3028 10.8929 71.092L10.4777 71.5084L10.8929 72.1331C30.4061 98.5779 67.3568 103.992 93.7204 84.4185C98.2873 80.8786 102.439 76.9223 105.968 72.1331L106.383 71.5084L105.968 71.092ZM42.4462 59.0149C42.6538 58.5984 43.4842 57.5573 43.6917 57.3491C43.8993 57.1408 44.3145 56.9326 44.7297 56.9326C44.9373 56.9326 45.3525 56.9326 45.56 57.3491C45.56 57.7655 45.56 58.182 45.3524 58.5984C44.7297 59.2231 44.1069 59.4313 43.2766 59.6396C42.6538 59.6396 42.4462 59.2231 42.4462 59.0149ZM41.4083 61.0971C42.031 60.6807 42.4462 60.4725 43.069 60.4725C43.4842 60.4725 44.3145 60.6807 44.3145 60.8889C44.3145 61.0971 43.069 61.93 42.8614 62.1383C42.2386 62.7629 41.2007 64.0123 40.3703 64.2205C40.1628 64.2205 39.9552 64.2205 39.7476 64.2205C40.3703 63.1794 40.9931 62.1383 41.4083 61.0971ZM52.2028 83.3773C51.9953 84.4185 51.5801 85.2514 50.9573 85.8761C50.127 86.5007 49.2966 86.9172 48.2587 86.9172C47.4283 86.9172 47.2207 84.4185 47.2207 83.1691C47.2207 82.7527 46.598 84.002 46.1828 81.5033C45.9752 79.8375 44.9373 81.7115 44.9373 80.4622C44.9373 79.421 44.3145 79.6293 43.6917 78.7964C43.069 78.1717 42.4462 78.7964 41.6159 79.2128C40.7855 79.6293 41.2007 79.8375 39.9552 79.421C38.9172 76.9223 38.2945 74.2154 38.2945 71.7167C38.2945 71.092 38.2945 70.2591 38.2945 69.6344L38.5021 69.4262C39.54 68.1768 39.54 67.7604 39.54 67.7604L40.7855 67.3439C41.8235 67.5522 43.069 67.7604 44.1069 68.1768C45.3524 68.5933 47.0131 69.6344 48.2587 69.218C49.2966 68.8015 49.7118 68.5933 49.5042 67.7604C49.5042 67.1357 48.6739 66.7192 48.0511 67.3439C47.8435 67.5522 47.2207 66.0946 46.8056 66.0946C46.3904 66.0946 47.4283 67.7604 47.0132 67.7604C46.598 67.7604 45.7676 66.0946 45.56 65.8863C45.3525 65.6781 44.7297 64.8452 44.3145 65.4699C43.069 66.511 41.2007 66.511 40.7855 66.7192C39.54 67.5522 39.3324 66.511 39.3324 65.6781C39.3324 65.4699 39.3324 65.2617 39.54 65.2617C40.1628 64.8452 40.9931 64.637 41.8235 65.0534C42.2386 65.4699 42.6538 65.0534 42.8614 64.8452C43.069 64.637 43.069 64.2205 42.8614 64.0123C42.6538 63.8041 43.069 63.5959 43.4842 63.3876C44.1069 63.1794 44.5221 62.763 45.1449 62.3465C46.1828 61.93 47.2207 61.93 48.2587 62.3465C48.8814 62.763 49.9194 62.5547 50.3346 61.93C50.7497 61.5136 51.1649 61.0971 51.7877 60.6807C51.9953 60.4725 51.1649 59.6396 50.3346 60.6807C49.5042 61.7218 49.089 61.7218 48.6739 61.7218C48.2587 61.7218 45.9752 61.0971 45.7676 60.4725C45.56 59.8478 46.3904 59.2231 47.4283 58.8067C48.6739 58.3902 49.7118 58.182 50.9573 58.182C52.2028 57.9737 53.656 57.3491 54.4863 57.7655C55.3167 58.3902 51.1649 59.2231 52.618 59.8478C53.0332 60.056 55.3167 58.5984 55.9394 58.182C57.6001 57.3491 54.2787 56.9326 54.6939 55.2668C55.1091 53.3928 50.5421 54.0175 48.2587 54.2257C57.6001 48.1871 69.8478 51.1023 75.8678 60.4725C77.1134 62.3465 77.9437 64.4288 78.3589 66.511C78.3589 66.7192 78.3589 67.1357 78.3589 67.3439C78.1513 67.9686 77.321 68.3851 76.6982 68.1768C76.4906 68.1768 76.283 67.9686 76.0754 67.5521C75.8678 67.3439 75.0375 66.511 75.0375 67.7604C75.0375 69.218 76.4906 69.218 75.0375 70.0509C74.4147 70.4673 73.792 70.6755 72.9616 70.8838C72.1313 71.5085 71.9237 72.3414 71.9237 73.3825C72.1313 74.2154 73.9995 76.2977 72.5464 76.0894C71.3009 75.4647 70.263 74.6318 69.4326 73.3825C69.0174 72.3414 68.6023 71.092 68.1871 70.2591C67.9795 69.6344 67.3567 69.218 66.734 69.4262C66.5264 69.4262 66.5264 69.6344 66.3188 69.6344C65.696 70.0509 66.5264 70.6755 65.9036 71.7167C65.2809 72.7578 65.0733 73.7989 64.2429 72.7578C62.3746 70.4673 59.4684 71.7167 59.0532 69.0097C58.8456 67.5522 57.6001 67.7604 56.7698 66.9275C55.7318 66.0946 55.3167 65.6781 55.1091 66.3028C54.9015 66.9275 58.2229 69.4262 58.4305 70.0509C58.8456 71.092 57.3925 71.9249 56.5622 72.1331C55.5242 72.3414 55.1091 71.5084 54.2787 70.6755C53.4484 69.6344 53.0332 69.0097 52.8256 69.8426C52.8256 71.092 53.656 72.3414 54.6939 73.1743C55.5242 73.7989 56.3546 74.0072 56.147 74.8401C55.9394 75.673 56.147 75.2565 55.3167 76.0894C54.4863 76.7141 54.0711 77.547 54.2787 78.5881C54.2787 79.421 54.0711 80.254 53.8635 80.8786C53.656 81.9198 53.2408 81.0869 52.8256 82.5444M73.5844 75.2565C74.2071 75.2565 75.2451 76.0894 74.8299 76.5059C74.2071 76.9223 73.3768 76.7141 72.9616 76.2977C72.5464 75.8812 73.3768 75.2565 73.5844 75.2565ZM72.754 74.6318C72.5464 74.6318 72.3388 74.4236 72.1313 73.7989C71.9237 73.1743 72.3388 72.966 72.754 73.1743C73.1692 73.3825 73.5844 73.7989 73.792 74.2154C73.792 74.6318 72.9616 74.6318 72.754 74.6318ZM64.0353 74.6318C63.4126 74.8401 62.5822 74.8401 62.1671 74.4236C61.5443 74.0072 62.5822 73.3825 62.7898 73.3825C63.4126 73.3825 64.2429 74.2154 64.0353 74.6318ZM55.7318 78.5881C55.5242 79.0046 54.6939 82.3362 54.2787 82.128C53.8635 81.7115 54.4863 78.1717 54.6939 77.9635C55.3167 76.2976 57.1849 76.5059 55.7318 78.5881ZM58.4305 91.7064C56.5622 91.7064 54.6939 91.4982 52.8256 90.8735C52.618 90.6653 52.4104 90.2488 52.618 89.8324C53.4484 88.3748 54.9015 87.5419 56.5622 87.3336C59.8836 86.9172 64.0353 89.4159 64.6581 88.9995C65.2809 88.583 66.734 86.9172 68.8099 86.9172C69.4326 86.9172 70.0554 87.1254 70.6781 87.3336C67.1492 90.2488 62.7898 91.7064 58.4305 91.7064ZM72.5464 85.8761C72.3388 85.8761 72.1313 85.6678 71.9237 85.6678C70.8857 85.0432 70.8857 86.0843 70.4706 85.8761C70.0554 85.6678 71.0933 84.4185 69.4326 85.4596C67.7719 86.5007 68.1871 85.2514 67.5643 83.5856C67.1492 81.9198 67.9795 80.0457 69.6402 79.2128C70.8857 78.7964 72.1313 78.5881 73.3768 78.1717C75.8678 77.547 76.283 76.0894 76.6982 76.9223C76.6982 77.1306 76.9058 77.3388 76.9058 77.3388C77.1134 77.7552 77.1134 78.1717 77.321 78.5881C76.0754 81.5033 74.6223 83.7938 72.5464 85.8761ZM78.1513 75.673C77.5285 75.4647 75.4527 72.3414 77.1134 70.4673C77.321 70.0509 76.4906 69.218 76.6982 69.0097C77.5285 69.0097 78.3589 69.6344 78.3589 70.4673V71.5084C78.5665 72.966 78.3589 74.2154 78.1513 75.673Z" fill="white"/>
<path d="M13.1763 24.569C12.1384 22.9032 11.5156 21.0292 11.5156 19.1551V18.114H16.2901V18.9469C16.2901 19.7798 16.4977 20.8209 16.7053 21.6539C16.9129 22.2785 17.5357 22.4868 18.366 22.4868C18.9888 22.4868 19.6115 22.2785 19.8191 21.6539C20.2343 20.8209 20.2343 19.7798 20.2343 18.9469C20.2343 17.9058 20.0267 16.8646 19.6115 16.0317C19.1964 15.4071 18.366 14.9906 17.5357 14.9906H16.7053V11.659H17.5357C18.366 11.659 19.1964 11.4508 19.6115 10.8261C20.0267 9.99319 20.2343 8.95205 20.2343 7.91092C20.2343 7.07802 20.2343 6.24511 19.8191 5.62044C19.1964 4.99576 18.7812 4.78753 18.1584 4.78753C17.5357 4.5793 16.9129 4.99576 16.7053 5.62044C16.2901 6.24511 16.2901 7.07802 16.2901 7.91092V8.95205H11.5156V7.91092C11.5156 6.03689 12.1384 4.16285 13.3839 2.91349C14.6294 1.66414 16.2901 1.03946 18.1584 1.03946C20.0267 0.831233 21.6874 1.45591 23.1405 2.70527C24.3861 3.95463 25.0088 5.82866 24.8012 7.49447C24.8012 8.74383 24.5937 9.99319 23.9709 11.0343C23.5557 11.8672 22.7254 12.4919 21.6874 12.9084C23.7633 13.7413 24.8012 15.6153 24.8012 18.7387C25.0088 20.8209 24.3861 22.695 23.1405 24.3608C21.895 25.8184 20.0267 26.6513 18.1584 26.4431C16.2901 26.6513 14.4219 26.0266 13.1763 24.569Z" fill="white"/>
<path d="M4.45761 6.11733C4.25002 6.32555 3.62726 6.53378 2.58932 6.95023L0.928619 7.36668V4.03507C1.75897 3.61861 2.58932 3.20216 3.41967 2.78571C4.25002 2.36926 4.87279 1.9528 5.49555 1.32812H9.23213V25.8988H4.45761V6.11733Z" fill="white"/>
<path d="M34.7185 6.56957V7.79191C34.7185 8.5367 34.5345 9.11063 34.1665 9.51369C33.8072 9.908 33.2727 10.1051 32.563 10.1051C31.8532 10.1051 31.3143 9.908 30.9463 9.51369C30.5871 9.11063 30.4074 8.5367 30.4074 7.79191V3.0077C30.4074 2.26291 30.5871 1.69336 30.9463 1.29906C31.3143 0.895992 31.8532 0.69446 32.563 0.69446C33.2727 0.69446 33.8072 0.895992 34.1665 1.29906C34.5345 1.69336 34.7185 2.26291 34.7185 3.0077V3.90145H33.3516V2.9157C33.3516 2.58273 33.2815 2.35053 33.1413 2.2191C33.0098 2.0789 32.8302 2.0088 32.6024 2.0088C32.3746 2.0088 32.1906 2.0789 32.0504 2.2191C31.9189 2.35053 31.8532 2.58273 31.8532 2.9157V7.88391C31.8532 8.21688 31.9189 8.44908 32.0504 8.58051C32.1906 8.71194 32.3746 8.77766 32.6024 8.77766C32.8302 8.77766 33.0098 8.71194 33.1413 8.58051C33.2815 8.44908 33.3516 8.21688 33.3516 7.88391V6.56957H34.7185ZM36.2529 0.799607H37.6987V8.68566H40.0776V10H36.2529V0.799607ZM41.3896 0.799607H42.8354V10H41.3896V0.799607ZM47.6121 7.33189L48.5978 0.799607H50.6088V10H49.2419V3.402L48.243 10H46.876L45.7983 3.49401V10H44.5365V0.799607H46.5475L47.6121 7.33189ZM56.9967 10H55.5378L55.288 8.33079H53.5137L53.264 10H51.9365L53.4085 0.799607H55.5246L56.9967 10ZM53.6977 7.08216H55.0909L54.3943 2.42939L53.6977 7.08216ZM57.9328 0.799607H62.4016V2.11395H60.8901V10H59.4443V2.11395H57.9328V0.799607ZM65.1663 4.67692H67.151V5.99126H65.1663V8.68566H67.6636V10H63.7206V0.799607H67.6636V2.11395H65.1663V4.67692ZM35.2048 25H33.7459L33.4961 23.3308H31.7218L31.4721 25H30.1446L31.6166 15.7996H33.7327L35.2048 25ZM31.9058 22.0822H33.299L32.6024 17.4294L31.9058 22.0822ZM40.728 21.5696V22.7919C40.728 23.5367 40.544 24.1106 40.176 24.5137C39.8167 24.908 39.2822 25.1051 38.5725 25.1051C37.8627 25.1051 37.3239 24.908 36.9558 24.5137C36.5966 24.1106 36.417 23.5367 36.417 22.7919V18.0077C36.417 17.2629 36.5966 16.6934 36.9558 16.2991C37.3239 15.896 37.8627 15.6945 38.5725 15.6945C39.2822 15.6945 39.8167 15.896 40.176 16.2991C40.544 16.6934 40.728 17.2629 40.728 18.0077V18.9015H39.3611V17.9157C39.3611 17.5827 39.291 17.3505 39.1508 17.2191C39.0194 17.0789 38.8397 17.0088 38.6119 17.0088C38.3841 17.0088 38.2001 17.0789 38.0599 17.2191C37.9285 17.3505 37.8627 17.5827 37.8627 17.9157V22.8839C37.8627 23.2169 37.9285 23.4491 38.0599 23.5805C38.2001 23.7119 38.3841 23.7777 38.6119 23.7777C38.8397 23.7777 39.0194 23.7119 39.1508 23.5805C39.291 23.4491 39.3611 23.2169 39.3611 22.8839V21.5696H40.728ZM41.8681 15.7996H46.3369V17.1139H44.8254V25H43.3796V17.1139H41.8681V15.7996ZM47.6558 15.7996H49.1016V25H47.6558V15.7996ZM52.1434 22.8839C52.1434 23.2169 52.2091 23.4535 52.3405 23.5937C52.4807 23.7251 52.6647 23.7908 52.8925 23.7908C53.1204 23.7908 53.3 23.7251 53.4314 23.5937C53.5716 23.4535 53.6417 23.2169 53.6417 22.8839V17.9157C53.6417 17.5827 53.5716 17.3505 53.4314 17.2191C53.3 17.0789 53.1204 17.0088 52.8925 17.0088C52.6647 17.0088 52.4807 17.0789 52.3405 17.2191C52.2091 17.3505 52.1434 17.5827 52.1434 17.9157V22.8839ZM50.6976 18.0077C50.6976 17.2629 50.886 16.6934 51.2628 16.2991C51.6395 15.896 52.1828 15.6945 52.8925 15.6945C53.6023 15.6945 54.1456 15.896 54.5223 16.2991C54.8991 16.6934 55.0875 17.2629 55.0875 18.0077V22.7919C55.0875 23.5367 54.8991 24.1106 54.5223 24.5137C54.1456 24.908 53.6023 25.1051 52.8925 25.1051C52.1828 25.1051 51.6395 24.908 51.2628 24.5137C50.886 24.1106 50.6976 23.5367 50.6976 22.7919V18.0077ZM57.9723 18.3363V25H56.6711V15.7996H58.4849L59.9701 21.3067V15.7996H61.2581V25H59.7729L57.9723 18.3363Z" fill="white"/>
</svg>
