<svg width="459" height="20" viewBox="0 0 459 20" fill="none" xmlns="http://www.w3.org/2000/svg">
<path d="M94.0269 10.5366C145.133 9.56097 195.858 6.82926 246.963 5.95121C246.868 5.07317 246.678 4.29268 246.583 3.41463C165.404 8.39024 82.9873 3.41463 1.52269 6.34146C-1.04687 6.43902 -0.0951806 8.87804 2.47438 8.78048C153.603 3.99999 305.112 1.46341 457.097 2.82926C457.192 1.95122 457.192 1.17073 457.287 0.292678C330.046 2.43902 202.52 0.780484 75.3738 2.82926C72.8994 2.82926 72.6139 5.36585 75.1835 5.36585C187.483 6.2439 299.687 7.31707 412.082 10.1463C411.987 9.26829 411.796 8.4878 411.701 7.60975C307.11 12.7805 200.426 2.7317 96.5965 12.1951C94.0269 12.3902 95.0738 14.7317 97.5482 14.6341C202.044 11.2195 307.015 11.6098 411.987 12.0976C414.556 12.0976 414.651 9.56097 412.177 9.56097C305.683 9.07317 198.713 6.63414 93.3608 13.9512C90.7912 14.1463 91.7429 16.5854 94.3125 16.3902C152.366 13.8537 212.036 17.7561 270.375 19.1219C298.545 19.7073 326.81 20.1951 354.79 19.4146C370.398 18.9268 390.764 19.0244 403.802 13.1707C405.801 12.2927 403.136 10.3415 401.137 11.2195C386.957 17.561 362.308 16.7805 345.368 17.0732C316.627 17.6585 287.696 16.9756 258.86 16.2927C203.947 15.0244 147.988 11.4146 93.3608 13.8537C93.6463 14.7317 93.9318 15.5122 94.3125 16.2927C199.379 8.97561 305.873 11.4146 412.082 11.9024C412.177 11.0244 412.177 10.2439 412.272 9.36585C306.73 9.17073 201.378 8.78048 96.5965 12.2927C96.882 13.1707 97.1675 13.9512 97.5482 14.7317C201.282 5.26829 308.062 15.3171 412.653 10.1463C414.842 10.0488 414.461 7.70731 412.272 7.60975C299.973 4.78048 187.673 3.70731 75.469 2.82926C75.3738 3.70731 75.3738 4.4878 75.2787 5.36585C202.329 3.21951 329.856 4.97561 457.001 2.92682C459.476 2.92682 459.761 0.390239 457.192 0.390239C304.921 -0.975614 153.032 1.56097 1.52269 6.34146C1.8082 7.21951 2.09371 8 2.47438 8.78048C83.939 5.85365 166.355 10.8293 247.535 5.85365C249.723 5.75609 249.343 3.31707 247.154 3.31707C196.048 4.29268 145.323 7.02439 94.2173 7.90243C91.6477 8.09756 91.4574 10.6341 94.0269 10.5366Z" fill="#CDDC39"/>
</svg>
