<svg xmlns="http://www.w3.org/2000/svg" width="26" height="26" viewBox="0 0 26 26" fill="none">
<g clip-path="url(#clip0_196_1772)">
<path d="M13.0405 26.081C20.2426 26.081 26.081 20.2426 26.081 13.0405C26.081 5.83843 20.2426 0 13.0405 0C5.83843 0 0 5.83843 0 13.0405C0 20.2426 5.83843 26.081 13.0405 26.081Z" fill="#00B0EB"/>
<path d="M5.50781 8.01855C5.58881 8.09955 5.58881 8.09955 5.66981 8.09955C7.45174 9.71949 9.23367 11.2584 11.0156 12.8784L11.0966 12.9594C10.8536 13.2024 10.6106 13.3643 10.3676 13.6073C8.82869 14.9843 7.20875 16.4422 5.66981 17.8192C5.66981 17.8192 5.58881 17.9002 5.50781 17.9002C5.50781 14.6603 5.50781 11.3394 5.50781 8.01855Z" fill="#003548"/>
<path d="M13.6077 13.6073C11.2588 11.5013 8.90989 9.31442 6.47998 7.2085C11.2588 7.2085 15.9566 7.2085 20.7354 7.2085C18.3055 9.39541 15.9566 11.5013 13.6077 13.6073Z" fill="#003548"/>
<path d="M6.47998 18.7909C8.34291 17.09 10.2058 15.47 11.9878 13.8501C12.5547 14.3361 13.0407 14.8221 13.6077 15.308C14.1747 14.8221 14.6607 14.3361 15.2276 13.8501C17.0906 15.47 18.8725 17.171 20.7354 18.7909C15.9566 18.7909 11.2588 18.7909 6.47998 18.7909Z" fill="#003548"/>
<path d="M21.626 8.01855C21.626 11.3394 21.626 14.6603 21.626 17.9812C19.763 16.2802 17.9001 14.6603 16.1182 12.9594C17.9001 11.3394 19.763 9.71949 21.626 8.01855Z" fill="#003548"/>
</g>
<defs>
<clipPath id="clip0_196_1772">
<rect width="26" height="26" fill="white"/>
</clipPath>
</defs>
</svg>