<svg width="33" height="24" viewBox="0 0 33 24" fill="none" xmlns="http://www.w3.org/2000/svg">
<path d="M0 1.64941C0.164913 1.81433 0.164913 1.81433 0.329826 1.81433C3.95791 5.11259 7.586 8.24593 11.2141 11.5442L11.379 11.7091C10.8843 12.2038 10.3895 12.5337 9.89478 13.0284C6.76143 15.8319 3.46317 18.8004 0.329826 21.6039C0.329826 21.6039 0.164913 21.7688 0 21.7688C0 15.1723 0 8.41085 0 1.64941Z" fill="#003548"/>
<path d="M16.4917 13.0281C11.7092 8.74039 6.92676 4.28774 1.97937 0C11.7092 0 21.2742 0 31.0041 0C26.0567 4.45265 21.2742 8.74039 16.4917 13.0281Z" fill="#003548"/>
<path d="M1.97937 23.5831C5.77237 20.12 9.56537 16.8217 13.1935 13.5234C14.3478 14.5129 15.3373 15.5024 16.4917 16.4919C17.6461 15.5024 18.6356 14.5129 19.79 13.5234C23.583 16.8217 27.2111 20.2849 31.0041 23.5831C21.2742 23.5831 11.7092 23.5831 1.97937 23.5831Z" fill="#003548"/>
<path d="M32.8172 1.64941C32.8172 8.41085 32.8172 15.1723 32.8172 21.9337C29.0242 18.4705 25.2312 15.1723 21.6031 11.7091C25.2312 8.41085 29.0242 5.11259 32.8172 1.64941Z" fill="#003548"/>
</svg>
