<svg width="77" height="77" viewBox="0 0 77 77" fill="none" xmlns="http://www.w3.org/2000/svg">
<g id="Frame" clip-path="url(#clip0_3005_46)">
<g id="Group">
<path id="Vector" d="M76.9999 50.57C76.7137 51.9058 76.5229 53.1462 76.2366 54.482C73.4696 66.1227 63.3556 75.2825 51.4287 76.9046C50.8562 77 50.3791 77 49.8066 77.0954C49.8066 68.031 49.8066 58.9665 49.8066 49.9021C58.8711 49.9021 67.9355 49.9021 76.9999 49.9021C76.9999 49.9975 76.9999 50.2838 76.9999 50.57Z" fill="#00B0EB"/>
<path id="Vector_2" d="M76.9999 45.2268C69.4622 45.2268 61.9244 45.2268 54.2912 45.2268C54.2912 40.7423 54.2912 36.2578 54.2912 31.6779C52.7645 31.6779 51.3333 31.6779 49.8066 31.6779C49.8066 27.1934 49.8066 22.8043 49.8066 18.2244C51.2379 18.5106 52.7645 18.606 54.1003 18.9877C66.3135 22.3272 73.8513 30.0558 76.6183 42.5552C76.7137 43.2231 76.8091 43.891 76.9999 44.5589C76.9999 44.7498 76.9999 45.036 76.9999 45.2268Z" fill="#00B0EB"/>
<path id="Vector_3" d="M45.2266 0C45.2266 12.0223 45.2266 24.14 45.2266 36.2577C46.7533 36.2577 48.1845 36.2577 49.7111 36.2577C49.7111 37.7844 49.7111 39.2156 49.7111 40.7423C45.9899 40.7423 42.2688 40.7423 38.4521 40.7423C38.4521 27.1933 38.4521 13.6444 38.4521 0C40.7421 0 42.9367 0 45.2266 0Z" fill="#00B0EB"/>
<path id="Vector_4" d="M25.0937 66.409C20.0367 60.3024 17.7467 53.3371 18.2238 45.2268C27.6699 45.2268 37.0206 45.2268 46.1804 45.2268C39.2151 52.2875 32.1544 59.3482 25.0937 66.409Z" fill="#00B0EB"/>
<path id="Vector_5" d="M28.5293 69.8439C34.1588 64.2144 39.6929 58.6803 45.2269 53.1462C45.2269 61.0657 45.2269 68.9851 45.2269 77C38.8341 76.4275 33.3955 73.9467 28.5293 69.8439Z" fill="#00B0EB"/>
<path id="Vector_6" d="M33.8724 40.7424C31.5825 40.7424 29.3879 40.7424 27.1934 40.7424C27.1934 30.2467 27.1934 19.751 27.1934 9.25537C29.3879 9.25537 31.5825 9.25537 33.8724 9.25537C33.8724 19.6556 33.8724 30.1513 33.8724 40.7424Z" fill="#00B0EB"/>
<path id="Vector_7" d="M22.6136 40.7424C20.3237 40.7424 18.1291 40.7424 15.9346 40.7424C15.9346 33.2046 15.9346 25.7622 15.9346 18.3198C18.1291 18.3198 20.3237 18.3198 22.6136 18.3198C22.6136 25.7622 22.6136 33.2046 22.6136 40.7424Z" fill="#00B0EB"/>
<path id="Vector_8" d="M0 40.7424C0 39.3111 0 37.7845 0 36.2578C1.43123 36.2578 2.95787 36.2578 4.48451 36.2578C4.48451 33.2046 4.48451 30.2467 4.48451 27.2888C6.77447 27.2888 9.06444 27.2888 11.3544 27.2888C11.3544 31.7733 11.3544 36.2578 11.3544 40.7424C7.53779 40.7424 3.8166 40.7424 0 40.7424Z" fill="#00B0EB"/>
</g>
</g>
<defs>
<clipPath id="clip0_3005_46">
<rect width="77" height="77" fill="white"/>
</clipPath>
</defs>
</svg>
