<svg width="25" height="37" viewBox="0 0 25 37" fill="none" xmlns="http://www.w3.org/2000/svg">
<path d="M4.68165 36.9999C4.68165 36.5316 4.68165 35.9695 4.68165 35.5012C4.68165 33.2531 4.68165 31.0986 4.68165 28.8505C4.68165 28.6632 4.68165 28.4759 4.68165 28.2885C5.05618 28.3822 5.33708 28.4759 5.61798 28.5695C6.17978 28.6632 6.74157 28.7569 7.30337 28.8505C7.86517 28.9442 8.14607 28.7569 8.14607 28.3822C8.14607 28.0075 7.9588 27.9138 7.397 27.8202C5.24345 27.7265 3.46442 26.8835 2.05993 25.2911C0.749064 23.886 0 22.1999 0 20.3265C0 16.767 0 13.2075 0 9.64802C0 8.05561 1.1236 6.93156 2.71536 6.83789C5.24345 6.83789 7.6779 6.83789 10.206 6.83789C11.6105 6.83789 12.6404 8.05561 12.3595 9.367C12.1723 10.3037 11.3296 10.9594 10.2996 10.9594C8.70786 10.9594 7.1161 10.9594 5.52434 10.9594C4.68165 10.9594 4.58802 11.0531 4.58802 11.8961C4.58802 13.3949 4.58802 14.8936 4.58802 16.3923C4.58802 16.9543 4.68165 17.048 5.24345 17.1417C8.8015 17.329 11.236 19.8581 11.4232 23.4176C11.4232 23.7923 11.5169 24.0733 11.985 24.0733C12.3596 24.0733 12.5468 23.7923 12.4532 23.4176C12.2659 22.5746 12.1723 21.7316 11.985 20.8885C11.8914 20.6075 11.8914 20.4202 12.0787 20.2328C13.2959 18.8278 14.794 18.0784 16.573 17.8911H16.6667C17.2285 17.8911 17.5094 17.7037 17.4157 17.329C17.4157 16.9543 17.1348 16.8607 16.573 16.8607C14.5131 16.9543 12.8277 17.7974 11.4232 19.2961C11.3296 19.3898 11.3296 19.4835 11.3296 19.4835C10.7678 18.9214 10.2996 18.3594 9.73783 17.7974C8.61423 16.8607 7.397 16.2987 5.89888 16.1113C5.71161 16.1113 5.52434 16.1113 5.52434 15.7366C5.52434 14.5189 5.52434 13.3012 5.52434 12.0835C5.52434 12.0835 5.52434 11.9898 5.61798 11.8961C6.83521 11.8961 8.05243 11.8961 9.3633 11.8961C9.3633 12.3645 9.3633 12.8328 9.3633 13.2075C9.3633 14.6126 10.206 15.4556 11.6105 15.4556C12.0787 15.4556 12.5468 15.4556 13.015 15.4556C13.9513 15.4556 14.2322 15.3619 14.9813 14.7062C16.573 15.7366 18.8202 15.7366 20.2247 14.7062C21.0674 15.8303 22.3783 15.3619 23.5019 15.4556L23.5955 15.5493C23.5955 17.2354 23.6891 18.9214 23.5019 20.7012C23.3146 23.324 21.9101 25.2911 19.6629 26.6024C18.633 27.2581 17.4157 27.5392 16.1985 27.6328C16.1049 27.6328 16.0112 27.6328 15.9176 27.6328C15.6367 27.7265 15.4494 27.8202 15.4494 28.1949C15.4494 28.4759 15.6367 28.6632 15.9176 28.6632C16.6667 28.5695 17.5094 28.4759 18.2584 28.2885C18.4457 28.2885 18.633 28.1949 18.8202 28.1012C18.8202 31.0987 18.8202 34.0025 18.8202 36.9062C14.1386 36.9999 9.45693 36.9999 4.68165 36.9999Z" fill="white"/>
<path d="M15.6367 8.7113C15.6367 7.21257 15.6367 5.71383 15.6367 4.2151C15.6367 2.71637 17.0412 1.68599 18.4457 2.15434C19.2884 2.43535 19.8502 3.18472 19.8502 4.12143C19.8502 7.21257 19.8502 10.3974 19.8502 13.4885C19.8502 14.2379 19.382 14.7062 18.6329 14.7062C18.0711 14.7062 17.5093 14.7062 16.9476 14.7062C16.1049 14.7062 15.7303 14.3316 15.7303 13.4885C15.5431 11.8024 15.6367 10.21 15.6367 8.7113Z" fill="white"/>
<path d="M10.3932 11.8962C12.3595 11.5215 13.4831 10.4911 13.4831 8.80506C13.4831 7.11899 12.4532 5.99494 10.4869 5.62025C10.4869 5.52658 10.4869 5.43291 10.4869 5.33924C10.4869 4.21519 10.4869 3.18481 10.4869 2.06076C10.3932 0.936709 11.3296 0 12.4532 0C13.6704 0 14.5131 0.749367 14.6067 1.96709C14.6067 2.06076 14.6067 2.2481 14.6067 2.34177C14.6067 5.90127 14.6067 9.46076 14.6067 12.9266C14.6067 14.0506 14.2322 14.4253 13.1086 14.4253C12.6404 14.4253 12.0786 14.4253 11.6105 14.4253C10.8614 14.4253 10.3932 13.957 10.3932 13.2076C10.3932 12.9266 10.3932 12.4582 10.3932 11.8962Z" fill="white"/>
<path d="M25 9.55451C25 10.7722 25 11.99 25 13.2077C25 14.1444 24.6254 14.5191 23.6891 14.5191C23.1273 14.5191 22.5655 14.5191 22.0037 14.5191C21.2547 14.5191 20.7865 14.0507 20.7865 13.3013C20.7865 10.7722 20.7865 8.24311 20.7865 5.62033C20.7865 4.40261 21.7228 3.55957 22.8464 3.55957C23.97 3.55957 24.9063 4.40261 25 5.62033V5.714C25 7.11906 25 8.33679 25 9.55451Z" fill="white"/>
<path d="M9.36327 5.71404C7.95877 5.71404 6.55428 5.71404 5.14978 5.71404C5.14978 4.87101 4.96252 4.12164 5.33705 3.2786C5.71158 2.43556 6.55428 1.87354 7.58424 1.96721C8.42694 2.15455 9.176 2.81025 9.36327 3.74696C9.36327 4.21531 9.36327 4.77733 9.36327 5.24569C9.36327 5.33936 9.36327 5.5267 9.36327 5.71404Z" fill="white"/>
</svg>
