<svg width="24" height="24" viewBox="0 0 24 24" fill="none" xmlns="http://www.w3.org/2000/svg">
<path d="M12.001 10C11.2054 10 10.4423 10.3161 9.87968 10.8787C9.31707 11.4413 9.001 12.2044 9.001 13C9.001 13.7956 9.31707 14.5587 9.87968 15.1213C10.4423 15.6839 11.2054 16 12.001 16C12.7966 16 13.5597 15.6839 14.1223 15.1213C14.6849 14.5587 15.001 13.7956 15.001 13C15.001 12.2044 14.6849 11.4413 14.1223 10.8787C13.5597 10.3161 12.7966 10 12.001 10ZM12.001 8C13.3271 8 14.5989 8.52678 15.5365 9.46447C16.4742 10.4021 17.001 11.6739 17.001 13C17.001 14.3261 16.4742 15.5979 15.5365 16.5355C14.5989 17.4732 13.3271 18 12.001 18C10.6749 18 9.40315 17.4732 8.46547 16.5355C7.52778 15.5979 7.001 14.3261 7.001 13C7.001 11.6739 7.52778 10.4021 8.46547 9.46447C9.40315 8.52678 10.6749 8 12.001 8ZM18.501 7.75C18.501 8.08152 18.3693 8.39946 18.1349 8.63388C17.9005 8.8683 17.5825 9 17.251 9C16.9195 9 16.6015 8.8683 16.3671 8.63388C16.1327 8.39946 16.001 8.08152 16.001 7.75C16.001 7.41848 16.1327 7.10054 16.3671 6.86612C16.6015 6.6317 16.9195 6.5 17.251 6.5C17.5825 6.5 17.9005 6.6317 18.1349 6.86612C18.3693 7.10054 18.501 7.41848 18.501 7.75ZM12.001 5C9.527 5 9.123 5.007 7.972 5.058C7.188 5.095 6.662 5.2 6.174 5.39C5.76562 5.53994 5.39641 5.78026 5.094 6.093C4.78101 6.3954 4.54035 6.76458 4.39 7.173C4.2 7.663 4.095 8.188 4.059 8.971C4.007 10.075 4 10.461 4 13C4 15.475 4.007 15.878 4.058 17.029C4.095 17.812 4.2 18.339 4.389 18.826C4.559 19.261 4.759 19.574 5.091 19.906C5.428 20.242 5.741 20.443 6.171 20.609C6.665 20.8 7.191 20.906 7.971 20.942C9.075 20.994 9.461 21 12 21C14.475 21 14.878 20.993 16.029 20.942C16.811 20.905 17.337 20.8 17.826 20.611C18.234 20.4603 18.6031 20.2201 18.906 19.908C19.243 19.572 19.444 19.259 19.61 18.828C19.8 18.336 19.906 17.81 19.942 17.028C19.994 15.925 20 15.538 20 13C20 10.526 19.993 10.122 19.942 8.971C19.905 8.189 19.799 7.661 19.61 7.173C19.4593 6.76502 19.219 6.39598 18.907 6.093C18.6047 5.77985 18.2355 5.53917 17.827 5.389C17.337 5.199 16.811 5.094 16.029 5.058C14.926 5.006 14.54 5 12 5M12 3C14.717 3 15.056 3.01 16.123 3.06C17.187 3.11 17.913 3.277 18.55 3.525C19.21 3.779 19.766 4.123 20.322 4.678C20.8305 5.1779 21.224 5.78259 21.475 6.45C21.722 7.087 21.89 7.813 21.94 8.878C21.987 9.944 22 10.283 22 13C22 15.717 21.99 16.056 21.94 17.122C21.89 18.187 21.722 18.912 21.475 19.55C21.2246 20.2178 20.8311 20.8226 20.322 21.322C19.822 21.8303 19.2173 22.2238 18.55 22.475C17.913 22.722 17.187 22.89 16.123 22.94C15.056 22.987 14.717 23 12 23C9.283 23 8.944 22.99 7.877 22.94C6.813 22.89 6.088 22.722 5.45 22.475C4.78233 22.2245 4.17753 21.8309 3.678 21.322C3.16943 20.8222 2.77596 20.2175 2.525 19.55C2.277 18.913 2.11 18.187 2.06 17.122C2.012 16.056 2 15.717 2 13C2 10.283 2.01 9.944 2.06 8.878C2.11 7.813 2.277 7.088 2.525 6.45C2.77524 5.78218 3.1688 5.17732 3.678 4.678C4.17767 4.16923 4.78243 3.77573 5.45 3.525C6.087 3.277 6.812 3.11 7.877 3.06C8.945 3.013 9.284 3 12.001 3" fill="#00B0EB"/>
</svg>
