<svg width="74" height="74" viewBox="0 0 74 74" fill="none" xmlns="http://www.w3.org/2000/svg">
<g id="Frame" clip-path="url(#clip0_3005_38)">
<g id="Group">
<path id="Vector" d="M35.395 0C36.2203 0.641884 37.0456 1.28377 37.8709 1.92565C42.3641 5.68525 46.7655 9.53656 51.167 13.3879C52.084 14.1214 52.3591 15.0384 51.9923 15.9554C51.6255 16.8724 50.8919 17.3309 49.6999 17.3309C47.6825 17.3309 45.6652 17.3309 43.7395 17.3309C43.6478 17.3309 43.6478 17.3309 43.4644 17.4226C43.4644 17.7893 43.4644 18.1561 43.4644 18.6146C43.4644 20.3569 43.4644 22.0991 43.4644 23.9331C43.4644 24.3916 43.3727 24.575 42.9142 24.8501C34.4781 29.8017 30.0766 37.1375 30.4434 46.8575C30.8102 55.6605 35.2116 62.2627 42.8225 66.6642C43.281 66.9393 43.4644 67.2144 43.3727 67.6729C43.3727 69.0483 43.3727 70.5155 43.3727 71.891C43.3727 73.083 42.4558 74.0917 41.2637 74.0917C36.312 74.0917 31.2686 74.0917 26.317 74.0917C26.317 74.0917 26.2253 74.0917 26.1336 74C26.1336 55.202 26.1336 36.3123 26.1336 17.4226C24.7581 17.4226 23.3826 17.4226 22.0072 17.4226C21.2736 17.4226 20.54 17.4226 19.8064 17.4226C18.7061 17.4226 17.9725 16.8724 17.6057 16.0471C17.2389 15.1301 17.514 14.3048 18.3393 13.5713C22.0072 10.3618 25.7668 7.24411 29.4347 4.0347C30.6268 3.02602 31.8188 1.92565 33.1026 0.916977C33.4694 0.641884 33.8362 0.366791 34.2947 0.0916977C34.6615 0 35.0282 0 35.395 0Z" fill="#00B0EB"/>
<path id="Vector_2" d="M0 49.425C0.550186 48.1412 1.55886 47.7744 2.93432 47.7744C4.85998 47.8661 6.69393 47.7744 8.61958 47.7744C8.61958 56.4857 8.61958 65.197 8.61958 73.9082C8.43618 73.9082 8.25279 73.9082 8.06939 73.9082C6.32714 73.9082 4.67658 73.8165 2.93432 73.9082C1.55886 74.0916 0.550186 73.6332 0 72.4411C0 64.7385 0 57.1276 0 49.425Z" fill="#00B0EB"/>
<path id="Vector_3" d="M54.3763 65.1971C43.556 65.1971 34.8447 56.3941 34.8447 45.6655C34.8447 34.9369 43.6477 26.2256 54.3763 26.2256C65.1966 26.2256 73.9996 35.0286 73.9996 45.7572C73.9996 56.3941 65.1049 65.1971 54.3763 65.1971ZM52.1756 35.212C47.8658 36.7708 46.4903 41.9059 49.2413 45.3904C50.525 47.041 52.2673 47.8662 54.3763 47.8662C55.2933 47.8662 56.0269 48.3247 56.302 49.2417C56.6688 50.067 56.4854 50.8923 55.9352 51.5341C55.2933 52.176 54.468 52.4511 53.6427 52.0843C52.9092 51.7175 52.1756 51.259 51.6254 50.6172C50.6167 49.7002 49.4247 49.5168 48.5077 50.3421C47.5907 51.1673 47.499 52.5428 48.416 53.5515C49.4247 54.7436 50.7084 55.5688 52.1756 56.119C52.1756 56.5775 52.1756 56.9443 52.1756 57.4028C52.1756 57.8613 52.1756 58.2281 52.1756 58.6866C52.1756 59.8786 53.1843 60.8873 54.2846 60.8873C55.4767 60.8873 56.3937 59.9703 56.4854 58.7783C56.4854 58.2281 56.4854 57.5862 56.4854 57.036C56.4854 56.4858 56.5771 56.2107 57.1273 55.9356C59.4197 54.8353 60.7035 52.9096 60.7952 50.3421C60.8869 47.7745 59.7865 45.6655 57.494 44.4734C56.5771 44.0149 55.385 43.8315 54.3763 43.6481C53.4593 43.4647 52.7258 43.0979 52.359 42.2727C51.9922 41.4474 52.1756 40.7138 52.7258 40.0719C53.3677 39.3383 54.1929 39.155 55.1099 39.5217C55.6601 39.7051 56.2103 40.0719 56.6688 40.4387C57.7691 41.264 58.9612 41.264 59.8782 40.347C60.7035 39.43 60.6118 38.0546 59.6031 37.1376C58.6861 36.404 57.6774 35.8538 56.6688 35.1203C56.6688 34.4784 56.6688 33.6531 56.6688 32.7361C56.6688 31.4524 55.6601 30.5354 54.468 30.5354C53.276 30.5354 52.359 31.4524 52.359 32.7361C52.1756 33.5614 52.1756 34.3867 52.1756 35.212Z" fill="#00B0EB"/>
<path id="Vector_4" d="M21.7319 74C18.981 74 16.23 74 13.4791 74C13.3874 74 13.2957 74 13.1123 74C13.1123 73.7249 13.1123 73.4498 13.1123 73.1747C13.1123 59.7869 13.1123 46.4907 13.1123 33.1028C13.1123 31.2689 13.9376 30.4436 15.7715 30.4436C17.7889 30.4436 19.7145 30.4436 21.7319 30.4436C21.7319 45.0235 21.7319 59.4201 21.7319 74Z" fill="#00B0EB"/>
</g>
</g>
<defs>
<clipPath id="clip0_3005_38">
<rect width="74" height="74" fill="white"/>
</clipPath>
</defs>
</svg>
