<svg width="74" height="82" viewBox="0 0 74 82" fill="none" xmlns="http://www.w3.org/2000/svg">
<g clip-path="url(#clip0_3005_63)">
<path d="M57.8469 0C57.544 2.94672 57.8469 5.89343 59.2603 8.63693C60.6736 11.3804 62.6927 13.4126 65.3176 14.8352C68.0434 16.2577 70.8701 16.5626 73.9997 16.3594C73.9997 18.1884 73.9997 19.9157 73.9997 21.8463C69.4567 21.4399 65.3176 22.5576 61.8851 25.9108C58.5536 29.2639 57.4431 33.43 57.8469 38.2057C56.2316 38.2057 54.7173 38.2057 53.203 38.2057C53.0011 38.2057 52.7992 37.9009 52.5972 37.6976C49.2657 32.0074 44.4199 28.3494 38.0597 26.8253C33.6177 25.8092 29.2766 26.114 25.1375 27.7398C24.6327 27.943 24.3299 27.8414 23.926 27.4349C21.0993 23.8786 17.4649 22.0496 13.0229 21.948C12.2153 21.948 11.5086 21.948 10.7009 21.948C10.6 21.948 10.6 21.948 10.499 21.8463C10.499 20.119 10.499 18.29 10.499 16.5626C12.0133 16.461 13.5277 16.461 14.941 16.3594C21.2003 15.4449 26.4499 9.85626 26.8537 3.55638C26.9547 2.33705 26.8537 1.11772 26.8537 0C37.1511 0 47.5495 0 57.8469 0ZM49.7705 19.1028C49.7705 14.9368 46.439 11.5836 42.2998 11.5836C38.1607 11.5836 34.9301 14.9368 34.8292 19.1028C34.8292 23.2689 38.1607 26.6221 42.2998 26.6221C46.439 26.6221 49.7705 23.1673 49.7705 19.1028Z" fill="#00B0EB"/>
<path d="M22.2104 4.84139e-05C22.2104 0.711325 22.1095 1.4226 22.1095 2.03227C22.1095 7.62087 18.1722 11.4821 12.7206 11.4821C12.014 11.4821 11.3073 11.4821 10.6006 11.4821C10.6006 11.1772 10.6006 10.8724 10.6006 10.5676C10.6006 9.04342 10.6006 7.51926 10.6006 5.89348C10.6006 2.3371 11.3073 1.21938 14.5378 -0.101562C16.9607 4.84139e-05 19.5856 4.84139e-05 22.2104 4.84139e-05Z" fill="#00B0EB"/>
<path d="M70.0628 0C70.5676 0.203222 71.0724 0.406444 71.5772 0.609666C72.7886 1.32094 73.7982 2.43866 73.7982 3.86121C73.8991 6.40149 73.7982 8.84015 73.7982 11.3804C67.6399 12.2949 63.6017 8.63693 62.6931 4.06444C62.5922 3.25155 62.5922 2.43866 62.5922 1.62577C62.5922 1.11772 62.4912 0.508055 62.4912 0C65.0151 0 67.539 0 70.0628 0Z" fill="#00B0EB"/>
<path d="M22.2102 62.694C20.8978 64.1166 19.6863 65.4375 18.3739 66.7584C18.273 66.8601 18.172 67.2665 18.273 67.4697C19.4844 70.7213 18.7777 73.5664 16.4558 76.005C15.2443 77.2244 14.0329 78.5453 12.8214 79.7646C10.7013 81.7969 8.17746 82.5081 5.45168 81.5936C2.62494 80.7808 0.908706 78.8501 0.302976 75.9034C-0.201798 73.5664 0.302976 71.3309 1.91826 69.5019C3.33163 67.9778 4.745 66.4536 6.15836 65.0311C8.48033 62.7956 11.2061 62.2876 14.2348 63.4053C14.4367 63.5069 14.8405 63.5069 14.9414 63.4053C16.2539 61.9827 17.5663 60.6618 18.8787 59.2392C12.8214 51.0088 15.2443 39.9332 22.614 34.4462C29.6809 29.0608 39.7764 29.8737 45.9346 36.3768C52.0929 42.7783 52.4967 52.9394 46.9442 59.8489C41.2907 66.8601 30.5895 68.9939 22.2102 62.694Z" fill="#00B0EB"/>
<path d="M11.4082 42.1686C11.1053 44.3025 10.8024 46.4363 10.4996 48.5701C8.48046 48.5701 6.46136 48.6717 4.3413 48.5701C2.12029 48.3669 0.303103 46.5379 0.202148 44.2008C0.202148 43.896 0.202148 43.5912 0.202148 43.2863C0.202148 34.1414 0.202148 24.9964 0.202148 15.8514C0.202148 14.3272 0.605968 12.9047 1.71647 11.8886C2.82698 10.8725 4.13939 10.466 5.75467 10.5676C5.75467 10.8725 5.75467 11.1773 5.75467 11.4821C5.75467 18.3917 5.85563 25.3012 5.75467 32.1091C5.65372 36.6816 7.36995 40.1364 11.4082 42.1686Z" fill="#00B0EB"/>
<path d="M74.0004 26.6222C74.0004 27.8415 74.0004 29.1624 74.0004 30.3818C74.0004 31.3979 74.0004 32.5156 74.0004 33.5317C73.7985 35.8687 72.0822 37.7993 69.7603 37.901C67.4383 38.0026 65.0154 37.901 62.5925 37.901C61.6839 30.9914 66.4288 25.7077 74.0004 26.6222Z" fill="#00B0EB"/>
<path d="M20.1915 30.1784C17.3648 32.2107 15.1438 34.6493 13.4275 37.7993C11.9132 37.088 10.7018 35.9703 10.6008 34.3445C10.3989 31.8042 10.4998 29.2639 10.4998 26.7237C14.3361 26.2156 17.6677 26.9269 20.1915 30.1784Z" fill="#00B0EB"/>
<path d="M63.602 42.9814C63.9049 46.233 61.7849 48.4684 58.6553 48.57C57.6457 48.57 56.6362 48.57 55.6266 48.57C55.4247 46.6394 55.1218 44.9121 54.9199 42.9814C57.7467 42.9814 60.6744 42.9814 63.602 42.9814Z" fill="#00B0EB"/>
<path d="M45.0264 19.1029C45.0264 20.6271 43.8149 21.8464 42.3006 21.7448C40.7863 21.7448 39.6758 20.5255 39.6758 19.0013C39.6758 17.4772 40.8872 16.2578 42.4016 16.3594C43.9159 16.3594 45.0264 17.5788 45.0264 19.1029Z" fill="#00B0EB"/>
</g>
<defs>
<clipPath id="clip0_3005_63">
<rect width="74" height="82" fill="white"/>
</clipPath>
</defs>
</svg>
