<svg width="68" height="61" viewBox="0 0 68 61" fill="none" xmlns="http://www.w3.org/2000/svg">
<g id="Frame" clip-path="url(#clip0_3005_56)">
<g id="Group">
<path id="Vector" d="M68 21.5741C67.9157 21.8279 67.8315 22.1663 67.7472 22.4202C67.0731 24.5353 65.6407 25.9736 63.4498 26.5658C63.2813 26.6504 63.1128 26.6504 62.9443 26.735C62.1859 26.9042 61.7646 27.4964 61.9331 28.1733C62.1016 28.8501 62.6915 29.2731 63.4498 29.0193C64.2082 28.8501 64.8823 28.5963 65.7249 28.3425C66.9889 30.2884 67.0731 32.3189 66.062 34.3494C64.8823 36.6337 62.9443 37.7336 60.5006 37.7336C57.9728 37.649 56.2032 36.2953 55.1078 34.011C55.2763 33.9264 55.5291 33.8418 55.6977 33.8418C57.0459 33.4188 58.2255 32.6573 59.1524 31.5575C59.658 30.8806 59.658 30.2038 59.1524 29.6962C58.6469 29.2731 57.9728 29.2731 57.3829 29.8654C55.3606 31.9805 53.0855 32.2343 50.6419 30.6268C49.9678 30.2038 49.2094 30.2884 48.8724 30.8806C48.4511 31.4729 48.6196 32.2343 49.2937 32.6573C50.2206 33.165 51.2317 33.5034 52.1586 33.9264C52.4114 34.011 52.6642 34.1802 52.7485 34.434C53.9281 37.649 56.2032 39.4257 59.5737 40.1025C59.4895 40.5256 59.4895 41.0332 59.4052 41.4562C58.8154 44.079 56.456 46.1095 53.7596 46.1941C53.4226 46.1941 53.1698 46.2787 53.0013 45.8557C52.1586 43.5713 50.6419 41.9638 48.4511 40.864C49.2094 39.7641 49.715 38.5797 49.8835 37.226C49.8835 36.9722 49.9678 36.6337 49.8835 36.3799C49.7993 35.7031 49.2937 35.2801 48.7039 35.2801C48.114 35.2801 47.6084 35.7031 47.5242 36.2953C47.4399 36.7183 47.4399 37.226 47.3557 37.649C46.8501 39.7641 45.0806 41.1178 42.974 41.287C42.7212 41.287 42.4684 41.287 42.2156 41.4562C41.6258 41.71 41.4573 42.1331 41.5415 42.7253C41.6258 43.3175 42.1314 43.8251 42.8055 43.7405C43.9009 43.5713 44.9963 43.3175 46.0074 42.9791C46.4288 42.8099 46.7658 42.8099 47.1871 42.8945C50.5576 44.079 52.1586 47.8862 50.7262 51.1012C49.2937 54.3161 45.4176 55.6698 42.2999 53.9777C42.0471 53.8931 41.8786 53.7239 41.6258 53.6393C41.036 53.3855 40.3618 53.6393 40.1091 54.1469C39.772 54.6546 39.9405 55.3314 40.4461 55.6698C40.9517 56.0082 41.5415 56.3466 42.1314 56.5159C42.7212 56.6851 42.8055 57.0235 42.7212 57.5311C42.4684 59.3924 40.8674 60.8307 39.0136 60.7461C37.0756 60.6615 35.5589 59.2232 35.4746 57.2773C35.4746 57.1081 35.4746 56.9389 35.4746 56.7697C35.4746 39.9333 35.4746 23.0124 35.4746 6.17605C35.4746 3.04567 37.3284 0.592135 40.2776 -9.84743e-05C41.4573 -0.169308 42.8897 -9.84669e-05 44.3222 0.845949C43.4796 2.11502 42.8055 3.38409 42.6369 4.82237C42.6369 4.99158 42.3842 5.07618 42.1314 5.16079C41.5415 5.49921 40.8674 5.83763 40.3618 6.26065C39.8563 6.68367 39.8563 7.44512 40.1933 7.95275C40.6146 8.46037 41.373 8.54498 41.8786 8.12196C43.2268 7.1067 44.1537 7.1067 45.5019 8.12196C46.0917 8.54498 46.7658 8.46037 47.1871 7.95275C47.6084 7.44512 47.6084 6.76828 47.0186 6.26065C46.4288 5.75302 45.6704 5.4146 44.9963 4.90698C45.4176 0.761344 50.6419 -1.52298 54.2652 0.930554C55.9504 2.03041 56.7931 3.6379 56.9616 5.66842C56.9616 5.83763 56.9616 5.92223 56.9616 6.09144C57.0459 6.76828 57.5514 7.27591 58.2255 7.1913C58.8996 7.1913 59.4052 6.68367 59.4052 6.00684C59.4052 5.16079 59.1524 4.23014 58.9839 3.29949C58.9839 3.04567 58.8154 2.87646 58.8154 2.70725C60.7534 1.94581 63.8711 3.04567 65.4721 5.16079C67.2416 7.52972 67.2417 10.8293 65.6407 12.8598C64.2925 12.6906 63.1128 12.2676 61.8488 12.2676C60.6692 12.2676 59.5737 12.6906 58.4783 13.029C58.1413 13.1136 57.8885 13.1136 57.4672 13.029C56.5403 12.6906 55.6134 12.4368 54.6865 12.3522C54.0124 12.2676 53.4226 12.8598 53.4226 13.5367C53.4226 14.2135 53.9281 14.7211 54.6022 14.8057C56.7931 14.9749 58.057 16.244 58.2255 18.4437C58.3098 19.2052 58.8154 19.7128 59.4052 19.7128C60.0793 19.7128 60.6692 19.1206 60.5849 18.3591C60.4164 17.3439 60.1636 16.3286 59.9108 15.1441C61.0062 14.7211 62.3544 14.7211 63.6184 15.0595C65.8092 15.7364 67.1574 17.2593 67.7472 19.459C67.7472 19.6282 67.8315 19.7128 67.9158 19.882C68 20.3896 68 20.9819 68 21.5741ZM38.8451 25.0429C38.8451 25.1275 38.8451 25.2967 38.8451 25.3813C38.8451 26.2274 39.2664 26.735 40.0248 26.8196C40.6989 26.8196 41.2887 26.312 41.2887 25.4659C41.373 22.1663 44.1537 19.5436 47.2714 19.459C48.114 19.459 48.6196 18.8668 48.6196 18.1899C48.6196 17.4285 48.0298 17.0055 47.1029 17.0055C42.7212 17.1747 39.0979 20.7281 38.8451 25.0429Z" fill="#00B0EB"/>
<path id="Vector_2" d="M32.7784 60.0692C32.5256 59.8154 32.3571 59.6462 32.1886 59.4769C23.341 50.5088 14.4934 41.4561 5.64583 32.488C-1.43224 25.2966 -1.85355 14.298 4.55042 6.59899C11.3757 -1.60767 23.7623 -2.1999 31.4302 5.24531C32.4414 6.17596 32.8627 7.19122 32.8627 8.5449C32.7784 25.3812 32.8627 42.2176 32.8627 59.0539C32.7784 59.3923 32.7784 59.6461 32.7784 60.0692ZM2.52811 17.6822C2.44385 18.2744 2.44385 18.8667 3.11795 19.2897C3.96058 19.7973 4.8032 19.2051 4.97173 18.1052C5.14025 17.0054 5.22452 15.9055 5.4773 14.8903C7.16256 8.96792 12.3026 4.9915 18.4538 4.82229C19.2964 4.82229 19.8862 4.31466 19.8862 3.55322C19.8862 2.79177 19.3806 2.36875 18.4538 2.36875C17.6111 2.36875 16.8528 2.45336 16.0101 2.53796C8.51076 4.06085 3.11795 10.0678 2.52811 17.6822ZM3.03369 23.3507C3.20221 23.7737 3.37074 24.5352 3.70779 25.1274C3.96058 25.635 4.55041 25.7197 5.14025 25.5504C5.64583 25.2966 5.98288 24.8736 5.81436 24.2814C5.73009 23.6891 5.4773 23.1815 5.30878 22.6739C5.05599 21.997 4.55041 21.8278 3.96058 21.997C3.37074 22.0817 3.03369 22.5047 3.03369 23.3507Z" fill="#00B0EB"/>
</g>
</g>
<defs>
<clipPath id="clip0_3005_56">
<rect width="68" height="61" fill="white"/>
</clipPath>
</defs>
</svg>
