<svg width="76" height="76" viewBox="0 0 76 76" fill="none" xmlns="http://www.w3.org/2000/svg">
<g id="Frame" clip-path="url(#clip0_3005_60)">
<g id="Group">
<path id="Vector" d="M75.9997 28.5353C75.7172 29.948 75.623 31.3606 75.2463 32.7732C72.8919 43.1326 63.9452 51.4201 53.3975 52.9269C45.6751 53.9628 38.8002 52.1735 32.6788 47.3705C32.4905 47.2763 32.3963 47.1822 32.2079 46.9938C30.5128 48.689 28.8176 50.3841 27.1224 52.0793C27.0283 52.1735 26.9341 52.5502 27.0283 52.7385C28.2525 55.9405 27.6875 58.7658 25.2389 61.1202C21.001 65.3581 16.7631 69.596 12.5252 73.834C10.4533 75.9058 8.00471 76.5651 5.2736 75.7175C2.63668 74.9641 0.941511 73.1747 0.188103 70.4436C-0.471128 67.9009 0.0939273 65.6406 1.88327 63.7571C6.30954 59.2367 10.83 54.7162 15.3504 50.29C17.5165 48.1239 20.2476 47.8414 23.0729 48.8773C23.5437 49.0657 23.8263 48.9715 24.1088 48.689C25.7098 47.088 27.3108 45.3928 29.0059 43.7918C27.1224 41.5316 25.7098 39.1772 24.6739 36.5403C18.6466 21.1896 27.6875 4.14374 43.7916 0.565056C45.0159 0.282528 46.2401 0.188352 47.4644 0C48.7829 0 50.0072 0 51.3256 0C52.2674 0.188352 53.2092 0.282528 54.1509 0.47088C64.4161 2.16605 73.0803 10.3594 75.3405 20.4362C75.623 21.8488 75.8114 23.2615 76.0939 24.6741C75.9998 25.8984 75.9997 27.2169 75.9997 28.5353ZM58.2005 26.5576C58.2005 29.6654 58.2005 32.7732 58.2005 35.881C58.2005 36.917 58.5772 37.6704 59.519 38.0471C61.0258 38.7063 62.6268 37.5762 62.6268 35.7869C62.6268 29.6654 62.6268 23.4498 62.6268 17.3284C62.6268 15.8216 61.685 14.7856 60.3665 14.7856C59.0481 14.7856 58.2005 15.8216 58.2005 17.3284C58.2005 20.4362 58.2005 23.544 58.2005 26.5576ZM43.3207 28.7237C43.3207 31.0781 43.3207 33.5266 43.3207 35.881C43.3207 37.2937 44.2625 38.2354 45.4867 38.2354C46.8052 38.2354 47.747 37.2937 47.747 35.881C47.747 31.1722 47.747 26.4634 47.747 21.7547C47.747 20.342 46.8052 19.3061 45.4867 19.3061C44.1683 19.3061 43.2265 20.342 43.2265 21.7547C43.3207 24.109 43.3207 26.3693 43.3207 28.7237ZM50.7606 30.3247C50.7606 32.2082 50.7606 34.0917 50.7606 35.9752C50.7606 37.3879 51.7024 38.3296 52.9266 38.3296C54.2451 38.3296 55.1869 37.3879 55.1869 35.9752C55.1869 32.2082 55.1869 28.5353 55.1869 24.7683C55.1869 23.3556 54.2451 22.3197 52.9266 22.3197C51.6082 22.3197 50.6664 23.3556 50.6664 24.7683C50.7606 26.5576 50.7606 28.4411 50.7606 30.3247ZM40.4012 32.4907C40.4012 31.3606 40.4012 30.2305 40.4012 29.1004C40.4012 27.7819 39.4595 26.746 38.141 26.746C36.9167 26.746 35.975 27.7819 35.8808 29.1004C35.8808 31.3606 35.8808 33.6208 35.8808 35.881C35.8808 37.2937 36.8226 38.2354 38.0468 38.2354C39.3653 38.2354 40.3071 37.2937 40.3071 35.881C40.4012 34.7509 40.4012 33.6208 40.4012 32.4907Z" fill="#00B0EB"/>
</g>
</g>
<defs>
<clipPath id="clip0_3005_60">
<rect width="76" height="76" fill="white"/>
</clipPath>
</defs>
</svg>
