<svg width="373" height="210" viewBox="0 0 373 210" fill="none" xmlns="http://www.w3.org/2000/svg">
<path fill-rule="evenodd" clip-rule="evenodd" d="M238.384 50.9795C234.963 61.7085 226.482 70.1823 215.742 73.5991C226.482 77.016 234.963 85.4214 238.384 96.1504C241.804 85.4898 250.217 77.016 260.956 73.5991C250.286 70.1823 241.804 61.7085 238.384 50.9795ZM282.161 73.5991C292.832 70.1823 301.314 61.7085 304.734 50.9795C308.154 61.7085 316.636 70.1823 327.376 73.5991C316.636 77.016 308.154 85.4214 304.734 96.1504C301.314 85.4214 292.832 77.016 282.161 73.5991ZM373 40.3189C373 55.8998 362.808 69.0889 348.649 73.5991C362.74 78.1094 373 91.2301 373 106.743C373 122.255 362.808 135.376 348.649 139.886C362.74 144.396 373 157.585 373 173.166C373 192.437 357.336 208.087 338.046 208.087C322.451 208.087 309.249 197.904 304.734 183.759C300.22 197.836 287.086 208.087 271.559 208.087C256.031 208.087 242.898 197.904 238.384 183.759C233.869 197.836 220.667 208.087 205.071 208.087C185.782 208.087 170.118 192.437 170.118 173.166C170.118 157.585 180.31 144.396 194.469 139.886C180.378 135.376 170.118 122.255 170.118 106.743C170.118 91.2301 180.31 78.1094 194.469 73.5991C180.378 69.0889 170.118 55.8998 170.118 40.3189C170.118 21.0479 185.782 5.39866 205.071 5.39866C220.667 5.39866 233.869 15.5809 238.384 29.7267C242.898 15.6492 256.031 5.39866 271.559 5.39866C287.086 5.39866 300.22 15.5809 304.734 29.7267C309.249 15.6492 322.451 5.39866 338.046 5.39866C357.336 5.33032 373 20.9795 373 40.3189ZM304.734 162.506C308.154 151.777 316.636 143.303 327.376 139.886C316.636 136.469 308.154 128.064 304.734 117.335C301.314 127.995 292.901 136.469 282.161 139.886C292.832 143.235 301.314 151.708 304.734 162.506ZM238.384 117.267C241.804 127.927 250.217 136.401 260.956 139.818C250.286 143.235 241.804 151.708 238.384 162.437C234.963 151.708 226.482 143.235 215.742 139.818C226.482 136.401 234.963 127.995 238.384 117.267Z" fill="#00B0EB"/>
<path d="M105.067 209.932C163.093 209.932 210.133 162.937 210.133 104.966C210.133 46.9948 163.093 0 105.067 0C47.0399 0 0 46.9948 0 104.966C0 162.937 47.0399 209.932 105.067 209.932Z" fill="#CDDC39"/>
</svg>
