<svg width="65" height="65" viewBox="0 0 65 65" fill="none" xmlns="http://www.w3.org/2000/svg">
<circle cx="32.5" cy="32.5" r="32.5" fill="#00B0EB"/>
<g clip-path="url(#clip0_2009_2575)">
<path d="M33.4896 52.5372C30.6316 52.4624 27.9107 51.8538 25.3269 50.6473C25.0632 50.5192 24.8734 50.5405 24.6203 50.6793C22.627 51.7577 20.6338 52.8361 18.63 53.8931C18.4613 53.9786 18.2503 53.9679 18.0499 54.0106C18.0183 53.8184 17.9339 53.6049 17.9656 53.4234C18.3241 51.0851 18.7144 48.7681 19.0624 46.4512C19.094 46.2377 18.9991 45.9387 18.8515 45.7679C15.3501 41.6465 13.7365 36.8632 14.0318 31.4499C14.5486 22.2569 21.6357 14.4947 30.6422 13.2028C40.8826 11.74 50.3636 18.4132 52.5573 28.6418C54.8563 39.3616 47.8536 50.0494 37.1703 52.0994C35.9575 52.3343 34.7236 52.3983 33.4896 52.5372ZM25.6854 31.1403C25.6854 32.6564 26.044 33.6601 26.8772 34.5142C28.67 36.3614 30.4945 38.1978 32.3085 40.0236C32.9834 40.6963 33.9642 40.7176 34.6286 40.045C36.4953 38.1765 38.3726 36.3187 40.1865 34.3968C41.7684 32.7098 41.6419 30.0405 40.0178 28.3963C38.3936 26.7627 35.7887 26.7093 34.0802 28.2895C33.4158 28.9088 33.5846 28.9088 32.8885 28.2788C31.528 27.0723 29.9672 26.7734 28.3009 27.4994C26.6029 28.2468 25.7593 29.6348 25.6854 31.1403Z" fill="white"/>
</g>
<defs>
<clipPath id="clip0_2009_2575">
<rect width="39" height="41" fill="white" transform="translate(14 13)"/>
</clipPath>
</defs>
</svg>
