<svg width="192" height="11" viewBox="0 0 192 11" fill="none" xmlns="http://www.w3.org/2000/svg">
<g clip-path="url(#clip0_196_1650)">
<path d="M190.995 7.59599L188.761 7.37536L186.527 7.15473L184.293 6.9341L182.059 6.71347L179.769 6.52435L177.48 6.33524L175.19 6.14613L172.9 5.95702L171.225 5.83094L170.276 5.67335L168.321 5.35817L166.366 5.04298L164.412 4.75931L162.513 4.47564H162.736L164.356 4.53868L165.975 4.60172L167.595 4.66476L169.214 4.72779L170.834 4.82235L172.454 4.9169L174.073 5.04298L175.693 5.16905L177.312 5.32665L178.932 5.48424L180.495 5.67335L182.059 5.86246L183.623 6.08309L185.187 6.30372L186.75 6.58739L188.314 6.87106C188.928 6.96561 189.487 6.61891 189.598 6.08309C189.71 5.54728 189.319 5.01146 188.705 4.9169L187.141 4.63324L185.577 4.34957L183.958 4.12894L182.338 3.90831L180.719 3.7192L179.099 3.53009L177.48 3.37249L175.86 3.2149L174.241 3.12034L172.621 2.99427L171.002 2.89971L169.382 2.80516L167.762 2.74212L166.143 2.67908L164.523 2.61605L162.792 2.52149L161.173 2.48997L159.553 2.45845L157.933 2.42693L156.314 2.39542H154.694H153.075H151.455H149.836H148.44H147.043H145.647H144.921L144.586 2.3639L142.576 2.17478L140.565 1.98567L138.499 1.79656L136.488 1.63897L134.478 1.48138L132.468 1.32378L130.457 1.16619L128.447 1.04011L126.436 0.91404L124.426 0.787966L122.415 0.661891L120.405 0.567335L118.394 0.472779L116.384 0.378223L114.317 0.315186L112.307 0.252149L110.296 0.189112L108.286 0.157593L106.276 0.126074L104.265 0.0945559L102.255 0.0630372H100.244L98.2895 0H96.3349H94.3803L92.4256 0.0315186L90.471 0.0630372L88.5164 0.0945559H86.5618L84.6071 0.157593L82.6525 0.22063L80.7537 0.283668L78.8549 0.346705L77.012 0.472779L75.1132 0.598854L73.2145 0.819484L71.3157 1.04011L69.4169 1.32378L67.574 1.57593L65.6752 1.89112L63.8323 2.2063L61.9893 2.52149L60.1464 2.83668L58.3035 3.15186L56.4605 3.46705L56.0138 3.53009H55.7345L54.0033 3.59312L52.2162 3.65616L50.4291 3.7192L48.6979 3.78223L46.9108 3.84527L45.1237 3.90831L43.3366 3.97135L41.6054 4.03438L39.8742 4.09742L38.0871 4.16046L37.4169 4.19198L36.6909 4.09742L34.9038 3.7192C34.2895 3.59312 33.731 3.93983 33.5635 4.47564C33.5635 4.50716 33.5635 4.50716 33.5635 4.53868L33.2843 4.5702L31.6647 4.75931L30.1569 5.04298L28.5373 5.29513L26.9178 5.5788L25.2982 5.86246L23.7345 6.14613L22.1708 6.39828L20.6071 6.61891L19.0434 6.83954L17.4797 7.02865L15.916 7.18624L14.4082 7.31232L12.9003 7.40688L11.3925 7.43839L9.94047 7.40688L8.48846 7.31232L7.03645 7.15473L5.64029 6.90258L4.97014 6.74498L4.29998 6.55587L3.62982 6.36676L2.95966 6.14613L2.23366 5.9255L1.5635 5.64183C1.00504 5.4212 0.334883 5.64183 0.111497 6.14613C-0.167735 6.65043 0.111497 7.24928 0.669961 7.46991L1.39596 7.75358L2.12197 8.03725L2.84797 8.2894L3.62982 8.51003L4.41167 8.69914L5.19352 8.85673L6.70138 9.1404L8.26508 9.32951L9.82878 9.42407L11.3925 9.45559L12.9562 9.42407L14.5199 9.32951L16.1394 9.20344L17.759 9.01433L19.3785 8.79369L19.7694 8.73066C19.7694 8.82521 19.7136 8.91977 19.7694 9.01433C19.8253 9.55014 20.3837 9.95988 20.9981 9.89685L22.3942 9.73925L23.7904 9.58166L25.1865 9.42407L26.5827 9.26647L27.923 9.1404L29.3192 9.01433L30.7153 8.88825L32.0557 8.76218L33.396 8.6361L34.7363 8.51003L36.0766 8.38395L37.4169 8.25788L38.7572 8.1318L40.0975 8.00573L41.4379 7.87965L42.7782 7.75358L44.1185 7.65902L45.4588 7.56447L46.7991 7.46991L48.1394 7.37536L50.82 7.18624L53.5007 6.99713L56.1255 6.80802L58.7502 6.61891L61.375 6.46132L63.9998 6.30372L66.6246 6.14613L69.2494 5.98854L71.8742 5.86246L74.4989 5.73639L77.1237 5.61031L79.7485 5.48424L82.3733 5.38968L84.9981 5.29513L87.6228 5.20057L90.1918 5.10602H91.5321H93.8218H96.1115H98.4012L100.691 5.13754L102.981 5.16905L105.27 5.20057L107.56 5.23209L109.85 5.26361L112.195 5.29513L114.541 5.32665L116.831 5.35817L119.176 5.4212L121.522 5.48424L123.867 5.54728L126.213 5.61031H126.659H126.492L124.984 5.64183L123.476 5.67335L121.968 5.70487L120.461 5.73639L118.953 5.79943L117.445 5.86246L115.937 5.9255L114.429 5.98854L112.921 6.05158L111.413 6.11461L109.906 6.17765L108.398 6.24069L106.89 6.30372L105.382 6.36676L103.874 6.4298L102.366 6.49284L100.858 6.55587L99.3506 6.61891L97.8427 6.68195L96.3349 6.74498L94.827 6.80802L93.3192 6.87106L91.8113 6.9341L90.3035 6.99713L88.7956 7.06017L87.2878 7.12321L85.7799 7.18624L84.2721 7.24928L82.7642 7.31232L81.2563 7.37536L79.7485 7.43839L78.2406 7.50143L76.7328 7.56447L75.2249 7.62751L73.7171 7.69054L72.2092 7.75358L70.7014 7.81662L69.1935 7.87965L67.6857 7.94269L66.1778 8.00573L64.67 8.06877L63.1621 8.1318L61.6543 8.19484L60.1464 8.25788L58.6385 8.32092L57.1307 8.38395L55.6228 8.44699L54.115 8.51003L52.6071 8.54155L51.2668 8.82521L49.759 8.85673L48.2511 8.88825L46.7433 8.91977L45.2354 8.95129L43.7276 8.98281L42.2197 9.01433C41.6054 9.01433 41.1028 9.4871 41.1028 10.0229C41.1028 10.5903 41.6054 11.0315 42.2197 11L43.7276 10.9685L45.2354 10.937L46.7433 10.9054L48.2511 10.8739L49.759 10.8424L51.2668 10.8109L52.7747 10.7794L54.2825 10.7478L55.8462 10.7163L57.3541 10.6533L58.8619 10.5903L60.3698 10.5272L61.8776 10.4642L63.3855 10.4011L64.8933 10.3381L66.4012 10.2751L67.9091 10.212L69.4169 10.149L70.9248 10.086L72.4326 10.0229L73.9405 9.95988L75.4483 9.89685L76.9562 9.83381L78.464 9.77077L79.9719 9.70774L81.4797 9.6447L82.9876 9.58166L84.4954 9.51862L86.0033 9.45559L87.5111 9.39255L89.019 9.32951L90.5269 9.26647L92.0347 9.20344L93.5426 9.1404L95.0504 9.07736L96.5583 9.01433L98.0661 8.95129L99.574 8.88825L101.082 8.82521L102.59 8.76218L104.098 8.69914L105.605 8.6361L107.113 8.57306L108.621 8.51003L110.129 8.44699L111.637 8.38395L113.145 8.32092L114.653 8.25788L116.16 8.19484L117.668 8.1318L119.176 8.06877L120.684 8.00573L122.192 7.97421L123.7 7.94269L125.207 7.91117L126.715 7.87965L128.223 7.84814L129.731 7.81662L131.239 7.7851L132.747 7.75358H134.255H135.762H137.27H138.778H140.286H141.794H143.302H144.81L146.317 7.7851L147.825 7.81662L149.333 7.84814L150.841 7.87965L152.349 7.91117L153.857 7.94269L155.365 7.97421L156.872 8.00573L158.38 8.06877L159.888 8.1318L161.396 8.19484L162.904 8.25788L164.412 8.35243L165.92 8.44699L167.427 8.54155L168.935 8.6361L170.443 8.76218L171.951 8.88825L173.459 9.01433L174.967 9.1404L176.475 9.29799L177.982 9.45559L179.49 9.61318L180.998 9.77077L182.506 9.95988L184.014 10.149L185.522 10.3381L187.029 10.5272C187.644 10.6218 188.202 10.212 188.314 9.67622C188.314 9.61318 188.314 9.55014 188.314 9.4871L188.928 9.55014L191.162 9.77077C191.776 9.83381 192.335 9.42407 192.391 8.88825C192.056 8.16332 191.609 7.65902 190.995 7.59599ZM71.6508 2.99427L73.4937 2.77364L75.3366 2.55301L77.1796 2.42693L79.0225 2.30086L80.9213 2.23782L82.8201 2.17478L84.7188 2.11175L86.6176 2.04871L88.5722 2.01719L90.5269 1.98567L92.4815 1.95415L94.4361 1.92264H96.3907H98.3454H100.3H102.255L104.265 1.95415L106.276 1.98567L108.286 2.01719L110.296 2.04871L112.307 2.11175L114.317 2.17478L116.328 2.26934L118.338 2.3639L119.399 2.42693H118.338L116.998 2.45845L114.317 2.48997L111.637 2.52149L108.956 2.55301L106.276 2.58453L103.651 2.64756L101.026 2.7106L98.4012 2.77364L95.7764 2.83668L93.1516 2.93123L90.5269 3.02579H89.6333H87.3436H85.0539H82.7642H80.4745H78.6874H76.9562H75.2249H73.4379L71.6508 3.05731L69.9195 3.08882L71.6508 2.99427ZM37.1935 6.30372L35.8532 6.4298L34.5129 6.55587L33.1726 6.68195L31.8323 6.80802L32.1673 6.74498L33.731 6.55587L35.2947 6.36676L36.8026 6.27221L37.4728 6.24069L37.8078 6.30372H37.1935Z" fill="white"/>
</g>
<defs>
<clipPath id="clip0_196_1650">
<rect width="192" height="11" fill="white"/>
</clipPath>
</defs>
</svg>
