<svg width="78" height="78" viewBox="0 0 78 78" fill="none" xmlns="http://www.w3.org/2000/svg">
<path d="M38.5136 77.0272C59.7841 77.0272 77.0272 59.7841 77.0272 38.5136C77.0272 17.2431 59.7841 0 38.5136 0C17.2431 0 0 17.2431 0 38.5136C0 59.7841 17.2431 77.0272 38.5136 77.0272Z" fill="#CDDC39"/>
<g filter="url(#filter0_d_3001_1432)">
<path d="M38.5136 62.8072C51.9306 62.8072 62.8073 51.9305 62.8073 38.5134C62.8073 25.0964 51.9306 14.2197 38.5136 14.2197C25.0965 14.2197 14.2198 25.0964 14.2198 38.5134C14.2198 51.9305 25.0965 62.8072 38.5136 62.8072Z" fill="white"/>
</g>
<g clip-path="url(#clip0_3001_1432)">
<path d="M23 48.7819C23 45.5482 23 42.3225 23 39.0888C23.3167 38.6094 23.6667 38.4875 24.075 38.7719C24.6333 39.1538 25.25 39.3 25.925 39.2919C29.2583 39.2838 32.5833 39.2838 35.9167 39.2838C36.05 39.2838 36.175 39.2838 36.325 39.2838C36.325 39.9419 36.3167 40.5513 36.325 41.1607C36.3333 41.6157 36.5833 41.8838 37.025 41.8838C38.3333 41.8919 39.65 41.8919 40.9583 41.8838C41.3667 41.8838 41.6167 41.6482 41.6583 41.25C41.675 41.1119 41.6667 40.9657 41.6667 40.8275C41.6667 40.3238 41.6667 39.82 41.6667 39.2838C41.8333 39.2838 41.95 39.2838 42.075 39.2838C45.4333 39.2838 48.8 39.2838 52.1583 39.2838C52.75 39.2838 53.2917 39.1619 53.7833 38.845C54.3417 38.4794 54.6417 38.5444 54.9917 39.0807C54.9917 42.3144 54.9917 45.54 54.9917 48.7738C54.9167 48.985 54.8667 49.2044 54.775 49.3994C54.25 50.4882 53.3583 50.9838 52.1333 50.9838C43.375 50.9757 34.6167 50.9838 25.8583 50.9838C25.7583 50.9838 25.65 50.9838 25.55 50.9757C24.4167 50.9269 23.45 50.1957 23.1167 49.1475C23.0833 49.0338 23.0417 48.9119 23 48.7819Z" fill="#00B0EB"/>
<path d="M23 35.8062C23 34.2381 23 32.6781 23 31.11C23.0167 31.0937 23.0333 31.0775 23.0333 31.0612C23.4417 29.5825 24.35 28.9 25.925 28.9C27.9333 28.9 29.9417 28.9 31.95 28.9C32.0667 28.9 32.1917 28.9 32.3333 28.9C32.3333 28.4775 32.3333 28.0956 32.3333 27.7219C32.3417 26.105 33.4667 25 35.1167 25C37.7083 24.9919 40.3 24.9919 42.8917 25C43.1917 25 43.5 25.0325 43.7833 25.1137C44.925 25.4387 45.65 26.43 45.675 27.6569C45.6833 28.055 45.675 28.4612 45.675 28.8919C45.8417 28.8919 45.9667 28.8919 46.0833 28.8919C48.1417 28.8919 50.2083 28.8837 52.2667 28.8919C53.6417 28.9 54.6333 29.68 54.95 30.9962C54.9583 31.0369 54.9833 31.0694 55 31.1019C55 32.6456 55 34.1894 55 35.7331C54.9833 35.7656 54.9667 35.8062 54.9583 35.8387C54.55 37.3012 53.6333 37.9837 52.0917 37.9837C48.75 37.9837 45.4083 37.9837 42.0583 37.9837C41.9333 37.9837 41.8167 37.9837 41.675 37.9837C41.675 37.7806 41.675 37.6181 41.675 37.4556C41.6667 36.9275 41.425 36.6919 40.8917 36.6837C39.625 36.6837 38.35 36.6756 37.0833 36.6837C36.6 36.6837 36.3583 36.9275 36.3417 37.3987C36.3333 37.5856 36.3417 37.7725 36.3417 37.9512C36.275 37.9675 36.2583 37.9756 36.2333 37.9756C32.675 37.9756 29.1083 37.9837 25.55 37.9675C24.45 37.9594 23.4667 37.1875 23.1417 36.1556C23.0833 36.05 23.0417 35.9281 23 35.8062ZM42.9833 27.6081C40.3167 27.6081 37.675 27.6081 35.0083 27.6081C35.0083 28.0387 35.0083 28.4531 35.0083 28.8837C37.675 28.8837 40.3167 28.8837 42.9833 28.8837C42.9833 28.4531 42.9833 28.0387 42.9833 27.6081Z" fill="#00B0EB"/>
</g>
<defs>
<filter id="filter0_d_3001_1432" x="10.2198" y="14.2197" width="56.5874" height="56.5874" filterUnits="userSpaceOnUse" color-interpolation-filters="sRGB">
<feFlood flood-opacity="0" result="BackgroundImageFix"/>
<feColorMatrix in="SourceAlpha" type="matrix" values="0 0 0 0 0 0 0 0 0 0 0 0 0 0 0 0 0 0 127 0" result="hardAlpha"/>
<feOffset dy="4"/>
<feGaussianBlur stdDeviation="2"/>
<feComposite in2="hardAlpha" operator="out"/>
<feColorMatrix type="matrix" values="0 0 0 0 0 0 0 0 0 0 0 0 0 0 0 0 0 0 0.25 0"/>
<feBlend mode="normal" in2="BackgroundImageFix" result="effect1_dropShadow_3001_1432"/>
<feBlend mode="normal" in="SourceGraphic" in2="effect1_dropShadow_3001_1432" result="shape"/>
</filter>
<clipPath id="clip0_3001_1432">
<rect width="32" height="26" fill="white" transform="translate(23 25)"/>
</clipPath>
</defs>
</svg>
