<svg width="434" height="161" viewBox="0 0 434 161" fill="none" xmlns="http://www.w3.org/2000/svg">
<g clip-path="url(#clip0_125_3618)">
<path fill-rule="evenodd" clip-rule="evenodd" d="M94.6409 5.83025C100.841 12.0249 102.117 21.3169 98.3488 28.7261C99.0782 30.2444 99.686 31.8842 100.051 33.5847C101.51 32.613 103.029 31.8842 104.67 31.3376C107.284 23.4425 114.761 17.7337 123.513 17.7337C134.515 17.7337 143.39 26.6005 143.39 37.593C143.39 46.3384 137.676 53.8084 129.774 56.4198C129.227 57.9989 128.498 59.5779 127.525 61.0355C129.227 61.3998 130.868 61.9464 132.388 62.736C139.804 59.0313 149.104 60.2459 155.304 66.4406C163.084 74.2143 163.084 86.7857 155.304 94.4987C149.104 100.693 139.804 101.969 132.388 98.2033C130.868 98.9321 129.227 99.5394 127.525 99.9038C128.498 101.361 129.227 102.88 129.774 104.519C137.676 107.131 143.39 114.601 143.39 123.346C143.39 134.339 134.515 143.206 123.513 143.206C114.761 143.206 107.284 137.497 104.67 129.602C103.09 129.055 101.51 128.326 100.051 127.355C99.686 129.055 99.139 130.695 98.3488 132.213C102.057 139.622 100.841 148.914 94.6409 155.109C86.8605 162.883 74.2782 162.883 66.5586 155.109C60.3586 148.914 59.0821 139.622 62.8507 132.213C62.1213 130.695 61.5135 129.055 61.1488 127.355C59.69 128.326 58.1704 129.055 56.5292 129.602C53.9155 137.497 46.439 143.206 37.686 143.206C26.6841 143.206 17.8096 134.339 17.8096 123.346C17.8096 114.601 23.5233 107.131 31.4253 104.519C31.9723 102.94 32.7017 101.361 33.6743 99.9038C31.9723 99.5394 30.3311 98.9928 28.8115 98.2033C21.3958 101.908 12.0958 100.693 5.89584 94.4987C-1.88455 86.725 -1.88455 74.1535 5.89584 66.4406C12.0958 60.2459 21.3958 58.9706 28.8115 62.736C30.3311 62.0072 31.9723 61.3998 33.6743 61.0355C32.7017 59.5779 31.9723 58.0596 31.4253 56.4198C23.5233 53.8084 17.8096 46.3384 17.8096 37.593C17.8096 26.6005 26.6841 17.7337 37.686 17.7337C46.439 17.7337 53.9155 23.4425 56.5292 31.3376C58.1096 31.8842 59.69 32.613 61.1488 33.5847C61.5135 31.8842 62.0606 30.2444 62.8507 28.7261C59.1429 21.3169 60.3586 12.0249 66.5586 5.83025C74.2782 -1.94342 86.8605 -1.94342 94.6409 5.83025ZM96.89 96.8065C99.7468 93.9521 103.212 92.1909 106.919 91.4014C104.853 88.304 103.698 84.5387 103.698 80.5304C103.698 76.5221 104.913 72.7567 106.919 69.6594C103.272 68.9306 99.7468 67.1086 96.89 64.2542C94.0331 61.3998 92.2703 57.9381 91.4802 54.2335C88.3802 56.2984 84.6115 57.4523 80.5998 57.4523C76.588 57.4523 72.8194 56.2376 69.7194 54.2335C68.99 57.8774 67.1664 61.3998 64.3096 64.2542C61.4527 67.1086 57.988 68.8699 54.2802 69.6594C56.3468 72.7567 57.5017 76.5221 57.5017 80.5304C57.5017 84.5387 56.286 88.304 54.2802 91.4014C57.9272 92.1301 61.4527 93.9521 64.3096 96.8065C67.1664 99.6609 68.9292 103.123 69.7194 106.827C72.8194 104.762 76.588 103.608 80.5998 103.608C84.6115 103.608 88.3802 104.823 91.4802 106.827C92.2096 103.123 94.0331 99.6001 96.89 96.8065ZM60.7233 80.4696C60.7233 91.4621 69.5978 100.329 80.5998 100.329C91.6017 100.329 100.476 91.4621 100.476 80.4696C100.476 69.4772 91.6017 60.6103 80.5998 60.6103C69.5978 60.6103 60.7233 69.5379 60.7233 80.4696Z" fill="#00B0EB"/>
<path d="M355.527 161C398.866 161 434 125.897 434 82.5952C434 39.2934 398.866 4.19043 355.527 4.19043C312.188 4.19043 277.055 39.2934 277.055 82.5952C277.055 125.897 312.188 161 355.527 161Z" fill="#E4E5EA"/>
<path fill-rule="evenodd" clip-rule="evenodd" d="M246.237 42.2087C248.79 50.2253 255.112 56.5414 263.135 59.0922C255.112 61.6429 248.79 67.959 246.237 75.9149C243.684 67.959 237.363 61.6429 229.4 59.0922C237.423 56.5414 243.684 50.2253 246.237 42.2087ZM213.596 59.1529C205.633 56.6022 199.312 50.2861 196.759 42.2695C194.206 50.2861 187.884 56.6022 179.861 59.1529C187.884 61.7036 194.206 68.0197 196.759 75.9756C199.312 67.959 205.572 61.7036 213.596 59.1529ZM145.761 34.2529C145.761 45.9134 153.359 55.7519 163.935 59.0922C153.42 62.4324 145.761 72.271 145.761 83.81C145.761 95.4098 153.359 105.188 163.935 108.528C153.42 111.868 145.761 121.767 145.761 133.367C145.761 147.761 157.431 159.482 171.898 159.482C183.569 159.482 193.416 151.89 196.759 141.323C200.102 151.83 209.949 159.482 221.498 159.482C233.108 159.482 242.894 151.89 246.237 141.323C249.58 151.83 259.488 159.482 271.098 159.482C285.504 159.482 297.235 147.821 297.235 133.367C297.235 121.707 289.637 111.868 279.061 108.528C289.576 105.188 297.235 95.3491 297.235 83.81C297.235 72.2102 289.637 62.4324 279.061 59.0922C289.576 55.7519 297.235 45.8526 297.235 34.2529C297.235 19.8594 285.565 8.13818 271.098 8.13818C259.427 8.13818 249.58 15.7297 246.237 26.297C242.894 15.7904 233.047 8.13818 221.498 8.13818C209.888 8.13818 200.102 15.7297 196.759 26.297C193.416 15.7904 183.508 8.13818 171.898 8.13818C157.431 8.19892 145.761 19.8594 145.761 34.2529ZM196.759 125.533C194.206 117.516 187.884 111.2 179.861 108.649C187.884 106.099 194.206 99.7825 196.759 91.8266C199.312 99.7825 205.633 106.099 213.596 108.649C205.572 111.139 199.312 117.516 196.759 125.533ZM246.237 91.7659C243.684 99.7218 237.363 106.038 229.4 108.589C237.363 111.139 243.684 117.455 246.237 125.472C248.79 117.455 255.112 111.139 263.135 108.589C255.172 106.038 248.79 99.7218 246.237 91.7659Z" fill="#CDDC39"/>
</g>
<defs>
<clipPath id="clip0_125_3618">
<rect width="434" height="161" fill="white"/>
</clipPath>
</defs>
</svg>
