<svg width="62" height="62" viewBox="0 0 62 62" fill="none" xmlns="http://www.w3.org/2000/svg">
<g id="Frame" clip-path="url(#clip0_271_1070)">
<g id="Group">
<g id="Group_2">
<path id="Vector" d="M0 57.3116C0.0807292 56.7457 0.242187 56.2607 0.322917 55.6949C1.45312 51.4107 5.16667 48.0965 9.52604 47.5306C9.6875 47.5306 9.84896 47.4498 10.1719 47.3689C7.99219 46.9648 6.29688 45.9948 5.08594 44.2972C3.875 42.5997 3.47135 40.7405 3.875 38.7197C4.52083 35.1629 7.83073 32.5762 11.4635 32.8187C15.0156 33.0613 18.0026 36.0521 18.2448 39.6088C18.487 43.4081 15.8229 46.6414 12.1901 47.2073C13.401 47.6114 14.7734 47.9348 15.9844 48.5815C17.1953 49.2281 18.2448 50.1981 19.375 51.0873C19.375 51.0065 19.4557 50.8448 19.6172 50.6832C20.7474 48.4198 22.4427 46.6414 24.6224 45.3481C24.9453 45.1864 25.1875 45.1864 25.4297 45.4289C28.7396 47.9348 33.099 47.9348 36.4089 45.4289C36.7318 45.1864 36.8932 45.1864 37.2161 45.3481C39.3151 46.6414 41.0104 48.339 42.1406 50.5215C42.2214 50.764 42.3828 50.9257 42.5443 51.249C44.4818 48.9856 46.9036 47.6923 49.8906 47.2881C47.8724 46.8839 46.1771 45.9139 45.0469 44.2164C43.8359 42.5189 43.4323 40.6597 43.8359 38.558C44.4818 35.0821 47.7109 32.4954 51.3437 32.7379C54.8958 32.8996 57.8828 35.8096 58.2057 39.3663C58.5286 42.5997 56.4297 46.3989 51.8281 47.2073C52.3125 47.2881 52.7161 47.3689 53.1198 47.4498C58.3672 48.5006 62 52.9465 62 58.2816C62 59.4133 62 60.6258 62 61.7575C41.3333 61.7575 20.6667 61.7575 0 61.7575C0 60.4641 0 58.8474 0 57.3116Z" fill="#9575CD"/>
<path id="Vector_2" d="M43.7552 23.6037C43.6744 27.888 42.1406 31.2022 38.9921 33.708C37.3776 35.0014 36.4895 36.5372 36.4088 38.6389C36.3281 41.549 33.8255 43.8932 30.9192 43.8123C28.013 43.8123 25.5911 41.4681 25.5104 38.5581C25.4296 36.5372 24.6223 35.0014 23.0885 33.708C17.6796 29.4238 16.6302 21.9062 20.5859 16.3286C23.4921 12.2061 28.7395 10.1852 33.5833 11.3169C38.6692 12.4486 42.4635 16.4095 43.3515 21.4212C43.5937 22.2296 43.6744 23.0379 43.7552 23.6037ZM34.552 21.3404C33.4218 22.4721 32.2109 23.6846 30.9192 24.9779C29.7083 23.7654 28.4973 22.5529 27.4479 21.502C26.5598 22.3104 25.7526 23.1996 25.026 23.9271C27.0442 25.9479 29.0625 27.9688 31 29.9088C33.0182 27.888 35.0364 25.8671 37.0546 23.9271C36.2474 23.0379 35.4401 22.2296 34.552 21.3404Z" fill="#9575CD"/>
<path id="Vector_3" d="M29.2241 7.43677C29.2241 4.9309 29.2241 2.50587 29.2241 0C30.4351 0 31.5653 0 32.7762 0C32.7762 2.50587 32.7762 4.9309 32.7762 7.43677C31.5653 7.43677 30.4351 7.43677 29.2241 7.43677Z" fill="#9575CD"/>
<path id="Vector_4" d="M46.0964 17.2178C45.4505 16.167 44.8854 15.1161 44.3203 14.0653C46.4193 12.8528 48.5182 11.6403 50.6172 10.4277C51.263 11.4786 51.8281 12.5294 52.474 13.5803C50.2135 14.7928 48.1953 16.0053 46.0964 17.2178Z" fill="#9575CD"/>
<path id="Vector_5" d="M17.5991 4.28422C18.6486 3.63754 19.6981 3.0717 20.7476 2.50586C21.9585 4.60755 23.1694 6.70925 24.3804 8.81094C23.3309 9.45762 22.2814 10.0235 21.2319 10.5893C20.021 8.48761 18.8101 6.38591 17.5991 4.28422Z" fill="#9575CD"/>
<path id="Vector_6" d="M41.2524 2.4248C42.3019 3.07148 43.3514 3.63732 44.4009 4.284C43.1899 6.38569 41.979 8.48739 40.7681 10.5891C39.7186 9.94241 38.6691 9.37657 37.6196 8.72989C38.8306 6.62819 40.0415 4.60733 41.2524 2.4248Z" fill="#9575CD"/>
<path id="Vector_7" d="M9.60693 13.5803C10.2528 12.5294 10.8179 11.4786 11.383 10.4277C13.4819 11.6403 15.5809 12.8528 17.6798 14.0653C17.034 15.1161 16.4689 16.167 15.9038 17.2178C13.8049 16.0053 11.7866 14.7928 9.60693 13.5803Z" fill="#9575CD"/>
<path id="Vector_8" d="M14.6121 25.6246C12.1903 25.6246 9.84912 25.6246 7.42725 25.6246C7.42725 24.4121 7.42725 23.2804 7.42725 22.0679C9.76839 22.0679 12.1903 22.0679 14.6121 22.0679C14.6121 23.1996 14.6121 24.4121 14.6121 25.6246Z" fill="#9575CD"/>
<path id="Vector_9" d="M54.5731 25.6246C52.1512 25.6246 49.8101 25.6246 47.3882 25.6246C47.3882 24.4121 47.3882 23.2804 47.3882 22.0679C49.7293 22.0679 52.1512 22.0679 54.5731 22.0679C54.5731 23.2804 54.5731 24.4121 54.5731 25.6246Z" fill="#9575CD"/>
</g>
</g>
</g>
<defs>
<clipPath id="clip0_271_1070">
<rect width="62" height="62" fill="white"/>
</clipPath>
</defs>
</svg>
