<svg width="188" height="198" viewBox="0 0 188 198" fill="none" xmlns="http://www.w3.org/2000/svg">
<g id="Frame" clip-path="url(#clip0_271_1060)">
<path id="Vector" d="M179.875 134.754C181.196 132.837 182.121 130.656 182.979 128.475C183.772 126.493 184.367 124.444 184.895 122.461C185.49 120.28 185.952 118.033 186.415 115.786C187.273 111.292 187.67 106.732 187.868 102.172C188.066 97.6782 188 93.2503 187.736 88.7563C187.471 84.1302 186.877 79.504 186.216 74.9439C184.829 65.8898 182.649 57.034 179.742 48.3104C178.289 43.8825 176.505 39.5207 174.458 35.3571C173.533 33.5067 172.674 31.6562 171.551 30.004C170.956 29.1449 170.23 28.2857 169.437 27.5587C168.644 26.8318 167.719 26.237 166.795 25.7083C165.209 24.783 163.425 24.1882 161.51 24.1222C160.717 24.0561 159.858 24.2543 159.065 24.5187C158.075 24.8491 157.216 25.3778 156.357 25.9726C154.838 27.03 153.516 28.3518 152.327 29.7396C152.063 30.0701 151.733 30.4005 151.468 30.7971C151.468 30.2023 151.468 29.5414 151.468 28.9466C151.468 27.757 151.468 26.5674 151.468 25.3778C151.535 23.7917 151.865 22.2717 151.799 20.6856C151.799 20.0247 151.667 19.2977 151.468 18.6368C151.336 18.2403 151.138 17.6455 150.742 17.3151C150.411 16.9846 150.015 16.7203 149.619 16.4559C149.024 16.1255 148.231 16.1255 147.571 16.4559C146.91 16.8525 146.58 17.5133 146.514 18.2403C146.184 22.8665 145.721 27.4266 145.523 32.0527C145.457 34.6302 145.391 37.1415 145.391 39.719C144.202 42.032 143.145 44.4112 142.088 46.7243C140.172 51.02 138.124 55.1836 136.275 59.5454C133.896 65.0307 131.716 70.5821 129.338 76.0674C129.338 72.3004 129.272 68.5334 129.206 64.7663C129.008 56.7036 128.545 48.6409 127.885 40.6442C127.555 36.6789 127.158 32.7136 126.63 28.7483C126.365 26.7657 126.101 24.717 125.771 22.7343C125.507 21.016 125.176 19.2977 124.978 17.5794C124.582 14.1429 124.251 10.6402 123.062 7.40187C122.798 6.60881 122.402 5.81575 122.072 5.02269C121.609 4.16355 121.015 3.37049 120.42 2.57743C119.825 1.85046 118.835 1.38785 117.976 1.05741C117.117 0.726966 116.258 0.528701 115.465 0.198261C114.276 -0.264356 112.493 0.528701 112.03 1.6522C111.172 3.70093 110.247 5.74966 109.454 7.79839C108.595 9.9793 107.868 12.2924 107.142 14.5394C106.481 16.5881 105.821 18.7029 105.16 20.7517C103.839 24.8491 102.518 29.0127 101.262 33.1101C100.668 35.0267 100.073 37.0093 99.5448 38.992C98.2897 43.4199 97.0345 47.7817 95.8454 52.2096C95.4491 53.6635 95.0527 55.0514 94.6563 56.5053C93.8636 59.3471 93.203 62.3211 92.5424 65.229C92.4103 65.9559 92.2121 66.6168 92.08 67.3438C90.6927 67.0794 89.3054 66.8812 87.9182 66.8151C85.9363 66.749 83.8885 67.0794 81.9067 67.2116C80.3873 67.2777 78.9339 68.4673 79 70.1195C79.066 72.1021 79 74.0187 79.4624 75.9352C79.9909 78.0501 81.1139 80.0988 82.1048 82.0154C82.8315 83.5354 83.4921 85.1215 84.1527 86.6415C85.1436 89.0207 86.2006 91.3338 87.1915 93.713C86.7951 96.2904 86.4648 98.8678 86.1345 101.445C84.6151 101.313 83.1618 101.181 81.6424 101.115C78.7357 100.917 75.8291 100.85 72.9224 100.85C72.8564 100.52 72.7903 100.256 72.7242 99.9913C72.1957 97.2156 71.7333 94.506 71.2709 91.7303C70.8745 89.1529 70.4121 86.5754 70.0157 83.998C69.7515 82.2136 69.4212 80.3631 69.157 78.5788C68.8267 76.3979 68.2982 74.283 67.8358 72.1021C67.6376 71.1769 66.8448 70.4499 65.9861 70.2517C65.5236 70.1195 65.1273 70.1195 64.6648 70.2517C64.0703 70.3838 63.2776 70.9125 63.0794 71.5073C62.8151 72.1682 62.4848 72.763 62.2867 73.4239C62.0224 74.0848 61.9564 74.7457 61.8903 75.4726C61.6921 76.8605 61.7582 78.3144 61.8242 79.7023C62.0224 82.6762 62.5509 85.5841 62.8812 88.492C63.4097 92.7216 63.9382 96.9513 64.5327 101.181C61.1636 101.379 57.7945 101.776 54.4915 102.304C52.4436 102.635 50.3958 103.097 48.4139 103.692C47.8194 102.833 47.0927 102.106 46.2339 101.445C45.1109 100.586 43.8558 99.8591 42.6667 99C42.1382 98.6035 41.2794 98.6035 40.7509 98.7356C40.0242 98.9339 39.5618 99.3965 39.1655 99.9913C39.1655 100.057 39.0994 100.057 39.0994 100.123C37.9103 101.644 36.5891 103.031 35.6642 104.684C35.1358 105.543 34.8715 106.534 34.5412 107.525C34.2109 108.583 34.0127 109.706 33.8806 110.83C33.6164 112.812 33.4842 114.861 33.3521 116.91C33.2861 119.091 33.0879 121.338 32.9558 123.519C32.6255 129.731 32.6915 135.943 32.4933 142.156C32.2951 148.83 32.163 155.505 31.7006 162.18C31.5024 165.286 31.3042 168.393 31.1061 171.433C30.9079 174.869 30.7758 178.306 30.3133 181.676C30.1152 182.998 29.8509 184.32 29.6527 185.642C29.4545 186.831 29.2564 187.955 28.86 189.144C28.7939 189.342 28.6618 189.475 28.5958 189.607C28.5297 189.673 28.4636 189.673 28.3315 189.739C28.0012 189.871 27.6709 189.937 27.3406 190.003C26.8782 190.003 26.4818 190.069 26.0194 190.003C25.8873 190.003 25.6891 189.937 25.557 189.871C25.2267 189.673 24.8303 189.475 24.5 189.276C23.6412 188.549 22.9145 187.69 22.1879 186.831C21.197 185.509 20.3382 184.121 19.3473 182.734C18.0921 180.949 16.9691 179.099 15.8461 177.182C14.2606 174.34 12.8073 171.366 11.3539 168.459C9.70242 165.154 8.0509 161.85 6.39939 158.479C5.2103 156.1 4.02121 153.721 2.83212 151.408C2.17151 150.152 1.5109 148.897 0.916359 147.641C-0.00848961 145.856 -0.801216 144.072 -1.99031 142.42C-2.65091 141.495 -3.44364 140.636 -4.43455 139.975C-5.3594 139.38 -6.35031 138.851 -7.27516 138.322C-8.13394 137.794 -9.52122 137.926 -10.2479 138.719C-11.6352 140.239 -13.1545 141.561 -14.0794 143.411C-15.0703 145.394 -15.4667 147.641 -15.863 149.822C-16.1933 151.87 -16.5897 153.919 -16.92 155.902C-17.2503 157.818 -17.5806 159.735 -17.9109 161.652C-18.1752 163.304 -18.5055 164.89 -18.7697 166.542C-19.1661 168.723 -19.8267 170.772 -20.6194 172.82C-21.4121 174.737 -22.337 176.587 -23.46 178.372C-23.9885 179.297 -24.6491 180.156 -25.3097 181.015C-25.9703 181.941 -26.697 182.932 -27.3576 183.857C-28.0182 184.716 -28.6788 185.575 -29.4055 186.435C-30 187.162 -30.0661 188.153 -29.4055 188.814C-28.7449 189.475 -27.6218 189.475 -27.0273 188.814C-26.1024 187.822 -25.1115 186.963 -24.1867 185.972C-23.1297 184.915 -22.2049 183.791 -21.28 182.734C-19.5624 180.619 -18.1091 178.372 -16.8539 175.927C-15.6649 173.481 -14.74 170.97 -14.0794 168.326C-13.683 166.542 -13.3527 164.692 -13.0224 162.907C-12.6261 160.528 -12.2297 158.083 -11.8333 155.704C-11.7012 155.043 -11.5691 154.316 -11.503 153.655C-11.3049 152.333 -11.0406 151.011 -10.7764 149.623C-10.5782 148.434 -10.2479 147.244 -9.85152 146.055C-9.65334 145.658 -9.45516 145.262 -9.19091 144.865C-8.86061 144.469 -8.46425 144.072 -8.06788 143.676C-7.73758 143.874 -7.40728 144.072 -7.07697 144.27C-6.74667 144.535 -6.48243 144.865 -6.21819 145.13C-5.16122 146.716 -4.36849 148.5 -3.5097 150.218C-3.24546 150.747 -2.98122 151.276 -2.71697 151.87C-1.72607 153.853 -0.669094 155.902 0.321814 157.885C1.70909 160.594 3.0303 163.304 4.35151 166.013C6.72969 170.772 9.04181 175.596 11.6182 180.288C12.6751 182.205 13.8642 183.989 15.0533 185.774C16.2424 187.558 17.4315 189.409 18.7527 191.061C19.8758 192.515 21.263 193.77 22.9145 194.629C24.7642 195.555 26.8121 195.555 28.7939 195.29C29.6527 195.158 30.5115 194.828 31.2382 194.431C32.097 193.969 32.6915 193.176 33.22 192.383C33.7485 191.656 34.0127 190.664 34.277 189.805C34.6073 188.814 34.7394 187.756 34.9376 186.699C35.1358 185.774 35.3339 184.782 35.4661 183.857C35.6642 182.734 35.7964 181.61 35.9285 180.487C36.1267 178.372 36.2588 176.191 36.3909 174.01C36.5891 170.375 36.7873 166.674 37.0515 163.039C37.4479 156.298 37.5139 149.557 37.7121 142.816C37.7782 139.182 37.8442 135.481 37.9103 131.846C37.9103 131.581 37.9103 131.383 37.9103 131.119C38.1745 131.78 38.5048 132.507 38.8351 133.168C39.8261 135.282 40.9491 137.331 42.1382 139.314C43.2612 141.164 44.4503 143.015 45.6394 144.799C46.9606 146.782 48.2818 148.764 49.603 150.747C53.3685 156.298 57.4642 161.652 61.56 166.939C63.6739 169.648 65.7218 172.358 67.8358 175.001C68.6945 177.513 69.6194 180.024 70.4782 182.469C71.403 184.981 72.3939 187.426 73.3848 189.871C74.3757 192.184 75.6309 194.431 76.82 196.678C77.4145 197.868 78.9339 198.463 80.1891 198.132C81.5103 197.802 82.5012 196.546 82.4351 195.224C82.4351 194.431 82.4351 193.638 82.4351 192.779C82.9636 193.109 83.4921 193.374 84.0867 193.572C85.1436 193.969 86.2006 194.101 87.2576 194.431C89.2394 195.026 91.4854 193.374 91.3533 191.259C91.2212 189.21 91.2212 187.162 91.1551 185.047C91.0891 182.668 90.8248 180.354 90.4945 178.041C89.7679 173.613 88.6448 169.252 87.4557 164.89C86.2006 160.264 84.9454 155.571 83.7563 150.879C81.9067 143.279 80.057 135.679 78.2073 128.145C77.6127 125.634 77.0842 123.056 76.4897 120.545C75.697 116.91 74.8382 113.275 74.0454 109.64C73.8473 108.715 73.7151 107.79 73.517 106.864C73.517 106.798 73.517 106.732 73.4509 106.666C73.9794 106.666 74.5079 106.666 75.0364 106.666C78.3394 106.732 81.6424 106.997 84.9454 107.327C84.8133 109.045 84.6812 110.698 84.6151 112.416C84.5491 114.597 84.5491 116.844 84.5491 119.025C84.5491 122.99 84.417 127.021 84.8794 130.921C85.1436 132.771 85.4739 134.555 86.0685 136.34C86.663 138.124 87.5879 139.71 88.7109 141.164C89.7679 142.486 91.2212 143.609 92.6745 144.535C93.3351 144.931 94.0618 145.196 94.8545 145.46C95.7794 145.724 96.6382 145.658 97.563 145.526C98.2897 145.394 99.0164 144.997 99.677 144.601C100.536 144.006 101.262 143.345 101.989 142.552C103.046 141.362 103.971 140.041 104.896 138.785C106.613 142.816 108.331 146.782 110.313 150.681C111.171 152.333 111.964 154.051 112.757 155.77C113.55 157.488 114.541 159.338 116.06 160.528C116.853 161.189 117.712 161.718 118.702 161.85C119.759 162.048 120.816 161.982 121.807 161.652C122.996 161.189 123.789 160.528 124.45 159.471C125.044 158.413 125.176 157.158 125.308 155.968C125.441 154.844 125.441 153.787 125.507 152.664C125.573 151.738 125.705 150.879 125.771 149.954C125.969 147.971 126.101 146.055 126.299 144.072C126.63 140.702 126.828 137.331 127.092 133.961C127.555 127.418 127.885 120.941 128.215 114.399C130.065 114.729 131.848 115.125 133.698 115.456C134.689 115.654 135.614 115.852 136.539 115.985C140.502 116.778 144.466 117.571 148.43 118.232C148.43 118.694 148.43 119.091 148.43 119.553C148.364 123.717 148.43 127.881 148.231 132.044C148.165 133.101 148.099 134.093 147.967 135.15C147.571 137.86 146.976 140.503 145.985 143.015C145.325 144.535 144.532 146.055 143.607 147.443C143.145 147.971 142.682 148.434 142.22 148.897C142.154 148.963 142.022 149.029 141.956 149.029C141.758 149.095 141.559 149.161 141.295 149.161C138.455 149.425 135.548 149.161 132.707 148.963C130.461 148.83 128.479 150.945 128.479 153.192C128.479 155.505 130.395 157.356 132.707 157.422C134.755 157.488 136.803 157.62 138.851 157.356C139.974 157.224 141.031 157.091 142.154 156.959C143.343 156.761 144.532 156.364 145.589 155.77C146.118 155.505 146.58 155.043 147.108 154.646C147.439 154.382 147.769 154.051 148.033 153.721C148.76 152.928 149.421 152.003 150.015 151.011C151.204 149.095 152.063 146.914 152.724 144.733C153.913 141.098 154.441 137.331 154.639 133.564C154.97 134.489 155.366 135.348 155.762 136.274C156.621 138.124 157.612 139.975 159.198 141.362C160.717 142.75 162.897 143.543 164.879 143.874C165.804 144.006 166.795 144.072 167.719 144.006C168.842 143.874 169.833 143.609 170.824 143.147C172.74 142.288 174.392 140.9 175.911 139.512C175.977 139.446 176.043 139.38 176.109 139.314C177.695 137.794 178.818 136.274 179.875 134.754ZM169.701 136.274C169.107 136.67 168.512 137.001 167.918 137.331C167.653 137.397 167.389 137.463 167.125 137.529C166.728 137.529 166.332 137.529 165.87 137.529C165.275 137.397 164.681 137.265 164.086 137.067C163.822 136.935 163.558 136.802 163.293 136.604C162.963 136.274 162.633 136.009 162.368 135.613C161.378 134.225 160.585 132.705 159.924 131.185C159.065 128.938 158.471 126.691 157.81 124.378C157.348 122.593 156.885 120.743 156.489 118.959C158.405 119.091 160.255 119.355 162.17 119.421C164.218 119.487 166.266 119.223 168.116 118.364C169.899 117.571 171.353 115.985 172.212 114.2C172.674 113.209 172.938 112.284 173.004 111.16C173.004 110.632 172.872 110.103 172.74 109.574C172.608 109.111 172.344 108.517 172.079 108.054C171.617 107.195 170.89 106.402 170.164 105.675C169.437 104.948 168.644 104.221 167.918 103.494C166.2 101.842 164.086 100.454 162.104 99.0661C160.056 97.6782 158.075 96.2243 156.027 94.8364C155.234 94.3077 154.375 93.779 153.582 93.2503C153.582 93.0521 153.582 92.9199 153.516 92.7216C153.186 88.4259 152.988 84.1302 152.79 79.9005C152.459 72.1021 152.063 64.3698 151.733 56.5714C151.601 53.8618 151.667 51.0861 151.601 48.3765C151.535 45.7991 151.535 43.1555 151.468 40.5781C152.261 39.1903 153.12 37.8685 154.045 36.6128C155.63 34.6302 157.282 32.6475 159.264 30.9953C159.726 30.6649 160.188 30.4005 160.717 30.1362C160.915 30.0701 161.113 30.004 161.312 30.004C161.378 30.004 161.51 30.004 161.576 30.004C161.906 30.0701 162.302 30.2023 162.633 30.2684C163.425 30.5988 164.086 31.0614 164.813 31.524C165.275 31.9206 165.738 32.3832 166.134 32.8458C167.125 34.2997 167.852 35.9519 168.578 37.538C169.305 39.1902 170.098 40.8425 170.824 42.5607C172.013 45.5347 173.004 48.5087 173.929 51.5487C174.92 54.721 175.845 57.8932 176.638 61.0654C178.223 67.2116 179.346 73.49 180.205 79.7683C181.46 89.8798 181.724 100.19 180.535 110.301C180.139 113.077 179.61 115.852 178.95 118.562C178.289 121.47 177.496 124.378 176.373 127.154C175.515 129.07 174.524 130.921 173.268 132.639C172.145 133.961 171.022 135.216 169.701 136.274ZM173.401 132.374C173.467 132.308 173.467 132.242 173.533 132.176C173.533 132.242 173.467 132.308 173.401 132.374ZM148.099 135.811C148.099 135.613 148.165 135.415 148.165 135.15C148.165 135.415 148.165 135.613 148.099 135.811ZM165.077 111.953C165.011 112.019 164.945 112.019 164.813 112.085C164.35 112.218 163.954 112.35 163.492 112.416C161.642 112.548 159.792 112.416 157.942 112.284C157.018 112.218 156.093 112.152 155.168 112.085C155.102 111.821 155.102 111.557 155.036 111.292C154.838 109.905 154.639 108.583 154.375 107.195C154.375 106.931 154.375 106.732 154.309 106.468C154.243 105.08 154.177 103.692 154.045 102.304C154.573 102.635 155.036 103.031 155.564 103.362C157.282 104.617 159.065 105.807 160.783 107.129C161.642 107.856 162.501 108.583 163.293 109.376C164.02 110.037 164.747 110.698 165.407 111.425C165.341 111.491 165.275 111.623 165.275 111.689C165.209 111.755 165.143 111.887 165.077 111.953ZM120.222 155.505C120.156 155.505 120.156 155.505 120.222 155.505V155.505ZM121.147 123.32C121.015 125.898 120.882 128.541 120.684 131.119C120.42 135.084 120.09 139.049 119.825 143.015C119.693 144.733 119.561 146.451 119.429 148.17C119.297 149.491 119.231 150.813 119.099 152.135C119.033 152.73 119.033 153.391 119.033 153.985C118.372 152.862 117.844 151.672 117.315 150.549C116.39 148.5 115.267 146.583 114.276 144.601C112.361 140.768 110.709 136.868 109.058 132.903C109.058 132.837 109.124 132.837 109.124 132.771C110.313 130.656 111.37 128.475 112.493 126.36C113.153 125.105 113.748 123.849 114.408 122.593C116.06 119.223 117.712 115.852 119.363 112.416C119.825 112.482 120.288 112.614 120.75 112.68C121.147 112.746 121.477 112.812 121.873 112.879C121.543 116.381 121.345 119.884 121.147 123.32ZM84.9454 185.774C84.417 185.179 83.9545 184.584 83.426 183.989C83.4921 184.121 83.6242 184.254 83.6903 184.32C82.8976 183.262 82.0388 182.205 81.18 181.148C80.9818 179.958 80.8497 178.768 80.6515 177.579C80.2551 174.803 79.8588 172.093 79.4624 169.318C78.5376 162.709 77.6127 156.1 76.6218 149.491C76.0273 145.526 75.4988 141.561 74.9042 137.595C76.2254 143.213 77.4806 148.897 78.8018 154.514C80.7176 162.973 83.4261 171.3 84.6812 179.958C84.8794 181.941 84.9454 183.857 84.9454 185.774ZM148.694 105.939C148.76 107.79 148.76 109.574 148.76 111.425C145.325 110.896 141.89 110.235 138.521 109.64C137.596 109.508 136.737 109.31 135.812 109.178C133.5 108.781 131.122 108.318 128.744 107.922C128.876 103.824 128.942 99.727 129.074 95.6295C129.14 93.9773 129.14 92.3251 129.206 90.6729C129.602 89.8138 129.933 88.9546 130.329 88.0955C133.434 89.6155 136.539 91.2677 139.578 93.0521C142.55 94.7704 145.457 96.5547 148.364 98.4713C148.496 100.85 148.562 103.428 148.694 105.939ZM68.0339 128.872C69.8176 141.495 71.5351 154.117 73.1867 166.74C73.4509 168.657 73.7151 170.573 73.9794 172.556C73.9133 172.424 73.7812 172.358 73.7151 172.226C73.3188 171.763 72.9224 171.234 72.526 170.772C72.1957 169.846 71.9315 168.987 71.6012 168.062C70.2139 163.965 68.8267 159.933 67.3733 155.836C65.4576 150.218 63.4758 144.535 61.56 138.917C58.3891 129.665 55.4164 120.346 51.6509 111.292C51.717 111.491 51.8491 111.689 51.9151 111.953C51.4527 110.83 51.0564 109.772 50.5939 108.649C50.8582 108.583 51.1224 108.517 51.4527 108.451C53.5006 107.922 55.5485 107.591 57.5964 107.327C57.3321 107.327 57.1339 107.393 56.8697 107.393C59.5121 107.063 62.2206 106.798 64.863 106.666C65.9861 114.068 66.977 121.47 68.0339 128.872ZM105.688 137.926C105.755 137.86 105.755 137.794 105.821 137.728C105.821 137.794 105.755 137.86 105.688 137.926ZM145.853 57.6949C146.052 62.3211 146.25 67.0133 146.514 71.6395C146.58 73.6882 146.646 75.8031 146.844 77.8518C147.175 81.751 147.505 85.7163 147.835 89.6155C143.079 86.7737 138.124 84.1963 133.104 81.8832C133.566 80.8258 134.028 79.7023 134.491 78.6449C137.596 71.4412 140.436 64.1716 143.673 57.034C144.334 55.514 145.061 54.0601 145.787 52.54C145.721 54.2583 145.787 55.9766 145.853 57.6949ZM97.1667 140.173C97.0345 140.305 96.8363 140.371 96.7042 140.437C96.5061 140.371 96.2418 140.305 96.0436 140.239C95.4491 139.909 94.8545 139.578 94.26 139.182C93.5333 138.587 92.9388 137.992 92.3442 137.331C91.8818 136.67 91.4854 135.943 91.1551 135.15C90.5606 133.498 90.1642 131.846 89.966 130.128C89.4376 125.567 89.6357 121.007 89.5697 116.447C89.5697 113.473 89.7018 110.565 89.9 107.591C90.8248 107.724 91.8158 107.79 92.7406 107.922C93.3351 109.376 93.9297 110.764 94.4582 112.218C94.4582 112.152 94.4582 112.152 94.3921 112.085C97.0345 118.562 99.6109 125.105 102.253 131.581C102.385 131.912 102.518 132.308 102.716 132.639C102.055 133.63 101.395 134.621 100.668 135.547C100.073 136.34 99.5448 137.199 98.9503 137.992C98.4218 138.917 97.8273 139.578 97.1667 140.173ZM109.784 119.157C108.925 121.007 108.001 122.792 107.076 124.576C106.812 125.171 106.481 125.7 106.217 126.294C105.755 125.171 105.292 123.981 104.83 122.858C102.914 118.232 101.064 113.605 99.1485 108.979C103.971 109.772 108.727 110.565 113.55 111.358C112.295 114.002 111.039 116.579 109.784 119.157ZM116.985 104.287C116.787 104.75 116.522 105.212 116.324 105.675C116.126 105.675 115.994 105.609 115.796 105.609C111.964 105.014 108.067 104.419 104.235 103.891C101.659 103.494 99.1485 103.097 96.5721 102.767C95.1848 99.2644 93.7315 95.8278 92.2782 92.3912C92.2121 92.1929 92.08 91.9286 92.0139 91.7303C92.2121 90.5407 92.4103 89.285 92.6085 88.0955C93.3351 83.5354 94.1939 78.9753 95.1848 74.4813C97.497 75.2083 99.743 76.0013 101.989 76.7283C106.812 78.3144 111.634 80.0327 116.39 81.9493C116.324 81.9493 116.324 81.8832 116.258 81.8832C116.324 81.8832 116.39 81.9493 116.456 81.9493C116.655 82.0154 116.853 82.0814 117.051 82.1475C116.919 82.0814 116.853 82.0814 116.721 82.0154C118.702 82.8084 120.684 83.6675 122.666 84.5267C122.6 87.1041 122.534 89.7477 122.468 92.3251C120.618 96.2904 118.901 100.322 116.985 104.287ZM52.9061 130.194C54.3594 134.489 55.7467 138.785 57.2 143.081C58.7854 147.905 60.437 152.664 62.0224 157.488C61.8242 157.224 61.626 157.025 61.4279 156.761C59.446 154.184 57.5303 151.606 55.6806 149.029C53.8309 146.451 52.1133 143.808 50.3958 141.23C48.6782 138.653 47.0267 136.142 45.5073 133.432C44.1861 131.053 43.1291 128.607 42.0721 126.162C41.2133 124.047 40.4867 121.933 40.1564 119.752C40.0903 119.025 40.0903 118.298 40.1564 117.571C40.2885 116.844 40.4867 116.183 40.7509 115.522C41.1473 114.597 41.6097 113.738 42.2042 112.945C42.6006 112.482 42.997 112.019 43.4594 111.623C44.1861 111.16 44.9127 110.764 45.7055 110.367C46.3 111.887 46.8945 113.407 47.4891 114.927C47.4891 114.861 47.423 114.795 47.423 114.795C49.4709 119.818 51.1885 125.039 52.9061 130.194ZM122.27 56.8358C122.468 61.528 122.534 66.2864 122.6 70.9786C122.6 73.1595 122.6 75.2744 122.6 77.4553C121.213 76.9266 119.892 76.3979 118.504 75.8692C114.276 74.2169 109.916 72.6969 105.622 71.3091C103.707 70.7143 101.791 70.1195 99.9412 69.5247C98.7521 69.1282 97.6291 68.7977 96.44 68.4673C97.1006 65.7577 97.7612 63.0481 98.4218 60.4045C98.7521 59.0167 99.1485 57.6949 99.5448 56.3071C100.8 52.0774 101.989 47.9139 103.244 43.6842C103.773 41.8338 104.301 39.9833 104.896 38.1328C105.094 37.538 105.226 36.8772 105.424 36.2824C106.679 32.6475 107.868 29.0127 109.124 25.4439C110.709 20.6856 112.295 15.9272 114.144 11.3011C114.673 9.9793 115.333 8.65754 115.928 7.40187C116.192 7.86448 116.456 8.3271 116.721 8.8558C117.447 10.8384 117.844 12.9533 118.108 15.0681C118.372 17.3151 118.636 19.6282 118.967 21.8752C119.363 24.3204 119.759 26.7657 120.09 29.2109C121.279 38.265 121.873 47.5834 122.27 56.8358ZM90.5606 101.181C90.5606 101.049 90.5606 100.983 90.6267 100.85C90.6267 100.917 90.5606 101.049 90.5606 101.181ZM89.3715 79.0414C89.1073 80.5614 88.843 82.0154 88.5788 83.5354C88.2485 82.8084 87.9842 82.0814 87.6539 81.3545C86.9273 79.5701 86.0024 77.8518 85.2097 76.0674C84.9454 75.3404 84.6812 74.6135 84.5491 73.8204C84.5491 73.49 84.483 73.0935 84.483 72.763C85.8042 72.6969 87.1254 72.6308 88.5127 72.6969C89.2394 72.8291 89.9 72.8952 90.5606 73.0935C90.1642 75.0761 89.7679 77.0587 89.3715 79.0414ZM42.2042 126.36C42.2042 126.294 42.1382 126.228 42.1382 126.162C42.1382 126.228 42.1382 126.294 42.2042 126.36ZM45.7055 110.301C45.6394 110.301 45.6394 110.367 45.5733 110.367C45.5733 110.301 45.6394 110.301 45.7055 110.301ZM42.8648 105.543C42.4685 105.741 42.0061 105.939 41.6097 106.138C40.9491 106.468 40.3545 106.931 39.76 107.393C40.0242 106.798 40.4206 106.27 40.7509 105.741C41.0151 105.411 41.3455 105.014 41.6097 104.684C41.94 104.882 42.2042 105.08 42.5345 105.278C42.6667 105.344 42.7988 105.477 42.8648 105.543ZM118.108 14.9359C118.108 14.8698 118.108 14.7376 118.042 14.6716C118.108 14.7376 118.108 14.8037 118.108 14.9359ZM116.06 7.40187C116.06 7.33578 115.994 7.33578 115.994 7.26969C115.994 7.26969 116.06 7.33578 116.06 7.40187ZM116.39 81.8171H116.324C116.456 81.8832 116.522 81.8832 116.655 81.9493C116.522 81.8832 116.456 81.8171 116.39 81.8171Z" fill="#CDDC39"/>
</g>
<defs>
<clipPath id="clip0_271_1060">
<rect width="218" height="198" fill="white" transform="translate(-30)"/>
</clipPath>
</defs>
</svg>
