<svg width="105" height="100" viewBox="0 0 105 100" fill="none" xmlns="http://www.w3.org/2000/svg">
<path d="M0.967152 17.3883C0.940245 16.2019 1.17671 15.0243 1.65928 13.9417C2.06296 13.0231 2.75872 12.2661 3.63681 11.79C2.89959 11.226 2.30363 10.4959 1.89659 9.65829C1.43511 8.65455 1.2117 7.55643 1.24401 6.45072C1.14347 4.79438 1.68996 3.16411 2.7667 1.90832C3.35423 1.35141 4.04833 0.921062 4.80656 0.643595C5.56479 0.366127 6.37123 0.247368 7.17657 0.294577C7.97532 0.235733 8.7774 0.347268 9.53046 0.621903C10.2835 0.896537 10.9706 1.32809 11.5469 1.8884C12.6204 3.11559 13.1741 4.71758 13.0894 6.35111C13.1327 7.49422 12.9162 8.6322 12.4566 9.67822C12.0809 10.5187 11.4948 11.2464 10.7559 11.79C11.6448 12.28 12.3421 13.0598 12.7334 14.0015C13.2144 15.1337 13.4504 16.3562 13.4255 17.5876C13.5402 19.4257 13.0081 21.2457 11.9226 22.7276C11.3114 23.3738 10.5643 23.8738 9.73618 24.191C8.90805 24.5081 8.01993 24.6344 7.13702 24.5605C3.02378 24.5605 0.967152 22.1698 0.967152 17.3883ZM8.87724 20.1775C9.113 19.3293 9.19999 18.446 9.13432 17.5676C9.16561 16.6283 9.03172 15.6907 8.73882 14.7984C8.6375 14.4784 8.43214 14.2022 8.15588 14.0142C7.87962 13.8263 7.54857 13.7375 7.21612 13.7624C6.88432 13.7411 6.55487 13.8312 6.27933 14.0187C6.0038 14.2061 5.79775 14.4803 5.69343 14.7984C5.40254 15.6912 5.26869 16.6284 5.29793 17.5676C5.27701 18.4542 5.41088 19.3376 5.69343 20.1775C5.79475 20.4975 6.0001 20.7737 6.27636 20.9617C6.55262 21.1496 6.88368 21.2384 7.21612 21.2135C7.555 21.2478 7.89527 21.1635 8.17976 20.9749C8.46425 20.7862 8.67562 20.5047 8.77837 20.1775H8.87724ZM9.01567 6.45072C9.04299 5.76224 8.9003 5.07769 8.60039 4.45844C8.48668 4.22515 8.30877 4.02974 8.08788 3.8955C7.86698 3.76127 7.61241 3.69388 7.35455 3.70138C7.09427 3.69489 6.83746 3.76248 6.61359 3.89639C6.38972 4.03031 6.20788 4.22511 6.08894 4.45844C5.77478 5.07325 5.62485 5.75985 5.65388 6.45072C5.65388 8.8813 6.20759 10.0966 7.35455 10.0966C8.50151 10.0966 8.91679 8.8813 8.91679 6.45072H9.01567Z" fill="white"/>
<path d="M22.364 0.553536H24.4799C25.0617 0.525769 25.6424 0.627814 26.1806 0.852378C26.575 1.02633 26.8869 1.34775 27.0507 1.7489C27.2491 2.26277 27.3433 2.8115 27.3275 3.36265V6.66984C27.3448 7.23406 27.2507 7.79613 27.0507 8.32343C26.8893 8.74043 26.5789 9.08154 26.1806 9.27972C25.6675 9.5195 25.104 9.62895 24.5392 9.59849H22.364V0.553536ZM24.4997 8.52266C24.769 8.54475 25.0385 8.4821 25.2709 8.34335C25.3569 8.27981 25.4293 8.1994 25.4837 8.10696C25.538 8.01452 25.5733 7.91196 25.5873 7.80543C25.617 7.46741 25.617 7.1274 25.5873 6.78937V3.18335C25.6161 2.87855 25.6161 2.57169 25.5873 2.2669C25.5643 2.17187 25.5227 2.08241 25.465 2.00374C25.4072 1.92507 25.3346 1.85876 25.2511 1.80867C25.0127 1.68745 24.7465 1.63243 24.4799 1.64929H23.9855V8.36327L24.4997 8.52266Z" fill="white"/>
<path d="M28.2372 0.553467H31.9945V1.72891H29.8588V4.31888H31.5397V5.4744H29.8588V8.46282H32.034V9.59842H28.2372V0.553467Z" fill="white"/>
<path d="M33.1217 8.94087C32.7062 8.2747 32.5058 7.49515 32.5482 6.70952V3.48202C32.489 2.67598 32.6902 1.87227 33.1217 1.1909C33.3658 0.911805 33.6728 0.695637 34.0168 0.560465C34.3608 0.425293 34.732 0.375043 35.0992 0.413913C35.4428 0.376997 35.7902 0.418743 36.1155 0.536035C36.4408 0.653327 36.7356 0.843135 36.9779 1.09129C37.3985 1.66458 37.5956 2.37355 37.5316 3.08357V3.84063H35.9496V3.04372C35.9734 2.79194 35.9734 2.53844 35.9496 2.28666C35.9316 2.11324 35.8547 1.95138 35.732 1.82843C35.5628 1.71477 35.3617 1.65889 35.1585 1.66905C34.9546 1.64623 34.7499 1.70412 34.5875 1.83051C34.4252 1.95689 34.318 2.14188 34.2884 2.34642C34.2633 2.61146 34.2633 2.8783 34.2884 3.14334V7.1279C34.2676 7.5102 34.3353 7.89214 34.4862 8.24357C34.5669 8.36085 34.6773 8.45416 34.8061 8.51373C34.9348 8.57331 35.077 8.59698 35.2179 8.58226C35.3174 8.59094 35.4176 8.57955 35.5126 8.54876C35.6077 8.51798 35.6957 8.46841 35.7716 8.40296C35.8961 8.27087 35.9787 8.10441 36.0089 7.92481C36.0319 7.66633 36.0319 7.40629 36.0089 7.14782V6.25129H37.5909V6.96851C37.6298 7.67599 37.4351 8.37654 37.0372 8.96079C36.8023 9.22106 36.5097 9.4217 36.1832 9.54634C35.8567 9.67099 35.5056 9.71611 35.1585 9.67802C34.7852 9.73001 34.4049 9.69011 34.0502 9.56173C33.6954 9.43336 33.3769 9.22033 33.1217 8.94087Z" fill="white"/>
<path d="M38.3819 0.553467H42.1392V1.72891H40.0035V4.31888H41.7042V5.4744H40.0035V8.46282H42.1788V9.59842H38.3819V0.553467Z" fill="white"/>
<path d="M42.7522 0.553467H43.8992L46.0745 5.71347V0.553467H47.439V9.59842H46.3513L44.2354 4.19934V9.59842H42.7522V0.553467Z" fill="white"/>
<path d="M49.456 1.76876H47.9729V0.553467H52.6399V1.76876H51.1567V9.59842H49.5352L49.456 1.76876Z" fill="white"/>
<path d="M55.0722 0.553467H56.4367L57.1881 6.41077L58.1176 0.57339H59.225L60.1742 6.41077L60.9059 0.553467H62.2704L61.0048 9.59842H59.6798L58.6911 3.62158L57.7023 9.59842H56.3378L55.0722 0.553467Z" fill="white"/>
<path d="M63.3975 8.96095C62.9611 8.31831 62.7521 7.54634 62.8043 6.76944V3.36264C62.7519 2.59196 62.9611 1.82622 63.3975 1.19106C63.6536 0.930016 63.9634 0.728722 64.3051 0.601361C64.6468 0.474 65.012 0.42367 65.3751 0.453916C65.7385 0.419429 66.1049 0.46778 66.4472 0.595385C66.7896 0.722991 67.099 0.926579 67.3526 1.19106C67.805 1.81931 68.0222 2.58857 67.9656 3.36264V6.76944C68.012 7.54865 67.796 8.32082 67.3526 8.96095C67.1017 9.2302 66.7932 9.43832 66.4506 9.5695C66.1079 9.70067 65.7401 9.75147 65.3751 9.71802C65.0098 9.75451 64.6411 9.70514 64.2979 9.57377C63.9548 9.44241 63.6466 9.23263 63.3975 8.96095ZM66.1265 8.16404C66.2685 7.84499 66.3362 7.49743 66.3243 7.14798V2.98411C66.3491 2.64655 66.2806 2.30866 66.1265 2.00789C66.0079 1.76882 65.7706 1.66921 65.3948 1.66921C65.0191 1.66921 64.7818 1.66921 64.6632 2.00789C64.511 2.30934 64.4426 2.64669 64.4654 2.98411V7.1679C64.4413 7.51823 64.5095 7.86875 64.6632 8.18396C64.7407 8.30453 64.8506 8.4004 64.9802 8.46037C65.1097 8.52034 65.2536 8.54194 65.3948 8.52265C65.5379 8.53753 65.6821 8.51183 65.8114 8.44847C65.9407 8.3851 66.0499 8.28658 66.1265 8.16404Z" fill="white"/>
<path d="M68.8951 0.55353H71.0506C71.8063 0.526028 72.5499 0.750084 73.1666 1.19106C73.422 1.4256 73.6195 1.71713 73.7431 2.04232C73.8667 2.36751 73.9131 2.71733 73.8785 3.0638C73.8885 3.5415 73.801 4.01619 73.6214 4.4584C73.538 4.63834 73.4199 4.79973 73.2739 4.93314C73.1279 5.06655 72.9569 5.1693 72.771 5.23539L74.0169 9.6981H72.4151L71.3472 5.55415H70.4376V9.6981H68.816L68.8951 0.55353ZM71.0506 4.53809C71.2297 4.55326 71.4099 4.531 71.5801 4.47272C71.7502 4.41444 71.9066 4.32139 72.0394 4.1994C72.1789 4.04409 72.2844 3.86096 72.3492 3.66189C72.4139 3.46282 72.4364 3.25226 72.4151 3.04388C72.4384 2.68002 72.3485 2.31789 72.158 2.00789C72.0332 1.88717 71.8832 1.79593 71.719 1.7408C71.5549 1.68567 71.3806 1.66802 71.2088 1.68913H70.4376V4.43848L71.0506 4.53809Z" fill="white"/>
<path d="M74.8277 0.553467H76.3701V4.53803L78.1499 0.553467H79.7121L77.9917 4.53803L79.9692 9.55857H78.3476L76.8447 5.45448L76.3701 6.1717V9.59842H74.7486L74.8277 0.553467Z" fill="white"/>
<path d="M84.1616 0.553467H85.9216L87.7211 9.59842H86.2577L85.9018 7.50652H84.2802L83.9243 9.59842H82.3027L84.1616 0.553467ZM85.6645 6.53031L85.0514 2.72505L84.4384 6.53031H85.6645Z" fill="white"/>
<path d="M88.2352 0.553467H89.3822L91.5773 5.71347V0.553467H92.922V9.59842H91.8343L89.7184 4.19934V9.59842H88.2352V0.553467Z" fill="white"/>
<path d="M94.1678 0.553536H96.1453C96.7271 0.525769 97.3079 0.627814 97.846 0.852378C98.2411 1.03207 98.5575 1.35085 98.7359 1.7489C98.9271 2.26429 99.0144 2.81288 98.993 3.36265V6.66984C99.0155 7.23267 98.9282 7.7945 98.7359 8.32343C98.5599 8.73107 98.2536 9.06769 97.8658 9.27972C97.352 9.51721 96.789 9.62655 96.2244 9.59849H94.1678V0.553536ZM96.3035 8.52266C96.5793 8.54763 96.8559 8.48493 97.0945 8.34335C97.2557 8.20385 97.3669 8.01484 97.4109 7.80544C97.4384 7.46731 97.4384 7.1275 97.4109 6.78937V3.18335C97.4496 2.87911 97.4496 2.57114 97.4109 2.2669C97.3948 2.17181 97.3581 2.08147 97.3034 2.00228C97.2487 1.92308 97.1774 1.85699 97.0945 1.80867C96.8481 1.69008 96.5763 1.6353 96.3035 1.64929H95.8289V8.36328L96.3035 8.52266Z" fill="white"/>
<path d="M22.364 15.3162H26.1213V16.4916H23.9855V19.1214H25.6664V20.2769H23.9855V23.2654H26.141V24.401H22.364V15.3162Z" fill="white"/>
<path d="M27.3078 23.7038C26.8923 23.0376 26.6919 22.258 26.7343 21.4724V18.2449C26.6837 17.4522 26.8845 16.6638 27.3078 15.9936C27.552 15.7145 27.8589 15.4984 28.2029 15.3632C28.5469 15.228 28.9181 15.1778 29.2853 15.2166C29.6289 15.1797 29.9763 15.2215 30.3016 15.3388C30.6269 15.4561 30.9217 15.6459 31.164 15.894C31.5847 16.4673 31.7817 17.1763 31.7177 17.8863V18.6434H30.1357V17.8664C30.1595 17.6146 30.1595 17.3611 30.1357 17.1093C30.1177 16.9359 30.0409 16.774 29.9181 16.6511C29.7489 16.5374 29.5478 16.4816 29.3447 16.4917C29.1407 16.4689 28.936 16.5268 28.7737 16.6532C28.6113 16.7795 28.5041 16.9645 28.4745 17.1691C28.4494 17.4341 28.4494 17.701 28.4745 17.966V21.9506C28.4538 22.3329 28.5215 22.7148 28.6723 23.0662C28.753 23.1835 28.8635 23.2768 28.9922 23.3364C29.1209 23.396 29.2631 23.4196 29.404 23.4049C29.6047 23.4202 29.8034 23.3559 29.9577 23.2256C30.0822 23.0935 30.1648 22.9271 30.195 22.7475C30.218 22.489 30.218 22.229 30.195 21.9705V21.1138H31.777V21.831C31.8159 22.5385 31.6212 23.239 31.2233 23.8233C30.9884 24.0836 30.6958 24.2842 30.3693 24.4088C30.0428 24.5335 29.6917 24.5786 29.3447 24.5405C28.963 24.5805 28.5775 24.5251 28.2222 24.3791C27.8669 24.2332 27.5529 24.0012 27.3078 23.7038Z" fill="white"/>
<path d="M33.0821 23.7236C32.6457 23.081 32.4367 22.309 32.4889 21.5321V18.1253C32.4365 17.3547 32.6457 16.5889 33.0821 15.9538C33.3382 15.6927 33.648 15.4914 33.9897 15.3641C34.3313 15.2367 34.6966 15.1864 35.0596 15.2166C35.423 15.1821 35.7895 15.2305 36.1318 15.3581C36.4741 15.4857 36.7836 15.6893 37.0372 15.9538C37.4896 16.582 37.7067 17.3513 37.6502 18.1253V21.5321C37.6966 22.3113 37.4806 23.0835 37.0372 23.7236C36.7863 23.9929 36.4778 24.201 36.1352 24.3322C35.7925 24.4634 35.4247 24.5142 35.0596 24.4807C34.6944 24.5172 34.3257 24.4678 33.9825 24.3365C33.6394 24.2051 33.3312 23.9953 33.0821 23.7236ZM35.8111 22.9267C35.9531 22.6077 36.0208 22.2601 36.0089 21.9107V17.7468C36.0337 17.4092 35.9652 17.0714 35.8111 16.7706C35.6924 16.5315 35.4551 16.4319 35.0794 16.4319C34.7037 16.4319 34.4664 16.4319 34.3477 16.7706C34.1955 17.072 34.1272 17.4094 34.15 17.7468V21.9107C34.1259 22.261 34.1941 22.6115 34.3477 22.9267C34.4252 23.0473 34.5352 23.1432 34.6647 23.2031C34.7943 23.2631 34.9381 23.2847 35.0794 23.2654C35.2205 23.2824 35.3635 23.2597 35.4926 23.1999C35.6217 23.1402 35.7319 23.0456 35.8111 22.9267Z" fill="white"/>
<path d="M38.639 15.3162H39.7859L41.981 20.4762V15.3162H43.3257V24.3611H42.2381L40.043 18.962V24.3611H38.639V15.3162Z" fill="white"/>
<path d="M44.9077 23.7234C44.4713 23.0807 44.2623 22.3088 44.3145 21.5319V18.1251C44.2621 17.3544 44.4713 16.5887 44.9077 15.9535C45.4625 15.4867 46.1624 15.231 46.8853 15.231C47.6081 15.231 48.308 15.4867 48.8628 15.9535C49.2992 16.5887 49.5084 17.3544 49.456 18.1251V21.5319C49.5122 22.3121 49.2953 23.0875 48.843 23.7234C48.2953 24.2054 47.5927 24.471 46.8655 24.471C46.1382 24.471 45.4356 24.2054 44.888 23.7234H44.9077ZM47.6367 22.9265C47.7904 22.6113 47.8586 22.2607 47.8345 21.9104V17.7466C47.8578 17.4112 47.7966 17.0754 47.6565 16.7703C47.5758 16.6481 47.4624 16.5515 47.3294 16.4915C47.1964 16.4316 47.0492 16.4108 46.905 16.4316C46.7636 16.4098 46.6188 16.4303 46.4888 16.4905C46.3587 16.5507 46.2491 16.648 46.1733 16.7703C46.0211 17.0718 45.9528 17.4091 45.9756 17.7466V21.9104C45.9515 22.2607 46.0197 22.6113 46.1733 22.9265C46.2525 23.0454 46.3627 23.1399 46.4918 23.1997C46.6209 23.2594 46.7639 23.2821 46.905 23.2652C47.0463 23.2845 47.1901 23.2629 47.3197 23.2029C47.4493 23.1429 47.5592 23.047 47.6367 22.9265Z" fill="white"/>
<path d="M50.6623 15.3162H52.363L53.6286 21.5918L54.9535 15.3162H56.5949L56.7531 24.3611H55.527L55.4084 18.0854L54.123 24.3611H53.1342L51.8488 18.0655L51.7302 24.3611H50.4646L50.6623 15.3162Z" fill="white"/>
<path d="M57.8605 15.3162H59.4821V24.3611H57.8605V15.3162Z" fill="white"/>
<path d="M61.0839 23.7037C60.6734 23.0367 60.4862 22.2546 60.5499 21.4724V18.2449C60.4892 17.4513 60.6909 16.6597 61.1234 15.9936C61.3665 15.7132 61.6733 15.4961 62.0176 15.3608C62.3619 15.2255 62.7336 15.1761 63.1009 15.2166C63.4444 15.1812 63.7914 15.2236 64.1165 15.3408C64.4415 15.458 64.7364 15.647 64.9796 15.894C65.3921 16.4713 65.5883 17.1771 65.5333 17.8863V18.6434H63.9513V17.8664C63.965 17.6142 63.965 17.3615 63.9513 17.1093C63.9174 16.9368 63.8351 16.7777 63.714 16.6511C63.5473 16.5317 63.3443 16.4753 63.1405 16.4917C62.9278 16.478 62.7173 16.5416 62.5472 16.671C62.4119 16.8058 62.322 16.98 62.2901 17.1691C62.265 17.4341 62.265 17.7009 62.2901 17.966V21.9505C62.2597 22.3334 62.3278 22.7177 62.4879 23.0662C62.5669 23.1804 62.6742 23.2717 62.7991 23.3311C62.9239 23.3905 63.0621 23.416 63.1998 23.4049C63.4069 23.4234 63.6129 23.359 63.7733 23.2256C63.8978 23.0935 63.9804 22.927 64.0106 22.7474C64.0236 22.4886 64.0236 22.2293 64.0106 21.9705V21.1138H65.5926V21.831C65.6229 22.5375 65.4289 23.2353 65.0389 23.8233C64.804 24.0835 64.5114 24.2842 64.1849 24.4088C63.8584 24.5335 63.5073 24.5786 63.1602 24.5405C62.7723 24.5873 62.3789 24.5352 62.0161 24.389C61.6533 24.2428 61.3327 24.0072 61.0839 23.7037Z" fill="white"/>
<path d="M69.2906 23.6841C68.8769 22.9884 68.6837 22.1822 68.7368 21.373V18.3447C68.6733 17.5258 68.8744 16.708 69.3103 16.0138C69.5492 15.727 69.8548 15.5042 70.1998 15.3652C70.5448 15.2262 70.9186 15.1752 71.2879 15.2169C71.6471 15.1672 72.0128 15.2026 72.356 15.3202C72.6993 15.4378 73.0106 15.6343 73.2654 15.8942C73.7071 16.4583 73.9192 17.1706 73.8586 17.8865V18.3647H72.2173V17.8467C72.253 17.5889 72.253 17.3274 72.2173 17.0697C72.1928 16.8997 72.1086 16.7441 71.98 16.6314C71.8073 16.509 71.597 16.4525 71.3867 16.472C71.2765 16.4613 71.1652 16.4734 71.0597 16.5077C70.9543 16.5419 70.8569 16.5976 70.7737 16.6712C70.6221 16.7901 70.5058 16.9486 70.4375 17.1295C70.4125 17.4012 70.4125 17.6746 70.4375 17.9463V21.7117C70.4166 22.1089 70.4913 22.5053 70.655 22.8672C70.7265 23.0004 70.837 23.1083 70.9715 23.176C71.1059 23.2437 71.2578 23.2681 71.4065 23.2458C71.5593 23.2597 71.7129 23.2296 71.8494 23.1591C71.9859 23.0885 72.0998 22.9804 72.1777 22.8473C72.352 22.4676 72.4269 22.0492 72.3953 21.632V20.7953H71.4461V19.7593H73.8784V24.3415H72.8105L72.6919 23.4649C72.5816 23.7721 72.3756 24.035 72.1047 24.2145C71.8339 24.3941 71.5126 24.4805 71.189 24.461C70.8329 24.508 70.4707 24.4611 70.138 24.3249C69.8053 24.1887 69.5133 23.9679 69.2906 23.6841Z" fill="white"/>
<path d="M74.8474 15.316H77.0029C77.7475 15.2593 78.4902 15.4481 79.1189 15.8539C79.3708 16.0904 79.5645 16.3828 79.6847 16.7079C79.8048 17.033 79.8481 17.3818 79.811 17.7267C79.8285 18.2031 79.7477 18.678 79.5737 19.1213C79.3913 19.4861 79.0814 19.7699 78.7036 19.9182L79.9692 24.361H78.3476L77.26 20.217H76.4888V24.361H74.8672L74.8474 15.316ZM77.0029 19.1213C77.182 19.1365 77.3622 19.1142 77.5324 19.0559C77.7025 18.9976 77.8589 18.9046 77.9917 18.7826C78.2129 18.4784 78.3118 18.1012 78.2685 17.7267C78.302 17.362 78.2114 16.9966 78.0115 16.6907C77.8922 16.5679 77.7459 16.475 77.5845 16.4197C77.423 16.3643 77.2509 16.3479 77.082 16.3719H76.469V19.1213H77.0029Z" fill="white"/>
<path d="M81.2941 23.7236C80.8577 23.081 80.6487 22.309 80.7009 21.5321V18.1253C80.6485 17.3546 80.8577 16.5889 81.2941 15.9537C81.8472 15.4832 82.5478 15.2251 83.2717 15.2251C83.9956 15.2251 84.6961 15.4832 85.2492 15.9537C85.6856 16.5889 85.8948 17.3546 85.8424 18.1253V21.5321C85.8946 22.309 85.6856 23.081 85.2492 23.7236C84.9974 23.9917 84.6888 24.199 84.3464 24.3301C84.004 24.4612 83.6366 24.5127 83.2717 24.4807C82.9064 24.5172 82.5377 24.4678 82.1945 24.3364C81.8514 24.2051 81.5432 23.9953 81.2941 23.7236ZM84.0231 22.9267C84.1849 22.6123 84.2729 22.2647 84.2802 21.9106V17.7468C84.3036 17.4115 84.2423 17.0756 84.1022 16.7706C84.0265 16.6482 83.9168 16.5509 83.7868 16.4907C83.6567 16.4305 83.512 16.41 83.3705 16.4319C82.9948 16.4319 82.7377 16.4319 82.6191 16.7706C82.4843 17.0773 82.4233 17.4118 82.4411 17.7468V21.9106C82.4237 22.2585 82.4845 22.6059 82.6191 22.9267C82.7119 23.0327 82.826 23.1176 82.9538 23.1757C83.0817 23.2339 83.2204 23.264 83.3606 23.264C83.5009 23.264 83.6396 23.2339 83.7675 23.1757C83.8953 23.1176 84.0094 23.0327 84.1022 22.9267H84.0231Z" fill="white"/>
<path d="M86.5346 15.3161H87.8991L88.6307 21.1136L89.5602 15.2763H90.6676L91.6366 21.1136L92.3683 15.2563H93.713L92.4671 24.3013H91.1422L90.1337 18.3245L89.1449 24.3013H87.8002L86.5346 15.3161Z" fill="white"/>
<path d="M95.3938 16.5315H93.9107V15.3162H98.4985V16.5315H97.0352V24.3611H95.3938V16.5315Z" fill="white"/>
<path d="M99.0325 15.3162H100.654V19.1214H102.473V15.3361H104.055V24.381H102.473V20.2769H100.654V24.3611H99.0325V15.3162Z" fill="white"/>
<path d="M76.3701 50.7787L63.7931 62.7324C63.5333 62.946 63.3316 63.2226 63.2071 63.5362C63.0825 63.8499 63.0392 64.1903 63.0812 64.5255V98.3743C63.0811 98.5664 63.1555 98.7509 63.2884 98.8886C63.4214 99.0263 63.6025 99.1063 63.7931 99.1115H76.7656C76.9581 99.1064 77.1413 99.0271 77.2775 98.89C77.4136 98.7528 77.4923 98.5682 77.4973 98.3743V50.9979C77.4973 50.5994 77.1809 49.8822 76.3701 50.6991" fill="white"/>
<path d="M40.1221 66.4779L27.5648 78.4316C27.3054 78.6508 27.1031 78.9306 26.9756 79.2466C26.8481 79.5626 26.7992 79.9052 26.8332 80.2446V98.2946C26.8382 98.4886 26.9169 98.6731 27.053 98.8103C27.1892 98.9475 27.3724 99.0267 27.5648 99.0318H40.5374C40.728 99.0266 40.9091 98.9466 41.042 98.809C41.175 98.6713 41.2494 98.4867 41.2493 98.2946V66.7768C41.2493 66.3783 40.9329 65.6412 40.1221 66.4779Z" fill="white"/>
<path d="M82.0258 36.1754C82.0468 36.132 82.0577 36.0843 82.0577 36.0359C82.0577 35.9876 82.0468 35.9399 82.0258 35.8965C81.9564 35.8436 81.8747 35.8093 81.7885 35.7969H81.6303L71.9998 37.9884H71.8218L71.6438 38.088C71.606 38.1216 71.5756 38.163 71.5549 38.2094C71.5341 38.2558 71.5233 38.3061 71.5233 38.357C71.5233 38.4078 71.5341 38.4581 71.5549 38.5045C71.5756 38.5509 71.606 38.5923 71.6438 38.6259V38.7255L73.8389 41.0366L52.0861 62.9517L42.0206 52.791C41.9613 52.7442 41.8882 52.7187 41.8129 52.7187C41.7376 52.7187 41.6645 52.7442 41.6053 52.791L38.7972 55.5404L22.6408 71.7974C22.5943 71.857 22.569 71.9307 22.569 72.0066C22.569 72.0824 22.5943 72.1561 22.6408 72.2158L25.4291 74.9053C25.4533 74.9346 25.4835 74.9581 25.5177 74.9743C25.5518 74.9905 25.5891 74.9988 25.6269 74.9988C25.6646 74.9988 25.7019 74.9905 25.7361 74.9743C25.7703 74.9581 25.8005 74.9346 25.8246 74.9053L41.7635 58.9671L49.0803 66.3385L51.8093 69.0879C51.8647 69.1426 51.9393 69.1733 52.0169 69.1733C52.0946 69.1733 52.1691 69.1426 52.2246 69.0879L76.9832 44.1246L79.2969 46.4556C79.3665 46.5214 79.4584 46.558 79.5539 46.558C79.6494 46.558 79.7414 46.5214 79.811 46.4556C79.8341 46.3776 79.8341 46.2945 79.811 46.2165L81.927 36.2551L82.0258 36.1754Z" fill="white"/>
<path d="M58.2955 68.5899L52.2048 74.7659C52.1536 74.8135 52.0865 74.84 52.0169 74.84C51.9473 74.84 51.8802 74.8135 51.829 74.7659L46.3117 69.0879C45.3032 68.0719 45.0857 68.8887 45.0857 69.2872V98.3744C45.0856 98.5665 45.16 98.7511 45.2929 98.8888C45.4259 99.0264 45.607 99.1064 45.7976 99.1116H58.7899C58.9805 99.1064 59.1616 99.0264 59.2946 98.8888C59.4275 98.7511 59.5019 98.5665 59.5018 98.3744V68.809C59.5018 68.4105 59.1854 67.6933 58.2955 68.5899Z" fill="white"/>
</svg>
