<svg width="48" height="48" viewBox="0 0 48 48" fill="none" xmlns="http://www.w3.org/2000/svg">
<path d="M33.0409 1.8428C32.6272 2.24335 32.2402 2.5905 31.8799 2.951C30.8925 3.92569 30.4121 5.11401 30.4121 6.5026C30.4121 7.82444 30.4121 9.13292 30.4121 10.4548C30.4121 11.0155 30.3587 11.0556 29.8516 10.842C21.2311 7.11679 11.6097 12.2039 9.8616 21.4033C8.36702 29.2408 13.8649 36.9983 21.7515 38.1866C29.8116 39.4016 37.1643 33.9407 38.2853 25.8895C38.6589 23.2192 38.2586 20.6422 37.191 18.1721C36.9642 17.6381 36.9909 17.5847 37.5914 17.5847C38.8591 17.5847 40.1268 17.5713 41.3945 17.5847C42.8758 17.6114 44.1301 17.104 45.1577 16.0358C45.4913 15.6887 45.8116 15.3282 46.1585 14.9543C49.6414 22.6717 48.7073 34.7552 39.1927 42.5527C29.8516 50.2166 16.4271 49.6959 7.76652 41.5513C-1.32105 33.0461 -2.57543 19.5874 4.76402 9.7204C12.1035 -0.146634 24.4204 -1.93579 33.0409 1.8428Z" fill="white"/>
<path d="M27.8766 13.512C27.623 13.6856 27.4629 13.779 27.3295 13.8992C25.1276 16.1023 22.9124 18.292 20.7239 20.5084C18.6289 22.618 18.7356 25.7957 20.9508 27.665C22.8591 29.2939 25.6347 29.147 27.5029 27.2778C29.7181 25.0881 31.9066 22.8717 34.1084 20.6686C34.2419 20.5351 34.3353 20.3882 34.4687 20.2146C35.8832 23.3657 35.4963 28.9868 31.1593 32.6052C26.9158 36.1301 20.8174 36.0366 16.6005 32.3648C12.5305 28.8133 11.6364 22.6981 14.5054 18.105C17.5613 13.2049 23.3795 11.803 27.8766 13.512Z" fill="white"/>
<path d="M41.608 6.39562C43.1693 6.39562 44.6639 6.40897 46.1718 6.39562C46.9458 6.38227 47.5463 6.64931 47.8666 7.37031C48.1735 8.0379 48 8.66544 47.3595 9.30633C45.8649 10.8017 44.3703 12.2972 42.8757 13.7926C42.4621 14.2065 41.995 14.4067 41.4079 14.4067C39.7531 14.3934 38.1118 14.4067 36.4571 14.3934C36.0434 14.3934 35.7498 14.5002 35.4562 14.794C32.0801 18.1987 28.6773 21.5767 25.3011 24.9814C24.8741 25.4087 24.3937 25.6624 23.7932 25.5823C22.5788 25.4087 22.0184 23.9667 22.779 23.0054C22.8858 22.8585 23.0325 22.7383 23.1526 22.6048C26.5288 19.2268 29.9049 15.8488 33.2944 12.4707C33.5213 12.2437 33.628 12.0168 33.628 11.6963C33.6147 10.014 33.628 8.33164 33.6147 6.64931C33.6147 6.04847 33.8015 5.55445 34.2285 5.12719C35.7231 3.63178 37.2177 2.13637 38.6989 0.627611C39.2327 0.0801839 39.8466 -0.173502 40.5939 0.106888C41.2744 0.360573 41.5947 0.948056 41.608 1.82928C41.608 3.33804 41.608 4.83345 41.608 6.39562Z" fill="white"/>
</svg>
