<svg width="89" height="98" viewBox="0 0 89 98" fill="none" xmlns="http://www.w3.org/2000/svg">
<path d="M23.4074 3.0077C23.4074 2.26291 23.5958 1.69336 23.9726 1.29906C24.3494 0.895992 24.8927 0.69446 25.6024 0.69446C26.3121 0.69446 26.8554 0.895992 27.2322 1.29906C27.609 1.69336 27.7973 2.26291 27.7973 3.0077V7.79191C27.7973 8.30888 27.7053 8.73823 27.5213 9.07996C27.5564 9.16758 27.6002 9.22454 27.6528 9.25083C27.7141 9.26835 27.8061 9.27711 27.9288 9.27711H28.0602V10.5652H27.8631C27.5389 10.5652 27.2716 10.5082 27.0613 10.3943C26.8598 10.2892 26.7108 10.1358 26.6144 9.93428C26.4655 9.98686 26.3078 10.0263 26.1413 10.0526C25.9748 10.0876 25.7952 10.1051 25.6024 10.1051C24.8927 10.1051 24.3494 9.908 23.9726 9.51369C23.5958 9.11063 23.4074 8.5367 23.4074 7.79191V3.0077ZM24.8532 7.88391C24.8532 8.21688 24.9189 8.45346 25.0504 8.59365C25.1906 8.72509 25.3746 8.79081 25.6024 8.79081C25.8302 8.79081 26.0098 8.72509 26.1413 8.59365C26.2815 8.45346 26.3516 8.21688 26.3516 7.88391V2.9157C26.3516 2.58273 26.2815 2.35053 26.1413 2.2191C26.0098 2.0789 25.8302 2.0088 25.6024 2.0088C25.3746 2.0088 25.1906 2.0789 25.0504 2.2191C24.9189 2.35053 24.8532 2.58273 24.8532 2.9157V7.88391ZM30.7741 0.799607V7.89705C30.7741 8.23002 30.8398 8.46222 30.9713 8.59365C31.1115 8.72509 31.2955 8.79081 31.5233 8.79081C31.7511 8.79081 31.9307 8.72509 32.0622 8.59365C32.2024 8.46222 32.2725 8.23002 32.2725 7.89705V0.799607H33.6394V7.80505C33.6394 8.54984 33.4554 9.12377 33.0874 9.52684C32.7281 9.92114 32.1936 10.1183 31.4839 10.1183C30.7741 10.1183 30.2352 9.92114 29.8672 9.52684C29.508 9.12377 29.3284 8.54984 29.3284 7.80505V0.799607H30.7741ZM39.9671 10H38.5082L38.2585 8.33079H36.4841L36.2344 10H34.9069L36.379 0.799607H38.4951L39.9671 10ZM36.6681 7.08216H38.0613L37.3647 2.42939L36.6681 7.08216ZM41.2976 0.799607H42.7434V8.68566H45.1223V10H41.2976V0.799607ZM46.4343 0.799607H47.8801V10H46.4343V0.799607ZM49.2001 0.799607H53.6688V2.11395H52.1573V10H50.7116V2.11395H49.2001V0.799607ZM56.3416 6.95073L54.5146 0.799607H56.0261L57.1302 4.99236L58.2342 0.799607H59.6143L57.7873 6.95073V10H56.3416V6.95073ZM24.9715 19.6769H26.9562V20.9913H24.9715V23.6857H27.4688V25H23.5257V15.7996H27.4688V17.1139H24.9715V19.6769ZM29.0218 15.7996H31.3088C32.0361 15.7996 32.5749 15.9924 32.9254 16.3779C33.2847 16.7635 33.4643 17.3286 33.4643 18.0734V22.7262C33.4643 23.471 33.2847 24.0361 32.9254 24.4217C32.5749 24.8072 32.0361 25 31.3088 25H29.0218V15.7996ZM30.4676 17.1139V23.6857H31.2825C31.5103 23.6857 31.69 23.6199 31.8214 23.4885C31.9528 23.3571 32.0185 23.1249 32.0185 22.7919V18.0077C32.0185 17.6747 31.9528 17.4425 31.8214 17.3111C31.69 17.1797 31.5103 17.1139 31.2825 17.1139H30.4676ZM36.4243 15.7996V22.8971C36.4243 23.23 36.49 23.4622 36.6214 23.5937C36.7616 23.7251 36.9456 23.7908 37.1734 23.7908C37.4013 23.7908 37.5809 23.7251 37.7123 23.5937C37.8525 23.4622 37.9226 23.23 37.9226 22.8971V15.7996H39.2895V22.805C39.2895 23.5498 39.1055 24.1238 38.7375 24.5268C38.3782 24.9211 37.8437 25.1183 37.134 25.1183C36.4243 25.1183 35.8854 24.9211 35.5174 24.5268C35.1581 24.1238 34.9785 23.5498 34.9785 22.805V15.7996H36.4243ZM45.1309 21.5696V22.7919C45.1309 23.5367 44.9469 24.1106 44.5789 24.5137C44.2197 24.908 43.6852 25.1051 42.9754 25.1051C42.2657 25.1051 41.7268 24.908 41.3588 24.5137C40.9995 24.1106 40.8199 23.5367 40.8199 22.7919V18.0077C40.8199 17.2629 40.9995 16.6934 41.3588 16.2991C41.7268 15.896 42.2657 15.6945 42.9754 15.6945C43.6852 15.6945 44.2197 15.896 44.5789 16.2991C44.9469 16.6934 45.1309 17.2629 45.1309 18.0077V18.9015H43.764V17.9157C43.764 17.5827 43.6939 17.3505 43.5537 17.2191C43.4223 17.0789 43.2427 17.0088 43.0149 17.0088C42.787 17.0088 42.603 17.0789 42.4628 17.2191C42.3314 17.3505 42.2657 17.5827 42.2657 17.9157V22.8839C42.2657 23.2169 42.3314 23.4491 42.4628 23.5805C42.603 23.7119 42.787 23.7777 43.0149 23.7777C43.2427 23.7777 43.4223 23.7119 43.5537 23.5805C43.6939 23.4491 43.764 23.2169 43.764 22.8839V21.5696H45.1309ZM51.3444 25H49.8855L49.6358 23.3308H47.8614L47.6117 25H46.2842L47.7562 15.7996H49.8723L51.3444 25ZM48.0454 22.0822H49.4386L48.742 17.4294L48.0454 22.0822ZM52.2806 15.7996H56.7493V17.1139H55.2378V25H53.7921V17.1139H52.2806V15.7996ZM58.0683 15.7996H59.5141V25H58.0683V15.7996ZM62.5558 22.8839C62.5558 23.2169 62.6216 23.4535 62.753 23.5937C62.8932 23.7251 63.0772 23.7908 63.305 23.7908C63.5328 23.7908 63.7125 23.7251 63.8439 23.5937C63.9841 23.4535 64.0542 23.2169 64.0542 22.8839V17.9157C64.0542 17.5827 63.9841 17.3505 63.8439 17.2191C63.7125 17.0789 63.5328 17.0088 63.305 17.0088C63.0772 17.0088 62.8932 17.0789 62.753 17.2191C62.6216 17.3505 62.5558 17.5827 62.5558 17.9157V22.8839ZM61.1101 18.0077C61.1101 17.2629 61.2984 16.6934 61.6752 16.2991C62.052 15.896 62.5953 15.6945 63.305 15.6945C64.0148 15.6945 64.558 15.896 64.9348 16.2991C65.3116 16.6934 65.5 17.2629 65.5 18.0077V22.7919C65.5 23.5367 65.3116 24.1106 64.9348 24.5137C64.558 24.908 64.0148 25.1051 63.305 25.1051C62.5953 25.1051 62.052 24.908 61.6752 24.5137C61.2984 24.1106 61.1101 23.5367 61.1101 22.7919V18.0077ZM68.3847 18.3363V25H67.0835V15.7996H68.8973L70.3825 21.3067V15.7996H71.6706V25H70.1854L68.3847 18.3363Z" fill="white"/>
<path d="M7.83208 18.8916H0.715851V15.3203L6.87259 0.814453H11.9099V15.4608H14.2687V18.8916H11.9099V24.4893H7.91204L7.83208 18.8916ZM7.83208 15.4608V5.42905L4.25398 15.4608H7.83208Z" fill="white"/>
<path d="M46.1118 56.9209L23.8236 44V85.8122L46.1118 92.5736V56.9209Z" fill="white"/>
<path d="M48.5705 57.7311V93.3036L71.0186 86.5222V44.71L48.5705 57.7311Z" fill="white"/>
<path d="M83.9118 85.7797H83.2522L85.8908 95.049L88.5294 85.7797H87.8697H88.5294V48.582H87.8697H87.2101H86.5304H85.2111H84.5515H83.9118H83.2522V85.7797H83.9118Z" fill="white"/>
<path d="M75.8161 46.5159L73.4174 44.6099V87.666L48.6305 95.6914H47.4911H47.2712H46.1118L21.4449 88.7695V44.6099L19.0461 46.5159V90.4749L46.0119 97.9586H47.2712H47.4911H48.7504L73.6173 90.0335L75.8161 89.3714V46.5159Z" fill="white"/>
<path d="M88.5294 43.6464C88.5294 42.944 88.2514 42.2704 87.7565 41.7737C87.2617 41.2771 86.5906 40.998 85.8908 40.998C85.191 40.998 84.5198 41.2771 84.025 41.7737C83.5302 42.2704 83.2522 42.944 83.2522 43.6464V46.5155H88.5294V43.6464Z" fill="white"/>
</svg>
