<svg width="80" height="103" viewBox="0 0 80 103" fill="none" xmlns="http://www.w3.org/2000/svg">
<path d="M3.06962 23.3074C2.18934 22.7498 1.54332 21.8834 1.2552 20.8742C0.883551 19.5792 0.717138 18.2329 0.762155 16.8853H5.06154C5.01779 17.8837 5.14455 18.8822 5.43625 19.8371C5.55582 20.1281 5.76321 20.3734 6.02882 20.5382C6.29444 20.7029 6.60472 20.7786 6.9154 20.7545C7.15891 20.773 7.403 20.7276 7.6241 20.6228C7.8452 20.518 8.03584 20.3573 8.1776 20.1562C8.43243 19.6984 8.57449 19.1854 8.59177 18.6604C8.67542 17.6988 8.70834 16.7335 8.69038 15.7684C8.73903 14.6846 8.61246 13.6 8.31566 12.5574C8.21009 12.237 8.00552 11.9594 7.73211 11.7655C7.45869 11.5716 7.1309 11.4716 6.79707 11.4804C5.75181 11.4804 5.10098 12.1984 4.82487 13.6144H0.998818L1.31437 0.251709H12.0234V4.12092H4.96293L4.64738 9.3264C5.01784 8.93227 5.48877 8.64929 6.00819 8.50868C6.68667 8.27207 7.40085 8.15732 8.11844 8.16962C8.83995 8.13791 9.55622 8.30712 10.1892 8.65881C10.8221 9.0105 11.3474 9.53117 11.7078 10.1641C12.5919 11.8415 13.0078 13.7306 12.9109 15.6288C12.9821 17.1612 12.8561 18.6965 12.5362 20.1961C12.2311 21.3679 11.5342 22.3968 10.564 23.108C9.40057 23.8909 8.0137 24.2626 6.61957 24.165C5.3803 24.2198 4.15061 23.9227 3.06962 23.3074Z" fill="white"/>
<path d="M23.3438 8.56858C22.9351 7.8779 22.7426 7.07835 22.7916 6.27498V3.26338C22.7404 2.44458 22.9401 1.62973 23.3635 0.929888C23.607 0.650489 23.9131 0.434087 24.2562 0.298768C24.5993 0.16345 24.9695 0.113145 25.3357 0.152058C25.6923 0.102903 26.0553 0.136632 26.397 0.250682C26.7388 0.364732 27.0503 0.556097 27.3079 0.810222C27.7414 1.37782 27.9458 2.09059 27.8798 2.80466V3.28332H26.3415V2.72488C26.3659 2.46619 26.3659 2.20574 26.3415 1.94705C26.3124 1.84568 26.2595 1.7529 26.1874 1.67654C26.1153 1.60017 26.0261 1.54246 25.9274 1.50827C25.7598 1.39177 25.5584 1.33558 25.3554 1.34872C25.2455 1.33796 25.1345 1.35011 25.0293 1.38441C24.9242 1.41871 24.8271 1.47444 24.7441 1.54816C24.6125 1.69347 24.5237 1.87308 24.4877 2.06672C24.4634 2.33208 24.4634 2.59913 24.4877 2.86449V6.63398C24.4599 7.02356 24.5276 7.41405 24.6849 7.77081C24.775 7.89067 24.8914 7.98784 25.0248 8.05474C25.1582 8.12163 25.3051 8.15644 25.454 8.15644C25.603 8.15644 25.7499 8.12163 25.8833 8.05474C26.0167 7.98784 26.133 7.89067 26.2232 7.77081C26.3876 7.39474 26.4619 6.98474 26.4401 6.57414V5.71654H25.4738V4.67943H27.8996V9.24669H26.8346V8.36914C26.7183 8.6764 26.5086 8.93845 26.2357 9.11763C25.9629 9.29681 25.6409 9.38389 25.316 9.36636C24.9462 9.43756 24.5641 9.40028 24.2146 9.25891C23.8652 9.11755 23.563 8.87801 23.3438 8.56858Z" fill="white"/>
<path d="M29.0236 0.251709H32.7511V1.5082H30.6408V4.10097H32.258V5.2378H30.6014V8.22946H32.7314V9.34634H28.9842L29.0236 0.251709Z" fill="white"/>
<path d="M33.6583 0.251709H34.7824L36.9519 5.37741V0.251709H38.293V9.24662H37.2082L35.0388 3.86164V9.24662H33.6583V0.251709Z" fill="white"/>
<path d="M39.5946 0.251783H41.6851C42.2654 0.223986 42.8446 0.326141 43.3812 0.550948C43.77 0.731706 44.079 1.05133 44.249 1.44844C44.4412 1.95703 44.5285 2.50002 44.5054 3.04399V6.31487C44.53 6.87844 44.4428 7.44128 44.249 7.97025C44.088 8.38771 43.7785 8.72919 43.3812 8.92758C42.8696 9.16762 42.3075 9.27719 41.7443 9.24669H39.5946V0.251783ZM41.7049 8.08992C41.9797 8.11105 42.2544 8.04854 42.4937 7.91042C42.6354 7.8077 42.7394 7.66042 42.7896 7.49159C42.8174 7.15312 42.8174 6.8129 42.7896 6.47443V2.94427C42.8183 2.63915 42.8183 2.33196 42.7896 2.02683C42.7755 1.92057 42.7381 1.81883 42.6801 1.7291C42.6221 1.63937 42.5449 1.56392 42.4543 1.50828C42.2023 1.44062 41.9372 1.44062 41.6851 1.50828H41.2118V8.08992H41.7049Z" fill="white"/>
<path d="M45.6492 0.251709H49.3767V1.5082H47.2664V4.10097H48.9231V5.2378H47.2664V8.22946H49.3964V9.34634H45.6492V0.251709Z" fill="white"/>
<path d="M50.2839 0.251869H52.4336C53.1698 0.196537 53.9038 0.3856 54.5242 0.790367C54.7763 1.02209 54.9704 1.31111 55.0905 1.63361C55.2105 1.9561 55.253 2.30283 55.2144 2.64519C55.2302 3.12199 55.1496 3.59703 54.9778 4.0413C54.8029 4.40002 54.4998 4.67809 54.1297 4.81913L55.3722 9.24678H53.7353L52.6703 5.1183H51.98V9.24678H50.3628L50.2839 0.251869ZM52.4139 4.10113C52.5912 4.12147 52.7708 4.10354 52.9408 4.04853C53.1108 3.99353 53.2673 3.90269 53.4 3.78202C53.6258 3.47948 53.7314 3.10233 53.6958 2.72497C53.7292 2.35986 53.6388 1.99413 53.4394 1.68786C53.315 1.57296 53.1685 1.4853 53.0089 1.43038C52.8494 1.37547 52.6804 1.35449 52.5125 1.36875H51.98V4.10113H52.4139Z" fill="white"/>
<path d="M22.9296 14.9309H26.6767V16.0877H24.5468V18.6804H26.2231V19.8173H24.5468V22.8089H26.6965V23.9258H22.9296V14.9309Z" fill="white"/>
<path d="M31.0354 25.043C30.7202 24.7403 30.436 24.4062 30.1873 24.0458H30.0098C29.6471 24.0848 29.2803 24.0385 28.9382 23.9105C28.5961 23.7825 28.2879 23.5762 28.0376 23.3078C27.6024 22.6645 27.3939 21.8917 27.446 21.1139V17.7433C27.3938 16.9718 27.6024 16.2053 28.0376 15.5694C28.2905 15.3046 28.5991 15.1008 28.9405 14.9731C29.2819 14.8453 29.6474 14.7969 30.0098 14.8315C30.3723 14.7955 30.7382 14.8432 31.0799 14.971C31.4215 15.0988 31.73 15.3035 31.982 15.5694C32.4242 16.2027 32.6399 16.9695 32.5934 17.7433V21.1139C32.5934 22.4901 32.1792 23.3876 31.3509 23.7665C31.604 24.1002 31.9029 24.3957 32.2384 24.6441L31.9426 25.7211C31.5972 25.5606 31.2884 25.3298 31.0354 25.043ZM30.7395 22.4901C30.8816 22.1779 30.9492 21.8363 30.9368 21.4929V17.4641C30.9492 17.1207 30.8816 16.7791 30.7395 16.4669C30.6582 16.3515 30.5472 16.2609 30.4186 16.2046C30.29 16.1484 30.1487 16.1287 30.0098 16.1478C29.6351 16.1478 29.3984 16.2475 29.2801 16.4669C29.1303 16.7765 29.0623 17.1201 29.0829 17.4641V21.453C29.0623 21.7971 29.1303 22.1406 29.2801 22.4502C29.3529 22.5764 29.4612 22.6778 29.5911 22.7418C29.721 22.8057 29.8667 22.8291 30.0098 22.8092C30.1488 22.8306 30.2909 22.812 30.42 22.7556C30.549 22.6991 30.6597 22.6072 30.7395 22.4901Z" fill="white"/>
<path d="M34.6444 23.7064C34.2744 23.4731 34.001 23.1116 33.8753 22.6893C33.71 22.1472 33.6367 21.5808 33.6584 21.0139V15.0306H35.2361V21.3131C35.2183 21.7198 35.2786 22.1262 35.4136 22.5098C35.4937 22.6375 35.6044 22.7426 35.7354 22.8155C35.8664 22.8883 36.0135 22.9265 36.163 22.9265C36.3126 22.9265 36.4597 22.8883 36.5907 22.8155C36.7217 22.7426 36.8324 22.6375 36.9125 22.5098C37.0475 22.1262 37.1078 21.7198 37.09 21.3131V14.9309H38.648V20.9142C38.6697 21.481 38.5963 22.0475 38.4311 22.5895C38.3054 23.0118 38.032 23.3734 37.6619 23.6067C37.1895 23.8295 36.6745 23.945 36.1532 23.945C35.6319 23.945 35.1169 23.8295 34.6444 23.6067V23.7064Z" fill="white"/>
<path d="M41.2119 14.9309H42.9277L44.7224 23.9258H43.2038L42.8685 21.9314H41.3105L40.9555 23.9258H39.4172L41.2119 14.9309ZM42.691 20.8145L42.1191 17.045L41.5077 20.8145H42.691Z" fill="white"/>
<path d="M45.5507 14.9309H47.1679V22.8089H49.3176V23.9258H45.5507V14.9309Z" fill="white"/>
<path d="M50.1656 14.9309H51.763V23.9258H50.1656V14.9309Z" fill="white"/>
<path d="M53.9522 16.1475H52.473V14.9309H57.0288V16.1475H55.5694V23.9258H53.9522V16.1475Z" fill="white"/>
<path d="M58.9222 20.4954L57.1275 14.9309H58.6264L59.7308 18.501L60.7563 14.9309H62.2552L60.4605 20.4954V23.9258H58.9222V20.4954Z" fill="white"/>
<path d="M79.8077 36.1316H64.5824C64.5301 36.1316 64.4799 36.1526 64.4429 36.19C64.4059 36.2274 64.3852 36.2781 64.3852 36.331V41.3969C64.3852 41.4498 64.4059 41.5005 64.4429 41.5379C64.4799 41.5753 64.5301 41.5963 64.5824 41.5963H70.637L63.9118 48.3974C61.4945 46.4945 58.6761 45.1804 55.6754 44.5572C52.6747 43.9339 49.5723 44.0183 46.609 44.8038C43.6457 45.5892 40.9012 47.0545 38.5886 49.0861C36.2759 51.1177 34.4572 53.6608 33.2736 56.5182C32.0901 59.3755 31.5734 62.4703 31.7639 65.5622C31.9543 68.6541 32.8467 71.6601 34.3717 74.3468C35.8968 77.0336 38.0135 79.3288 40.5576 81.0545C43.1017 82.7801 46.0047 83.8897 49.0415 84.2972V90.2805H43.0263C42.9772 90.2803 42.9299 90.2986 42.8934 90.3317C42.8569 90.3649 42.834 90.4107 42.8291 90.46V95.9447C42.8291 95.9976 42.8499 96.0484 42.8869 96.0858C42.9238 96.1232 42.974 96.1442 43.0263 96.1442H49.0415V101.948C49.0383 101.975 49.0412 102.002 49.05 102.028C49.0588 102.054 49.0733 102.077 49.0922 102.096C49.1112 102.115 49.1343 102.13 49.1596 102.139C49.185 102.148 49.2121 102.151 49.2387 102.147H54.6425C54.6692 102.151 54.6962 102.148 54.7216 102.139C54.747 102.13 54.77 102.115 54.789 102.096C54.808 102.077 54.8224 102.054 54.8312 102.028C54.84 102.002 54.8429 101.975 54.8397 101.948V96.0844H60.7563C60.8086 96.0844 60.8588 96.0633 60.8958 96.0259C60.9328 95.9885 60.9535 95.9378 60.9535 95.8849V90.4002C60.9486 90.3508 60.9257 90.3051 60.8893 90.2719C60.8528 90.2387 60.8054 90.2205 60.7563 90.2207H54.8397V84.2374C58.1701 83.6834 61.3069 82.2835 63.9563 80.169C66.6056 78.0544 68.6808 75.2943 69.9875 72.1473C71.2941 69.0003 71.7895 65.5693 71.427 62.1759C71.0646 58.7824 69.8564 55.5376 67.9154 52.7452L74.542 46.024V51.748C74.542 51.8009 74.5627 51.8517 74.5997 51.8891C74.6367 51.9265 74.6869 51.9475 74.7392 51.9475H79.8077C79.86 51.9475 79.9102 51.9265 79.9472 51.8891C79.9842 51.8517 80.0049 51.8009 80.0049 51.748V36.331C80.0005 36.2796 79.9783 36.2315 79.9422 36.195C79.9062 36.1585 79.8585 36.1361 79.8077 36.1316ZM51.6053 79.1715C48.6994 79.1715 45.8587 78.3001 43.4424 76.6674C41.0262 75.0347 39.143 72.7141 38.0309 69.9991C36.9189 67.2841 36.6279 64.2965 37.1948 61.4142C37.7617 58.5319 39.1611 55.8844 41.2159 53.8064C43.2708 51.7284 45.8888 50.3132 48.7389 49.7399C51.589 49.1666 54.5433 49.4609 57.2281 50.5855C59.9128 51.7101 62.2075 53.6145 63.822 56.058C65.4365 58.5015 66.2982 61.3742 66.2982 64.313C66.2982 68.2537 64.7502 72.033 61.9948 74.8196C59.2393 77.6061 55.5021 79.1715 51.6053 79.1715Z" fill="white"/>
<path d="M60.5788 58.23H42.829C42.78 58.2297 42.7326 58.248 42.6961 58.2812C42.6596 58.3144 42.6367 58.3601 42.6318 58.4095V62.7574C42.6367 62.8067 42.6596 62.8525 42.6961 62.8857C42.7326 62.9189 42.78 62.9371 42.829 62.9369H60.5788C60.6278 62.9371 60.6752 62.9189 60.7117 62.8857C60.7482 62.8525 60.7711 62.8067 60.776 62.7574V58.4095C60.7711 58.3601 60.7482 58.3144 60.7117 58.2812C60.6752 58.248 60.6278 58.2297 60.5788 58.23Z" fill="white"/>
<path d="M60.5788 66.0085H42.829C42.78 66.0083 42.7326 66.0266 42.6961 66.0597C42.6596 66.0929 42.6367 66.1387 42.6318 66.188V70.5559C42.6367 70.6052 42.6596 70.651 42.6961 70.6842C42.7326 70.7174 42.78 70.7356 42.829 70.7354H60.5788C60.6278 70.7356 60.6752 70.7174 60.7117 70.6842C60.7482 70.651 60.7711 70.6052 60.776 70.5559V66.188C60.7711 66.1387 60.7482 66.0929 60.7117 66.0597C60.6752 66.0266 60.6278 66.0083 60.5788 66.0085Z" fill="white"/>
</svg>
