<svg width="129" height="100" viewBox="0 0 129 100" fill="none" xmlns="http://www.w3.org/2000/svg">
<path d="M85.1212 71.627L70.3861 63.063V46.134C70.3861 45.7357 70.187 45.5366 69.7887 45.3374L54.6554 36.5742C54.2572 36.375 54.0581 36.375 53.6598 36.5742L38.5265 45.3374C38.1282 45.5366 38.1282 45.9349 37.9291 46.134V63.063L23.194 71.627C22.7958 71.8262 22.5967 72.2245 22.5967 72.4237V90.1493C22.5967 90.5476 22.7958 90.7468 23.194 90.946L38.3274 99.7092C38.5265 99.7092 38.7256 99.9083 38.9247 99.9083C39.1239 99.9083 39.323 99.9083 39.5221 99.7092L54.2572 91.1451L68.9923 99.7092C69.3905 99.9083 69.5896 99.9083 69.9879 99.7092L85.1212 90.946C85.5194 90.7468 85.7186 90.3485 85.7186 90.1493V72.4237C85.5194 72.0254 85.3203 71.8262 85.1212 71.627ZM53.2616 88.1577L41.1151 81.1869L53.2616 74.017V88.1577ZM67.3993 63.6605L55.2528 70.6312V56.4906L67.3993 63.6605ZM53.0624 70.6312L40.916 63.6605L53.0624 56.6897V70.6312ZM56.0493 72.4237L69.1914 64.8555L82.3335 72.4237L69.1914 80.1911L56.0493 72.4237ZM68.3949 61.868L56.2484 54.8973L68.3949 47.9265V61.868ZM52.0668 54.8973L39.9203 61.868V47.7274L52.0668 54.8973ZM37.9291 97.12L24.787 89.5518V74.2162L37.9291 81.7844V97.12ZM39.9203 97.12V82.9794L52.0668 90.1493L39.9203 97.12ZM83.5282 89.3526L70.3861 96.9209V81.7844L83.5282 74.2162V89.3526Z" fill="white"/>
<path d="M1.7921 23.735C0.796491 22.54 0.199123 20.9467 0.398245 19.3534V18.955H4.77894C4.77894 19.7517 4.77894 20.5484 5.17719 21.1458C5.37631 21.5442 5.97368 21.9425 6.57105 21.7433C6.96929 21.7433 7.36754 21.5442 7.56666 21.345C7.76578 21.1458 7.96491 20.5484 7.96491 19.9509C8.16403 18.955 8.16403 17.9592 8.16403 17.1626V14.7726C7.76578 15.1709 7.36754 15.5693 6.96929 15.7684C6.37192 15.9676 5.57543 16.1667 4.97807 16.1667C3.38508 16.1667 1.99123 15.5693 1.19474 14.1751C0.398245 12.5818 0 10.7893 0 8.99685C0 3.61942 2.19035 1.03029 6.37192 1.03029C8.16403 0.831121 9.95613 1.62778 11.1509 3.02193C12.3456 4.61524 12.7438 6.60688 12.7438 8.79768V17.3617C12.943 19.3534 12.3456 21.5442 11.35 23.3367C10.1553 24.93 8.36315 25.5275 6.37192 25.3283C4.57982 25.5275 2.98684 24.93 1.7921 23.735ZM8.16403 11.586V7.80186C8.16403 7.00521 8.16403 6.20855 7.76578 5.41189C7.56666 4.8144 6.96929 4.41607 6.37192 4.61524C5.57543 4.61524 5.17719 5.01357 4.97807 5.61106C4.57982 6.60688 4.57982 7.6027 4.57982 8.79768C4.57982 9.59434 4.57982 10.391 4.77894 11.1876C4.77894 11.586 4.97807 12.1835 5.17719 12.3826C5.37631 12.5818 5.97368 12.781 6.37192 12.781C6.96929 12.781 7.76578 12.3826 8.16403 11.586Z" fill="white"/>
<path d="M25.5257 0.799607H26.9715V10H25.5257V0.799607ZM29.9739 3.33629V10H28.6727V0.799607H30.4865L31.9717 6.3067V0.799607H33.2597V10H31.7745L29.9739 3.33629ZM34.952 0.799607H37.239C37.9663 0.799607 38.5051 0.992377 38.8556 1.37792C39.2149 1.76346 39.3945 2.32862 39.3945 3.07342V7.72619C39.3945 8.47098 39.2149 9.03615 38.8556 9.42169C38.5051 9.80723 37.9663 10 37.239 10H34.952V0.799607ZM36.3978 2.11395V8.68566H37.2127C37.4405 8.68566 37.6201 8.61994 37.7516 8.48851C37.883 8.35707 37.9487 8.12487 37.9487 7.79191V3.0077C37.9487 2.67473 37.883 2.44253 37.7516 2.3111C37.6201 2.17967 37.4405 2.11395 37.2127 2.11395H36.3978ZM42.3544 0.799607V7.89705C42.3544 8.23002 42.4202 8.46222 42.5516 8.59365C42.6918 8.72509 42.8758 8.79081 43.1036 8.79081C43.3314 8.79081 43.5111 8.72509 43.6425 8.59365C43.7827 8.46222 43.8528 8.23002 43.8528 7.89705V0.799607H45.2197V7.80505C45.2197 8.54984 45.0357 9.12377 44.6677 9.52684C44.3084 9.92114 43.7739 10.1183 43.0642 10.1183C42.3544 10.1183 41.8156 9.92114 41.4476 9.52684C41.0883 9.12377 40.9087 8.54984 40.9087 7.80505V0.799607H42.3544ZM46.6844 3.0077C46.6844 2.26291 46.8596 1.69336 47.2101 1.29906C47.5694 0.895992 48.1039 0.69446 48.8136 0.69446C49.5234 0.69446 50.0535 0.895992 50.404 1.29906C50.7632 1.69336 50.9428 2.26291 50.9428 3.0077V3.36257H49.5759V2.9157C49.5759 2.58273 49.5102 2.35053 49.3788 2.2191C49.2561 2.0789 49.0809 2.0088 48.853 2.0088C48.6252 2.0088 48.4456 2.0789 48.3142 2.2191C48.1915 2.35053 48.1302 2.58273 48.1302 2.9157C48.1302 3.23114 48.2003 3.51153 48.3405 3.75688C48.4806 3.99346 48.6559 4.22128 48.8662 4.44033C49.0765 4.65063 49.2999 4.8653 49.5365 5.08436C49.7818 5.29466 50.0097 5.52686 50.22 5.78096C50.4303 6.03507 50.6055 6.32422 50.7457 6.64843C50.8859 6.97263 50.956 7.35379 50.956 7.79191C50.956 8.5367 50.772 9.11063 50.404 9.51369C50.0447 9.908 49.5102 10.1051 48.8005 10.1051C48.0907 10.1051 47.5518 9.908 47.1838 9.51369C46.8246 9.11063 46.645 8.5367 46.645 7.79191V7.16102H48.0119V7.88391C48.0119 8.21688 48.0776 8.44908 48.209 8.58051C48.3492 8.71194 48.5332 8.77766 48.761 8.77766C48.9889 8.77766 49.1685 8.71194 49.2999 8.58051C49.4401 8.44908 49.5102 8.21688 49.5102 7.88391C49.5102 7.56847 49.4401 7.29246 49.2999 7.05587C49.1597 6.81053 48.9845 6.58271 48.7742 6.37242C48.5639 6.15336 48.3361 5.93868 48.0907 5.72839C47.8541 5.50933 47.6307 5.27275 47.4204 5.01864C47.2101 4.76454 47.0349 4.47538 46.8947 4.15118C46.7545 3.82697 46.6844 3.44582 46.6844 3.0077ZM52.0472 0.799607H56.516V2.11395H55.0045V10H53.5587V2.11395H52.0472V0.799607ZM60.8579 10C60.8404 9.93866 60.8229 9.88171 60.8053 9.82914C60.7878 9.77656 60.7703 9.71084 60.7528 9.63198C60.744 9.55312 60.7352 9.45236 60.7265 9.32969C60.7265 9.20701 60.7265 9.05367 60.7265 8.86967V7.42389C60.7265 6.99454 60.652 6.69224 60.503 6.51699C60.3541 6.34175 60.1131 6.25413 59.7802 6.25413H59.2807V10H57.8349V0.799607H60.0167C60.7703 0.799607 61.3136 0.974852 61.6465 1.32534C61.9882 1.67583 62.1591 2.20595 62.1591 2.9157V3.63859C62.1591 4.58491 61.8437 5.20703 61.2128 5.50495C61.5808 5.65391 61.8305 5.89925 61.962 6.24098C62.1022 6.57395 62.1723 6.98139 62.1723 7.46332V8.88281C62.1723 9.11063 62.181 9.31216 62.1985 9.48741C62.2161 9.65389 62.2599 9.82475 62.33 10H60.8579ZM59.2807 2.11395V4.93978H59.8459C60.1175 4.93978 60.3278 4.86969 60.4768 4.72949C60.6345 4.58929 60.7133 4.33519 60.7133 3.96717V3.06028C60.7133 2.72731 60.652 2.48635 60.5293 2.33739C60.4154 2.18843 60.2314 2.11395 59.9773 2.11395H59.2807ZM65.134 6.95073L63.3071 0.799607H64.8186L65.9226 4.99236L67.0267 0.799607H68.4068L66.5798 6.95073V10H65.134V6.95073ZM69.6486 10V8.6068H71.0418V9.85542L70.4109 11.3143H69.8195L70.2006 10H69.6486ZM75.4425 0.799607H76.8883V10H75.4425V0.799607ZM79.8906 3.33629V10H78.5894V0.799607H80.4032L81.8884 6.3067V0.799607H83.1765V10H81.6913L79.8906 3.33629ZM86.1568 3.33629V10H84.8556V0.799607H86.6694L88.1546 6.3067V0.799607H89.4427V10H87.9575L86.1568 3.33629ZM92.4625 7.88391C92.4625 8.21688 92.5282 8.45346 92.6596 8.59365C92.7998 8.72509 92.9839 8.79081 93.2117 8.79081C93.4395 8.79081 93.6191 8.72509 93.7506 8.59365C93.8907 8.45346 93.9608 8.21688 93.9608 7.88391V2.9157C93.9608 2.58273 93.8907 2.35053 93.7506 2.2191C93.6191 2.0789 93.4395 2.0088 93.2117 2.0088C92.9839 2.0088 92.7998 2.0789 92.6596 2.2191C92.5282 2.35053 92.4625 2.58273 92.4625 2.9157V7.88391ZM91.0167 3.0077C91.0167 2.26291 91.2051 1.69336 91.5819 1.29906C91.9587 0.895992 92.5019 0.69446 93.2117 0.69446C93.9214 0.69446 94.4647 0.895992 94.8415 1.29906C95.2182 1.69336 95.4066 2.26291 95.4066 3.0077V7.79191C95.4066 8.5367 95.2182 9.11063 94.8415 9.51369C94.4647 9.908 93.9214 10.1051 93.2117 10.1051C92.5019 10.1051 91.9587 9.908 91.5819 9.51369C91.2051 9.11063 91.0167 8.5367 91.0167 7.79191V3.0077ZM99.1852 8.3045L100.289 0.799607H101.617L100.197 10H98.0417L96.6222 0.799607H98.0811L99.1852 8.3045ZM107.628 10H106.169L105.919 8.33079H104.145L103.895 10H102.568L104.04 0.799607H106.156L107.628 10ZM104.329 7.08216H105.722L105.025 2.42939L104.329 7.08216ZM108.564 0.799607H113.033V2.11395H111.521V10H110.075V2.11395H108.564V0.799607ZM114.352 0.799607H115.797V10H114.352V0.799607ZM118.839 7.88391C118.839 8.21688 118.905 8.45346 119.036 8.59365C119.177 8.72509 119.361 8.79081 119.588 8.79081C119.816 8.79081 119.996 8.72509 120.127 8.59365C120.267 8.45346 120.338 8.21688 120.338 7.88391V2.9157C120.338 2.58273 120.267 2.35053 120.127 2.2191C119.996 2.0789 119.816 2.0088 119.588 2.0088C119.361 2.0088 119.177 2.0789 119.036 2.2191C118.905 2.35053 118.839 2.58273 118.839 2.9157V7.88391ZM117.393 3.0077C117.393 2.26291 117.582 1.69336 117.959 1.29906C118.335 0.895992 118.879 0.69446 119.588 0.69446C120.298 0.69446 120.841 0.895992 121.218 1.29906C121.595 1.69336 121.783 2.26291 121.783 3.0077V7.79191C121.783 8.5367 121.595 9.11063 121.218 9.51369C120.841 9.908 120.298 10.1051 119.588 10.1051C118.879 10.1051 118.335 9.908 117.959 9.51369C117.582 9.11063 117.393 8.5367 117.393 7.79191V3.0077ZM124.668 3.33629V10H123.367V0.799607H125.181L126.666 6.3067V0.799607H127.954V10H126.469L124.668 3.33629ZM30.2048 25H28.7459L28.4961 23.3308H26.7218L26.4721 25H25.1446L26.6166 15.7996H28.7327L30.2048 25ZM26.9058 22.0822H28.299L27.6024 17.4294L26.9058 22.0822ZM32.8233 18.3363V25H31.5221V15.7996H33.3359L34.8211 21.3067V15.7996H36.1092V25H34.624L32.8233 18.3363ZM37.8015 15.7996H40.0884C40.8157 15.7996 41.3546 15.9924 41.7051 16.3779C42.0643 16.7635 42.244 17.3286 42.244 18.0734V22.7262C42.244 23.471 42.0643 24.0361 41.7051 24.4217C41.3546 24.8072 40.8157 25 40.0884 25H37.8015V15.7996ZM39.2473 17.1139V23.6857H40.0622C40.29 23.6857 40.4696 23.6199 40.601 23.4885C40.7325 23.3571 40.7982 23.1249 40.7982 22.7919V18.0077C40.7982 17.6747 40.7325 17.4425 40.601 17.3111C40.4696 17.1797 40.29 17.1139 40.0622 17.1139H39.2473ZM46.5218 15.7996H47.9676V25H46.5218V15.7996ZM50.97 18.3363V25H49.6688V15.7996H51.4826L52.9678 21.3067V15.7996H54.2558V25H52.7706L50.97 18.3363ZM57.3939 19.8872H59.2603V21.2016H57.3939V25H55.9481V15.7996H59.7729V17.1139H57.3939V19.8872ZM64.1463 25C64.1288 24.9387 64.1113 24.8817 64.0938 24.8291C64.0762 24.7766 64.0587 24.7108 64.0412 24.632C64.0324 24.5531 64.0237 24.4524 64.0149 24.3297C64.0149 24.207 64.0149 24.0537 64.0149 23.8697V22.4239C64.0149 21.9945 63.9404 21.6922 63.7915 21.517C63.6425 21.3417 63.4015 21.2541 63.0686 21.2541H62.5691V25H61.1234V15.7996H63.3052C64.0587 15.7996 64.602 15.9749 64.9349 16.3253C65.2767 16.6758 65.4475 17.206 65.4475 17.9157V18.6386C65.4475 19.5849 65.1321 20.207 64.5012 20.505C64.8692 20.6539 65.119 20.8993 65.2504 21.241C65.3906 21.5739 65.4607 21.9814 65.4607 22.4633V23.8828C65.4607 24.1106 65.4694 24.3122 65.487 24.4874C65.5045 24.6539 65.5483 24.8248 65.6184 25H64.1463ZM62.5691 17.1139V19.9398H63.1343C63.4059 19.9398 63.6162 19.8697 63.7652 19.7295C63.9229 19.5893 64.0018 19.3352 64.0018 18.9672V18.0603C64.0018 17.7273 63.9404 17.4863 63.8178 17.3374C63.7038 17.1884 63.5198 17.1139 63.2657 17.1139H62.5691ZM71.7478 25H70.2888L70.0391 23.3308H68.2647L68.015 25H66.6875L68.1596 15.7996H70.2757L71.7478 25ZM68.4488 22.0822H69.842L69.1454 17.4294L68.4488 22.0822ZM72.8942 18.0077C72.8942 17.2629 73.0695 16.6934 73.4199 16.2991C73.7792 15.896 74.3137 15.6945 75.0234 15.6945C75.7332 15.6945 76.2633 15.896 76.6138 16.2991C76.973 16.6934 77.1527 17.2629 77.1527 18.0077V18.3626H75.7858V17.9157C75.7858 17.5827 75.72 17.3505 75.5886 17.2191C75.4659 17.0789 75.2907 17.0088 75.0629 17.0088C74.8351 17.0088 74.6554 17.0789 74.524 17.2191C74.4013 17.3505 74.34 17.5827 74.34 17.9157C74.34 18.2311 74.4101 18.5115 74.5503 18.7569C74.6905 18.9935 74.8657 19.2213 75.076 19.4403C75.2863 19.6506 75.5097 19.8653 75.7463 20.0844C75.9917 20.2947 76.2195 20.5269 76.4298 20.781C76.6401 21.0351 76.8153 21.3242 76.9555 21.6484C77.0957 21.9726 77.1658 22.3538 77.1658 22.7919C77.1658 23.5367 76.9818 24.1106 76.6138 24.5137C76.2545 24.908 75.72 25.1051 75.0103 25.1051C74.3006 25.1051 73.7617 24.908 73.3937 24.5137C73.0344 24.1106 72.8548 23.5367 72.8548 22.7919V22.161H74.2217V22.8839C74.2217 23.2169 74.2874 23.4491 74.4188 23.5805C74.559 23.7119 74.743 23.7777 74.9709 23.7777C75.1987 23.7777 75.3783 23.7119 75.5097 23.5805C75.6499 23.4491 75.72 23.2169 75.72 22.8839C75.72 22.5685 75.6499 22.2925 75.5097 22.0559C75.3696 21.8105 75.1943 21.5827 74.984 21.3724C74.7737 21.1534 74.5459 20.9387 74.3006 20.7284C74.064 20.5093 73.8405 20.2728 73.6302 20.0186C73.4199 19.7645 73.2447 19.4754 73.1045 19.1512C72.9643 18.827 72.8942 18.4458 72.8942 18.0077ZM78.257 15.7996H82.7258V17.1139H81.2143V25H79.7685V17.1139H78.257V15.7996ZM87.0677 25C87.0502 24.9387 87.0327 24.8817 87.0152 24.8291C86.9976 24.7766 86.9801 24.7108 86.9626 24.632C86.9538 24.5531 86.9451 24.4524 86.9363 24.3297C86.9363 24.207 86.9363 24.0537 86.9363 23.8697V22.4239C86.9363 21.9945 86.8618 21.6922 86.7129 21.517C86.5639 21.3417 86.3229 21.2541 85.99 21.2541H85.4905V25H84.0448V15.7996H86.2266C86.9801 15.7996 87.5234 15.9749 87.8563 16.3253C88.1981 16.6758 88.3689 17.206 88.3689 17.9157V18.6386C88.3689 19.5849 88.0535 20.207 87.4226 20.505C87.7906 20.6539 88.0404 20.8993 88.1718 21.241C88.312 21.5739 88.3821 21.9814 88.3821 22.4633V23.8828C88.3821 24.1106 88.3908 24.3122 88.4084 24.4874C88.4259 24.6539 88.4697 24.8248 88.5398 25H87.0677ZM85.4905 17.1139V19.9398H86.0557C86.3273 19.9398 86.5376 19.8697 86.6866 19.7295C86.8443 19.5893 86.9232 19.3352 86.9232 18.9672V18.0603C86.9232 17.7273 86.8618 17.4863 86.7392 17.3374C86.6252 17.1884 86.4412 17.1139 86.1871 17.1139H85.4905ZM91.3702 15.7996V22.8971C91.3702 23.23 91.4359 23.4622 91.5673 23.5937C91.7075 23.7251 91.8915 23.7908 92.1193 23.7908C92.3472 23.7908 92.5268 23.7251 92.6582 23.5937C92.7984 23.4622 92.8685 23.23 92.8685 22.8971V15.7996H94.2354V22.805C94.2354 23.5498 94.0514 24.1238 93.6834 24.5268C93.3241 24.9211 92.7896 25.1183 92.0799 25.1183C91.3702 25.1183 90.8313 24.9211 90.4633 24.5268C90.104 24.1238 89.9244 23.5498 89.9244 22.805V15.7996H91.3702ZM100.077 21.5696V22.7919C100.077 23.5367 99.8928 24.1106 99.5248 24.5137C99.1656 24.908 98.6311 25.1051 97.9213 25.1051C97.2116 25.1051 96.6727 24.908 96.3047 24.5137C95.9454 24.1106 95.7658 23.5367 95.7658 22.7919V18.0077C95.7658 17.2629 95.9454 16.6934 96.3047 16.2991C96.6727 15.896 97.2116 15.6945 97.9213 15.6945C98.6311 15.6945 99.1656 15.896 99.5248 16.2991C99.8928 16.6934 100.077 17.2629 100.077 18.0077V18.9015H98.7099V17.9157C98.7099 17.5827 98.6398 17.3505 98.4996 17.2191C98.3682 17.0789 98.1886 17.0088 97.9608 17.0088C97.7329 17.0088 97.5489 17.0789 97.4087 17.2191C97.2773 17.3505 97.2116 17.5827 97.2116 17.9157V22.8839C97.2116 23.2169 97.2773 23.4491 97.4087 23.5805C97.5489 23.7119 97.7329 23.7777 97.9608 23.7777C98.1886 23.7777 98.3682 23.7119 98.4996 23.5805C98.6398 23.4491 98.7099 23.2169 98.7099 22.8839V21.5696H100.077ZM101.217 15.7996H105.686V17.1139H104.174V25H102.728V17.1139H101.217V15.7996ZM108.385 15.7996V22.8971C108.385 23.23 108.45 23.4622 108.582 23.5937C108.722 23.7251 108.906 23.7908 109.134 23.7908C109.362 23.7908 109.541 23.7251 109.673 23.5937C109.813 23.4622 109.883 23.23 109.883 22.8971V15.7996H111.25V22.805C111.25 23.5498 111.066 24.1238 110.698 24.5268C110.339 24.9211 109.804 25.1183 109.094 25.1183C108.385 25.1183 107.846 24.9211 107.478 24.5268C107.119 24.1238 106.939 23.5498 106.939 22.805V15.7996H108.385ZM115.922 25C115.904 24.9387 115.887 24.8817 115.869 24.8291C115.852 24.7766 115.834 24.7108 115.817 24.632C115.808 24.5531 115.799 24.4524 115.79 24.3297C115.79 24.207 115.79 24.0537 115.79 23.8697V22.4239C115.79 21.9945 115.716 21.6922 115.567 21.517C115.418 21.3417 115.177 21.2541 114.844 21.2541H114.344V25H112.899V15.7996H115.08C115.834 15.7996 116.377 15.9749 116.71 16.3253C117.052 16.6758 117.223 17.206 117.223 17.9157V18.6386C117.223 19.5849 116.907 20.207 116.277 20.505C116.645 20.6539 116.894 20.8993 117.026 21.241C117.166 21.5739 117.236 21.9814 117.236 22.4633V23.8828C117.236 24.1106 117.245 24.3122 117.262 24.4874C117.28 24.6539 117.324 24.8248 117.394 25H115.922ZM114.344 17.1139V19.9398H114.91C115.181 19.9398 115.392 19.8697 115.54 19.7295C115.698 19.5893 115.777 19.3352 115.777 18.9672V18.0603C115.777 17.7273 115.716 17.4863 115.593 17.3374C115.479 17.1884 115.295 17.1139 115.041 17.1139H114.344ZM123.523 25H122.064L121.814 23.3308H120.04L119.79 25H118.463L119.935 15.7996H122.051L123.523 25ZM120.224 22.0822H121.617L120.921 17.4294L120.224 22.0822Z" fill="white"/>
</svg>
