<svg width="102" height="98" viewBox="0 0 102 98" fill="none" xmlns="http://www.w3.org/2000/svg">
<path d="M4.23138 5.1811C4.02185 5.2954 3.43132 5.52399 2.44077 5.88592L0.973999 6.41929V3.21905C1.7621 2.90012 2.52607 2.5245 3.25988 2.09516C3.9627 1.74845 4.60575 1.29189 5.16479 0.742676H8.53647V23.2777H4.23138V5.1811Z" fill="white"/>
<path d="M13.6606 5.1811C13.4511 5.2954 12.8606 5.52399 11.87 5.88592C10.8795 6.24785 10.6128 6.32405 10.4032 6.41929V3.21905C11.1961 2.89694 11.9661 2.52144 12.7082 2.09516C13.4051 1.73857 14.0467 1.28302 14.6131 0.742676H17.9657V23.2777H13.6606V5.1811Z" fill="white"/>
<path d="M27.9856 9.50543C27.528 9.52451 27.0737 9.41918 26.6712 9.20064C26.3251 8.99805 26.0518 8.6914 25.8902 8.32439C25.7076 7.86247 25.6046 7.37298 25.5854 6.87666L26.9379 6.60997C26.9486 6.91246 26.9934 7.21278 27.0712 7.50528C27.1171 7.72621 27.2225 7.93041 27.376 8.0958C27.4495 8.16574 27.5362 8.22031 27.6311 8.25629C27.7259 8.29227 27.827 8.30895 27.9284 8.30534C28.0295 8.31637 28.1317 8.30112 28.2251 8.26108C28.3186 8.22103 28.4001 8.15754 28.4618 8.07675C28.5827 7.90428 28.643 7.69661 28.6332 7.48623C28.6443 7.16078 28.5509 6.84034 28.3666 6.57187C28.1765 6.30278 27.9524 6.05946 27.6998 5.84801L26.614 4.87651C26.3164 4.63074 26.0649 4.33405 25.8711 4.00025C25.6874 3.63417 25.5958 3.22874 25.6044 2.81921C25.583 2.52867 25.6247 2.23694 25.7266 1.96402C25.8285 1.69111 25.9883 1.44348 26.195 1.23814C26.568 0.955394 27.0076 0.773552 27.4714 0.710157C27.9352 0.646761 28.4075 0.70395 28.8428 0.87621C29.101 0.986346 29.3247 1.16402 29.4905 1.39053C29.6496 1.61489 29.7659 1.86677 29.8333 2.13345C29.9149 2.42583 29.9659 2.72586 29.9857 3.02875L28.6523 3.25734C28.6337 3.01451 28.6019 2.77286 28.557 2.53348C28.5265 2.34714 28.4402 2.17444 28.3094 2.0382C28.1679 1.90423 27.9804 1.82957 27.7856 1.82957C27.5907 1.82957 27.4032 1.90423 27.2617 2.0382C27.1296 2.1985 27.0617 2.40216 27.0712 2.60967C27.0585 2.86484 27.1251 3.11768 27.2617 3.33354C27.4002 3.55126 27.5741 3.74439 27.776 3.90501L28.8428 4.85746C29.2016 5.15555 29.5103 5.50928 29.7571 5.90516C30.0188 6.34188 30.1509 6.84396 30.1381 7.35288C30.1428 7.73765 30.0512 8.11748 29.8714 8.45773C29.6932 8.77273 29.4289 9.03042 29.1095 9.20064C28.7692 9.40177 28.3808 9.50709 27.9856 9.50543Z" fill="white"/>
<path d="M32.9955 9.50549C32.4716 9.53442 31.9502 9.41562 31.4906 9.1626C31.1433 8.91641 30.8884 8.56097 30.7667 8.15301C30.6187 7.65236 30.548 7.13203 30.5572 6.61003V0.723877H32.024V6.72433C32.0028 6.97788 32.0028 7.23274 32.024 7.48629C32.0337 7.70068 32.1219 7.90402 32.2716 8.05776C32.3471 8.13701 32.4392 8.1986 32.5413 8.23812C32.6434 8.27764 32.7529 8.29411 32.8621 8.28635C32.9716 8.29695 33.082 8.28179 33.1845 8.2421C33.287 8.20241 33.3789 8.13928 33.4526 8.05776C33.5945 7.89885 33.6813 7.69845 33.7003 7.48629C33.7214 7.23274 33.7214 6.97788 33.7003 6.72433V0.723877H35.2242V6.55289C35.2334 7.07488 35.1627 7.59521 35.0147 8.09586C34.9064 8.51026 34.6485 8.86991 34.2908 9.10546C33.9003 9.34737 33.4543 9.4851 32.9955 9.50549Z" fill="white"/>
<path d="M38.3863 9.50559C37.9347 9.52506 37.4865 9.4196 37.091 9.2008C36.7378 9.00134 36.4575 8.69436 36.2909 8.32454C36.1063 7.86399 36.0094 7.37298 36.0052 6.87682L37.3577 6.61013C37.3627 6.91186 37.401 7.21212 37.472 7.50544C37.5257 7.7235 37.6302 7.92581 37.7768 8.09596C37.9274 8.23373 38.125 8.30869 38.3292 8.3055C38.4328 8.31458 38.5372 8.29854 38.6333 8.25875C38.7295 8.21896 38.8147 8.15659 38.8816 8.07691C38.9878 7.89867 39.0407 7.69374 39.034 7.48639C39.0451 7.16094 38.9516 6.8405 38.7673 6.57203C38.5877 6.2947 38.3623 6.04992 38.1006 5.84817L37.0148 4.87667C36.7176 4.63564 36.4715 4.33774 36.2909 4.00041C36.0918 3.63938 35.9931 3.23152 36.0052 2.81937C35.9875 2.52753 36.0327 2.23529 36.1379 1.96249C36.2431 1.68968 36.4057 1.4427 36.6148 1.2383C36.8344 1.04322 37.0907 0.893884 37.3687 0.799031C37.6467 0.704178 37.9409 0.66571 38.2339 0.685878C38.5806 0.671268 38.926 0.736439 39.2435 0.876368C39.5017 0.986504 39.7254 1.16417 39.8912 1.39069C40.0492 1.61833 40.1713 1.86889 40.2531 2.13361C40.3282 2.42666 40.3729 2.72669 40.3865 3.02891L39.053 3.2575C39.0439 3.01378 39.012 2.77144 38.9578 2.53364C38.9352 2.3448 38.8477 2.1697 38.7102 2.03836C38.6444 1.96981 38.5639 1.91706 38.4749 1.88406C38.3858 1.85107 38.2904 1.8387 38.1958 1.84787C38.0955 1.84331 37.9953 1.86151 37.903 1.90109C37.8106 1.94068 37.7284 2.00062 37.6625 2.07646C37.5376 2.24066 37.4706 2.44162 37.472 2.64793C37.4691 2.90198 37.5349 3.15208 37.6625 3.37179C37.801 3.58952 37.9748 3.78265 38.1768 3.94326L39.2626 4.89572C39.6104 5.1995 39.9121 5.55246 40.1579 5.94341C40.4278 6.3766 40.5606 6.88121 40.5389 7.39114C40.5436 7.77591 40.4519 8.15574 40.2722 8.49599C40.0939 8.81098 39.8296 9.06868 39.5102 9.2389C39.1672 9.42945 38.7784 9.52173 38.3863 9.50559Z" fill="white"/>
<path d="M41.8913 9.33405V1.88587H40.5198V0.723877H44.8249V1.88587H43.4533V9.33405H41.8913Z" fill="white"/>
<path d="M44.5201 9.33405L46.2536 0.723877H47.9299L49.6443 9.33405H48.1966L47.8537 7.42914H46.3488L46.006 9.33405H44.5201ZM46.5203 6.34335H47.6823L47.0918 2.72403L46.5203 6.34335Z" fill="white"/>
<path d="M50.0824 9.33405V0.723877H51.6254V9.33405H50.0824Z" fill="white"/>
<path d="M52.5207 9.33405V0.723877H53.6256L55.721 5.69568V0.723877H57.0163V9.33405H55.9686L53.8542 4.1908V9.33405H52.5207Z" fill="white"/>
<path d="M57.4544 9.33405L59.1688 0.723877H60.8452L62.5024 9.33405H61.0356L60.6928 7.42914H59.2069L58.845 9.33405H57.4544ZM59.3593 6.34335H60.5975L60.007 2.72403L59.3593 6.34335Z" fill="white"/>
<path d="M62.9596 9.33405V0.723877H65.0741C65.4254 0.724594 65.7761 0.756467 66.1218 0.819123C66.4063 0.878595 66.6735 1.0024 66.9028 1.18105C67.1353 1.36125 67.3187 1.59709 67.4362 1.86682C67.5625 2.20778 67.6207 2.5702 67.6076 2.93357C67.6173 3.23759 67.5721 3.54086 67.4743 3.82887C67.3779 4.05814 67.2276 4.26073 67.0361 4.41939C66.8415 4.58154 66.6025 4.68114 66.3504 4.70513C66.6533 4.73766 66.941 4.85502 67.1802 5.04373C67.4195 5.23243 67.6006 5.48482 67.7028 5.77187C67.8176 6.10877 67.8693 6.46394 67.8552 6.81957C67.8676 7.19384 67.816 7.56747 67.7028 7.92442C67.6154 8.2177 67.4586 8.48559 67.2457 8.70543C67.0387 8.92013 66.7843 9.08325 66.5028 9.18165C66.1568 9.28568 65.7972 9.33705 65.436 9.33405H62.9596ZM64.5407 4.24795H65.0741C65.3242 4.25737 65.5728 4.20504 65.7979 4.09556C65.8799 4.05176 65.9524 3.99218 66.0112 3.92026C66.0701 3.84834 66.1141 3.76549 66.1408 3.67648C66.245 3.4488 66.3032 3.20283 66.3123 2.95262C66.3268 2.70583 66.2671 2.46036 66.1408 2.2478C66.089 2.15177 66.0155 2.0691 65.9263 2.00629C65.837 1.94348 65.7344 1.90226 65.6265 1.88587C65.3673 1.85083 65.1046 1.85083 64.8455 1.88587H64.5407V4.24795ZM64.5407 8.2292H65.1312C65.3087 8.25209 65.4891 8.23298 65.6578 8.17343C65.8265 8.11387 65.9789 8.01553 66.1027 7.88632C66.2747 7.55864 66.3475 7.18796 66.3123 6.81957C66.3572 6.5356 66.3572 6.24634 66.3123 5.96237C66.2273 5.76859 66.0884 5.6033 65.9122 5.48614C65.6766 5.36776 65.4133 5.31512 65.1503 5.33375H64.6169L64.5407 8.2292Z" fill="white"/>
<path d="M68.4457 9.33404V0.723877H70.1221V8.34349H72.027V9.42929L68.4457 9.33404Z" fill="white"/>
<path d="M72.446 9.33405V0.723877H76.0653V1.88587H74.0271V4.36225H75.6272V5.46709H74.0271V8.24825H76.0844V9.33405H72.446Z" fill="white"/>
<path d="M81.0371 9.50546C80.5431 9.50121 80.0606 9.3558 79.6465 9.08638C79.2886 8.83847 79.0264 8.47544 78.9036 8.05773C78.7431 7.58573 78.6657 7.08943 78.675 6.59096V3.50501C78.6629 2.98767 78.7403 2.47212 78.9036 1.98109C79.0303 1.57038 79.2921 1.21458 79.6465 0.971488C80.0998 0.720036 80.6147 0.601214 81.1324 0.628605C81.6152 0.598353 82.097 0.703934 82.5229 0.93339C82.8598 1.1224 83.1169 1.42686 83.2468 1.7906C83.3903 2.21377 83.4611 2.65817 83.4563 3.10498V3.79075H81.9515V3.08593C81.9515 2.83829 81.9515 2.62875 81.9515 2.41922C81.9283 2.3063 81.8804 2.19991 81.8112 2.1077C81.7421 2.01548 81.6533 1.93972 81.5514 1.88584C81.4738 1.8183 81.3827 1.76807 81.2842 1.7385C81.1856 1.70894 81.0819 1.70072 80.98 1.7144C80.8737 1.70412 80.7665 1.71572 80.665 1.74849C80.5634 1.78125 80.4696 1.83448 80.3894 1.90489C80.2656 2.04354 80.186 2.216 80.1609 2.40017C80.1404 2.63466 80.1404 2.87049 80.1609 3.10498V6.91479C80.1266 7.16762 80.1266 7.42392 80.1609 7.67675C80.1938 7.85554 80.2881 8.01722 80.4275 8.13393C80.5815 8.24671 80.7706 8.30076 80.9609 8.28632C81.1666 8.30705 81.3721 8.2454 81.5324 8.11488C81.6775 7.97634 81.7772 7.79698 81.8181 7.60055C81.8181 7.39102 81.8181 7.16243 81.8181 6.89574V6.13378H83.4563V6.83859C83.4683 7.29687 83.4039 7.75393 83.2658 8.19108C83.1384 8.57586 82.8829 8.90532 82.542 9.12448C82.0947 9.41074 81.5667 9.54441 81.0371 9.50546Z" fill="white"/>
<path d="M84.0659 9.33405V0.723877H85.6279V9.33405H84.0659Z" fill="white"/>
<path d="M87.3804 9.33405V1.88587H86.0089V0.723877H90.2949V1.88587H88.9425V9.33405H87.3804Z" fill="white"/>
<path d="M90.695 9.33405V0.723877H92.257V9.33405H90.695Z" fill="white"/>
<path d="M93.1332 9.33405V0.723877H96.7906V1.88587H94.7143V4.36225H96.3144V5.46709H94.7143V8.24825H96.7906V9.33405H93.1332Z" fill="white"/>
<path d="M99.4385 9.50543C98.9808 9.52451 98.5266 9.41918 98.1241 9.20064C97.778 8.99805 97.5047 8.6914 97.3431 8.32439C97.1605 7.86247 97.0575 7.37298 97.0383 6.87666L98.3908 6.60997C98.4015 6.91246 98.4463 7.21278 98.5241 7.50528C98.57 7.72621 98.6754 7.93041 98.8289 8.0958C98.9024 8.16574 98.9891 8.22031 99.084 8.25629C99.1788 8.29227 99.2799 8.30895 99.3813 8.30534C99.4824 8.31637 99.5846 8.30112 99.678 8.26108C99.7715 8.22103 99.853 8.15754 99.9147 8.07675C100.036 7.90428 100.096 7.69661 100.086 7.48623C100.097 7.16078 100.004 6.84034 99.8195 6.57187C99.6269 6.2988 99.396 6.05499 99.1337 5.84801L98.0669 4.87651C97.7693 4.63074 97.5178 4.33405 97.324 4.00025C97.1403 3.63417 97.0487 3.22874 97.0573 2.81921C97.0359 2.52867 97.0776 2.23694 97.1795 1.96402C97.2814 1.69111 97.4412 1.44348 97.6479 1.23814C98.0209 0.955394 98.4605 0.773552 98.9243 0.710157C99.3881 0.646761 99.8604 0.70395 100.296 0.87621C100.554 0.986346 100.778 1.16402 100.943 1.39053C101.103 1.61489 101.219 1.86677 101.286 2.13345C101.368 2.42583 101.419 2.72586 101.439 3.02875L100.105 3.25734C100.087 3.01451 100.055 2.77286 100.01 2.53348C99.9794 2.34714 99.893 2.17444 99.7623 2.0382C99.6208 1.90423 99.4333 1.82957 99.2385 1.82957C99.0436 1.82957 98.8561 1.90423 98.7146 2.0382C98.5825 2.1985 98.5146 2.40216 98.5241 2.60967C98.5114 2.86484 98.5779 3.11768 98.7146 3.33354C98.8531 3.55126 99.0269 3.74439 99.2289 3.90501L100.296 4.85746C100.655 5.15555 100.963 5.50928 101.21 5.90516C101.472 6.34188 101.604 6.84396 101.591 7.35288C101.596 7.73765 101.504 8.11748 101.324 8.45773C101.146 8.77273 100.882 9.03042 100.562 9.20064C100.222 9.40177 99.8337 9.50709 99.4385 9.50543Z" fill="white"/>
<path d="M25.3758 23.4112L27.0902 14.801H28.7665L30.5 23.4112H29.0332L28.7094 21.5063H27.2045L26.8426 23.4112H25.3758ZM27.2807 20.4205H28.4617L27.8712 16.8012L27.2807 20.4205Z" fill="white"/>
<path d="M30.881 23.4112V14.801H32.024L34.1193 19.7157V14.801H35.4147V23.4112H34.367L32.2144 18.268V23.4112H30.881Z" fill="white"/>
<path d="M36.2529 23.4113V14.8011H38.2721C38.8386 14.7755 39.404 14.873 39.9293 15.0869C40.3061 15.2671 40.6042 15.5787 40.7675 15.9631C40.9408 16.4521 41.0247 16.9683 41.0151 17.487V20.6301C41.0243 21.1613 40.9405 21.6899 40.7675 22.1922C40.606 22.5871 40.3087 22.9113 39.9293 23.1065C39.4351 23.3358 38.8923 23.4404 38.3483 23.4113H36.2529ZM37.8149 22.3255H38.2911C38.5648 22.3439 38.8376 22.2773 39.0721 22.135C39.233 21.9851 39.3344 21.7822 39.3579 21.5635C39.3806 21.2655 39.3806 20.9662 39.3579 20.6682V17.3728C39.3925 17.0944 39.3925 16.8129 39.3579 16.5346C39.3193 16.3434 39.2106 16.1735 39.0531 16.0584C38.8165 15.9426 38.554 15.8901 38.2911 15.906H37.7387L37.8149 22.3255Z" fill="white"/>
<path d="M46.1964 23.5253C45.676 23.5569 45.1581 23.4308 44.7106 23.1634C44.3527 22.9155 44.0905 22.5525 43.9677 22.1347C43.8232 21.6594 43.7525 21.1647 43.7581 20.668V17.582C43.75 17.0664 43.8207 16.5525 43.9677 16.0581C44.0943 15.6474 44.3561 15.2916 44.7106 15.0485C45.1639 14.7971 45.6788 14.6782 46.1964 14.7056C46.6853 14.6758 47.1731 14.7813 47.606 15.0104C47.9368 15.2016 48.1872 15.5061 48.3108 15.8676C48.47 16.2872 48.5476 16.7333 48.5394 17.182V17.9059H47.0155V17.1249C47.0356 16.9031 47.0356 16.6799 47.0155 16.4581C47.009 16.2821 46.9416 16.1139 46.825 15.9819C46.6647 15.8514 46.4592 15.7897 46.2535 15.8105C46.1473 15.799 46.0398 15.8101 45.938 15.8429C45.8363 15.8757 45.7426 15.9296 45.663 16.001C45.5255 16.1323 45.4379 16.3074 45.4154 16.4962C45.3948 16.7307 45.3948 16.9666 45.4154 17.201V21.0109C45.3919 21.2643 45.3919 21.5194 45.4154 21.7728C45.4549 21.9537 45.5559 22.1153 45.7011 22.23C45.8543 22.3443 46.044 22.3986 46.2345 22.3824C46.3334 22.3922 46.4332 22.3821 46.5281 22.3526C46.623 22.3232 46.711 22.275 46.7869 22.2109C46.9093 22.0734 46.9829 21.8993 46.9965 21.7157C47.017 21.4812 47.017 21.2453 46.9965 21.0109V20.2489H48.5204V20.9347C48.5251 21.3939 48.4543 21.8508 48.3108 22.2871C48.1911 22.6705 47.942 23.0005 47.606 23.2205C47.1717 23.4461 46.685 23.5513 46.1964 23.5253Z" fill="white"/>
<path d="M51.5302 23.5257C51.0248 23.5511 50.5227 23.4322 50.0825 23.1828C49.7205 22.9558 49.4455 22.6136 49.3014 22.2113C49.1395 21.7265 49.0622 21.2175 49.0729 20.7065V17.4872C49.0607 16.9761 49.138 16.4668 49.3014 15.9823C49.4491 15.5871 49.7238 15.2521 50.0825 15.0299C50.5281 14.7963 51.0275 14.6846 51.5302 14.706C52.0452 14.6833 52.5572 14.7949 53.016 15.0299C53.3675 15.2552 53.6352 15.5899 53.778 15.9823C53.9572 16.4632 54.0413 16.9743 54.0256 17.4872V20.7065C54.0399 21.2193 53.9558 21.7301 53.778 22.2113C53.6389 22.6108 53.3708 22.9526 53.016 23.1828C52.5627 23.4343 52.0478 23.5531 51.5302 23.5257ZM51.5302 22.3637C51.7381 22.3763 51.9448 22.323 52.1207 22.2113C52.2405 22.0749 52.3255 21.9115 52.3683 21.7351C52.3889 21.5197 52.3889 21.3029 52.3683 21.0875V17.1253C52.3889 16.9035 52.3889 16.6803 52.3683 16.4585C52.3249 16.2936 52.2396 16.1427 52.1207 16.0204C51.951 15.8938 51.7413 15.8329 51.5302 15.849C51.3307 15.8313 51.1322 15.8929 50.9778 16.0204C50.8397 16.1302 50.7451 16.2855 50.7111 16.4585C50.6906 16.6803 50.6906 16.9035 50.7111 17.1253V21.0875C50.6905 21.3029 50.6905 21.5197 50.7111 21.7351C50.7378 21.9172 50.825 22.0849 50.9587 22.2113C51.1287 22.3203 51.3285 22.3736 51.5302 22.3637Z" fill="white"/>
<path d="M54.7305 23.4112L54.8828 14.801H56.502L57.7212 20.7634L58.9974 14.801H60.5976L60.75 23.4112H59.588L59.4546 17.4298L58.2355 23.4112H57.283L56.0448 17.4107L55.9305 23.4112H54.7305Z" fill="white"/>
<path d="M61.55 23.4112L61.7024 14.801H63.3406L64.5597 20.7634L65.836 14.801H67.398L67.5695 23.4112H66.3122V17.4298L65.074 23.4112H64.1406L62.8834 17.4107L62.7691 23.4112H61.55Z" fill="white"/>
<path d="M70.7697 23.5255C70.2517 23.5571 69.7356 23.438 69.2839 23.1826C68.9202 22.9492 68.6557 22.5896 68.541 22.173C68.3999 21.6712 68.3357 21.151 68.3505 20.63V14.801H69.8744V20.8015C69.8533 21.055 69.8533 21.3099 69.8744 21.5634C69.8934 21.7756 69.9802 21.976 70.122 22.1349C70.1975 22.2142 70.2896 22.2757 70.3917 22.3153C70.4938 22.3548 70.6034 22.3713 70.7126 22.3635C70.822 22.3741 70.9324 22.3589 71.0349 22.3193C71.1375 22.2796 71.2293 22.2164 71.3031 22.1349C71.4449 21.976 71.5318 21.7756 71.5507 21.5634C71.5718 21.3099 71.5718 21.055 71.5507 20.8015V14.801H73.0746V20.63C73.0894 21.151 73.0252 21.6712 72.8841 22.173C72.7694 22.5896 72.5049 22.9492 72.1412 23.1826C71.7229 23.4173 71.2493 23.5357 70.7697 23.5255Z" fill="white"/>
<path d="M73.9318 23.4112V14.801H75.0367L77.1321 19.7157V14.801H78.4274V23.4112H77.3797L75.2843 18.268V23.4112H73.9318Z" fill="white"/>
<path d="M79.3989 23.4112V14.801H80.9419V23.4112H79.3989Z" fill="white"/>
<path d="M82.7135 23.4112V15.963H81.3419V14.801H85.628V15.963H84.2755V23.4112H82.7135Z" fill="white"/>
<path d="M86.0279 23.4112V14.801H87.5709V23.4112H86.0279Z" fill="white"/>
<path d="M88.4663 23.4112V14.801H92.0856V15.9059H90.0474V18.3822H91.6475V19.4871H90.0474V22.3254H92.1047V23.4112H88.4663Z" fill="white"/>
<path d="M94.7524 23.5256C94.3008 23.5451 93.8526 23.4396 93.4571 23.2208C93.111 23.0182 92.8377 22.7116 92.6761 22.3445C92.4849 21.8853 92.3815 21.3942 92.3713 20.8968L93.7238 20.6301C93.7345 20.9326 93.7792 21.2329 93.8571 21.5254C93.903 21.7464 94.0084 21.9506 94.1619 22.116C94.2354 22.1859 94.3221 22.2405 94.417 22.2764C94.5118 22.3124 94.6129 22.3291 94.7143 22.3255C94.8152 22.3347 94.9168 22.3187 95.0099 22.2787C95.1031 22.2388 95.1848 22.1763 95.2477 22.0969C95.3632 21.9227 95.4168 21.7147 95.4001 21.5064C95.4195 21.1827 95.3325 20.8616 95.1524 20.592C94.9599 20.319 94.7289 20.0752 94.4667 19.8682L93.3809 18.8967C93.0889 18.6504 92.8437 18.3536 92.657 18.0204C92.4709 17.6483 92.3793 17.2362 92.3903 16.8203C92.366 16.5267 92.4063 16.2313 92.5083 15.9549C92.6104 15.6784 92.7716 15.4277 92.9808 15.2202C93.2039 15.0246 93.4636 14.875 93.7447 14.7802C94.0259 14.6854 94.3231 14.6472 94.6191 14.6678C94.9656 14.6552 95.3106 14.7202 95.6287 14.8583C95.8847 14.9633 96.1036 15.1424 96.2573 15.3726C96.4308 15.5908 96.5544 15.8444 96.6192 16.1155C96.7155 16.4442 96.773 16.783 96.7907 17.1251L95.4572 17.3537C95.4702 17.1126 95.4702 16.8709 95.4572 16.6298C95.4181 16.4464 95.3328 16.276 95.2096 16.1346C95.0681 16.0006 94.8806 15.9259 94.6857 15.9259C94.4909 15.9259 94.3034 16.0006 94.1619 16.1346C94.0298 16.2949 93.9619 16.4985 93.9714 16.706C93.9627 16.9583 94.0219 17.2083 94.1428 17.4299C94.2943 17.6433 94.4737 17.8355 94.6762 18.0014L95.743 18.9538C96.1018 19.2519 96.4105 19.6056 96.6573 20.0015C96.9189 20.4382 97.0511 20.9403 97.0383 21.4492C97.043 21.834 96.9513 22.2138 96.7716 22.5541C96.5879 22.8648 96.3249 23.1212 96.0096 23.297C95.6222 23.4953 95.1849 23.5749 94.7524 23.5256Z" fill="white"/>
<path d="M14.0797 80.5965H32.0239C32.0831 80.5966 32.1417 80.5847 32.1961 80.5615C32.2506 80.5383 32.2997 80.5043 32.3407 80.4615C32.3816 80.4188 32.4135 80.3683 32.4343 80.3129C32.4552 80.2575 32.4646 80.1985 32.4621 80.1394C32.4529 80.035 32.4131 79.9356 32.3478 79.8536L23.4519 68.4242V68.329C23.3701 68.2498 23.2608 68.2056 23.1471 68.2056C23.0333 68.2056 22.924 68.2498 22.8423 68.329H22.7471L14.0797 79.7584L13.9464 79.9298C13.9278 80.0049 13.9278 80.0833 13.9464 80.1584C13.926 80.2366 13.9277 80.319 13.9513 80.3963C13.9748 80.4736 14.0193 80.5429 14.0797 80.5965Z" fill="white"/>
<path d="M31.8907 82.2158H14.0036C13.8874 82.2158 13.776 82.262 13.6938 82.3441C13.6116 82.4263 13.5655 82.5378 13.5655 82.654V96.655C13.5655 96.7712 13.6116 96.8826 13.6938 96.9648C13.776 97.047 13.8874 97.0931 14.0036 97.0931H19.7183V88.2734C19.7183 88.1572 19.7645 88.0458 19.8466 87.9636C19.9288 87.8815 20.0402 87.8353 20.1564 87.8353H25.5473C25.662 87.84 25.7708 87.8876 25.8519 87.9688C25.9331 88.05 25.9808 88.1587 25.9854 88.2734V97.1312H31.8907C32.0069 97.1312 32.1183 97.0851 32.2005 97.0029C32.2826 96.9207 32.3288 96.8093 32.3288 96.6931V82.654C32.3288 82.5378 32.2826 82.4263 32.2005 82.3441C32.1183 82.262 32.0069 82.2158 31.8907 82.2158Z" fill="white"/>
<path d="M93.7429 78.5393H76.0272C75.9161 78.5393 75.8095 78.5834 75.7309 78.662C75.6523 78.7406 75.6082 78.8472 75.6082 78.9583V96.8454C75.6082 96.9565 75.6523 97.0631 75.7309 97.1417C75.8095 97.2203 75.9161 97.2645 76.0272 97.2645H93.7429C93.7995 97.267 93.856 97.2581 93.9091 97.2382C93.9621 97.2183 94.0106 97.1878 94.0516 97.1487C94.0925 97.1095 94.1251 97.0624 94.1474 97.0103C94.1696 96.9581 94.181 96.9021 94.181 96.8454V78.9583C94.181 78.9017 94.1696 78.8456 94.1474 78.7934C94.1251 78.7413 94.0925 78.6942 94.0516 78.6551C94.0106 78.6159 93.9621 78.5854 93.9091 78.5655C93.856 78.5456 93.7995 78.5367 93.7429 78.5393ZM84.0469 90.2163C84.0469 90.3275 84.0027 90.4341 83.9241 90.5126C83.8455 90.5912 83.739 90.6354 83.6278 90.6354H78.3322C78.2756 90.638 78.219 90.629 78.1659 90.6091C78.1129 90.5892 78.0644 90.5588 78.0234 90.5196C77.9825 90.4804 77.9499 90.4333 77.9277 90.3812C77.9054 90.3291 77.894 90.273 77.894 90.2163V86.997C77.894 86.9403 77.9054 86.8843 77.9277 86.8321C77.9499 86.78 77.9825 86.7329 78.0234 86.6937C78.0644 86.6546 78.1129 86.6241 78.1659 86.6042C78.219 86.5843 78.2756 86.5754 78.3322 86.5779H83.6278C83.739 86.5779 83.8455 86.6221 83.9241 86.7007C84.0027 86.7793 84.0469 86.8859 84.0469 86.997V90.2163ZM84.0469 84.273C84.0469 84.3842 84.0027 84.4908 83.9241 84.5693C83.8455 84.6479 83.739 84.6921 83.6278 84.6921H78.3322C78.2756 84.6947 78.219 84.6857 78.1659 84.6658C78.1129 84.6459 78.0644 84.6155 78.0234 84.5763C77.9825 84.5371 77.9499 84.49 77.9277 84.4379C77.9054 84.3858 77.894 84.3297 77.894 84.273V81.0537C77.894 80.9971 77.9054 80.941 77.9277 80.8888C77.9499 80.8367 77.9825 80.7896 78.0234 80.7504C78.0644 80.7113 78.1129 80.6808 78.1659 80.6609C78.219 80.641 78.2756 80.6321 78.3322 80.6346H83.6278C83.739 80.6346 83.8455 80.6788 83.9241 80.7574C84.0027 80.836 84.0469 80.9426 84.0469 81.0537V84.273ZM92.1427 90.2163C92.1428 90.273 92.1313 90.3291 92.1091 90.3812C92.0869 90.4333 92.0543 90.4804 92.0133 90.5196C91.9724 90.5588 91.9239 90.5892 91.8708 90.6091C91.8178 90.629 91.7612 90.638 91.7046 90.6354H86.409C86.2978 90.6354 86.1912 90.5912 86.1126 90.5126C86.034 90.4341 85.9899 90.3275 85.9899 90.2163V86.997C85.9899 86.8859 86.034 86.7793 86.1126 86.7007C86.1912 86.6221 86.2978 86.5779 86.409 86.5779H91.7046C91.7612 86.5754 91.8178 86.5843 91.8708 86.6042C91.9239 86.6241 91.9724 86.6546 92.0133 86.6937C92.0543 86.7329 92.0869 86.78 92.1091 86.8321C92.1313 86.8843 92.1428 86.9403 92.1427 86.997V90.2163ZM92.1427 84.273C92.1428 84.3297 92.1313 84.3858 92.1091 84.4379C92.0869 84.49 92.0543 84.5371 92.0133 84.5763C91.9724 84.6155 91.9239 84.6459 91.8708 84.6658C91.8178 84.6857 91.7612 84.6947 91.7046 84.6921H86.409C86.2978 84.6921 86.1912 84.6479 86.1126 84.5693C86.034 84.4908 85.9899 84.3842 85.9899 84.273V81.0537C85.9899 80.9426 86.034 80.836 86.1126 80.7574C86.1912 80.6788 86.2978 80.6346 86.409 80.6346H91.7046C91.7612 80.6321 91.8178 80.641 91.8708 80.6609C91.9239 80.6808 91.9724 80.7113 92.0133 80.7504C92.0543 80.7896 92.0869 80.8367 92.1091 80.8888C92.1313 80.941 92.1428 80.9971 92.1427 81.0537V84.273Z" fill="white"/>
<path d="M52.5779 37.0312H35.2432C35.1866 37.0286 35.1301 37.0376 35.077 37.0575C35.0239 37.0774 34.9755 37.1078 34.9345 37.147C34.8936 37.1862 34.861 37.2332 34.8387 37.2854C34.8165 37.3375 34.8051 37.3936 34.8051 37.4503V96.6928C34.8051 96.7495 34.8165 96.8056 34.8387 96.8577C34.861 96.9098 34.8936 96.9569 34.9345 96.9961C34.9755 97.0352 35.0239 97.0657 35.077 97.0856C35.1301 97.1055 35.1866 97.1145 35.2432 97.1119H52.5779C52.689 97.1119 52.7956 97.0677 52.8742 96.9891C52.9528 96.9105 52.997 96.8039 52.997 96.6928V37.4503C52.997 37.3391 52.9528 37.2325 52.8742 37.1539C52.7956 37.0753 52.689 37.0312 52.5779 37.0312ZM42.2533 90.3685C42.2533 90.4291 42.2292 90.4873 42.1863 90.5301C42.1435 90.573 42.0853 90.5971 42.0247 90.5971H38.0625C38.0019 90.5971 37.9437 90.573 37.9009 90.5301C37.858 90.4873 37.8339 90.4291 37.8339 90.3685V85.9491C37.8339 85.8885 37.858 85.8304 37.9009 85.7875C37.9437 85.7446 38.0019 85.7205 38.0625 85.7205H42.0247C42.0853 85.7205 42.1435 85.7446 42.1863 85.7875C42.2292 85.8304 42.2533 85.8885 42.2533 85.9491V90.3685ZM42.2533 80.2154C42.2533 80.276 42.2292 80.3341 42.1863 80.377C42.1435 80.4199 42.0853 80.444 42.0247 80.444H38.0625C38.0019 80.444 37.9437 80.4199 37.9009 80.377C37.858 80.3341 37.8339 80.276 37.8339 80.2154V75.777C37.8338 75.7478 37.8398 75.7189 37.8515 75.6921C37.8632 75.6654 37.8803 75.6413 37.9019 75.6216C37.9234 75.6019 37.9488 75.5869 37.9765 75.5775C38.0041 75.5682 38.0334 75.5648 38.0625 75.5674H42.0247C42.0538 75.5648 42.0831 75.5682 42.1108 75.5775C42.1384 75.5869 42.1638 75.6019 42.1853 75.6216C42.2069 75.6413 42.224 75.6654 42.2357 75.6921C42.2474 75.7189 42.2534 75.7478 42.2533 75.777V80.2154ZM42.2533 70.0432C42.2533 70.1038 42.2292 70.162 42.1863 70.2048C42.1435 70.2477 42.0853 70.2718 42.0247 70.2718H38.0625C38.0019 70.2718 37.9437 70.2477 37.9009 70.2048C37.858 70.162 37.8339 70.1038 37.8339 70.0432V65.6238C37.8339 65.5632 37.858 65.505 37.9009 65.4622C37.9437 65.4193 38.0019 65.3952 38.0625 65.3952H42.0247C42.0853 65.3952 42.1435 65.4193 42.1863 65.4622C42.2292 65.505 42.2533 65.5632 42.2533 65.6238V70.0432ZM42.2533 59.89C42.2533 59.9507 42.2292 60.0088 42.1863 60.0517C42.1435 60.0945 42.0853 60.1186 42.0247 60.1186H38.0625C38.0019 60.1186 37.9437 60.0945 37.9009 60.0517C37.858 60.0088 37.8339 59.9507 37.8339 59.89V55.4707C37.8339 55.41 37.858 55.3519 37.9009 55.309C37.9437 55.2662 38.0019 55.2421 38.0625 55.2421H42.0247C42.0853 55.2421 42.1435 55.2662 42.1863 55.309C42.2292 55.3519 42.2533 55.41 42.2533 55.4707V59.89ZM42.2533 49.7369C42.2533 49.7975 42.2292 49.8557 42.1863 49.8985C42.1435 49.9414 42.0853 49.9655 42.0247 49.9655H38.0625C38.0019 49.9655 37.9437 49.9414 37.9009 49.8985C37.858 49.8557 37.8339 49.7975 37.8339 49.7369V45.3175C37.8339 45.2569 37.858 45.1988 37.9009 45.1559C37.9437 45.113 38.0019 45.0889 38.0625 45.0889H42.0247C42.0853 45.0889 42.1435 45.113 42.1863 45.1559C42.2292 45.1988 42.2533 45.2569 42.2533 45.3175V49.7369ZM50.0444 90.3685C50.04 90.4277 50.0145 90.4833 49.9725 90.5253C49.9306 90.5672 49.8749 90.5927 49.8158 90.5971H45.8536C45.7929 90.5971 45.7348 90.573 45.6919 90.5301C45.6491 90.4873 45.625 90.4291 45.625 90.3685V85.9491C45.625 85.8885 45.6491 85.8304 45.6919 85.7875C45.7348 85.7446 45.7929 85.7205 45.8536 85.7205H49.8158C49.8764 85.7205 49.9345 85.7446 49.9774 85.7875C50.0203 85.8304 50.0444 85.8885 50.0444 85.9491V90.3685ZM50.0444 80.2154C50.04 80.2745 50.0145 80.3302 49.9725 80.3721C49.9306 80.4141 49.8749 80.4396 49.8158 80.444H45.8536C45.7929 80.444 45.7348 80.4199 45.6919 80.377C45.6491 80.3341 45.625 80.276 45.625 80.2154V75.777C45.6249 75.7478 45.6308 75.7189 45.6425 75.6921C45.6542 75.6654 45.6714 75.6413 45.6929 75.6216C45.7144 75.6019 45.7399 75.5869 45.7675 75.5775C45.7952 75.5682 45.8245 75.5648 45.8536 75.5674H49.8158C49.8732 75.5672 49.9287 75.5887 49.971 75.6275C50.0134 75.6663 50.0396 75.7197 50.0444 75.777V80.2154ZM50.0444 70.0432C50.0444 70.1038 50.0203 70.162 49.9774 70.2048C49.9345 70.2477 49.8764 70.2718 49.8158 70.2718H45.8536C45.7929 70.2718 45.7348 70.2477 45.6919 70.2048C45.6491 70.162 45.625 70.1038 45.625 70.0432V65.6238C45.625 65.5632 45.6491 65.505 45.6919 65.4622C45.7348 65.4193 45.7929 65.3952 45.8536 65.3952H49.8158C49.8749 65.3996 49.9306 65.4251 49.9725 65.4671C50.0145 65.509 50.04 65.5646 50.0444 65.6238V70.0432ZM50.0444 59.89C50.0444 59.9507 50.0203 60.0088 49.9774 60.0517C49.9345 60.0945 49.8764 60.1186 49.8158 60.1186H45.8536C45.7929 60.1186 45.7348 60.0945 45.6919 60.0517C45.6491 60.0088 45.625 59.9507 45.625 59.89V55.4707C45.625 55.41 45.6491 55.3519 45.6919 55.309C45.7348 55.2662 45.7929 55.2421 45.8536 55.2421H49.8158C49.8764 55.2421 49.9345 55.2662 49.9774 55.309C50.0203 55.3519 50.0444 55.41 50.0444 55.4707V59.89ZM50.0444 49.7369C50.04 49.7961 50.0145 49.8517 49.9725 49.8936C49.9306 49.9356 49.8749 49.9611 49.8158 49.9655H45.8536C45.7929 49.9655 45.7348 49.9414 45.6919 49.8985C45.6491 49.8557 45.625 49.7975 45.625 49.7369V45.3175C45.625 45.2569 45.6491 45.1988 45.6919 45.1559C45.7348 45.113 45.7929 45.0889 45.8536 45.0889H49.8158C49.8764 45.0889 49.9345 45.113 49.9774 45.1559C50.0203 45.1988 50.0444 45.2569 50.0444 45.3175V49.7369Z" fill="white"/>
<path d="M93.8 72.8245H75.9891C75.7893 72.8245 75.6272 72.9865 75.6272 73.1864V76.7486C75.6272 76.9485 75.7893 77.1105 75.9891 77.1105H93.8C93.9999 77.1105 94.1619 76.9485 94.1619 76.7486V73.1864C94.1619 72.9865 93.9999 72.8245 93.8 72.8245Z" fill="white"/>
<path d="M73.5128 48.213C73.4849 48.1171 73.4276 48.0325 73.349 47.9709C73.2704 47.9094 73.1744 47.8741 73.0747 47.8701C72.9837 47.8728 72.8963 47.9064 72.827 47.9654L72.6937 48.1559L55.6067 69.7765V69.8908C55.5579 69.9293 55.5187 69.9785 55.4922 70.0347C55.4658 70.0909 55.4528 70.1525 55.4543 70.2146V96.8833C55.4542 96.94 55.4657 96.9961 55.4879 97.0482C55.5102 97.1003 55.5427 97.1474 55.5837 97.1866C55.6246 97.2258 55.6731 97.2562 55.7262 97.2761C55.7792 97.296 55.8358 97.305 55.8924 97.3024H73.208C73.3191 97.3024 73.4257 97.2582 73.5043 97.1796C73.5829 97.101 73.6271 96.9945 73.6271 96.8833V48.3844C73.6001 48.3206 73.5613 48.2625 73.5128 48.213ZM66.3122 59.9472L66.4456 59.7948C67.6076 58.2899 69.5696 55.985 70.5221 54.7087L70.6554 54.5563C70.7017 54.5007 70.7601 54.4563 70.8261 54.4266C70.8921 54.3969 70.9641 54.3826 71.0364 54.3849C71.146 54.3893 71.2514 54.4286 71.3371 54.4972C71.4228 54.5657 71.4843 54.6599 71.5126 54.7659V60.2329C71.5127 60.3611 71.4632 60.4842 71.3744 60.5766C71.2856 60.6689 71.1644 60.7233 71.0364 60.7282H66.7123C66.5842 60.7233 66.4631 60.6689 66.3743 60.5766C66.2855 60.4842 66.236 60.3611 66.236 60.2329C66.2329 60.1323 66.2594 60.0329 66.3122 59.9472ZM63.6454 90.2161C63.6454 90.2728 63.634 90.3289 63.6118 90.381C63.5895 90.4332 63.5569 90.4802 63.516 90.5194C63.475 90.5586 63.4265 90.5891 63.3735 90.609C63.3204 90.6289 63.2639 90.6378 63.2072 90.6352H58.045C57.9338 90.6352 57.8272 90.5911 57.7486 90.5125C57.67 90.4339 57.6259 90.3273 57.6259 90.2161V86.9778C57.6259 86.8667 57.67 86.7601 57.7486 86.6815C57.8272 86.6029 57.9338 86.5587 58.045 86.5587H63.2072C63.2639 86.5562 63.3204 86.5651 63.3735 86.585C63.4265 86.6049 63.475 86.6354 63.516 86.6745C63.5569 86.7137 63.5895 86.7608 63.6118 86.8129C63.634 86.865 63.6454 86.9211 63.6454 86.9778V90.2161ZM63.6454 84.2347C63.6454 84.3509 63.5992 84.4624 63.5171 84.5445C63.4349 84.6267 63.3234 84.6729 63.2072 84.6729H58.045C57.9883 84.6729 57.9322 84.6615 57.8801 84.6393C57.8279 84.617 57.7809 84.5844 57.7417 84.5435C57.7025 84.5025 57.672 84.454 57.6521 84.401C57.6322 84.3479 57.6233 84.2914 57.6259 84.2347V81.0155C57.6233 80.9588 57.6322 80.9023 57.6521 80.8492C57.672 80.7962 57.7025 80.7477 57.7417 80.7067C57.7809 80.6658 57.8279 80.6332 57.8801 80.6109C57.9322 80.5887 57.9883 80.5773 58.045 80.5773H63.2072C63.3234 80.5773 63.4349 80.6235 63.5171 80.7057C63.5992 80.7878 63.6454 80.8993 63.6454 81.0155V84.2347ZM63.6454 78.2724C63.6454 78.3291 63.634 78.3852 63.6118 78.4373C63.5895 78.4894 63.5569 78.5365 63.516 78.5757C63.475 78.6148 63.4265 78.6453 63.3735 78.6652C63.3204 78.6851 63.2639 78.694 63.2072 78.6915H58.045C57.9338 78.6915 57.8272 78.6473 57.7486 78.5687C57.67 78.4901 57.6259 78.3835 57.6259 78.2724V75.0341C57.6259 74.9229 57.67 74.8163 57.7486 74.7377C57.8272 74.6591 57.9338 74.615 58.045 74.615H63.2072C63.2639 74.6124 63.3204 74.6213 63.3735 74.6412C63.4265 74.6611 63.475 74.6916 63.516 74.7308C63.5569 74.77 63.5895 74.817 63.6118 74.8692C63.634 74.9213 63.6454 74.9774 63.6454 75.0341V78.2724ZM63.6454 65.1667V72.3672C63.6454 72.4783 63.6012 72.5849 63.5226 72.6635C63.444 72.7421 63.3374 72.7863 63.2263 72.7863H58.064C57.9529 72.7863 57.8463 72.7421 57.7677 72.6635C57.6891 72.5849 57.6449 72.4783 57.6449 72.3672V71.4719C57.6341 71.4217 57.6341 71.3697 57.6449 71.3195C58.3116 70.367 61.2833 66.6906 62.5405 65.1667L62.6739 65.0143C62.7309 64.9436 62.807 64.8908 62.8931 64.8619C62.9792 64.8331 63.0718 64.8295 63.1598 64.8515C63.2479 64.8735 63.3279 64.9203 63.3903 64.9862C63.4527 65.0522 63.4949 65.1346 63.512 65.2238L63.6454 65.1667ZM71.5317 90.2161C71.5317 90.3273 71.4875 90.4339 71.4089 90.5125C71.3303 90.5911 71.2238 90.6352 71.1126 90.6352H65.9503C65.8392 90.6352 65.7326 90.5911 65.654 90.5125C65.5754 90.4339 65.5312 90.3273 65.5312 90.2161V86.9778C65.5312 86.8667 65.5754 86.7601 65.654 86.6815C65.7326 86.6029 65.8392 86.5587 65.9503 86.5587H71.1126C71.2238 86.5587 71.3303 86.6029 71.4089 86.6815C71.4875 86.7601 71.5317 86.8667 71.5317 86.9778V90.2161ZM71.5317 84.2347C71.5343 84.2914 71.5253 84.3479 71.5054 84.401C71.4855 84.454 71.4551 84.5025 71.4159 84.5435C71.3767 84.5844 71.3296 84.617 71.2775 84.6393C71.2254 84.6615 71.1693 84.6729 71.1126 84.6729H65.9503C65.8936 84.6729 65.8375 84.6615 65.7854 84.6393C65.7333 84.617 65.6862 84.5844 65.647 84.5435C65.6079 84.5025 65.5774 84.454 65.5575 84.401C65.5376 84.3479 65.5287 84.2914 65.5312 84.2347V81.0155C65.5287 80.9588 65.5376 80.9023 65.5575 80.8492C65.5774 80.7962 65.6079 80.7477 65.647 80.7067C65.6862 80.6658 65.7333 80.6332 65.7854 80.6109C65.8375 80.5887 65.8936 80.5773 65.9503 80.5773H71.1126C71.1693 80.5773 71.2254 80.5887 71.2775 80.6109C71.3296 80.6332 71.3767 80.6658 71.4159 80.7067C71.4551 80.7477 71.4855 80.7962 71.5054 80.8492C71.5253 80.9023 71.5343 80.9588 71.5317 81.0155V84.2347ZM71.5317 78.2724C71.5317 78.3835 71.4875 78.4901 71.4089 78.5687C71.3303 78.6473 71.2238 78.6915 71.1126 78.6915H65.9503C65.8392 78.6915 65.7326 78.6473 65.654 78.5687C65.5754 78.4901 65.5312 78.3835 65.5312 78.2724V75.0341C65.5285 74.9783 65.5375 74.9226 65.5576 74.8705C65.5777 74.8184 65.6085 74.7711 65.6479 74.7317C65.6874 74.6922 65.7347 74.6614 65.7868 74.6413C65.8389 74.6212 65.8946 74.6123 65.9503 74.615H71.1126C71.2238 74.615 71.3303 74.6591 71.4089 74.7377C71.4875 74.8163 71.5317 74.9229 71.5317 75.0341V78.2724ZM71.5317 72.291C71.5317 72.4021 71.4875 72.5087 71.4089 72.5873C71.3303 72.6659 71.2238 72.7101 71.1126 72.7101H65.9503C65.8392 72.7101 65.7326 72.6659 65.654 72.5873C65.5754 72.5087 65.5312 72.4021 65.5312 72.291V69.0527C65.5312 68.9415 65.5754 68.8349 65.654 68.7563C65.7326 68.6777 65.8392 68.6336 65.9503 68.6336H71.1126C71.2238 68.6336 71.3303 68.6777 71.4089 68.7563C71.4875 68.8349 71.5317 68.9415 71.5317 69.0527V72.291ZM71.5317 66.3096C71.5317 66.4207 71.4875 66.5273 71.4089 66.6059C71.3303 66.6845 71.2238 66.7287 71.1126 66.7287H65.9503C65.8392 66.7287 65.7326 66.6845 65.654 66.6059C65.5754 66.5273 65.5312 66.4207 65.5312 66.3096V63.0713C65.5312 62.9601 65.5754 62.8535 65.654 62.7749C65.7326 62.6963 65.8392 62.6522 65.9503 62.6522H71.1126C71.2238 62.6522 71.3303 62.6963 71.4089 62.7749C71.4875 62.8535 71.5317 62.9601 71.5317 63.0713V66.3096Z" fill="white"/>
</svg>
