<svg width="51" height="51" viewBox="0 0 51 51" fill="none" xmlns="http://www.w3.org/2000/svg">
<path d="M26.7292 50.3138C25.681 50.3138 24.6328 50.3138 23.5846 50.3138C23.4798 50.2876 23.375 50.2352 23.257 50.2352C21.1213 50.078 19.038 49.6849 17.0333 48.9512C7.90084 45.5576 2.35846 39.0849 0.393077 29.5332C0.209641 28.6029 0.131026 27.6595 0 26.7292C0 25.681 0 24.6328 0 23.5846C0.131026 22.6674 0.222743 21.7371 0.379974 20.82C2.13572 10.6393 10.1152 2.45018 20.2434 0.497897C21.3834 0.275154 22.5364 0.170333 23.6894 0C24.7114 0 25.7203 0 26.7423 0C26.8733 0.0262051 26.9913 0.0655128 27.1223 0.0786153C30.8958 0.366872 34.4597 1.41508 37.7092 3.35425C44.4046 7.33743 48.5057 13.155 49.9469 20.82C50.1173 21.7371 50.209 22.6674 50.3269 23.5846C50.3269 24.6066 50.3269 25.6155 50.3269 26.6375C50.3007 26.7947 50.2614 26.952 50.2483 27.1092C50.1173 28.0919 50.0256 29.0877 49.8421 30.0704C47.8898 40.1986 39.6876 48.2043 29.507 49.9338C28.5767 50.078 27.6464 50.1828 26.7292 50.3138ZM27.4499 27.2926C27.3843 27.2402 27.3188 27.1878 27.2533 27.1485C27.2533 26.952 27.2533 26.7685 27.2533 26.572C27.2533 20.7938 27.2533 15.0155 27.2533 9.2373C27.2533 9.02766 27.2533 8.80492 27.2402 8.59528C27.1485 7.31123 25.8906 6.42025 24.6459 6.74782C23.637 7.02297 23.0736 7.80912 23.0736 9.00146C23.0736 14.8845 23.0736 20.7544 23.0736 26.6375C23.0736 26.8209 23.0736 27.0044 23.0736 27.2009C23.0212 27.2271 22.9557 27.2664 22.9033 27.2926C22.7984 27.1485 22.7067 26.9913 22.5888 26.8602C21.1868 25.4583 19.798 24.0432 18.3829 22.6543C17.5181 21.8158 16.2472 21.8289 15.4217 22.6543C14.6093 23.4667 14.5831 24.7638 15.4217 25.6155C18.1601 28.367 20.8986 31.1055 23.6501 33.8439C24.528 34.7218 25.7596 34.7218 26.6375 33.8439C29.3759 31.1186 32.1144 28.3932 34.8135 25.6286C35.1411 25.2879 35.3638 24.7638 35.4293 24.2921C35.5734 23.4405 35.0493 22.6281 34.2763 22.2481C33.4639 21.8551 32.5598 21.9992 31.8785 22.6674C30.4765 24.0432 29.1008 25.4452 27.7119 26.834C27.6071 26.9651 27.5416 27.1354 27.4499 27.2926ZM25.1176 41.3648C27.856 41.3648 30.5814 41.3779 33.3198 41.3648C34.5907 41.3648 35.4948 40.4607 35.4948 39.2553C35.4948 38.0498 34.5776 37.172 33.3067 37.1589C32.3895 37.1457 31.4723 37.1589 30.5552 37.1589C26.0741 37.1589 21.5799 37.1589 17.0988 37.1589C16.1161 37.1589 15.3693 37.5388 14.9762 38.456C14.3604 39.858 15.4086 41.3517 17.0071 41.3648C19.7062 41.3779 22.4054 41.3648 25.1176 41.3648Z" fill="#9575CD"/>
</svg>
