<svg width="40" height="31" viewBox="0 0 40 31" fill="none" xmlns="http://www.w3.org/2000/svg">
<path d="M39.6 13.8C39.6 13.9 39.5 13.9 39.5 14C39.2 14.5 38.7 14.8 38.2 14.7C37.6 14.6 37.3 14.1 37.3 13.5C37.3 12.9 37.3 12.4 37.3 11.7C37.1 11.9 37 12 36.9 12.1C32.9 16.1 28.9 20.1 24.8 24.2C24 25 23.5 25 22.7 24.2C21.8 23.3 20.9 22.4 19.9 21.4C19.8 21.5 19.7 21.6 19.6 21.7C17 24.3 14.4 26.9 11.8 29.5C11.3 30 10.8 30.2 10.2 30.2C7.19999 30.2 4.29999 30.2 1.29999 30.2C0.399987 30.2 -0.200013 29.2999 0.199987 28.5C0.399987 28 0.899987 27.7999 1.39999 27.7999C4.19999 27.7999 6.89999 27.7999 9.69999 27.7999C10.1 27.7999 10.3 27.7 10.6 27.4C13.4 24.6 16.2 21.8 19 19C19.7 18.3 20.3 18.3 21 19C21.9 19.9 22.9 20.9 23.8 21.8C27.7 17.9 31.7 13.9 35.6 9.99995C35.1 9.99995 34.5 9.99995 34 9.99995C33.6 9.99995 33.2 9.79995 32.9 9.49995C32.4 8.79995 32.9 7.69995 33.8 7.69995C35.4 7.69995 36.9 7.69995 38.5 7.69995C39.1 7.69995 39.4 8.09995 39.6 8.49995C39.6 10.3 39.6 12.1 39.6 13.8Z" fill="white"/>
<path d="M0 25.5C0 23.1 0 20.6 0.2 18.2C0.4 16.2 1.5 14.7 3.2 13.5C4.4 14.3 5.7 14.7 7.1 14.7C8.5 14.7 9.8 14.3 10.9 13.5C12.6 14.7 13.6 16.3 13.9 18.3C14 19 14 19.8 14 20.5C14 20.6 13.9 20.8 13.8 20.9C12.3 22.4 10.9 23.9 9.4 25.3C9.3 25.4 9.2 25.5 9 25.5C6.1 25.5 3.1 25.5 0.2 25.5C0.2 25.5 0.1 25.5 0 25.5Z" fill="white"/>
<path d="M23.2 0C25.8 0 27.8 2.1 27.8 4.6C27.8 7.2 25.7 9.2 23.2 9.2C20.7 9.2 18.6 7.1 18.6 4.6C18.6 2.1 20.7 0 23.2 0Z" fill="white"/>
<path d="M6.99999 3.1001C9.59999 3.1001 11.6 5.2001 11.6 7.7001C11.6 10.3001 9.49999 12.3001 6.89999 12.3001C4.39999 12.3001 2.29999 10.2001 2.29999 7.7001C2.39999 5.2001 4.49999 3.1001 6.99999 3.1001Z" fill="white"/>
<path d="M23.7 18.5999C23.3 18.1999 22.9 17.7999 22.5 17.2999C21 15.7999 18.9 15.7999 17.4 17.2999C17.1 17.5999 16.7 17.9999 16.4 18.2999C16.4 16.7999 16.2 15.2999 16.7 13.8999C17.2 12.4999 18.1 11.2999 19.4 10.3999C20.6 11.1999 21.9 11.5999 23.3 11.5999C24.7 11.5999 26 11.1999 27.1 10.3999C28.1 11.0999 28.9 11.8999 29.4 12.8999C27.5 14.7999 25.6 16.6999 23.7 18.5999Z" fill="white"/>
</svg>
