<svg width="21" height="15" viewBox="0 0 21 15" fill="none" xmlns="http://www.w3.org/2000/svg">
<path d="M0 1.02676C0.102681 1.12945 0.102681 1.12945 0.205362 1.12945C2.46435 3.18307 4.72333 5.13401 6.98232 7.18763L7.085 7.29031C6.77695 7.59836 6.46891 7.80372 6.16087 8.11176C4.20993 9.85734 2.1563 11.7056 0.205362 13.4512C0.205362 13.4512 0.102681 13.5539 0 13.5539C0 9.44662 0 5.23669 0 1.02676Z" fill="#00B0EB"/>
<path d="M10.2681 8.11181C7.29036 5.4421 4.31261 2.66971 1.23218 0C7.29037 0 13.2459 0 19.3041 0C16.2236 2.77239 13.2459 5.4421 10.2681 8.11181Z" fill="#00B0EB"/>
<path d="M1.23218 14.6833C3.59384 12.527 5.95551 10.4734 8.2145 8.4198C8.93326 9.03589 9.54935 9.65197 10.2681 10.2681C10.9869 9.65197 11.603 9.03589 12.3217 8.4198C14.6834 10.4734 16.9424 12.6297 19.3041 14.6833C13.2459 14.6833 7.29037 14.6833 1.23218 14.6833Z" fill="#00B0EB"/>
<path d="M20.4336 1.02676C20.4336 5.23669 20.4336 9.44662 20.4336 13.6565C18.0719 11.5002 15.7102 9.44662 13.4512 7.29031C15.7102 5.23669 18.0719 3.18307 20.4336 1.02676Z" fill="#00B0EB"/>
</svg>
