<svg width="36" height="36" viewBox="0 0 36 36" fill="none" xmlns="http://www.w3.org/2000/svg">
<path d="M18.7 0C18.7 0.7 18.7 1.4 18.7 2.1C18.7 2.3 18.6999 2.4 18.9 2.5C19.6 2.8 20.1 3.3 20.4 4C20.5 4.2 20.5999 4.2 20.7999 4.2C21.9 4.2 22.9 4.2 24 4.2C24.2999 4.2 24.5 4.3 24.6 4.5C26.2 7 29.6 6.6 31 5C31.2999 4.7 31.5 4.2 31.7999 3.8C32.3999 4.1 32.9 4.5 33.5 4.8C32.7 6.5 31.4 7.5 29.7 8C29.8 8.1 29.7999 8.2 29.9 8.4C31.6 11.3 33.3999 14.1 35.0999 17C35.1999 17.2 35.2999 17.4 35.2999 17.6C35.2999 21.4 32.2999 24.5 28.5 24.8C24.9 25.1 21.5 22.5 20.9 18.9C20.9 18.7 20.7999 18.4 20.7999 18.2C20.6999 17.7 20.8 17.2 21.1 16.7C22.8 13.9 24.4 11.2 26.1 8.4C26.2 8.3 26.1999 8.2 26.2999 8.1C25.7999 7.8 25.1999 7.6 24.7999 7.3C24.4 7 24 6.7 23.6 6.3C23.5 6.2 23.4 6.1 23.2999 6.1C22.4 6.1 21.6 6.1 20.7 6.1C20.3 7 19.6999 7.6 18.7999 8C18.7999 14.9 18.7999 21.9 18.7999 28.9C21.5 28.9 24.3 28.9 27.1 28.9C27.1 30.3 27.1 31.7 27.1 33.1C27.8 33.1 28.5 33.1 29.1 33.1C29.1 33.8 29.1 34.5 29.1 35.2C21.5 35.2 14 35.2 6.39995 35.2C6.39995 34.5 6.39995 33.9 6.39995 33.2C7.09995 33.2 7.69995 33.2 8.39995 33.2C8.39995 31.8 8.39995 30.4 8.39995 29C11.2 29 13.9 29 16.7 29C16.7 28.8 16.7 28.7 16.7 28.6C16.7 21.9 16.7 15.2 16.7 8.5C16.7 8.2 16.6 8.1 16.4 8C15.7 7.7 15.2 7.2 14.9 6.5C14.8 6.3 14.7 6.3 14.5 6.3C13.8 6.3 13 6.3 12.3 6.3C12.2 6.3 12 6.4 11.9 6.4C11.2 7.2 10.3 7.7 9.19995 8C9.19995 8 9.09995 8 9.09995 8.1C9.19995 8.2 9.19995 8.3 9.29995 8.4C11 11.3 12.8 14.1 14.5 17C14.6 17.2 14.7 17.4 14.7 17.6C14.7 21.4 11.8 24.5 7.99995 24.8C4.39995 25.1 0.999951 22.5 0.299951 18.9C0.299951 18.7 0.199951 18.5 0.199951 18.3C0.199951 18 0.199951 17.6 0.199951 17.3C0.299951 17.2 0.299951 17.2 0.399951 17.1C2.19995 14.2 3.89995 11.3 5.69995 8.4C5.69995 8.3 5.79995 8.2 5.79995 8.1C4.09995 7.6 2.79995 6.5 1.99995 4.9C2.59995 4.6 3.19995 4.2 3.69995 3.9C3.79995 4.3 3.99995 4.7 4.29995 5C5.69995 6.6 9.09995 6.9 10.6 4.5C10.8 4.2 10.9 4.2 11.2 4.2C12.3 4.2 13.3 4.2 14.4 4.2C14.6 4.2 14.7 4.1 14.8 4C15.1 3.3 15.5999 2.8 16.2999 2.5C16.5 2.4 16.6 2.3 16.6 2.1C16.6 1.4 16.6 0.7 16.6 0.1C17.3 0 18 0 18.7 0ZM11.7 16.6C10.2 14.2 8.79995 11.8 7.29995 9.3C5.79995 11.8 4.39995 14.2 2.89995 16.6C5.89995 16.6 8.69995 16.6 11.7 16.6ZM32.4 16.6C30.9 14.2 29.5 11.8 28 9.3C26.5 11.8 25.1 14.2 23.6 16.6C26.6 16.6 29.4 16.6 32.4 16.6Z" fill="white"/>
</svg>
