<svg width="169" height="99" viewBox="0 0 169 99" fill="none" xmlns="http://www.w3.org/2000/svg">
<path d="M95.7105 70.6721H98.9135V59.1889H95.7105V57.7113H103.971V59.1889H100.768V70.6721H103.971V72.1919H95.7105V70.6721Z" fill="#003548"/>
<path d="M115.856 59.8644L113.453 67.9702H111.515L109.155 59.9488V72.1919H107.427V57.6691H110.082L112.526 65.9859L114.928 57.6691H117.584V72.1919H115.856V59.8644Z" fill="#003548"/>
<path d="M126.055 57.6691C126.771 57.6691 127.445 57.7535 128.078 57.9646C128.668 58.1757 129.173 58.4712 129.595 58.809C130.016 59.1889 130.353 59.6111 130.564 60.1599C130.775 60.7088 130.901 61.2998 130.901 61.9753C130.901 62.6508 130.817 63.284 130.564 63.7906C130.353 64.3395 130.016 64.7616 129.595 65.1416C129.173 65.5215 128.668 65.8171 128.078 65.9859C127.488 66.1548 126.813 66.2815 126.055 66.2815H122.599V72.1919H120.787V57.6691H126.055ZM122.599 64.5928H125.928C126.897 64.5928 127.656 64.3817 128.204 63.9173C128.752 63.4951 129.005 62.8196 129.005 61.9331C129.005 61.0465 128.752 60.371 128.204 59.9066C127.656 59.4844 126.897 59.2734 125.928 59.2734H122.599V64.5928Z" fill="#003548"/>
<path d="M140.595 68.0968H135.074L133.809 72.1919H131.955L136.675 57.6691H139.077L143.798 72.1919H141.901L140.595 68.0968ZM135.579 66.3659H140.004L137.771 59.2734L135.579 66.3659Z" fill="#003548"/>
<path d="M155.977 67.548C155.977 68.2657 155.809 68.9412 155.514 69.5322C155.219 70.1232 154.839 70.6721 154.376 71.0942C153.912 71.5164 153.364 71.8542 152.774 72.1075C152.142 72.3608 151.468 72.4874 150.751 72.4874C149.276 72.4874 148.012 71.9808 147.001 71.0098C146.579 70.6299 146.284 70.1655 146.031 69.7011C145.778 69.2367 145.61 68.7301 145.483 68.1812C145.357 67.6746 145.273 67.1258 145.273 66.577C145.23 66.0282 145.23 65.4793 145.23 64.9727C145.23 64.4239 145.23 63.9173 145.273 63.3685C145.273 62.8196 145.357 62.2708 145.483 61.7642C145.568 61.2576 145.778 60.751 146.031 60.2866C146.242 59.8222 146.579 59.3578 147.001 58.9778C148.054 57.9646 149.276 57.458 150.794 57.458C151.468 57.458 152.142 57.5847 152.774 57.7957C153.406 58.0068 153.912 58.3446 154.376 58.7667C154.839 59.1889 155.219 59.6955 155.514 60.2866C155.767 60.8776 155.935 61.5531 155.977 62.2708H154.123C154.123 61.8486 153.997 61.4265 153.828 61.0465C153.659 60.6665 153.406 60.371 153.154 60.0755C152.859 59.8222 152.521 59.5689 152.142 59.4C151.763 59.2734 151.299 59.1889 150.794 59.1889C149.824 59.1889 149.023 59.5267 148.349 60.2444C148.054 60.5399 147.801 60.9198 147.675 61.2998C147.506 61.6798 147.38 62.0597 147.338 62.4819C147.253 62.9041 147.211 63.3262 147.211 63.7484C147.211 64.1706 147.211 64.5928 147.211 65.0149C147.211 65.3949 147.211 65.8171 147.211 66.2815C147.211 66.7036 147.253 67.1258 147.338 67.548C147.38 67.9702 147.506 68.3501 147.675 68.7723C147.801 69.1522 148.054 69.49 148.349 69.8277C149.023 70.5032 149.824 70.8832 150.794 70.8832C151.257 70.8832 151.721 70.7987 152.142 70.6299C152.521 70.461 152.859 70.2499 153.196 69.9544C153.491 69.6589 153.702 69.3211 153.87 68.9412C154.039 68.5612 154.123 68.139 154.165 67.6746H155.977V67.548Z" fill="#003548"/>
<path d="M164.111 72.1919H162.257V59.3578H157.368V57.6691H169V59.3578H164.111V72.1919Z" fill="#003548"/>
<path d="M97.5648 89.9233H104.224V91.6542H97.5648V98.029H95.7526V83.5062H105.446V85.1949H97.5648V89.9233Z" fill="#003548"/>
<path d="M117.963 90.7676C117.963 91.3586 117.963 91.9075 117.921 92.4563C117.879 93.0051 117.794 93.554 117.668 94.0606C117.541 94.5672 117.373 95.0738 117.12 95.5382C116.909 96.0026 116.572 96.4247 116.193 96.8047C115.687 97.3113 115.097 97.6913 114.507 97.9446C113.875 98.1979 113.201 98.3245 112.484 98.3245C111.768 98.3245 111.093 98.1979 110.461 97.9446C109.829 97.7335 109.239 97.3113 108.733 96.8047C108.354 96.4247 108.017 96.0026 107.806 95.5382C107.595 95.0738 107.385 94.5672 107.258 94.0606C107.132 93.554 107.047 93.0051 107.047 92.4563C107.005 91.9075 107.005 91.3164 107.005 90.7676C107.005 90.1766 107.005 89.6277 107.047 89.0789C107.047 88.5301 107.132 87.9812 107.258 87.4746C107.385 86.968 107.553 86.5036 107.806 86.0392C108.017 85.5748 108.354 85.1527 108.733 84.7727C109.239 84.2661 109.829 83.8862 110.461 83.6328C111.093 83.4218 111.768 83.2951 112.484 83.2951C113.201 83.2951 113.875 83.4218 114.507 83.6328C115.139 83.8862 115.687 84.2661 116.193 84.7727C116.572 85.1527 116.909 85.5748 117.12 86.0392C117.331 86.5036 117.541 86.968 117.668 87.4746C117.794 87.9812 117.879 88.5301 117.921 89.0789C117.963 89.6277 117.963 90.2188 117.963 90.7676ZM116.108 90.6409C116.108 90.261 116.108 89.881 116.108 89.4589C116.108 89.0367 116.066 88.6145 115.982 88.1923C115.94 87.7702 115.813 87.3902 115.645 87.0102C115.476 86.6303 115.266 86.2925 114.971 85.997C114.633 85.6593 114.254 85.3638 113.833 85.2371C113.411 85.1105 112.99 85.026 112.484 85.026C112.02 85.026 111.557 85.1105 111.178 85.2793C110.756 85.4482 110.377 85.7015 110.04 86.0392C109.745 86.3348 109.534 86.6725 109.365 87.0525C109.197 87.4324 109.07 87.8124 109.028 88.2345C108.986 88.6567 108.944 89.0367 108.902 89.5011C108.902 89.9232 108.902 90.3032 108.902 90.6832V90.9787C108.902 91.3586 108.902 91.7386 108.902 92.1608C108.902 92.583 108.944 93.0051 109.028 93.4273C109.07 93.8495 109.197 94.2294 109.365 94.6094C109.492 94.9893 109.745 95.3271 110.04 95.6226C110.377 95.9603 110.756 96.2559 111.178 96.3825C111.557 96.5514 112.02 96.6358 112.484 96.6358C112.948 96.6358 113.411 96.5514 113.833 96.3825C114.212 96.2559 114.591 95.9603 114.971 95.6226C115.266 95.3271 115.476 94.9893 115.645 94.6094C115.771 94.2294 115.898 93.8495 115.982 93.4273C116.024 93.0051 116.066 92.6252 116.108 92.1608C116.108 91.7386 116.108 91.3586 116.108 90.9787V90.6409Z" fill="#003548"/>
<path d="M125.549 91.9919H122.557V98.029H120.744V83.5062H125.591C126.307 83.5062 126.982 83.5906 127.614 83.8017C128.204 83.9706 128.71 84.2661 129.131 84.6461C129.553 85.026 129.89 85.4482 130.1 85.997C130.311 86.5459 130.438 87.1369 130.438 87.7702C130.438 88.6989 130.185 89.5011 129.679 90.2188C129.173 90.9365 128.373 91.4431 127.403 91.6964L130.522 98.0712H128.499L125.549 91.9919ZM128.541 87.7702C128.541 87.3058 128.457 86.9258 128.33 86.5881C128.204 86.2926 127.951 85.997 127.698 85.8282C127.445 85.6171 127.108 85.4904 126.729 85.3638C126.35 85.2793 125.97 85.2371 125.549 85.2371H122.557V90.3454H125.549C125.97 90.3454 126.35 90.3032 126.729 90.2188C127.108 90.1343 127.403 90.0077 127.698 89.7966C127.951 89.5855 128.204 89.3322 128.33 88.9945C128.457 88.6145 128.541 88.2345 128.541 87.7702Z" fill="#003548"/>
<path d="M143.334 93.3851C143.334 94.1028 143.165 94.7783 142.87 95.3693C142.575 95.9603 142.196 96.5092 141.732 96.9314C141.269 97.3535 140.721 97.6913 140.131 97.9446C139.499 98.1979 138.824 98.3245 138.108 98.3245C136.633 98.3245 135.369 97.8179 134.357 96.8469C133.936 96.467 133.641 96.0026 133.388 95.5382C133.135 95.0738 132.966 94.5672 132.84 94.0183C132.713 93.5117 132.629 92.9629 132.629 92.4141C132.587 91.8652 132.587 91.3164 132.587 90.8098C132.587 90.261 132.587 89.7544 132.629 89.2056C132.629 88.6567 132.713 88.1079 132.84 87.6013C132.924 87.0947 133.135 86.5881 133.388 86.1237C133.599 85.6593 133.936 85.1949 134.357 84.8149C135.411 83.8017 136.633 83.2951 138.15 83.2951C138.824 83.2951 139.499 83.4218 140.131 83.6328C140.763 83.8439 141.269 84.1817 141.732 84.6038C142.196 85.026 142.575 85.5326 142.87 86.1237C143.123 86.7147 143.292 87.3902 143.334 88.1079H141.48C141.48 87.6857 141.353 87.2635 141.185 86.8836C141.016 86.5036 140.763 86.2081 140.51 85.9126C140.215 85.6593 139.878 85.406 139.499 85.2371C139.119 85.1105 138.656 85.026 138.15 85.026C137.181 85.026 136.38 85.3638 135.706 86.0815C135.411 86.377 135.158 86.7569 135.031 87.1369C134.863 87.5168 134.736 87.8968 134.694 88.319C134.61 88.7412 134.568 89.1633 134.568 89.5855C134.568 90.0077 134.568 90.4299 134.568 90.852C134.568 91.232 134.568 91.6542 134.568 92.1186C134.568 92.5407 134.61 92.9629 134.694 93.3851C134.736 93.8073 134.863 94.1872 135.031 94.6094C135.158 94.9893 135.411 95.3271 135.706 95.6648C136.38 96.3403 137.181 96.7203 138.15 96.7203C138.614 96.7203 139.077 96.6358 139.499 96.467C139.878 96.2981 140.215 96.087 140.552 95.7915C140.847 95.496 141.058 95.1582 141.227 94.7783C141.395 94.3983 141.48 93.9761 141.522 93.5117H143.334V93.3851Z" fill="#003548"/>
<path d="M146.326 83.5062H155.64V85.1949H148.138V89.7122H154.039V91.4431H148.138V96.3403H155.64V98.029H146.326V83.5062Z" fill="#003548"/>
<path d="M10.6626 21.4887C16.5628 21.4887 21.4516 16.7181 21.4516 10.8077C21.4095 4.89723 16.5207 0 10.6626 0C4.80449 0 0 4.89723 0 10.8077C0 16.7181 4.76234 21.4887 10.6626 21.4887ZM2.44439 99H18.8387V25.9638H2.44439V99ZM33.4628 99H49.8571V73.1629H67.9372V56.6981H49.8571V42.3019H84.5843V25.9638H33.4628V99Z" fill="#00B0EB"/>
</svg>
