<svg width="290" height="169" viewBox="0 0 290 169" fill="none" xmlns="http://www.w3.org/2000/svg">
<path d="M164.237 120.643H169.733V101.04H164.237V98.5176H178.411V101.04H172.915V120.643H178.411V123.237H164.237V120.643Z" fill="#003548"/>
<path d="M198.806 102.193L194.683 116.03H191.357L187.307 102.337V123.237H184.342V98.4453H188.898L193.092 112.643L197.215 98.4453H201.771V123.237H198.806V102.193Z" fill="#003548"/>
<path d="M216.307 98.4453C217.536 98.4453 218.693 98.5894 219.778 98.9498C220.791 99.3101 221.658 99.8146 222.382 100.391C223.105 101.04 223.683 101.76 224.045 102.697C224.406 103.634 224.623 104.643 224.623 105.796C224.623 106.949 224.479 108.03 224.045 108.895C223.683 109.832 223.105 110.553 222.382 111.201C221.658 111.85 220.791 112.354 219.778 112.643C218.766 112.931 217.608 113.147 216.307 113.147H210.377V123.237H207.267V98.4453H216.307ZM210.377 110.264H216.09C217.753 110.264 219.055 109.904 219.995 109.111C220.935 108.391 221.369 107.238 221.369 105.724C221.369 104.211 220.935 103.058 219.995 102.265C219.055 101.544 217.753 101.184 216.09 101.184H210.377V110.264Z" fill="#003548"/>
<path d="M241.257 116.246H231.783L229.613 123.237H226.431L234.531 98.4453H238.653L246.753 123.237H243.499L241.257 116.246ZM232.651 113.291H240.244L236.411 101.184L232.651 113.291Z" fill="#003548"/>
<path d="M267.653 115.309C267.653 116.534 267.364 117.688 266.858 118.696C266.352 119.705 265.701 120.642 264.905 121.363C264.11 122.084 263.17 122.66 262.157 123.093C261.072 123.525 259.915 123.741 258.686 123.741C256.155 123.741 253.985 122.876 252.249 121.219C251.526 120.57 251.02 119.777 250.586 118.985C250.152 118.192 249.863 117.327 249.646 116.39C249.429 115.525 249.284 114.589 249.284 113.652C249.212 112.715 249.212 111.778 249.212 110.913C249.212 109.976 249.212 109.111 249.284 108.175C249.284 107.238 249.429 106.301 249.646 105.436C249.791 104.571 250.152 103.706 250.586 102.914C250.948 102.121 251.526 101.328 252.249 100.679C254.057 98.9498 256.155 98.085 258.758 98.085C259.915 98.085 261.072 98.3012 262.157 98.6615C263.242 99.0218 264.11 99.5984 264.905 100.319C265.701 101.04 266.352 101.905 266.858 102.914C267.292 103.922 267.581 105.076 267.653 106.301H264.471C264.471 105.58 264.254 104.859 263.965 104.211C263.676 103.562 263.242 103.058 262.808 102.553C262.302 102.121 261.723 101.688 261.072 101.4C260.421 101.184 259.626 101.04 258.758 101.04C257.095 101.04 255.721 101.616 254.564 102.841C254.057 103.346 253.623 103.995 253.406 104.643C253.117 105.292 252.9 105.94 252.828 106.661C252.683 107.382 252.611 108.102 252.611 108.823C252.611 109.544 252.611 110.264 252.611 110.985C252.611 111.634 252.611 112.354 252.611 113.147C252.611 113.868 252.683 114.589 252.828 115.309C252.9 116.03 253.117 116.679 253.406 117.399C253.623 118.048 254.057 118.624 254.564 119.201C255.721 120.354 257.095 121.003 258.758 121.003C259.554 121.003 260.349 120.859 261.072 120.57C261.723 120.282 262.302 119.922 262.88 119.417C263.387 118.913 263.748 118.336 264.037 117.688C264.327 117.039 264.471 116.318 264.544 115.525H267.653V115.309Z" fill="#003548"/>
<path d="M281.611 123.237H278.429V101.328H270.04V98.4453H290V101.328H281.611V123.237Z" fill="#003548"/>
<path d="M167.419 153.506H178.845V156.46H167.419V167.343H164.309V142.551H180.943V145.434H167.419V153.506Z" fill="#003548"/>
<path d="M202.421 154.947C202.421 155.956 202.421 156.893 202.349 157.83C202.277 158.767 202.132 159.703 201.915 160.568C201.698 161.433 201.409 162.298 200.975 163.091C200.613 163.883 200.035 164.604 199.384 165.253C198.516 166.118 197.504 166.766 196.491 167.199C195.407 167.631 194.249 167.847 193.02 167.847C191.791 167.847 190.633 167.631 189.549 167.199C188.464 166.838 187.451 166.118 186.584 165.253C185.933 164.604 185.354 163.883 184.993 163.091C184.631 162.298 184.269 161.433 184.052 160.568C183.835 159.703 183.691 158.767 183.691 157.83C183.618 156.893 183.618 155.884 183.618 154.947C183.618 153.938 183.618 153.001 183.691 152.064C183.691 151.127 183.835 150.19 184.052 149.326C184.269 148.461 184.559 147.668 184.993 146.875C185.354 146.083 185.933 145.362 186.584 144.713C187.451 143.848 188.464 143.2 189.549 142.767C190.633 142.407 191.791 142.191 193.02 142.191C194.249 142.191 195.407 142.407 196.491 142.767C197.576 143.2 198.516 143.848 199.384 144.713C200.035 145.362 200.613 146.083 200.975 146.875C201.337 147.668 201.698 148.461 201.915 149.326C202.132 150.19 202.277 151.127 202.349 152.064C202.421 153.001 202.421 154.01 202.421 154.947ZM199.239 154.731C199.239 154.082 199.239 153.434 199.239 152.713C199.239 151.992 199.167 151.272 199.022 150.551C198.95 149.83 198.733 149.182 198.444 148.533C198.155 147.884 197.793 147.308 197.287 146.803C196.708 146.227 196.057 145.722 195.334 145.506C194.611 145.29 193.888 145.146 193.02 145.146C192.224 145.146 191.429 145.29 190.778 145.578C190.055 145.866 189.404 146.299 188.825 146.875C188.319 147.38 187.958 147.956 187.668 148.605C187.379 149.254 187.162 149.902 187.09 150.623C187.017 151.344 186.945 151.992 186.873 152.785C186.873 153.506 186.873 154.154 186.873 154.803V155.307C186.873 155.956 186.873 156.605 186.873 157.325C186.873 158.046 186.945 158.767 187.09 159.487C187.162 160.208 187.379 160.857 187.668 161.505C187.885 162.154 188.319 162.73 188.825 163.235C189.404 163.811 190.055 164.316 190.778 164.532C191.429 164.82 192.224 164.964 193.02 164.964C193.815 164.964 194.611 164.82 195.334 164.532C195.985 164.316 196.636 163.811 197.287 163.235C197.793 162.73 198.155 162.154 198.444 161.505C198.661 160.857 198.878 160.208 199.022 159.487C199.095 158.767 199.167 158.118 199.239 157.325C199.239 156.605 199.239 155.956 199.239 155.307V154.731Z" fill="#003548"/>
<path d="M215.439 157.037H210.304V167.343H207.195V142.551H215.511C216.741 142.551 217.898 142.695 218.983 143.056C219.995 143.344 220.863 143.848 221.586 144.497C222.309 145.146 222.888 145.866 223.249 146.803C223.611 147.74 223.828 148.749 223.828 149.83C223.828 151.416 223.394 152.785 222.526 154.01C221.658 155.235 220.284 156.1 218.621 156.533L223.973 167.415H220.501L215.439 157.037ZM220.574 149.83C220.574 149.037 220.429 148.389 220.212 147.812C219.995 147.308 219.561 146.803 219.127 146.515C218.693 146.155 218.115 145.938 217.464 145.722C216.813 145.578 216.162 145.506 215.439 145.506H210.304V154.226H215.439C216.162 154.226 216.813 154.154 217.464 154.01C218.115 153.866 218.621 153.65 219.127 153.289C219.561 152.929 219.995 152.497 220.212 151.92C220.429 151.272 220.574 150.623 220.574 149.83Z" fill="#003548"/>
<path d="M245.958 159.415C245.958 160.64 245.668 161.793 245.162 162.802C244.656 163.811 244.005 164.748 243.209 165.469C242.414 166.19 241.474 166.766 240.461 167.199C239.377 167.631 238.219 167.847 236.99 167.847C234.459 167.847 232.289 166.982 230.554 165.325C229.83 164.676 229.324 163.883 228.89 163.091C228.456 162.298 228.167 161.433 227.95 160.496C227.733 159.631 227.589 158.695 227.589 157.758C227.516 156.821 227.516 155.884 227.516 155.019C227.516 154.082 227.516 153.217 227.589 152.28C227.589 151.344 227.733 150.407 227.95 149.542C228.095 148.677 228.456 147.812 228.89 147.019C229.252 146.227 229.83 145.434 230.554 144.785C232.362 143.056 234.459 142.191 237.062 142.191C238.219 142.191 239.377 142.407 240.461 142.767C241.546 143.128 242.414 143.704 243.209 144.425C244.005 145.146 244.656 146.011 245.162 147.019C245.596 148.028 245.885 149.182 245.958 150.407H242.776C242.776 149.686 242.559 148.965 242.269 148.317C241.98 147.668 241.546 147.164 241.112 146.659C240.606 146.227 240.027 145.794 239.377 145.506C238.726 145.29 237.93 145.146 237.062 145.146C235.399 145.146 234.025 145.722 232.868 146.947C232.362 147.452 231.928 148.101 231.711 148.749C231.421 149.398 231.205 150.046 231.132 150.767C230.988 151.488 230.915 152.208 230.915 152.929C230.915 153.65 230.915 154.37 230.915 155.091C230.915 155.74 230.915 156.46 230.915 157.253C230.915 157.974 230.988 158.695 231.132 159.415C231.205 160.136 231.421 160.785 231.711 161.505C231.928 162.154 232.362 162.73 232.868 163.307C234.025 164.46 235.399 165.109 237.062 165.109C237.858 165.109 238.653 164.964 239.377 164.676C240.027 164.388 240.606 164.028 241.185 163.523C241.691 163.019 242.052 162.442 242.342 161.793C242.631 161.145 242.776 160.424 242.848 159.631H245.958V159.415Z" fill="#003548"/>
<path d="M251.092 142.551H267.075V145.434H254.202V153.145H264.327V156.1H254.202V164.46H267.075V167.343H251.092V142.551Z" fill="#003548"/>
<path d="M18.2968 36.6827C28.4214 36.6827 36.8105 28.539 36.8105 18.4495C36.7382 8.35991 28.3491 0 18.2968 0C8.24439 0 0 8.35991 0 18.4495C0 28.539 8.17207 36.6827 18.2968 36.6827ZM4.19451 169H32.3267V44.322H4.19451V169ZM57.4214 169H85.5536V124.894H116.579V96.7876H85.5536V72.2124H145.145V44.322H57.4214V169Z" fill="white"/>
</svg>
