<svg width="65" height="65" viewBox="0 0 65 65" fill="none" xmlns="http://www.w3.org/2000/svg">
<circle cx="32.5" cy="32.5" r="32.5" fill="#00B0EB"/>
<g clip-path="url(#clip0_2009_2574)">
<path d="M11 32.6826C11.287 31.9254 11.8495 31.673 12.653 31.6844C17.4973 31.6959 22.33 31.673 27.1743 31.673C27.3465 31.673 27.5187 31.673 27.7942 31.673C27.6449 31.8336 27.5531 31.9483 27.4498 32.0516C26.4052 33.1071 25.3261 34.1397 24.3159 35.2297C22.8236 36.8474 22.8925 39.2912 24.5111 40.6795C25.0851 41.1728 25.8312 41.54 26.5659 41.7809C28.5059 42.4234 30.3999 42.1366 32.1563 41.1384C32.9943 40.668 33.7519 40.0255 34.498 39.4174C35.0376 38.97 35.4967 38.4307 35.9903 37.9374C36.2314 37.6964 36.484 37.662 36.7365 37.9144C38.2747 39.4404 39.8244 40.9434 41.3397 42.4808C42.0858 43.238 42.1432 44.4886 41.5348 45.3262C40.9035 46.2096 39.7441 46.4964 38.7339 46.026C38.6421 45.9801 38.5617 45.9457 38.4125 45.8769C38.975 46.9554 38.9635 47.9535 38.114 48.7911C37.299 49.5828 36.3462 49.6172 35.2672 49.055C35.5427 49.6631 35.7378 50.2023 35.5886 50.8104C35.3934 51.6479 34.8998 52.2216 34.0848 52.4855C33.2583 52.7494 32.4892 52.5773 31.8578 51.9807C31.3757 51.5332 30.9395 51.0513 30.4344 50.535C30.5262 50.9825 30.6525 51.3496 30.664 51.7283C30.6984 52.6805 30.2622 53.3919 29.4013 53.7934C28.5403 54.195 27.7253 54.0573 27.0021 53.4492C26.6692 53.1739 26.3822 52.8526 26.0837 52.5543C23.5468 50.0302 21.0099 47.5061 18.4845 44.9705C18.2779 44.764 18.0712 44.6722 17.7728 44.6722C16.0738 44.6951 14.3634 44.6722 12.6645 44.7066C11.8724 44.7181 11.2985 44.4657 11 43.7084C11 40.014 11 36.3426 11 32.6826Z" fill="white"/>
<path d="M33.9469 10C34.8423 10.195 35.7491 10.3098 36.6216 10.5966C41.7298 12.2602 45.0014 17.1937 44.5997 22.5403C44.4275 24.8579 43.3943 27.3935 41.9709 28.9768C41.638 28.7129 41.3051 28.449 40.9722 28.1851C37.5743 25.6036 33.7173 25.8675 30.6983 28.8621C30.5835 28.9768 30.3768 29.0571 30.2161 29.0571C28.2876 29.0686 26.3476 29.0801 24.4191 29.0571C24.2354 29.0571 23.9829 28.9194 23.8681 28.7703C21.9052 26.2232 21.0442 23.3434 21.4919 20.1653C22.1233 15.6448 24.6257 12.5126 28.8386 10.7917C29.7455 10.413 30.7671 10.2983 31.7429 10.0688C31.8577 10.0459 31.961 10.0229 32.0758 9.98853C32.6842 10 33.3155 10 33.9469 10ZM31.8577 21.3815C31.3181 20.8422 30.8131 20.303 30.285 19.7867C29.6651 19.1671 28.8845 19.1327 28.345 19.6834C27.8285 20.2112 27.8744 21.0029 28.4598 21.588C29.2634 22.4026 30.0784 23.2057 30.8819 24.0203C31.5248 24.6514 32.248 24.6628 32.8793 24.0203C34.4405 22.4714 36.0017 20.9111 37.5514 19.3507C38.1253 18.7656 38.1598 17.951 37.6317 17.4347C37.0922 16.9069 36.3231 16.9413 35.7262 17.5379C34.5553 18.7082 33.3844 19.8785 32.2021 21.0602C32.1102 21.1635 32.0069 21.2553 31.8577 21.3815Z" fill="white"/>
<path d="M41.9021 48.3551C42.2465 48.1027 42.5334 47.9306 42.7975 47.7126C44.9441 45.9916 45.1163 42.5496 43.1533 40.6221C41.5807 39.0617 39.9965 37.5014 38.4239 35.941C37.0808 34.6101 35.6459 34.6331 34.2913 35.9754C33.5337 36.7327 32.7875 37.5128 31.961 38.2012C30.859 39.1076 29.5848 39.6583 28.1155 39.4748C27.5874 39.4059 27.0479 39.2338 26.5658 39.0158C25.7278 38.6372 25.5671 37.6505 26.187 36.9621C26.5313 36.5835 26.9102 36.2278 27.2775 35.8607C29.0797 34.0709 30.859 32.281 32.6842 30.5142C34.7161 28.5522 37.4711 28.5293 39.5373 30.4338C40.559 31.3861 41.7528 31.8565 43.1533 31.8451C46.5627 31.8221 49.972 31.8336 53.3813 31.8221C54.4719 31.8221 54.9884 32.3384 54.9884 33.4169C54.9884 36.7671 54.9884 40.1173 54.9884 43.4675C54.9884 44.546 54.4833 45.0508 53.4272 45.0508C51.9349 45.0508 50.4541 45.0623 48.9618 45.0508C48.6863 45.0508 48.5715 45.1311 48.4797 45.3835C47.7795 47.334 46.3905 48.3207 44.3242 48.3436C43.5436 48.3551 42.763 48.3551 41.9021 48.3551Z" fill="white"/>
</g>
<defs>
<clipPath id="clip0_2009_2574">
<rect width="44" height="44" fill="white" transform="translate(11 10)"/>
</clipPath>
</defs>
</svg>
