<svg width="65" height="65" viewBox="0 0 65 65" fill="none" xmlns="http://www.w3.org/2000/svg">
<circle cx="32.5" cy="32.5" r="32.5" fill="#00B0EB"/>
<g clip-path="url(#clip0_2009_2576)">
<path d="M17 50.9528C17 39.6509 17 28.3491 17 17.0472C17.0313 16.9533 17.0626 16.8489 17.0835 16.755C17.3235 15.7636 17.8662 14.9914 18.7428 14.4905C19.1498 14.2713 19.6089 14.1565 20.0472 14C27.9888 14 35.9303 14 43.8719 14C43.9032 14.0209 43.9345 14.0417 43.9763 14.0522C45.8756 14.4905 46.9191 15.7845 46.9191 17.7255C46.9191 20.8354 46.9191 23.9452 46.9296 27.055C46.9296 27.3368 46.8461 27.5351 46.6478 27.7334C43.4753 30.8954 40.3029 34.0574 37.1513 37.2298C36.8278 37.5534 36.5043 37.929 36.306 38.336C35.2207 40.5797 34.1771 42.8442 33.1336 45.1192C32.737 45.975 32.737 46.862 33.0605 47.7386C33.7597 49.6379 35.899 50.5562 37.767 49.7214C39.5202 48.9387 41.2421 48.0621 43.0057 47.3003C44.3832 46.7159 45.6042 45.9437 46.5852 44.8062C46.6687 44.7122 46.773 44.6288 46.9191 44.4931C46.9191 46.4967 46.9191 48.4169 46.9191 50.3266C46.9191 52.4764 45.4059 53.9791 43.2562 53.9896C41.263 53.9896 39.2698 53.9896 37.287 53.9896C31.7456 53.9896 26.1938 53.9896 20.6525 53.9896C19.0141 53.9896 17.6679 53.0504 17.1878 51.5789C17.1148 51.3702 17.0626 51.1615 17 50.9528ZM32.0065 21.5763C29.1054 21.5763 26.2043 21.5763 23.3032 21.5763C22.6561 21.5763 22.1552 22.0146 22.0822 22.6094C22.0091 23.1938 22.4057 23.7469 23.0005 23.8826C23.1675 23.9243 23.3345 23.9139 23.5014 23.9139C27.8218 23.9139 32.1422 23.9139 36.4626 23.9139C37.8714 23.9139 39.2698 23.9139 40.6786 23.9139C41.2108 23.9139 41.6074 23.6843 41.8265 23.1938C42.1709 22.4007 41.5865 21.5763 40.6786 21.5763C37.7775 21.5763 34.8972 21.5763 32.0065 21.5763ZM30.1281 27.8273C27.874 27.8273 25.6303 27.8273 23.3762 27.8273C22.8231 27.8273 22.4057 28.036 22.1865 28.5369C21.8317 29.3196 22.4161 30.1649 23.324 30.1649C25.7555 30.1753 28.1871 30.1649 30.6186 30.1649C32.7161 30.1649 34.8033 30.1649 36.9009 30.1649C37.4122 30.1649 37.8088 29.977 38.0488 29.5074C38.4558 28.7039 37.8714 27.8273 36.9217 27.8273C34.6468 27.8273 32.3822 27.8273 30.1281 27.8273ZM28.2497 36.4159C29.8776 36.4159 31.4952 36.4159 33.1231 36.4159C33.8849 36.4159 34.4067 35.9358 34.4172 35.2575C34.4276 34.5583 33.8954 34.0783 33.1023 34.0783C29.8672 34.0783 26.6321 34.0783 23.3866 34.0783C22.604 34.0783 22.0613 34.5583 22.0717 35.2575C22.0717 35.9463 22.6144 36.4159 23.3971 36.4263C25.025 36.4159 26.6321 36.4159 28.2497 36.4159Z" fill="white"/>
<path d="M47.4515 30.2379C49.1942 31.9807 50.937 33.7234 52.6797 35.4662C52.638 35.5079 52.5754 35.5914 52.5023 35.6645C49.716 38.4195 46.9297 41.1745 44.1329 43.9191C43.8094 44.2426 43.4024 44.5139 42.9954 44.7122C41.0126 45.6619 39.0194 46.5802 37.0262 47.509C36.3896 47.8012 35.9096 47.749 35.513 47.3524C35.1269 46.9663 35.0747 46.4758 35.3669 45.8393C36.3479 43.7313 37.3288 41.6233 38.3202 39.5152C38.4141 39.3065 38.5707 39.1187 38.7272 38.9517C41.597 36.0715 44.4668 33.2017 47.3367 30.3318C47.3993 30.2797 47.4515 30.2379 47.4515 30.2379Z" fill="white"/>
<path d="M54.4952 33.7652C52.7003 31.9703 50.9575 30.2379 49.2461 28.5265C49.9035 27.8482 50.5297 27.0968 51.2602 26.4602C52.1263 25.7088 53.4099 25.7715 54.2552 26.5646C54.9857 27.2429 55.6953 27.9525 56.3737 28.6934C57.1981 29.5805 57.1877 30.9267 56.3737 31.8137C55.7788 32.4816 55.1214 33.1182 54.4952 33.7652Z" fill="white"/>
</g>
<defs>
<clipPath id="clip0_2009_2576">
<rect width="40" height="40" fill="white" transform="translate(17 14)"/>
</clipPath>
</defs>
</svg>
