<svg width="630" height="234" viewBox="0 0 630 234" fill="none" xmlns="http://www.w3.org/2000/svg">
<g clip-path="url(#clip0_3015_74)">
<path fill-rule="evenodd" clip-rule="evenodd" d="M137.382 8.47378C146.382 17.4772 148.235 30.9823 142.764 41.751C143.823 43.9578 144.706 46.341 145.235 48.8125C147.353 47.4002 149.558 46.341 151.941 45.5466C155.735 34.0717 166.588 25.7744 179.294 25.7744C195.264 25.7744 208.147 38.6616 208.147 54.6383C208.147 67.3489 199.853 78.206 188.382 82.0015C187.588 84.2965 186.529 86.5915 185.117 88.7099C187.588 89.2395 189.97 90.034 192.176 91.1814C202.941 85.7971 216.441 87.5624 225.441 96.5658C236.735 107.864 236.735 126.136 225.441 137.346C216.441 146.349 202.941 148.203 192.176 142.73C189.97 143.79 187.588 144.672 185.117 145.202C186.529 147.32 187.588 149.527 188.382 151.91C199.853 155.706 208.147 166.563 208.147 179.273C208.147 195.25 195.264 208.137 179.294 208.137C166.588 208.137 155.735 199.84 151.941 188.365C149.647 187.571 147.353 186.512 145.235 185.099C144.706 187.571 143.911 189.954 142.764 192.161C148.147 202.929 146.382 216.435 137.382 225.438C126.088 236.736 107.823 236.736 96.6173 225.438C87.6173 216.435 85.7644 202.929 91.2349 192.161C90.1761 189.954 89.2938 187.571 88.7644 185.099C86.6467 186.512 84.4408 187.571 82.0585 188.365C78.2644 199.84 67.4114 208.137 54.7055 208.137C38.7349 208.137 25.8526 195.25 25.8526 179.273C25.8526 166.563 34.1467 155.706 45.6173 151.91C46.4114 149.615 47.4702 147.32 48.882 145.202C46.4114 144.672 44.0291 143.878 41.8232 142.73C31.0585 148.115 17.5585 146.349 8.55848 137.346C-2.73564 126.048 -2.73564 107.776 8.55848 96.5658C17.5585 87.5624 31.0585 85.7088 41.8232 91.1814C44.0291 90.1222 46.4114 89.2395 48.882 88.7099C47.4702 86.5915 46.4114 84.3848 45.6173 82.0015C34.1467 78.206 25.8526 67.3489 25.8526 54.6383C25.8526 38.6616 38.7349 25.7744 54.7055 25.7744C67.4114 25.7744 78.2644 34.0717 82.0585 45.5466C84.3526 46.341 86.6467 47.4002 88.7644 48.8125C89.2938 46.341 90.0879 43.9578 91.2349 41.751C85.8526 30.9823 87.6173 17.4772 96.6173 8.47378C107.823 -2.82459 126.088 -2.82459 137.382 8.47378ZM140.647 140.7C144.794 136.551 149.823 133.992 155.206 132.844C152.206 128.343 150.529 122.87 150.529 117.044C150.529 111.218 152.294 105.746 155.206 101.244C149.911 100.185 144.794 97.5368 140.647 93.3882C136.5 89.2395 133.941 84.2082 132.794 78.8238C128.294 81.825 122.823 83.5021 117 83.5021C111.176 83.5021 105.706 81.7367 101.206 78.8238C100.147 84.12 97.4997 89.2395 93.3526 93.3882C89.2055 97.5368 84.1761 100.097 78.7938 101.244C81.7938 105.746 83.4702 111.218 83.4702 117.044C83.4702 122.87 81.7055 128.343 78.7938 132.844C84.0879 133.903 89.2055 136.551 93.3526 140.7C97.4997 144.849 100.058 149.88 101.206 155.264C105.706 152.263 111.176 150.586 117 150.586C122.823 150.586 128.294 152.352 132.794 155.264C133.853 149.88 136.5 144.76 140.647 140.7ZM88.1467 116.956C88.1467 132.932 101.029 145.82 117 145.82C132.97 145.82 145.853 132.932 145.853 116.956C145.853 100.979 132.97 88.092 117 88.092C101.029 88.092 88.1467 101.068 88.1467 116.956Z" fill="#00B0EB"/>
<path d="M516.089 234C579 234 630 182.981 630 120.045C630 57.1098 579 6.09058 516.089 6.09058C453.177 6.09058 402.177 57.1098 402.177 120.045C402.177 182.981 453.177 234 516.089 234Z" fill="#E4E5EA"/>
<path fill-rule="evenodd" clip-rule="evenodd" d="M357.441 61.3466C361.147 72.998 370.323 82.1779 381.97 85.8852C370.323 89.5925 361.147 98.7724 357.441 110.336C353.735 98.7724 344.558 89.5925 333 85.8852C344.647 82.1779 353.735 72.998 357.441 61.3466ZM310.058 85.9735C298.5 82.2662 289.323 73.0863 285.617 61.4348C281.911 73.0863 272.735 82.2662 261.088 85.9735C272.735 89.6808 281.911 98.8607 285.617 110.424C289.323 98.7724 298.411 89.6808 310.058 85.9735ZM211.588 49.7834C211.588 66.7309 222.617 81.0304 237.97 85.8852C222.706 90.74 211.588 105.04 211.588 121.811C211.588 138.67 222.617 152.881 237.97 157.736C222.706 162.591 211.588 176.978 211.588 193.838C211.588 214.757 228.529 231.793 249.529 231.793C266.47 231.793 280.764 220.76 285.617 205.401C290.47 220.671 304.764 231.793 321.529 231.793C338.382 231.793 352.588 220.76 357.441 205.401C362.294 220.671 376.676 231.793 393.529 231.793C414.441 231.793 431.47 214.846 431.47 193.838C431.47 176.89 420.441 162.591 405.088 157.736C420.353 152.881 431.47 138.582 431.47 121.811C431.47 104.951 420.441 90.74 405.088 85.8852C420.353 81.0304 431.47 66.6427 431.47 49.7834C431.47 28.8637 414.529 11.8279 393.529 11.8279C376.588 11.8279 362.294 22.8615 357.441 38.2202C352.588 22.9497 338.294 11.8279 321.529 11.8279C304.676 11.8279 290.47 22.8615 285.617 38.2202C280.764 22.9497 266.382 11.8279 249.529 11.8279C228.529 11.9161 211.588 28.8637 211.588 49.7834ZM285.617 182.451C281.911 170.8 272.735 161.62 261.088 157.912C272.735 154.205 281.911 145.025 285.617 133.462C289.323 145.025 298.5 154.205 310.058 157.912C298.411 161.531 289.323 170.8 285.617 182.451ZM357.441 133.374C353.735 144.937 344.558 154.117 333 157.824C344.558 161.531 353.735 170.711 357.441 182.363C361.147 170.711 370.323 161.531 381.97 157.824C370.411 154.117 361.147 144.937 357.441 133.374Z" fill="#CDDC39"/>
</g>
<defs>
<clipPath id="clip0_3015_74">
<rect width="630" height="234" fill="white"/>
</clipPath>
</defs>
</svg>
