<svg width="277" height="11" viewBox="0 0 277 11" fill="none" xmlns="http://www.w3.org/2000/svg">
<path d="M6.01886 5.5C8.20884 5.5 10.3988 5.4486 12.5888 5.3972C13.4533 5.3972 14.3754 5.34579 15.2398 5.34579C19.2164 5.24299 23.1929 5.14019 27.1118 5.03738C31.8376 4.88318 36.5057 4.78037 41.2314 4.62617C47.9743 4.42056 54.6595 4.21495 61.4023 4.00935C62.9583 3.95794 64.4567 3.90654 66.0128 3.90654C69.9317 3.80374 73.8506 3.70093 77.7695 3.59813C81.6884 3.49533 85.6073 3.39252 89.5262 3.28972C91.0823 3.23832 92.5807 3.18692 94.1367 3.18692C100.361 3.08411 106.643 2.98131 112.867 2.8785C116.728 2.8271 120.532 2.7243 124.393 2.6729C125.891 2.6215 127.39 2.6215 128.888 2.57009C134.939 2.51869 140.933 2.46729 146.984 2.41589C152.92 2.36449 158.914 2.31308 164.85 2.26168C166.406 2.26168 168.02 2.26168 169.576 2.26168C173.437 2.26168 177.356 2.26168 181.217 2.26168C187.268 2.26168 193.32 2.26168 199.371 2.21028C201.33 2.21028 203.348 2.21028 205.307 2.21028C209.456 2.21028 213.606 2.21028 217.755 2.21028C218.101 2.21028 218.447 2.21028 218.793 2.21028C209.456 2.26168 200.178 2.36449 190.842 2.41589C186.923 2.46729 183.061 2.46729 179.142 2.51869C177.471 2.51869 175.8 2.51869 174.129 2.57009C168.481 2.6729 162.891 2.7243 157.243 2.8271C150.73 2.92991 144.218 3.03271 137.706 3.13551C136.611 3.13551 135.516 3.18692 134.421 3.23832C130.963 3.34112 127.505 3.44393 124.047 3.49533C117.016 3.70093 109.985 3.85514 102.954 4.06075C101.917 4.11215 100.88 4.11215 99.8422 4.16355C96.3843 4.31776 92.9841 4.42056 89.5262 4.57477C83.3597 4.83178 77.2508 5.03738 71.0843 5.29439C69.413 5.34579 67.6841 5.4486 66.0128 5.5514C62.0939 5.75701 58.1173 5.91121 54.1984 6.11682C49.1845 6.37383 44.1706 6.57944 39.1567 6.83645C32.1833 7.19626 25.21 7.50467 18.2366 7.86449C16.5653 7.96729 14.894 8.01869 13.2227 8.1215C10.2259 8.2757 7.22911 8.48131 4.23229 8.68692C3.94414 8.68692 3.65598 8.84112 3.65598 8.99533C3.65598 9.20094 3.94414 9.30374 4.23229 9.30374C5.26965 9.20094 6.36464 9.25234 7.45963 9.25234C7.34437 9.40654 7.22911 9.61215 7.22911 9.76636C7.22911 10.3832 8.20884 11 9.36146 11C17.8909 10.6916 26.4202 10.3832 35.0073 10.1262C42.4417 9.92056 49.8761 9.71495 57.2529 9.50935C65.4365 9.30374 73.6777 9.04673 81.8613 8.84112C84.4547 8.78972 87.0481 8.68692 89.5839 8.63551C90.3331 8.63551 91.0823 8.58411 91.8315 8.58411C105.029 8.37851 118.284 8.1729 131.482 8.01869C138.57 7.91589 145.601 7.81308 152.69 7.71028C155.226 7.65888 157.819 7.65888 160.355 7.60748C173.898 7.50467 187.384 7.35047 200.927 7.24766C206.69 7.19626 212.511 7.14486 218.332 7.09346C223.288 7.04206 228.244 7.04206 233.143 6.93925C237.235 6.83645 241.326 6.78505 245.418 6.68224C247.435 6.63084 249.51 6.63084 251.527 6.52804C256.138 6.37383 260.806 6.21963 265.416 6.01402C265.128 6.27103 265.07 6.57944 265.243 6.83645C265.359 7.09346 265.704 7.35047 266.108 7.50467C266.511 7.65888 267.145 7.71028 267.606 7.60748C268.643 7.40187 269.623 7.14486 270.603 6.88785H270.545C270.603 6.88785 270.718 6.83645 270.776 6.83645C270.833 6.83645 270.949 6.78505 271.006 6.78505C270.949 6.78505 270.949 6.78505 270.891 6.78505C271.41 6.68224 271.986 6.52804 272.505 6.42523C273.081 6.27103 273.6 6.16822 274.176 6.01402C274.81 5.85981 275.386 5.70561 275.963 5.5C276.597 5.29439 277 4.88318 277 4.47196C277 4.26636 276.885 4.06075 276.712 3.85514C276.481 3.59813 275.963 3.34112 275.444 3.28972C274.925 3.23832 274.407 3.18692 273.888 3.18692C273.773 3.18692 273.657 3.18692 273.542 3.18692C273.196 3.18692 272.851 3.23832 272.505 3.23832C271.698 3.28972 270.949 3.34112 270.142 3.39252C269.508 3.44393 268.874 3.44393 268.24 3.49533C266.511 3.54673 264.782 3.64953 263.053 3.70093C262.592 3.70093 262.131 3.75234 261.728 3.75234C261.901 3.64953 262.016 3.54673 262.074 3.39252C262.131 3.28972 262.189 3.18692 262.189 3.03271C262.189 2.92991 262.246 2.8785 262.246 2.7757C262.246 2.6729 262.189 2.57009 262.131 2.46729C262.189 2.46729 262.246 2.46729 262.246 2.41589C262.592 2.31308 262.823 2.15888 262.996 1.95327C263.169 1.74766 263.284 1.54206 263.284 1.33645C263.284 1.13084 263.169 0.925234 262.996 0.719626C262.88 0.616822 262.765 0.565421 262.65 0.462617C262.362 0.308411 262.074 0.205607 261.67 0.154206C261.094 0.0514019 260.402 0 259.711 0C259.134 0 258.558 0 257.982 0.0514019C257.175 0.0514019 256.31 0.0514019 255.504 0.0514019C254.351 0.0514019 253.141 0.0514019 251.988 0.0514019C248.876 0.0514019 245.764 0.0514019 242.652 0.102804C239.713 0.102804 236.831 0.102804 233.892 0.102804C231.241 0.102804 228.59 0.102804 225.939 0.102804C215.335 0.154206 204.731 0.154206 194.184 0.205607C186.231 0.257009 178.278 0.308411 170.383 0.359813C166.809 0.359813 163.294 0.411215 159.721 0.462617C151.768 0.565421 143.815 0.668224 135.862 0.771028C133.614 0.82243 131.309 0.82243 129.061 0.873832C127.736 0.873832 126.41 0.925234 125.085 0.976636C117.247 1.13084 109.351 1.33645 101.513 1.49065C99.093 1.54206 96.7301 1.59346 94.3096 1.64486C92.9841 1.69626 91.601 1.74766 90.2754 1.74766C82.4376 2.00467 74.6574 2.21028 66.8196 2.46729C62.7854 2.57009 58.7513 2.7243 54.7171 2.8785C47.8014 3.13551 40.9433 3.39252 34.0275 3.59813C27.9763 3.70093 21.9827 3.90654 15.989 4.11215C15.0669 4.16355 14.0872 4.16355 13.1651 4.21495C11.6091 4.26636 10.1107 4.31776 8.55462 4.31776C7.17148 4.36916 5.84596 4.36916 4.46282 4.36916C4.34756 4.16355 4.00177 4.00935 3.59835 4.00935C2.73389 4.06075 1.86942 4.11215 0.947324 4.16355C0.543907 4.16355 0.14049 4.31776 0.0252277 4.57477C-0.0900343 4.83178 0.198121 5.19159 0.7168 5.24299C1.12022 5.29439 1.466 5.34579 1.86942 5.3972C2.27284 5.4486 2.61862 5.4486 3.02204 5.5C4.00177 5.5 5.03913 5.5 6.01886 5.5ZM247.666 3.64953C248.934 3.64953 250.259 3.64953 251.527 3.64953C251.642 3.80374 251.815 3.95794 252.046 4.06075C251.527 4.06075 251.066 4.11215 250.547 4.11215C249.625 4.11215 248.703 4.16355 247.723 4.16355C243.632 4.26636 239.54 4.31776 235.448 4.42056C233.604 4.47196 231.702 4.52337 229.858 4.52337C226.919 4.52337 224.037 4.57477 221.098 4.62617C214.413 4.67757 207.727 4.72897 201.042 4.78037C188.075 4.88318 175.108 5.03738 162.141 5.14019C152.863 5.24299 143.584 5.3972 134.306 5.5C120.301 5.70561 106.354 5.91121 92.3502 6.11682C89.5262 6.16822 86.7599 6.27103 83.936 6.32243C75.9829 6.52804 68.0875 6.73365 60.1344 6.99065C52.3542 7.19626 44.574 7.40187 36.7362 7.60748C35.987 7.60748 35.2954 7.65888 34.5462 7.65888C36.6209 7.55608 38.7533 7.45327 40.828 7.40187C48.1471 7.09346 55.4663 6.78505 62.8431 6.47664C65.3788 6.37383 67.9722 6.27103 70.508 6.16822C71.8335 6.11682 73.159 6.06542 74.4845 6.01402C82.0918 5.75701 89.7568 5.5 97.3641 5.24299C98.8625 5.19159 100.361 5.14019 101.859 5.08879C103.992 5.03738 106.182 4.98598 108.314 4.93458C116.152 4.78037 124.047 4.57477 131.885 4.42056C133.614 4.36916 135.343 4.36916 137.072 4.31776C137.533 4.31776 137.994 4.31776 138.455 4.31776C139.665 4.31776 140.875 4.26636 142.086 4.26636C149.981 4.16355 157.819 4.06075 165.714 4.00935C169.345 3.95794 172.976 3.90654 176.607 3.90654C188.306 3.85514 200.063 3.80374 211.762 3.75234C223.807 3.70093 235.736 3.64953 247.666 3.64953Z" fill="#CDDC39"/>
</svg>
