<svg width="180" height="9" viewBox="0 0 180 9" fill="none" xmlns="http://www.w3.org/2000/svg">
<path d="M3.91071 4.25947C5.33364 4.25947 6.75656 4.21966 8.17949 4.17985C8.74117 4.17985 9.34029 4.14005 9.90197 4.14005C12.4857 4.06043 15.0694 3.98081 17.6157 3.9012C20.6862 3.78177 23.7193 3.70216 26.7898 3.58273C31.171 3.4235 35.5146 3.26427 39.8957 3.10503C40.9068 3.06523 41.8803 3.02542 42.8914 3.02542C45.4377 2.9458 47.9839 2.86619 50.5302 2.78657C53.0765 2.70695 55.6228 2.62734 58.1691 2.54772C59.1801 2.50791 60.1537 2.4681 61.1647 2.4681C65.2088 2.38849 69.2904 2.30887 73.3345 2.22926C75.8433 2.18945 78.3147 2.10983 80.8236 2.07002C81.7971 2.03021 82.7707 2.03021 83.7443 1.99041C87.6761 1.9506 91.5704 1.91079 95.5021 1.87098C99.359 1.83117 103.253 1.79137 107.11 1.75156C108.121 1.75156 109.17 1.75156 110.181 1.75156C112.69 1.75156 115.236 1.75156 117.745 1.75156C121.676 1.75156 125.608 1.75156 129.54 1.71175C130.813 1.71175 132.124 1.71175 133.397 1.71175C136.093 1.71175 138.789 1.71175 141.485 1.71175C141.71 1.71175 141.934 1.71175 142.159 1.71175C136.093 1.75156 130.064 1.83117 123.998 1.87098C121.452 1.91079 118.943 1.91079 116.397 1.9506C115.311 1.9506 114.225 1.9506 113.139 1.99041C109.469 2.07002 105.837 2.10983 102.167 2.18945C97.9361 2.26906 93.7048 2.34868 89.4734 2.4283C88.762 2.4283 88.0505 2.4681 87.3391 2.50791C85.0923 2.58753 82.8456 2.66714 80.5989 2.70695C76.0305 2.86619 71.4622 2.98561 66.8939 3.14484C66.2198 3.18465 65.5458 3.18465 64.8718 3.22446C62.6251 3.34388 60.4158 3.4235 58.1691 3.54292C54.1624 3.74196 50.1932 3.9012 46.1866 4.10024C45.1006 4.14005 43.9773 4.21966 42.8914 4.29928C40.3451 4.45851 37.7613 4.57793 35.2151 4.73717C31.9573 4.93621 28.6996 5.09544 25.4418 5.29448C20.9109 5.57314 16.38 5.81199 11.8491 6.09064C10.7632 6.17026 9.6773 6.21007 8.59139 6.28968C6.64423 6.40911 4.69707 6.56834 2.74991 6.72757C2.56268 6.72757 2.37545 6.847 2.37545 6.96642C2.37545 7.12565 2.56268 7.20527 2.74991 7.20527C3.42392 7.12565 4.13538 7.16546 4.84685 7.16546C4.77196 7.28489 4.69707 7.44412 4.69707 7.56354C4.69707 8.04124 5.33364 8.51894 6.08255 8.51894C11.6245 8.28009 17.1664 8.04124 22.7457 7.8422C27.5762 7.68297 32.4067 7.52374 37.1997 7.3645C42.5169 7.20527 47.8716 7.00623 53.1889 6.847C54.8739 6.80719 56.5589 6.72757 58.2065 6.68777C58.6933 6.68777 59.1801 6.64796 59.6669 6.64796C68.2419 6.48873 76.8543 6.32949 85.4293 6.21007C90.0351 6.13045 94.6034 6.05084 99.2092 5.97122C100.857 5.93141 102.542 5.93141 104.189 5.8916C112.989 5.81199 121.751 5.69256 130.551 5.61295C134.296 5.57314 138.078 5.53333 141.86 5.49352C145.08 5.45371 148.3 5.45371 151.483 5.3741C154.142 5.29448 156.8 5.25467 159.459 5.17506C160.769 5.13525 162.117 5.13525 163.428 5.05563C166.424 4.93621 169.457 4.81678 172.452 4.65755C172.265 4.85659 172.228 5.09544 172.34 5.29448C172.415 5.49352 172.64 5.69256 172.902 5.81199C173.164 5.93141 173.576 5.97122 173.875 5.8916C174.549 5.73237 175.186 5.53333 175.823 5.33429H175.785C175.823 5.33429 175.897 5.29448 175.935 5.29448C175.972 5.29448 176.047 5.25467 176.085 5.25467C176.047 5.25467 176.047 5.25467 176.01 5.25467C176.347 5.17506 176.721 5.05563 177.058 4.97602C177.433 4.85659 177.77 4.77698 178.144 4.65755C178.556 4.53813 178.93 4.4187 179.305 4.25947C179.717 4.10024 179.979 3.78177 179.979 3.46331C179.979 3.30407 179.904 3.14484 179.792 2.98561C179.642 2.78657 179.305 2.58753 178.968 2.54772C178.631 2.50791 178.294 2.4681 177.957 2.4681C177.882 2.4681 177.807 2.4681 177.732 2.4681C177.508 2.4681 177.283 2.50791 177.058 2.50791C176.534 2.54772 176.047 2.58753 175.523 2.62734C175.111 2.66714 174.699 2.66714 174.287 2.70695C173.164 2.74676 172.041 2.82638 170.917 2.86619C170.618 2.86619 170.318 2.90599 170.056 2.90599C170.168 2.82638 170.243 2.74676 170.281 2.62734C170.318 2.54772 170.355 2.4681 170.355 2.34868C170.355 2.26906 170.393 2.22926 170.393 2.14964C170.393 2.07002 170.355 1.99041 170.318 1.91079C170.355 1.91079 170.393 1.91079 170.393 1.87098C170.618 1.79137 170.767 1.67194 170.88 1.51271C170.992 1.35348 171.067 1.19424 171.067 1.03501C171.067 0.875779 170.992 0.716546 170.88 0.557314C170.805 0.477698 170.73 0.437889 170.655 0.358273C170.468 0.238849 170.281 0.159233 170.018 0.119424C169.644 0.0398081 169.195 0 168.745 0C168.371 0 167.996 0 167.622 0.0398081C167.098 0.0398081 166.536 0.0398081 166.012 0.0398081C165.263 0.0398081 164.477 0.0398081 163.728 0.0398081C161.706 0.0398081 159.684 0.0398081 157.661 0.0796163C155.752 0.0796163 153.88 0.0796163 151.97 0.0796163C150.247 0.0796163 148.525 0.0796163 146.802 0.0796163C139.912 0.119424 133.022 0.119424 126.17 0.159233C121.002 0.199041 115.835 0.238849 110.705 0.278657C108.383 0.278657 106.099 0.318465 103.778 0.358273C98.6101 0.437889 93.4426 0.517506 88.2752 0.597122C86.8148 0.63693 85.317 0.63693 83.8566 0.676738C82.9954 0.676738 82.1341 0.716546 81.2729 0.756354C76.1803 0.875779 71.0503 1.03501 65.9577 1.15444C64.385 1.19424 62.8498 1.23405 61.2771 1.27386C60.4158 1.31367 59.5171 1.35348 58.6559 1.35348C53.5633 1.55252 48.5082 1.71175 43.4156 1.91079C40.7944 1.99041 38.1732 2.10983 35.5521 2.22926C31.0586 2.4283 26.6026 2.62734 22.1092 2.78657C18.1774 2.86619 14.2831 3.02542 10.3888 3.18465C9.78964 3.22446 9.15307 3.22446 8.55394 3.26427C7.54291 3.30407 6.56934 3.34388 5.55831 3.34388C4.65962 3.38369 3.79838 3.38369 2.89969 3.38369C2.8248 3.22446 2.60012 3.10503 2.33801 3.10503C1.77632 3.14484 1.21464 3.18465 0.615518 3.22446C0.3534 3.22446 0.0912824 3.34388 0.0163916 3.54292C-0.0584992 3.74196 0.128728 4.02062 0.465736 4.06043C0.727854 4.10024 0.952526 4.14005 1.21464 4.17985C1.47676 4.21966 1.70143 4.21966 1.96355 4.25947C2.60012 4.25947 3.27414 4.25947 3.91071 4.25947ZM160.919 2.82638C161.743 2.82638 162.604 2.82638 163.428 2.82638C163.503 2.9458 163.615 3.06523 163.765 3.14484C163.428 3.14484 163.129 3.18465 162.792 3.18465C162.192 3.18465 161.593 3.22446 160.957 3.22446C158.298 3.30407 155.639 3.34388 152.981 3.4235C151.783 3.46331 150.547 3.50312 149.349 3.50312C147.439 3.50312 145.567 3.54292 143.657 3.58273C139.313 3.62254 134.97 3.66235 130.626 3.70216C122.201 3.78177 113.775 3.9012 105.35 3.98081C99.3216 4.06043 93.2929 4.17985 87.2642 4.25947C78.1649 4.4187 69.1031 4.57793 60.0039 4.73717C58.1691 4.77698 56.3717 4.85659 54.5369 4.8964C49.3694 5.05563 44.2394 5.21486 39.0719 5.41391C34.0168 5.57314 28.9617 5.73237 23.8691 5.8916C23.3823 5.8916 22.933 5.93141 22.4462 5.93141C23.7942 5.85179 25.1797 5.77218 26.5277 5.73237C31.2833 5.49352 36.0389 5.25467 40.8319 5.01582C42.4795 4.93621 44.1645 4.85659 45.8121 4.77698C46.6734 4.73717 47.5346 4.69736 48.3958 4.65755C53.3386 4.45851 58.3189 4.25947 63.2617 4.06043C64.2352 4.02062 65.2088 3.98081 66.1824 3.941C67.5679 3.9012 68.9908 3.86139 70.3763 3.82158C75.4689 3.70216 80.5989 3.54292 85.6915 3.4235C86.8148 3.38369 87.9382 3.38369 89.0615 3.34388C89.3611 3.34388 89.6607 3.34388 89.9602 3.34388C90.7466 3.34388 91.5329 3.30407 92.3193 3.30407C97.4493 3.22446 102.542 3.14484 107.672 3.10503C110.031 3.06523 112.39 3.02542 114.749 3.02542C122.35 2.98561 129.989 2.9458 137.591 2.90599C145.417 2.86619 153.168 2.82638 160.919 2.82638Z" fill="#CDDC39"/>
</svg>
