<svg width="200" height="11" viewBox="0 0 200 11" fill="none" xmlns="http://www.w3.org/2000/svg">
<g clip-path="url(#clip0_203_1857)">
<path d="M198.914 7.57547L196.621 7.36792L194.327 7.16038L191.913 6.95283L189.499 6.74528L187.085 6.53774L184.671 6.33019L182.257 6.12264L179.843 5.91509L178.033 5.81132L177.067 5.60377L175.015 5.29245L172.963 4.98113L170.911 4.66981L168.98 4.35849H169.222H170.911H172.601L174.291 4.46226L175.981 4.56604L177.671 4.66981L179.36 4.77358L181.05 4.87736L182.74 4.98113L184.43 5.18868L186.12 5.29245L187.809 5.5L189.499 5.70755L191.189 5.91509L192.879 6.12264L194.448 6.43396L196.138 6.74528C196.741 6.84906 197.345 6.53774 197.465 5.91509C197.586 5.39623 197.224 4.87736 196.5 4.77358L194.81 4.46226L193.12 4.15094H191.672L189.982 3.9434L188.292 3.73585L186.602 3.5283L184.913 3.32075L183.223 3.11321H181.533L179.843 3.00943L178.153 2.90566L176.464 2.80189L174.774 2.69811L173.084 2.59434H171.394H169.704H168.015H166.325H164.635H162.945H161.255H159.566H157.876H156.186H154.738H153.289H151.841H151.117H150.755L148.461 2.17925L146.409 1.9717L144.357 1.76415L142.305 1.5566L140.254 1.34906L138.202 1.24528L136.15 1.14151L133.736 1.03774L131.684 0.933962L129.632 0.830189L127.58 0.726415L125.528 0.622642L123.476 0.518868L121.424 0.415094L119.372 0.311321L117.321 0.207547L115.269 0.103774H113.217H111.165H109.113H107.061H105.009H102.957H100.905H98.8535H96.8016L94.1462 0H92.0943H90.0424H87.9905H85.9386L84.0074 0.103774L82.0762 0.311321L80.145 0.415094L78.2138 0.518868L76.2826 0.726415L74.3514 1.03774L72.4202 1.34906L70.489 1.66038L68.5578 1.9717L66.6266 2.28302L64.6954 2.59434L62.7642 2.90566L60.833 3.21698L58.9018 3.5283L58.419 3.63208H58.0569H56.2463H54.4358L52.6253 3.73585H50.6941L48.8836 3.83962H47.0731L45.2626 3.9434L43.4521 4.04717L41.6416 4.15094H39.7104H38.9862L38.262 4.04717L36.4515 3.63208C35.848 3.5283 35.2445 3.83962 35.0031 4.35849C35.0031 4.35849 35.0031 4.35849 35.0031 4.46226H34.7617L33.0719 4.66981L31.3821 4.98113L29.6923 5.18868L28.0025 5.5L26.3127 5.81132L24.6229 6.12264L22.9331 6.43396L21.2433 6.64151L19.5535 6.84906L17.9844 7.0566L16.4153 7.26415L14.8462 7.36792L13.2771 7.4717H11.708H10.1389L8.81123 7.26415L7.36283 7.16038L5.91443 6.84906L5.19023 6.74528L4.46603 6.53774L3.74183 6.33019L3.01763 6.12264L2.29343 5.91509L1.68993 5.60377C1.08643 5.39623 0.362226 5.60377 0.120826 6.12264C-0.120574 6.64151 0.120826 7.26415 0.724326 7.4717L1.44853 7.78302L2.17273 8.09434L3.01763 8.30189L3.86253 8.50943L4.70743 8.71698L5.55233 8.92453L7.12143 9.23585L8.69053 9.4434L10.2596 9.33962H11.9494H13.6392H15.2083L16.8981 9.13208L18.5879 8.92453L20.2777 8.71698L20.6398 8.61321C20.6398 8.71698 20.6398 8.82076 20.6398 8.92453C20.7605 9.4434 21.2433 9.85849 21.9675 9.75472L23.4159 9.65094L24.8643 9.54717L26.3127 9.4434L27.6404 9.33962L29.0888 9.23585L30.5372 9.13208L31.9856 9.0283L33.434 8.92453L34.8824 8.82075L36.3308 8.71698L37.7792 8.61321L38.9862 8.30189L40.4346 8.19811L41.883 8.09434L43.3314 7.99057L44.7798 7.88679L46.2282 7.78302L47.6766 7.67924L49.125 7.57547L50.5735 7.4717L53.3496 7.26415L56.1257 7.0566L58.9018 6.84906L61.6779 6.64151L63.9712 6.53774L66.7473 6.33019L69.5234 6.22641L72.2995 6.12264L75.0756 6.01887L77.8517 5.91509L80.6278 5.81132L83.4039 5.70755L86.18 5.60377L88.9561 5.5L91.3701 5.18868H94.1462H95.5946H98.0086H100.423H102.837H105.251H107.665H110.079H112.493H114.907H117.321H119.735H122.149L124.563 5.29245L126.977 5.39623L129.391 5.5L131.805 5.60377H132.287H132.167H130.598H129.028H127.459H125.89H124.321H122.752H121.183H119.614L118.045 5.70755L116.476 5.81132L114.544 6.22641L112.975 6.33019L111.406 6.43396H109.837L108.268 6.53774L106.699 6.64151L105.13 6.74528L103.561 6.84906L101.992 6.95283L100.423 7.0566L98.8535 7.16038L97.2844 7.26415L95.7153 7.36792L94.1462 7.16038L92.5771 7.26415H91.008L89.4389 7.36792L87.8698 7.4717L86.3007 7.57547L84.7316 7.67924L83.1625 7.78302L81.5934 7.88679L80.0243 7.99057L78.4552 7.88679L76.8861 7.99057L75.317 8.09434L73.7479 8.19811L72.1788 8.30189L70.6097 8.40566L69.0406 8.30189H67.4715L65.9024 8.40566L64.3333 8.50943H62.7642H61.1951H59.626H58.0569H56.4878H54.9187H53.3496H51.7805H50.2113H48.6422H47.0731H45.504H43.9349C43.3314 8.50943 42.7279 8.92453 42.8486 9.54717C42.8486 10.066 43.3314 10.5849 44.0556 10.4811H45.6247H47.1938H48.763H50.3321H51.9011H53.4702H55.0393H56.6085H58.1776H59.7467H61.3158H62.8849L64.454 10.3774L66.0231 10.2736L67.5922 10.3774L69.1613 10.2736L70.7304 10.1698L72.2995 10.066L73.8686 9.96226L75.4377 9.85849L77.0068 9.75472L78.5759 9.65094L80.145 9.54717L81.7141 9.4434L83.2832 9.65094L84.8523 9.54717L86.4214 9.4434L87.9905 9.33962H89.5596L91.1287 9.23585L92.6978 9.13208L94.2669 9.0283L95.836 8.92453L97.4051 8.82075L98.9742 8.92453L100.543 8.82075L102.112 8.71698L103.681 8.61321L105.251 8.50943L106.82 8.40566L108.389 8.30189L109.958 8.19811L111.527 8.09434L113.096 8.30189L114.665 8.19811L116.234 8.09434L117.803 7.99057L119.372 7.88679H120.942H122.511H124.08H125.649H127.218H128.787H130.356H131.925H133.494H135.063H136.633H138.202H139.771H141.34H142.909H144.478H146.047H147.616H149.185H150.755H152.324H153.893H155.462H157.031H158.6H160.169H161.738H163.307L164.876 7.99057L166.445 8.09434L168.015 8.19811L169.584 8.30189L171.153 8.40566L172.601 8.30189L174.17 8.40566L175.739 8.50943L177.309 8.61321L178.878 8.71698L180.447 8.82075L182.016 8.92453L183.585 9.0283L185.154 9.13208L186.723 9.33962L188.292 9.54717L189.861 9.75472L191.43 9.96226L193 10.1698L194.569 10.3774C195.172 10.4811 195.776 10.066 195.896 9.54717C195.896 9.4434 195.896 9.4434 195.896 9.33962L196.5 9.4434L198.793 9.65094C199.397 9.75472 200 9.33962 200.121 8.71698C200 8.09434 199.638 7.67925 198.914 7.57547ZM74.5928 3.00943L76.524 2.80189L78.4552 2.59434L80.3864 2.49057L82.3176 2.38679L84.2488 2.28302L86.18 2.17925H88.2319H90.2838H92.3357H94.3876H96.4395H98.4914H100.543H102.595H104.647H106.699H108.751H110.803H112.855H114.907L116.958 2.28302L119.01 2.38679L121.062 2.49057L123.114 2.59434H121.666H118.89H116.114H113.337H110.561L107.785 2.69811L105.009 2.80189L102.233 2.90566L99.457 3.00943L96.8016 3.11321H94.0255H93.0599H90.6459H88.2319H85.8179H83.4039H81.5934H79.7829H77.9724H76.1619H74.3514H72.5409L74.5928 3.00943ZM38.7448 6.33019L37.2964 6.43396L35.848 6.53774L34.3996 6.64151L32.9512 6.74528L33.3133 6.64151L35.0031 6.53774L36.5722 6.33019L38.262 6.22641H38.9862H39.3483L38.7448 6.33019Z" fill="#CDDC39"/>
</g>
<defs>
<clipPath id="clip0_203_1857">
<rect width="200" height="11" fill="white"/>
</clipPath>
</defs>
</svg>
