<svg width="218" height="199" viewBox="0 0 218 199" fill="none" xmlns="http://www.w3.org/2000/svg">
<path d="M209.751 134.69C211.072 132.773 211.997 130.592 212.856 128.411C213.649 126.429 214.243 124.38 214.772 122.397C215.366 120.216 215.829 117.969 216.291 115.722C217.15 111.228 217.546 106.668 217.744 102.108C217.943 97.6143 217.876 93.1864 217.612 88.6924C217.348 84.0662 216.753 79.44 216.093 74.88C214.706 65.8259 212.526 56.9701 209.619 48.2464C208.166 43.8185 206.382 39.4567 204.334 35.2932C203.409 33.4427 202.55 31.5922 201.427 29.94C200.833 29.0809 200.106 28.2217 199.313 27.4948C198.521 26.7678 197.596 26.173 196.671 25.6443C195.086 24.7191 193.302 24.1243 191.386 24.0582C190.593 23.9921 189.735 24.1904 188.942 24.4547C187.951 24.7852 187.092 25.3139 186.233 25.9087C184.714 26.9661 183.393 28.2878 182.204 29.6757C181.939 30.0061 181.609 30.3366 181.345 30.7331C181.345 30.1383 181.345 29.4774 181.345 28.8826C181.345 27.693 181.345 26.5035 181.345 25.3139C181.411 23.7278 181.741 22.2077 181.675 20.6216C181.675 19.9607 181.543 19.2338 181.345 18.5729C181.213 18.1764 181.015 17.5816 180.618 17.2511C180.288 16.9207 179.892 16.6563 179.495 16.392C178.901 16.0615 178.108 16.0615 177.447 16.392C176.787 16.7885 176.456 17.4494 176.39 18.1764C176.06 22.8025 175.598 27.3626 175.399 31.9888C175.333 34.5662 175.267 37.0776 175.267 39.655C174.078 41.9681 173.021 44.3472 171.964 46.6603C170.049 50.9561 168.001 55.1196 166.151 59.4814C163.773 64.9667 161.593 70.5181 159.215 76.0035C159.215 72.2364 159.149 68.4694 159.083 64.7024C158.884 56.6396 158.422 48.5769 157.761 40.5802C157.431 36.6149 157.035 32.6496 156.506 28.6844C156.242 26.7017 155.978 24.653 155.647 22.6703C155.383 20.9521 155.053 19.2338 154.855 17.5155C154.458 14.0789 154.128 10.5762 152.939 7.3379C152.675 6.54484 152.278 5.75179 151.948 4.95873C151.486 4.09958 150.891 3.30653 150.296 2.51347C149.702 1.7865 148.711 1.32388 147.852 0.993441C146.993 0.663001 146.135 0.464737 145.342 0.134296C144.153 -0.328321 142.369 0.464736 141.907 1.58823C141.048 3.63697 140.123 5.6857 139.33 7.73443C138.472 9.91534 137.745 12.2284 137.018 14.4754C136.358 16.5241 135.697 18.639 135.036 20.6877C133.715 24.7852 132.394 28.9487 131.139 33.0462C130.544 34.9627 129.95 36.9454 129.421 38.928C128.166 43.3559 126.911 47.7177 125.722 52.1456C125.326 53.5996 124.929 54.9874 124.533 56.4414C123.74 59.2832 123.079 62.2571 122.419 65.165C122.287 65.892 122.089 66.5529 121.956 67.2798C120.569 67.0155 119.182 66.8172 117.795 66.7511C115.813 66.685 113.765 67.0155 111.783 67.1476C110.264 67.2137 108.81 68.4033 108.876 70.0555C108.943 72.0382 108.876 73.9547 109.339 75.8713C109.867 77.9861 110.99 80.0348 111.981 81.9514C112.708 83.4714 113.369 85.0575 114.029 86.5776C115.02 88.9567 116.077 91.2698 117.068 93.649C116.672 96.2264 116.341 98.8039 116.011 101.381C114.492 101.249 113.038 101.117 111.519 101.051C108.612 100.853 105.706 100.787 102.799 100.787C102.733 100.456 102.667 100.192 102.601 99.9274C102.072 97.1517 101.61 94.442 101.147 91.6663C100.751 89.0889 100.289 86.5115 99.8922 83.934C99.628 82.1496 99.2977 80.2992 99.0334 78.5148C98.7031 76.3339 98.1746 74.2191 97.7122 72.0382C97.514 71.1129 96.7213 70.386 95.8625 70.1877C95.4001 70.0555 95.0037 70.0555 94.5413 70.1877C93.9468 70.3199 93.154 70.8486 92.9558 71.4434C92.6916 72.1043 92.3613 72.699 92.1631 73.3599C91.8989 74.0208 91.8328 74.6817 91.7668 75.4087C91.5686 76.7965 91.6346 78.2504 91.7007 79.6383C91.8989 82.6123 92.4274 85.5201 92.7577 88.428C93.2862 92.6577 93.8146 96.8873 94.4092 101.117C91.0401 101.315 87.671 101.712 84.368 102.24C82.3201 102.571 80.2722 103.033 78.2904 103.628C77.6959 102.769 76.9692 102.042 76.1104 101.381C74.9874 100.522 73.7322 99.7952 72.5431 98.936C72.0146 98.5395 71.1559 98.5395 70.6274 98.6717C69.9007 98.8699 69.4383 99.3326 69.0419 99.9274C69.0419 99.9934 68.9759 99.9934 68.9759 100.06C67.7868 101.58 66.4656 102.967 65.5407 104.62C65.0122 105.479 64.748 106.47 64.4177 107.461C64.0874 108.519 63.8892 109.642 63.7571 110.766C63.4928 112.748 63.3607 114.797 63.2286 116.846C63.1625 119.027 62.9643 121.274 62.8322 123.455C62.5019 129.667 62.568 135.879 62.3698 142.092C62.1716 148.766 62.0395 155.441 61.5771 162.116C61.3789 165.222 61.1807 168.329 60.9825 171.369C60.7843 174.805 60.6522 178.242 60.1898 181.612C59.9916 182.934 59.7274 184.256 59.5292 185.578C59.331 186.767 59.1328 187.891 58.7365 189.08C58.6704 189.278 58.5383 189.411 58.4722 189.543C58.4062 189.609 58.3401 189.609 58.208 189.675C57.8777 189.807 57.5474 189.873 57.2171 189.939C56.7546 189.939 56.3583 190.005 55.8959 189.939C55.7637 189.939 55.5656 189.873 55.4334 189.807C55.1031 189.609 54.7068 189.411 54.3765 189.212C53.5177 188.485 52.791 187.626 52.0643 186.767C51.0734 185.445 50.2146 184.058 49.2237 182.67C47.9686 180.885 46.8456 179.035 45.7225 177.118C44.1371 174.276 42.6837 171.303 41.2304 168.395C39.5789 165.09 37.9274 161.786 36.2759 158.415C35.0868 156.036 33.8977 153.657 32.7086 151.344C32.048 150.088 31.3874 148.833 30.7928 147.577C29.868 145.793 29.0752 144.008 27.8862 142.356C27.2256 141.431 26.4328 140.572 25.4419 139.911C24.5171 139.316 23.5262 138.787 22.6013 138.258C21.7425 137.73 20.3552 137.862 19.6286 138.655C18.2413 140.175 16.7219 141.497 15.7971 143.347C14.8062 145.33 14.4098 147.577 14.0134 149.758C13.6831 151.807 13.2868 153.855 12.9565 155.838C12.6262 157.754 12.2959 159.671 11.9656 161.588C11.7013 163.24 11.371 164.826 11.1068 166.478C10.7104 168.659 10.0498 170.708 9.25707 172.756C8.46434 174.673 7.53949 176.523 6.41646 178.308C5.88798 179.233 5.22737 180.092 4.56676 180.951C3.90616 181.877 3.17949 182.868 2.51889 183.793C1.85828 184.652 1.19767 185.511 0.471007 186.371C-0.123538 187.098 -0.189599 188.089 0.471007 188.75C1.13161 189.411 2.25464 189.411 2.84919 188.75C3.77404 187.758 4.76495 186.899 5.6898 185.908C6.74676 184.851 7.67161 183.727 8.59646 182.67C10.314 180.555 11.7674 178.308 13.0225 175.863C14.2116 173.417 15.1365 170.906 15.7971 168.262C16.1934 166.478 16.5237 164.628 16.854 162.843C17.2504 160.464 17.6468 158.019 18.0431 155.64C18.1752 154.979 18.3074 154.252 18.3734 153.591C18.5716 152.269 18.8359 150.947 19.1001 149.56C19.2983 148.37 19.6286 147.18 20.0249 145.991C20.2231 145.594 20.4213 145.198 20.6856 144.801C21.0159 144.405 21.4122 144.008 21.8086 143.612C22.1389 143.81 22.4692 144.008 22.7995 144.206C23.1298 144.471 23.394 144.801 23.6583 145.066C24.7152 146.652 25.508 148.436 26.3668 150.154C26.631 150.683 26.8952 151.212 27.1595 151.807C28.1504 153.789 29.2074 155.838 30.1983 157.821C31.5856 160.53 32.9068 163.24 34.228 165.949C36.6062 170.708 38.9183 175.532 41.4946 180.224C42.5516 182.141 43.7407 183.925 44.9298 185.71C46.1189 187.494 47.308 189.345 48.6292 190.997C49.7522 192.451 51.1395 193.706 52.791 194.566C54.6407 195.491 56.6886 195.491 58.6704 195.226C59.5292 195.094 60.388 194.764 61.1146 194.367C61.9734 193.905 62.568 193.112 63.0965 192.319C63.6249 191.592 63.8892 190.6 64.1534 189.741C64.4837 188.75 64.6159 187.692 64.814 186.635C65.0122 185.71 65.2104 184.718 65.3425 183.793C65.5407 182.67 65.6728 181.546 65.8049 180.423C66.0031 178.308 66.1352 176.127 66.2674 173.946C66.4656 170.311 66.6637 166.61 66.928 162.975C67.3243 156.234 67.3904 149.493 67.5886 142.752C67.6546 139.118 67.7207 135.417 67.7868 131.782C67.7868 131.517 67.7868 131.319 67.7868 131.055C68.051 131.716 68.3813 132.443 68.7116 133.104C69.7025 135.218 70.8255 137.267 72.0146 139.25C73.1377 141.1 74.3268 142.951 75.5159 144.735C76.8371 146.718 78.1583 148.7 79.4795 150.683C83.2449 156.234 87.3407 161.588 91.4365 166.875C93.5504 169.584 95.5983 172.294 97.7122 174.937C98.571 177.449 99.4959 179.96 100.355 182.405C101.279 184.917 102.27 187.362 103.261 189.807C104.252 192.12 105.507 194.367 106.696 196.614C107.291 197.804 108.81 198.399 110.066 198.068C111.387 197.738 112.378 196.482 112.312 195.16C112.312 194.367 112.312 193.574 112.312 192.715C112.84 193.046 113.369 193.31 113.963 193.508C115.02 193.905 116.077 194.037 117.134 194.367C119.116 194.962 121.362 193.31 121.23 191.195C121.098 189.146 121.098 187.098 121.032 184.983C120.966 182.604 120.701 180.29 120.371 177.977C119.644 173.55 118.521 169.188 117.332 164.826C116.077 160.2 114.822 155.507 113.633 150.815C111.783 143.215 109.933 135.615 108.084 128.081C107.489 125.57 106.961 122.992 106.366 120.481C105.573 116.846 104.715 113.211 103.922 109.576C103.724 108.651 103.592 107.726 103.393 106.801C103.393 106.734 103.393 106.668 103.327 106.602C103.856 106.602 104.384 106.602 104.913 106.602C108.216 106.668 111.519 106.933 114.822 107.263C114.69 108.981 114.558 110.634 114.492 112.352C114.426 114.533 114.426 116.78 114.426 118.961C114.426 122.926 114.293 126.957 114.756 130.857C115.02 132.707 115.35 134.491 115.945 136.276C116.539 138.06 117.464 139.646 118.587 141.1C119.644 142.422 121.098 143.546 122.551 144.471C123.212 144.867 123.938 145.132 124.731 145.396C125.656 145.66 126.515 145.594 127.439 145.462C128.166 145.33 128.893 144.933 129.553 144.537C130.412 143.942 131.139 143.281 131.866 142.488C132.923 141.299 133.847 139.977 134.772 138.721C136.49 142.752 138.207 146.718 140.189 150.617C141.048 152.269 141.841 153.987 142.633 155.706C143.426 157.424 144.417 159.274 145.936 160.464C146.729 161.125 147.588 161.654 148.579 161.786C149.636 161.984 150.693 161.918 151.684 161.588C152.873 161.125 153.666 160.464 154.326 159.407C154.921 158.349 155.053 157.094 155.185 155.904C155.317 154.78 155.317 153.723 155.383 152.6C155.449 151.674 155.581 150.815 155.647 149.89C155.846 147.907 155.978 145.991 156.176 144.008C156.506 140.638 156.704 137.267 156.969 133.897C157.431 127.354 157.761 120.877 158.092 114.335C159.941 114.665 161.725 115.062 163.575 115.392C164.566 115.59 165.49 115.789 166.415 115.921C170.379 116.714 174.343 117.507 178.306 118.168C178.306 118.63 178.306 119.027 178.306 119.489C178.24 123.653 178.306 127.817 178.108 131.98C178.042 133.038 177.976 134.029 177.844 135.086C177.447 137.796 176.853 140.439 175.862 142.951C175.201 144.471 174.409 145.991 173.484 147.379C173.021 147.907 172.559 148.37 172.096 148.833C172.03 148.899 171.898 148.965 171.832 148.965C171.634 149.031 171.436 149.097 171.172 149.097C168.331 149.361 165.424 149.097 162.584 148.899C160.338 148.766 158.356 150.881 158.356 153.128C158.356 155.441 160.272 157.292 162.584 157.358C164.632 157.424 166.679 157.556 168.727 157.292C169.85 157.16 170.907 157.027 172.03 156.895C173.219 156.697 174.409 156.301 175.466 155.706C175.994 155.441 176.456 154.979 176.985 154.582C177.315 154.318 177.646 153.987 177.91 153.657C178.636 152.864 179.297 151.939 179.892 150.947C181.081 149.031 181.939 146.85 182.6 144.669C183.789 141.034 184.318 137.267 184.516 133.5C184.846 134.425 185.243 135.284 185.639 136.21C186.498 138.06 187.489 139.911 189.074 141.299C190.593 142.686 192.773 143.479 194.755 143.81C195.68 143.942 196.671 144.008 197.596 143.942C198.719 143.81 199.71 143.546 200.701 143.083C202.616 142.224 204.268 140.836 205.787 139.448C205.853 139.382 205.919 139.316 205.986 139.25C207.571 137.73 208.694 136.21 209.751 134.69ZM199.578 136.21C198.983 136.606 198.389 136.937 197.794 137.267C197.53 137.333 197.266 137.399 197.001 137.465C196.605 137.465 196.209 137.465 195.746 137.465C195.152 137.333 194.557 137.201 193.963 137.003C193.698 136.871 193.434 136.738 193.17 136.54C192.839 136.21 192.509 135.945 192.245 135.549C191.254 134.161 190.461 132.641 189.801 131.121C188.942 128.874 188.347 126.627 187.687 124.314C187.224 122.529 186.762 120.679 186.366 118.895C188.281 119.027 190.131 119.291 192.047 119.357C194.095 119.423 196.143 119.159 197.992 118.3C199.776 117.507 201.229 115.921 202.088 114.136C202.55 113.145 202.815 112.22 202.881 111.096C202.881 110.568 202.749 110.039 202.616 109.51C202.484 109.048 202.22 108.453 201.956 107.99C201.493 107.131 200.767 106.338 200.04 105.611C199.313 104.884 198.521 104.157 197.794 103.43C196.076 101.778 193.963 100.39 191.981 99.0021C189.933 97.6143 187.951 96.1603 185.903 94.7725C185.11 94.2438 184.252 93.7151 183.459 93.1864C183.459 92.9881 183.459 92.8559 183.393 92.6577C183.063 88.3619 182.864 84.0662 182.666 79.8366C182.336 72.0382 181.939 64.3059 181.609 56.5075C181.477 53.7978 181.543 51.0221 181.477 48.3125C181.411 45.7351 181.411 43.0916 181.345 40.5141C182.138 39.1263 182.996 37.8045 183.921 36.5488C185.507 34.5662 187.158 32.5836 189.14 30.9314C189.603 30.6009 190.065 30.3366 190.593 30.0722C190.792 30.0061 190.99 29.94 191.188 29.94C191.254 29.94 191.386 29.94 191.452 29.94C191.783 30.0061 192.179 30.1383 192.509 30.2044C193.302 30.5348 193.963 30.9974 194.689 31.4601C195.152 31.8566 195.614 32.3192 196.01 32.7818C197.001 34.2358 197.728 35.888 198.455 37.4741C199.181 39.1263 199.974 40.7785 200.701 42.4968C201.89 45.4707 202.881 48.4447 203.806 51.4848C204.796 54.657 205.721 57.8292 206.514 61.0015C208.099 67.1476 209.223 73.426 210.081 79.7044C211.336 89.8159 211.601 100.126 210.412 110.237C210.015 113.013 209.487 115.788 208.826 118.498C208.166 121.406 207.373 124.314 206.25 127.09C205.391 129.006 204.4 130.857 203.145 132.575C202.022 133.897 200.899 135.152 199.578 136.21ZM203.277 132.311C203.343 132.244 203.343 132.178 203.409 132.112C203.409 132.178 203.343 132.244 203.277 132.311ZM177.976 135.747C177.976 135.549 178.042 135.351 178.042 135.086C178.042 135.351 178.042 135.549 177.976 135.747ZM194.953 111.889C194.887 111.955 194.821 111.955 194.689 112.021C194.227 112.154 193.83 112.286 193.368 112.352C191.518 112.484 189.669 112.352 187.819 112.22C186.894 112.154 185.969 112.088 185.044 112.021C184.978 111.757 184.978 111.493 184.912 111.228C184.714 109.841 184.516 108.519 184.252 107.131C184.252 106.867 184.252 106.668 184.186 106.404C184.119 105.016 184.053 103.628 183.921 102.24C184.45 102.571 184.912 102.967 185.441 103.298C187.158 104.554 188.942 105.743 190.659 107.065C191.518 107.792 192.377 108.519 193.17 109.312C193.896 109.973 194.623 110.634 195.284 111.361C195.218 111.427 195.152 111.559 195.152 111.625C195.086 111.691 195.019 111.823 194.953 111.889ZM150.098 155.441C150.032 155.441 150.032 155.441 150.098 155.441ZM151.023 123.256C150.891 125.834 150.759 128.477 150.561 131.055C150.296 135.02 149.966 138.985 149.702 142.951C149.57 144.669 149.438 146.387 149.306 148.106C149.173 149.427 149.107 150.749 148.975 152.071C148.909 152.666 148.909 153.327 148.909 153.921C148.249 152.798 147.72 151.608 147.192 150.485C146.267 148.436 145.144 146.519 144.153 144.537C142.237 140.704 140.586 136.805 138.934 132.839C138.934 132.773 139 132.773 139 132.707C140.189 130.592 141.246 128.411 142.369 126.297C143.03 125.041 143.624 123.785 144.285 122.529C145.936 119.159 147.588 115.789 149.239 112.352C149.702 112.418 150.164 112.55 150.627 112.616C151.023 112.682 151.353 112.748 151.75 112.815C151.419 116.317 151.221 119.82 151.023 123.256ZM114.822 185.71C114.293 185.115 113.831 184.52 113.303 183.925C113.369 184.058 113.501 184.19 113.567 184.256C112.774 183.198 111.915 182.141 111.056 181.084C110.858 179.894 110.726 178.704 110.528 177.515C110.132 174.739 109.735 172.029 109.339 169.254C108.414 162.645 107.489 156.036 106.498 149.427C105.904 145.462 105.375 141.497 104.781 137.531C106.102 143.149 107.357 148.833 108.678 154.45C110.594 162.909 113.303 171.236 114.558 179.894C114.756 181.877 114.822 183.793 114.822 185.71ZM178.57 105.875C178.636 107.726 178.636 109.51 178.636 111.361C175.201 110.832 171.766 110.171 168.397 109.576C167.472 109.444 166.613 109.246 165.689 109.114C163.376 108.717 160.998 108.254 158.62 107.858C158.752 103.76 158.818 99.663 158.95 95.5655C159.016 93.9133 159.016 92.2611 159.083 90.6089C159.479 89.7498 159.809 88.8906 160.206 88.0315C163.31 89.5515 166.415 91.2037 169.454 92.9881C172.427 94.7064 175.333 96.4908 178.24 98.4073C178.372 100.787 178.438 103.364 178.57 105.875ZM97.9104 128.808C99.694 141.431 101.412 154.054 103.063 166.676C103.327 168.593 103.592 170.509 103.856 172.492C103.79 172.36 103.658 172.294 103.592 172.162C103.195 171.699 102.799 171.17 102.403 170.708C102.072 169.782 101.808 168.923 101.478 167.998C100.09 163.901 98.7031 159.869 97.2498 155.772C95.334 150.154 93.3522 144.471 91.4365 138.853C88.2655 129.601 85.2928 120.282 81.5274 111.228C81.5934 111.427 81.7256 111.625 81.7916 111.889C81.3292 110.766 80.9328 109.708 80.4704 108.585C80.7346 108.519 80.9989 108.453 81.3292 108.387C83.3771 107.858 85.4249 107.527 87.4728 107.263C87.2086 107.263 87.0104 107.329 86.7462 107.329C89.3886 106.999 92.0971 106.734 94.7395 106.602C95.8625 114.004 96.8534 121.406 97.9104 128.808ZM135.565 137.862C135.631 137.796 135.631 137.73 135.697 137.664C135.697 137.73 135.631 137.796 135.565 137.862ZM175.73 57.631C175.928 62.2571 176.126 66.9494 176.39 71.5755C176.456 73.6243 176.523 75.7391 176.721 77.7878C177.051 81.687 177.381 85.6523 177.712 89.5515C172.955 86.7097 168.001 84.1323 162.98 81.8192C163.443 80.7618 163.905 79.6383 164.367 78.5809C167.472 71.3773 170.313 64.1076 173.55 56.9701C174.21 55.4501 174.937 53.9961 175.664 52.4761C175.598 54.1944 175.664 55.9127 175.73 57.631ZM127.043 140.109C126.911 140.241 126.713 140.307 126.581 140.373C126.383 140.307 126.118 140.241 125.92 140.175C125.326 139.845 124.731 139.514 124.136 139.118C123.41 138.523 122.815 137.928 122.221 137.267C121.758 136.606 121.362 135.879 121.032 135.086C120.437 133.434 120.041 131.782 119.843 130.064C119.314 125.503 119.512 120.943 119.446 116.383C119.446 113.409 119.578 110.501 119.776 107.527C120.701 107.66 121.692 107.726 122.617 107.858C123.212 109.312 123.806 110.7 124.335 112.154C124.335 112.088 124.335 112.088 124.269 112.021C126.911 118.498 129.487 125.041 132.13 131.517C132.262 131.848 132.394 132.244 132.592 132.575C131.932 133.566 131.271 134.558 130.544 135.483C129.95 136.276 129.421 137.135 128.827 137.928C128.298 138.853 127.704 139.514 127.043 140.109ZM139.661 119.093C138.802 120.943 137.877 122.728 136.952 124.512C136.688 125.107 136.358 125.636 136.093 126.23C135.631 125.107 135.169 123.917 134.706 122.794C132.79 118.168 130.941 113.542 129.025 108.915C133.847 109.708 138.604 110.501 143.426 111.295C142.171 113.938 140.916 116.515 139.661 119.093ZM146.861 104.223C146.663 104.686 146.399 105.148 146.201 105.611C146.003 105.611 145.87 105.545 145.672 105.545C141.841 104.95 137.943 104.355 134.112 103.827C131.535 103.43 129.025 103.033 126.449 102.703C125.061 99.2004 123.608 95.7638 122.155 92.3272C122.089 92.129 121.956 91.8646 121.89 91.6663C122.089 90.4768 122.287 89.2211 122.485 88.0315C123.212 83.4714 124.07 78.9113 125.061 74.4173C127.373 75.1443 129.619 75.9374 131.866 76.6643C136.688 78.2504 141.51 79.9687 146.267 81.8853C146.201 81.8853 146.201 81.8192 146.135 81.8192C146.201 81.8192 146.267 81.8853 146.333 81.8853C146.531 81.9514 146.729 82.0175 146.927 82.0836C146.795 82.0175 146.729 82.0175 146.597 81.9514C148.579 82.7444 150.561 83.6036 152.543 84.4627C152.476 87.0402 152.41 89.6837 152.344 92.2611C150.495 96.2264 148.777 100.258 146.861 104.223ZM82.7825 130.13C84.2359 134.425 85.6231 138.721 87.0765 143.017C88.6619 147.841 90.3134 152.6 91.8989 157.424C91.7007 157.16 91.5025 156.961 91.3043 156.697C89.3225 154.12 87.4068 151.542 85.5571 148.965C83.7074 146.387 81.9898 143.744 80.2722 141.166C78.5546 138.589 76.9031 136.078 75.3837 133.368C74.0625 130.989 73.0056 128.544 71.9486 126.098C71.0898 123.983 70.3631 121.869 70.0328 119.688C69.9668 118.961 69.9668 118.234 70.0328 117.507C70.1649 116.78 70.3631 116.119 70.6274 115.458C71.0237 114.533 71.4862 113.674 72.0807 112.881C72.4771 112.418 72.8734 111.955 73.3359 111.559C74.0625 111.096 74.7892 110.7 75.5819 110.303C76.1765 111.823 76.771 113.343 77.3656 114.863C77.3656 114.797 77.2995 114.731 77.2995 114.731C79.3474 119.754 81.0649 124.975 82.7825 130.13ZM152.146 56.7718C152.344 61.4641 152.41 66.2224 152.476 70.9147C152.476 73.0956 152.476 75.2104 152.476 77.3913C151.089 76.8626 149.768 76.3339 148.381 75.8052C144.153 74.153 139.793 72.633 135.499 71.2451C133.583 70.6503 131.667 70.0555 129.818 69.4607C128.629 69.0642 127.506 68.7338 126.316 68.4033C126.977 65.6937 127.638 62.9841 128.298 60.3406C128.629 58.9527 129.025 57.631 129.421 56.2431C130.676 52.0135 131.866 47.8499 133.121 43.6203C133.649 41.7698 134.178 39.9193 134.772 38.0689C134.97 37.4741 135.103 36.8132 135.301 36.2184C136.556 32.5836 137.745 28.9487 139 25.38C140.586 20.6216 142.171 15.8633 144.021 11.2371C144.549 9.91534 145.21 8.59357 145.804 7.3379C146.069 7.80052 146.333 8.26313 146.597 8.79184C147.324 10.7745 147.72 12.8893 147.984 15.0041C148.249 17.2511 148.513 19.5642 148.843 21.8112C149.239 24.2565 149.636 26.7017 149.966 29.147C151.155 38.2011 151.75 47.5195 152.146 56.7718ZM120.437 101.117C120.437 100.985 120.437 100.919 120.503 100.787C120.503 100.853 120.437 100.985 120.437 101.117ZM119.248 78.9774C118.984 80.4974 118.719 81.9514 118.455 83.4714C118.125 82.7444 117.861 82.0175 117.53 81.2905C116.804 79.5061 115.879 77.7878 115.086 76.0035C114.822 75.2765 114.558 74.5495 114.426 73.7565C114.426 73.426 114.359 73.0295 114.359 72.699C115.681 72.633 117.002 72.5669 118.389 72.633C119.116 72.7651 119.776 72.8312 120.437 73.0295C120.041 75.0121 119.644 76.9948 119.248 78.9774ZM72.0807 126.297C72.0807 126.23 72.0146 126.164 72.0146 126.098C72.0146 126.164 72.0146 126.23 72.0807 126.297ZM75.5819 110.237C75.5159 110.237 75.5159 110.303 75.4498 110.303C75.4498 110.237 75.5159 110.237 75.5819 110.237ZM72.7413 105.479C72.3449 105.677 71.8825 105.875 71.4862 106.074C70.8256 106.404 70.231 106.867 69.6365 107.329C69.9007 106.734 70.2971 106.206 70.6274 105.677C70.8916 105.347 71.2219 104.95 71.4862 104.62C71.8165 104.818 72.0807 105.016 72.411 105.214C72.5431 105.28 72.6753 105.413 72.7413 105.479ZM147.984 14.8719C147.984 14.8059 147.984 14.6737 147.918 14.6076C147.984 14.6737 147.984 14.7398 147.984 14.8719ZM145.936 7.3379C145.936 7.27181 145.87 7.27181 145.87 7.20572C145.87 7.20572 145.936 7.27181 145.936 7.3379ZM146.267 81.7531H146.201C146.333 81.8192 146.399 81.8192 146.531 81.8853C146.399 81.8192 146.333 81.7531 146.267 81.7531Z" fill="#CDDC39"/>
</svg>
