<svg width="274" height="282" viewBox="0 0 274 282" fill="none" xmlns="http://www.w3.org/2000/svg">
<path fill-rule="evenodd" clip-rule="evenodd" d="M0.749224 67.2616C0.749224 30.1712 30.7715 0 67.8578 0C104.864 0 134.966 30.0907 134.966 67.2616C134.966 80.5369 131.113 92.9273 124.451 103.387C112.57 84.5598 91.6187 72.089 67.7775 72.089C44.0166 72.089 23.0652 84.4793 11.1848 103.226C4.60235 92.7663 0.749224 80.4565 0.749224 67.2616ZM12.3086 177.085C5.00371 166.304 0.668945 153.27 0.668945 139.27C0.668945 125.995 4.52207 113.605 11.1848 103.145C23.0652 121.972 44.0166 134.443 67.8578 134.443C91.6187 134.443 112.57 122.052 124.451 103.306C131.033 113.685 134.806 125.995 134.806 139.19C134.806 153.109 130.551 166.062 123.327 176.843C111.286 159.062 90.8963 147.477 67.8578 147.477C44.739 147.477 24.3496 159.223 12.3086 177.085ZM12.3086 177.085C24.3496 194.866 44.7391 206.451 67.7775 206.451C90.8963 206.451 111.286 194.705 123.327 176.843C130.632 187.625 134.966 200.658 134.966 214.658C134.966 251.748 104.944 281.92 67.8578 281.92C30.8517 281.92 0.749224 251.829 0.749224 214.658C0.749224 200.819 5.00371 187.866 12.3086 177.085ZM139.863 67.2616C139.863 30.0907 169.885 0 206.891 0C243.978 0 274 30.0907 274 67.2616C274 80.5369 270.147 92.9273 263.484 103.387C251.604 84.5598 230.652 72.089 206.811 72.089C183.05 72.089 162.099 84.4793 150.218 103.226C143.636 92.7663 139.863 80.4565 139.863 67.2616ZM151.342 177.085C144.037 166.304 139.702 153.27 139.702 139.27C139.702 125.995 143.556 113.605 150.218 103.145C162.099 121.972 183.05 134.443 206.891 134.443C230.652 134.443 251.604 122.052 263.484 103.306C270.067 113.685 273.839 125.995 273.839 139.19C273.839 153.109 269.585 166.062 262.36 176.843C250.319 159.062 229.93 147.477 206.891 147.477C183.773 147.477 163.383 159.223 151.342 177.085ZM151.342 177.085C163.383 194.866 183.773 206.451 206.811 206.451C229.93 206.451 250.319 194.705 262.36 176.843C269.665 187.625 274 200.658 274 214.658C274 251.748 243.978 281.92 206.891 281.92C169.885 281.92 139.783 251.829 139.783 214.658C139.863 200.819 144.118 187.866 151.342 177.085Z" fill="white"/>
</svg>
