<svg width="237" height="15" viewBox="0 0 237 15" fill="none" xmlns="http://www.w3.org/2000/svg">
<path d="M5.18204 7.48958C7.04669 7.48958 8.91134 7.42744 10.8361 7.3653C11.6181 7.3653 12.3399 7.30316 13.1218 7.30316C16.4902 7.17889 19.8586 7.05461 23.227 6.93034C27.2571 6.74392 31.2871 6.61965 35.3172 6.43323C41.0916 6.18468 46.8058 5.93613 52.5802 5.68758C53.9035 5.62544 55.2268 5.5633 56.5501 5.5633C59.9185 5.43903 63.2268 5.31475 66.5952 5.19047C69.9635 5.0662 73.2718 4.94192 76.6402 4.81765C77.9635 4.75551 79.2868 4.69337 80.5499 4.69337C85.9033 4.56909 91.2566 4.44482 96.5498 4.32054C99.8581 4.25841 103.106 4.13413 106.414 4.07199C107.678 4.00985 109.001 4.00985 110.264 3.94772C115.437 3.88558 120.61 3.82344 125.723 3.7613C130.835 3.69916 135.888 3.63703 141.001 3.57489C142.324 3.57489 143.707 3.57489 145.031 3.57489C148.339 3.57489 151.707 3.57489 155.016 3.57489C160.188 3.57489 165.361 3.57489 170.534 3.51275C172.218 3.51275 173.903 3.51275 175.587 3.51275C179.136 3.51275 182.685 3.51275 186.233 3.51275C186.534 3.51275 186.835 3.51275 187.136 3.51275C179.136 3.57489 171.196 3.69916 163.196 3.7613C159.888 3.82344 156.519 3.82344 153.211 3.88558C151.768 3.88558 150.324 3.88558 148.88 3.94772C144.068 4.07199 139.256 4.13413 134.444 4.25841C128.85 4.38268 123.317 4.50696 117.723 4.63123C116.76 4.63123 115.858 4.69337 114.896 4.75551C111.948 4.87978 108.941 5.00406 105.993 5.0662C99.9784 5.31475 93.9634 5.50116 87.9484 5.74971C87.0461 5.81185 86.1439 5.81185 85.3018 5.87399C82.3544 6.0604 79.4071 6.18468 76.5199 6.37109C71.2868 6.68178 65.9937 6.93034 60.7606 7.24102C59.317 7.30316 57.8734 7.42744 56.4298 7.55171C53.0614 7.80027 49.693 7.98668 46.3246 8.23523C42.054 8.54592 37.7833 8.79447 33.4525 9.10516C27.4977 9.54013 21.5428 9.91296 15.588 10.3479C14.1444 10.4722 12.7008 10.5343 11.3173 10.6586C8.73089 10.845 6.20459 11.0936 3.61814 11.3421C3.37754 11.3421 3.13694 11.5285 3.13694 11.715C3.13694 11.9635 3.37754 12.0878 3.61814 12.0878C4.52039 11.9635 5.42264 12.0256 6.38504 12.0256C6.26474 12.2121 6.20459 12.4606 6.20459 12.647C6.20459 13.3927 7.04669 14.1383 8.00909 14.1383C15.2872 13.7655 22.6255 13.3927 29.9037 13.082C36.2796 12.8334 42.5953 12.5849 48.9712 12.3363C56.0088 12.0878 62.9862 11.7771 70.0237 11.5285C72.2493 11.4664 74.4146 11.3421 76.6402 11.28C77.3018 11.28 77.9034 11.2179 78.565 11.2179C89.8732 10.9693 101.181 10.7207 112.49 10.5343C118.505 10.4101 124.58 10.2858 130.595 10.1615C132.76 10.0994 134.986 10.0994 137.151 10.0372C148.7 9.91296 160.249 9.72654 171.858 9.60227C176.79 9.54013 181.782 9.47799 186.715 9.41585C190.925 9.35371 195.196 9.35371 199.406 9.22944C202.895 9.10516 206.384 9.04302 209.872 8.91875C211.617 8.85661 213.361 8.85661 215.105 8.73233C219.075 8.54592 223.045 8.35951 227.015 8.11096C226.774 8.42165 226.714 8.79447 226.835 9.10516C226.955 9.41585 227.196 9.72654 227.617 9.91296C227.977 10.0994 228.519 10.1615 228.88 10.0372C229.722 9.78868 230.624 9.47799 231.466 9.1673H231.406C231.466 9.1673 231.526 9.10516 231.586 9.10516C231.647 9.10516 231.707 9.04302 231.827 9.04302H231.767C232.248 8.91875 232.669 8.73233 233.15 8.60806C233.632 8.42165 234.113 8.29737 234.594 8.11096C235.135 7.92454 235.617 7.73813 236.098 7.48958C236.639 7.24102 237 6.74392 237 6.24682C237 5.99827 236.94 5.74971 236.759 5.50116C236.519 5.19047 236.098 4.87978 235.677 4.81765C235.256 4.75551 234.774 4.69337 234.353 4.69337C234.233 4.69337 234.173 4.69337 234.053 4.69337C233.752 4.69337 233.451 4.75551 233.15 4.75551C232.489 4.81765 231.827 4.87978 231.105 4.94192C230.564 5.00406 230.023 5.00406 229.481 5.0662C227.977 5.12834 226.534 5.25261 225.03 5.31475C224.669 5.31475 224.248 5.37689 223.887 5.37689C224.008 5.25261 224.128 5.12834 224.188 4.94192C224.248 4.81765 224.308 4.69337 224.308 4.50696C224.308 4.38268 224.368 4.32054 224.368 4.19627C224.368 4.07199 224.368 3.94772 224.308 3.82344C224.368 3.82344 224.368 3.82344 224.429 3.7613C224.729 3.63703 224.91 3.45061 225.09 3.20206C225.271 2.95351 225.331 2.70496 225.331 2.45641C225.331 2.20785 225.271 1.9593 225.09 1.71075C224.97 1.58648 224.91 1.52434 224.79 1.40006C224.549 1.21365 224.308 1.08937 223.947 1.02723C223.406 0.84082 222.805 0.84082 222.203 0.84082C221.722 0.84082 221.241 0.84082 220.699 0.902958C219.978 0.902958 219.256 0.902958 218.594 0.902958C217.572 0.902958 216.609 0.902958 215.587 0.902958C212.94 0.902958 210.293 0.902958 207.587 0.965096C205.06 0.965096 202.594 0.965096 200.068 0.965096C197.782 0.965096 195.497 0.965096 193.271 0.965096C184.128 0.965096 175.046 1.02723 166.023 1.08937C159.226 1.15151 152.429 1.21365 145.632 1.27579C142.625 1.27579 139.557 1.33792 136.55 1.40006C129.692 1.4622 122.896 1.58648 116.099 1.71075C114.174 1.77289 112.189 1.77289 110.264 1.83503C109.121 1.83503 108.038 1.89716 106.896 1.9593C100.159 2.14572 93.422 2.39427 86.7454 2.58068C84.7003 2.64282 82.6552 2.70496 80.6101 2.7671C79.4672 2.82923 78.3244 2.89137 77.1816 2.89137C70.4448 3.13992 63.7681 3.38847 57.0915 3.69916C53.6629 3.82344 50.1742 4.00985 46.7457 4.19627C40.851 4.50696 34.9563 4.81765 29.0616 5.0662C23.9488 5.31475 18.8361 5.5633 13.7233 5.81185C12.9414 5.87399 12.0993 5.87399 11.3173 5.93613C9.99404 5.99827 8.67074 6.0604 7.40759 6.0604C6.26474 6.12254 5.06174 6.12254 3.91889 6.12254C3.67829 5.87399 3.43769 5.68758 3.07679 5.68758C2.29485 5.74972 1.57305 5.81185 0.791096 5.87399C0.430196 5.87399 0.129446 6.0604 0.00914656 6.37109C-0.0510034 6.68178 0.189596 7.05461 0.610646 7.11675C0.911396 7.17889 1.2723 7.24102 1.57305 7.30316C1.8738 7.3653 2.23469 7.3653 2.53544 7.42744C3.43769 7.48958 4.27979 7.48958 5.18204 7.48958ZM211.797 5.25261C212.88 5.25261 214.023 5.25261 215.105 5.25261C215.226 5.43903 215.346 5.62544 215.526 5.74971C215.105 5.74971 214.684 5.81185 214.263 5.81185C213.481 5.81185 212.639 5.87399 211.857 5.87399C208.369 5.99827 204.88 6.0604 201.391 6.18468C199.767 6.24682 198.203 6.30896 196.579 6.30896C194.053 6.30896 191.587 6.37109 189.06 6.43323C183.346 6.49537 177.632 6.55751 171.918 6.61965C160.85 6.80606 149.783 6.93034 138.715 7.05461C130.775 7.17889 122.835 7.3653 114.896 7.48958C102.926 7.73813 90.9559 7.98668 79.0462 8.23523C76.6402 8.29737 74.2342 8.42165 71.8282 8.48378C65.0313 8.73233 58.2343 8.98089 51.4374 9.29158C44.7607 9.54013 38.0841 9.78868 31.4676 10.0372C30.8661 10.0372 30.2044 10.0994 29.6029 10.0994C31.4074 9.97509 33.2119 9.85082 35.0164 9.78868C41.272 9.41585 47.5878 9.04302 53.8434 8.6702C56.0088 8.54592 58.2343 8.42165 60.3997 8.29737C61.5426 8.23523 62.6854 8.17309 63.7681 8.11096C70.2643 7.80027 76.8206 7.48958 83.3168 7.17889C84.58 7.11675 85.8431 7.05461 87.1664 6.99247C89.0311 6.93034 90.8356 6.8682 92.7002 6.80606C99.437 6.61965 106.174 6.37109 112.85 6.18468C114.354 6.12254 115.798 6.12254 117.302 6.0604C117.662 6.0604 118.084 6.0604 118.444 6.0604C119.467 6.0604 120.55 5.99827 121.572 5.99827C128.309 5.87399 135.046 5.74972 141.783 5.68758C144.91 5.62544 147.978 5.5633 151.106 5.5633C161.151 5.50116 171.136 5.43903 181.181 5.37689C191.406 5.31475 201.572 5.25261 211.797 5.25261Z" fill="#CDDC39"/>
</svg>
